<?xml version="1.0" encoding="utf-8"?>

<!-- License Agreement at http://iconmonstr.com/license/ -->

<!DOCTYPE svg PUBLIC "-//W3C//DTD SVG 1.1//EN" "http://www.w3.org/Graphics/SVG/1.1/DTD/svg11.dtd">
<svg version="1.1" xmlns="http://www.w3.org/2000/svg" xmlns:xlink="http://www.w3.org/1999/xlink" x="0px" y="0px"
	 width="512px" height="512px" viewBox="0 0 512 512" style="enable-background:new 0 0 512 512;" xml:space="preserve">
<path id="brick-5-icon" d="M220.091,206.906c-0.62,27.72,76.429,27.778,75.489,0v-16.438c-2.246-26.219-73.327-26.362-75.255-0.017
	h-0.234V206.906z M258.062,183.192c13.109,0,23.771,4.393,23.771,9.791s-10.662,9.791-23.771,9.791
	c-13.11,0-23.772-4.393-23.772-9.791S244.952,183.192,258.062,183.192z M374.541,165.163v-16.429
	c-2.264-26.219-73.328-26.362-75.256-0.017h-0.234v16.446C298.431,192.891,375.479,192.949,374.541,165.163z M313.25,151.248
	c0-5.39,10.662-9.79,23.771-9.79c13.11,0,23.772,4.4,23.772,9.79c0,5.398-10.662,9.791-23.772,9.791
	C323.912,161.039,313.25,156.646,313.25,151.248z M453.417,155.431V364.6L264.584,462V253.594L433.92,164.5l-177.971-94.71
	L78.6,163.411l168.817,89.781V462L58.583,364.6V154.341l0.151,0.092l-0.151-0.327L256,50L453.417,155.431z M141.181,148.708h-0.234
	v16.454c-0.62,27.72,76.412,27.778,75.49,0v-16.429C214.189,122.506,143.109,122.372,141.181,148.708z M202.689,151.24
	c0,5.398-10.662,9.799-23.771,9.799c-13.127,0-23.772-4.401-23.772-9.799c0-5.39,10.646-9.791,23.772-9.791
	C192.027,141.449,202.689,145.85,202.689,151.24z M295.58,125.632v-16.421c-2.263-26.228-73.327-26.362-75.255-0.017h-0.234v16.438
	C219.471,153.36,296.536,153.419,295.58,125.632z M258.079,101.928c13.093,0,23.771,4.392,23.771,9.79
	c0,5.398-10.679,9.799-23.771,9.799c-13.127,0-23.772-4.4-23.772-9.799C234.307,106.32,244.952,101.928,258.079,101.928z"/>
</svg>
