<?xml version="1.0" encoding="utf-8"?>
<!-- Generator: Adobe Illustrator 13.0.0, SVG Export Plug-In . SVG Version: 6.00 Build 14948)  -->
<!DOCTYPE svg PUBLIC "-//W3C//DTD SVG 1.1//EN" "http://www.w3.org/Graphics/SVG/1.1/DTD/svg11.dtd">
<svg version="1.1" id="Layer_1" xmlns="http://www.w3.org/2000/svg" xmlns:xlink="http://www.w3.org/1999/xlink" x="0px" y="0px"
	 width="512px" height="512px" viewBox="0 0 512 512" enable-background="new 0 0 512 512" xml:space="preserve">
<g>
	<path fill="#040606" d="M130.9,231.7h-0.2c-1,4.2-2.1,9.5-3.2,13.6l-4.2,14.9h15.5l-4.4-14.9C133.2,241.1,132,235.9,130.9,231.7z"
		/>
	<path fill="#040606" d="M196.2,231.5c-3.5,0-5.8,0.3-7.2,0.6v46c1.3,0.3,3.5,0.3,5.5,0.3c14.4,0.1,23.8-7.8,23.8-24.6
		C218.4,239.2,209.9,231.5,196.2,231.5z"/>
	<path fill="#040606" d="M390.3,156.4H122.7c-30.1,0-54.5,24.4-54.5,54.5v92.5c0,30.1,24.4,54.5,54.5,54.5h267.6
		c30.1,0,54.5-24.4,54.5-54.5V211C444.9,180.8,420.4,156.4,390.3,156.4z M146.6,290.1l-5.4-18H121l-5,18H99.6l21.5-70.3h20.9
		l21.8,70.3H146.6z M223.5,281.8c-7.4,6.1-18.6,9.1-32.4,9.1c-8.2,0-14.1-0.5-18-1v-69c5.8-0.9,13.4-1.5,21.5-1.5
		c13.4,0,22,2.4,28.8,7.5c7.3,5.4,11.9,14.1,11.9,26.5C235.2,266.8,230.3,276,223.5,281.8z M306.1,290.1l-1-26.9
		c-0.3-8.4-0.6-18.7-0.6-28.9h-0.3c-2.2,9-5.1,19-7.8,27.2l-8.5,27.4h-12.4l-7.5-27.2c-2.3-8.2-4.7-18.2-6.4-27.4h-0.2
		c-0.4,9.5-0.7,20.3-1.2,29.1l-1.3,26.7h-14.7l4.5-70.3h21.2l6.9,23.5c2.2,8.1,4.4,16.9,5.9,25.1h0.3c2-8.1,4.4-17.4,6.7-25.2
		l7.5-23.3h20.7l3.9,70.3H306.1z M349.9,290.1h-16v-70.3h16V290.1z M412.3,233.2h-19.2v56.9h-16v-56.9h-18.9v-13.3h54V233.2z"/>
	<path fill="#040606" d="M439.9,92.8H72c-48.1,0-87.1,39-87.1,87.1v150.2c0,48.1,39,87.2,87.1,87.2h368c48.1,0,87.1-39,87.1-87.2
		V179.9C527.1,131.8,488.1,92.8,439.9,92.8z M476,316c0,39.1-31.7,70.7-70.7,70.7H106.6c-39.1,0-70.7-31.7-70.7-70.7V194.1
		c0-39.1,31.7-70.7,70.7-70.7h298.7c39.1,0,70.7,31.7,70.7,70.7V316z"/>
</g>
</svg>
