<?xml version="1.0" encoding="utf-8"?>
<!-- Generator: Adobe Illustrator 13.0.0, SVG Export Plug-In . SVG Version: 6.00 Build 14948)  -->
<!DOCTYPE svg PUBLIC "-//W3C//DTD SVG 1.1//EN" "http://www.w3.org/Graphics/SVG/1.1/DTD/svg11.dtd">
<svg version="1.1" id="Layer_1" xmlns="http://www.w3.org/2000/svg" xmlns:xlink="http://www.w3.org/1999/xlink" x="0px" y="0px"
	 width="512px" height="512px" viewBox="0 0 512 512" enable-background="new 0 0 512 512" xml:space="preserve">
<g>
	<polygon points="241.2,136.6 137,136.6 115.9,44.5 220.1,44.5 	"/>
	<path d="M369.9,272.3V193c0-22-17.8-39.8-39.8-39.8H87.9c-22,0-39.8,17.8-39.8,39.8v79.2h-59.5c0,0,10.6,193.3,81.5,193.3h330.6
		c99.7,0,120.8-193.3,120.8-193.3H369.9z M273.2,197c0-6.7,5.4-12.1,12.1-12.1h41c6.7,0,12.1,5.4,12.1,12.1v33.8
		c0,6.7-5.4,12.1-12.1,12.1h-41c-6.7,0-12.1-5.4-12.1-12.1V197z M176.3,197c0-6.7,5.4-12.1,12.1-12.1h41c6.7,0,12.1,5.4,12.1,12.1
		v33.8c0,6.7-5.4,12.1-12.1,12.1h-41c-6.7,0-12.1-5.4-12.1-12.1V197z M79.4,197c0-6.7,5.4-12.1,12.1-12.1h41
		c6.7,0,12.1,5.4,12.1,12.1v33.8c0,6.7-5.4,12.1-12.1,12.1h-41c-6.7,0-12.1-5.4-12.1-12.1V197z M444.4,357.1
		c-14.7,0-26.6-11.9-26.6-26.6s11.9-26.6,26.6-26.6c14.7,0,26.6,11.9,26.6,26.6S459.1,357.1,444.4,357.1z"/>
</g>
</svg>
