<?xml version="1.0" encoding="utf-8"?>
<!-- Generator: Adobe Illustrator 13.0.0, SVG Export Plug-In . SVG Version: 6.00 Build 14948)  -->
<!DOCTYPE svg PUBLIC "-//W3C//DTD SVG 1.1//EN" "http://www.w3.org/Graphics/SVG/1.1/DTD/svg11.dtd">
<svg version="1.1" id="Layer_1" xmlns="http://www.w3.org/2000/svg" xmlns:xlink="http://www.w3.org/1999/xlink" x="0px" y="0px"
	 width="512px" height="512px" viewBox="0 0 512 512" enable-background="new 0 0 512 512" xml:space="preserve">
<g>
	<path d="M337.7,381.1c0,34.3,27.8,62.2,62.2,62.2c34.3,0,62.1-27.8,62.1-62.2c0-34.3-27.8-62.1-62.1-62.1
		C365.5,318.9,337.7,346.7,337.7,381.1z M374.1,381.1c0-14.2,11.5-25.8,25.8-25.8c14.2,0,25.8,11.5,25.8,25.8
		c0,14.2-11.5,25.8-25.8,25.8C385.6,406.8,374.1,395.3,374.1,381.1z"/>
	<path d="M31.7,381.1c0,34.3,27.8,62.2,62.2,62.2c34.3,0,62.2-27.8,62.2-62.2c0-34.3-27.8-62.1-62.2-62.1
		C59.6,318.9,31.7,346.7,31.7,381.1z M68.1,381.1c0-14.2,11.5-25.8,25.8-25.8c14.2,0,25.8,11.5,25.8,25.8
		c0,14.2-11.6,25.8-25.8,25.8C79.7,406.8,68.1,395.3,68.1,381.1z"/>
	<path d="M-18.5,210c0,51.2,0,175.6,0,175.6h37.3c-0.1-1.5-0.2-3-0.2-4.5c0-41.6,33.8-75.4,75.4-75.4c41.6,0,75.4,33.8,75.4,75.4
		c0,1.5-0.1,3-0.2,4.5h155.7c-0.1-1.5-0.2-3-0.2-4.5c0-41.6,33.7-75.4,75.4-75.4c41.6,0,75.4,33.8,75.4,75.4c0,1.5-0.1,3-0.2,4.5
		h55.5c0,0,0-39.5,0-76.4c-21.5-0.2-28-7.4-33.6-22.9c-5.7-15.8-5.7-33.7,5-33.7h20.9c-10.7-21.8-13.2-31.8-28.5-38.3
		c-16.5-7-81.1-34.7-87.6-36.9c0,0-34.7-47.7-49.9-67.2c-30.4-39.1-32.5-43.4-80.2-43.4H153.6V210H-18.5z M319.4,193.7l5.1-7
		l9.4,6.5l-0.2,0.4H319.4z M219.1,113.2c0-13.9,2.8-19.5,14.8-19.5h44.3c23.1,0,33.3,8.3,41.6,17.6c5,5.6,26.1,34.7,41.9,56.7
		l-21,13.2l-2.5,4.4l-8.5-5.9l8.1-11c2.1-2.9,1.5-7-1.4-9.1c-2.9-2.1-7-1.5-9.1,1.4l-20,27.3c-1.2,1.6-1.4,3.6-1,5.4h-87.2
		C219.1,193.7,219.1,127.1,219.1,113.2z"/>
</g>
</svg>
