<?xml version="1.0" encoding="utf-8"?>
<!-- Generator: Adobe Illustrator 13.0.0, SVG Export Plug-In . SVG Version: 6.00 Build 14948)  -->
<!DOCTYPE svg PUBLIC "-//W3C//DTD SVG 1.1//EN" "http://www.w3.org/Graphics/SVG/1.1/DTD/svg11.dtd">
<svg version="1.1" id="Layer_1" xmlns="http://www.w3.org/2000/svg" xmlns:xlink="http://www.w3.org/1999/xlink" x="0px" y="0px"
	 width="512px" height="512px" viewBox="0 0 512 512" enable-background="new 0 0 512 512" xml:space="preserve">
<g>
	<path d="M422.1,261.8c0,0-16,57.1-47.3,57.1c-51.5,0-243,0-243,0V195.5c0-23.2-18.8-42.1-42.1-42.1H77.4v-18.6h35.3
		c4,0,7.2-3.2,7.2-7.3c0-4-3.2-7.2-7.2-7.2H77.4V109c0-6.3-5.1-11.3-11.3-11.3c-6.2,0-11.3,5.1-11.3,11.3v11.3H17.5
		c-4,0-7.2,3.2-7.2,7.2c0,4,3.2,7.3,7.2,7.3h37.1v18.6H42.3c-23.2,0-42.1,18.8-42.1,42.1v66.3h-25.7c0,0,11.2,150.6,86.1,150.6
		h349.3c105.3,0,127.7-150.6,127.7-150.6H422.1z M96.8,225.6c0,6.5-5.3,11.8-11.8,11.8H45.1c-6.5,0-11.8-5.3-11.8-11.8v-21.8
		c0-6.5,5.3-11.8,11.8-11.8H85c6.5,0,11.8,5.3,11.8,11.8V225.6z M456.1,351.4c-15.5,0-28.1-12.6-28.1-28.1
		c0-15.5,12.6-28.1,28.1-28.1s28.1,12.6,28.1,28.1C484.2,338.8,471.7,351.4,456.1,351.4z"/>
	<path d="M166.8,181.9v123.8H362V181.9H166.8z M216.1,287.7h-19.3v-87.7h19.3V287.7z M254.8,287.7h-19.3v-87.7h19.3V287.7z
		 M293.4,287.7h-19.3v-87.7h19.3V287.7z M332.1,287.7h-19.3v-87.7h19.3V287.7z"/>
</g>
</svg>
