<?xml version="1.0" encoding="utf-8"?>
<!-- Generator: Adobe Illustrator 13.0.0, SVG Export Plug-In . SVG Version: 6.00 Build 14948)  -->
<!DOCTYPE svg PUBLIC "-//W3C//DTD SVG 1.1//EN" "http://www.w3.org/Graphics/SVG/1.1/DTD/svg11.dtd">
<svg version="1.1" id="Layer_1" xmlns="http://www.w3.org/2000/svg" xmlns:xlink="http://www.w3.org/1999/xlink" x="0px" y="0px"
	 width="512px" height="512px" viewBox="0 0 512 512" enable-background="new 0 0 512 512" xml:space="preserve">
<g>
	<path d="M349.2,371.1c0,32.7,26.5,59.2,59.2,59.2c32.7,0,59.2-26.5,59.2-59.2c0-32.7-26.5-59.2-59.2-59.2
		C375.7,311.9,349.2,338.4,349.2,371.1z M383.9,371.1c0-13.6,11-24.6,24.6-24.6c13.6,0,24.6,11,24.6,24.6c0,13.6-11,24.6-24.6,24.6
		C394.9,395.7,383.9,384.7,383.9,371.1z"/>
	<path d="M42.4,333.6c0,53.1,43.1,96.2,96.2,96.2c53.1,0,96.2-43.1,96.2-96.2c0-53.1-43.1-96.2-96.2-96.2
		C85.4,237.4,42.4,280.5,42.4,333.6z M98.6,333.6c0-22,17.9-39.9,39.9-39.9c22,0,39.9,17.8,39.9,39.9c0,22-17.9,39.9-39.9,39.9
		C116.5,373.5,98.6,355.7,98.6,333.6z"/>
	<path d="M60.4,232c0,0,4.4,4.4,13.9,13.9c3.3-3,16.6-11.2,28-16.3c11.4-4,23.5-6.2,36.2-6.2c60.9,0,110.2,49.4,110.2,110.2
		c0,14.9-3,29-8.3,42h96.4c-0.1-1.5-0.2-3-0.2-4.5c0-39.7,32.2-71.8,71.8-71.8c18.8,0,35.9,7.3,48.7,19.1c-2.3-11-5.2-23.8-7.6-34.4
		c-3.8-0.9-8.3-2-12.1-3.2c-8-2.7-15.5-9.6-19.3-18.2c-3.7-8.6-3.2-13.4,3.7-13.4h19.6c-4.6-16.4-10.8-22.2-37.4-26.8
		c-11.8-2.1-36.8-6.2-61.1-10.2l-10-105.9h28.1V79.7h-74.4c-0.6,0-1.1-0.1-1.7-0.1H168.4c-28.1,0-45,13.9-50.8,50.8l-11.7,75.8
		C74.8,217.3,60.4,232,60.4,232z M290.9,214H276c0.3-0.3,0.7-0.5,1-0.8l6.6-9l9.2,6.4L290.9,214z M165.9,214c0,0,4.6-60.9,6.6-80.7
		c2-19.9,10.4-26.7,21.6-26.7c11.2,0,112.6,0,112.6,0l7.8,82.7l-15.2,9.5l-2.4,4.3l-8.3-5.8l7.9-10.7c2.1-2.8,1.5-6.8-1.4-8.9
		c-2.8-2.1-6.8-1.5-8.9,1.4l-19.5,26.6c-1.9,2.6-1.5,6.2,0.9,8.3H165.9z"/>
</g>
</svg>
