<?xml version="1.0" encoding="utf-8"?>
<!-- Generator: Adobe Illustrator 13.0.0, SVG Export Plug-In . SVG Version: 6.00 Build 14948)  -->
<!DOCTYPE svg PUBLIC "-//W3C//DTD SVG 1.1//EN" "http://www.w3.org/Graphics/SVG/1.1/DTD/svg11.dtd">
<svg version="1.1" id="Layer_1" xmlns="http://www.w3.org/2000/svg" xmlns:xlink="http://www.w3.org/1999/xlink" x="0px" y="0px"
	 width="512px" height="512px" viewBox="0 0 512 512" enable-background="new 0 0 512 512" xml:space="preserve">
<g>
	<path d="M333.6,351.9c0,28.9,23.4,52.2,52.2,52.2c28.8,0,52.2-23.4,52.2-52.2c0-28.8-23.4-52.2-52.2-52.2
		C357,299.6,333.6,323,333.6,351.9z M364.1,351.9c0-12,9.7-21.7,21.7-21.7c12,0,21.7,9.7,21.7,21.7c0,12-9.7,21.7-21.7,21.7
		C373.8,373.5,364.1,363.8,364.1,351.9z"/>
	<path d="M83.8,351.9c0,28.9,23.4,52.2,52.2,52.2c28.8,0,52.2-23.4,52.2-52.2c0-28.8-23.4-52.2-52.2-52.2
		C107.2,299.6,83.8,323,83.8,351.9z M114.4,351.9c0-12,9.7-21.7,21.7-21.7c12,0,21.7,9.7,21.7,21.7c0,12-9.7,21.7-21.7,21.7
		C124.1,373.5,114.4,363.8,114.4,351.9z"/>
	<path d="M27.3,172.2v180.5h45.5c0-0.3,0-0.5,0-0.8c0-35,28.4-63.3,63.4-63.3c35,0,63.4,28.4,63.4,63.3c0,0.3,0,0.5,0,0.8h123.1
		c0-0.3,0-0.5,0-0.8c0-35,28.4-63.3,63.4-63.3c35,0,63.3,28.4,63.3,63.3c0,0.3,0,0.5,0,0.8h33.6v-16.5h-4.5c-6.9,0-9.3-3-9.3-9.3
		v-26.1c0-9.5,5-9.9,13.9-9.9V172.2c0-36.6-29.7-66.3-66.3-66.3H93.6C57,105.9,27.3,135.6,27.3,172.2z M428.1,232.7l4.5-6.1l7.9,5.5
		l-0.4,0.7H428.1z M378.6,125.8h36.9c27,0,48.9,21.9,48.9,48.9v35.8l-18.3,11.5l-2.1,3.7l-7.2-5l6.8-9.2c1.8-2.4,1.3-5.9-1.2-7.7
		c-2.4-1.8-5.9-1.3-7.6,1.2l-16.8,22.9c-1.1,1.5-1.2,3.2-0.7,4.8h-38.7V125.8z M262.3,125.8h94.3v106.9h-94.3V125.8z M145.9,125.8
		h94.3v106.9h-94.3V125.8z M45.5,174.7c0-27,21.9-48.9,48.9-48.9h29.5v106.9H45.5V174.7z"/>
</g>
</svg>
