<?xml version="1.0" encoding="utf-8"?>
<!-- Generator: Adobe Illustrator 13.0.0, SVG Export Plug-In . SVG Version: 6.00 Build 14948)  -->
<!DOCTYPE svg PUBLIC "-//W3C//DTD SVG 1.1//EN" "http://www.w3.org/Graphics/SVG/1.1/DTD/svg11.dtd">
<svg version="1.1" id="Layer_1" xmlns="http://www.w3.org/2000/svg" xmlns:xlink="http://www.w3.org/1999/xlink" x="0px" y="0px"
	 width="512px" height="512px" viewBox="0 0 512 512" enable-background="new 0 0 512 512" xml:space="preserve">
<path d="M450.4,111.2h-389c-8,0-14.1,5.9-14.1,13.8v259.3c0,8,6.2,15,14.1,15h389c8,0,14.1-7,14.1-15V125
	C464.6,117,458.4,111.2,450.4,111.2z M131.6,283.4c8.9,0,16.1-7.2,16.1-16.2V139.9h14.3v127.3c0,8.9,7.2,16.2,16.1,16.2h5.4v86.1
	h-57.4v-86.1H131.6z M198,283.4h5.4c8.9,0,16.2-7.2,16.2-16.2V139.8h28.7v229.6H198V283.4z M263.7,139.9h28.7v127.3
	c0,8.9,7.2,16.2,16.1,16.2h5.4v86.1h-50.2V139.9L263.7,139.9z M328.3,283.4h5.3c8.9,0,16.2-7.2,16.2-16.2V139.9h14.3v127.3
	c0,8.9,7.2,16.2,16.2,16.2h5.3v86.1h-57.4L328.3,283.4L328.3,283.4z M76,151.5c0-6.4,5.2-11.6,11.6-11.6h2.7v127.3
	c0,8.9,7.2,16.2,16.1,16.2h5.4v86.1H87.6c-6.4,0-11.6-5.2-11.6-11.6L76,151.5L76,151.5z M435.9,357.8c0,6.4-5.2,11.6-11.6,11.6H400
	v-86.1h5.4c8.9,0,16.1-7.2,16.1-16.2V139.9h2.7c6.4,0,11.6,5.2,11.6,11.6V357.8L435.9,357.8z"/>
</svg>
