<?xml version="1.0" encoding="utf-8"?>
<!-- Generator: Adobe Illustrator 13.0.0, SVG Export Plug-In . SVG Version: 6.00 Build 14948)  -->
<!DOCTYPE svg PUBLIC "-//W3C//DTD SVG 1.1//EN" "http://www.w3.org/Graphics/SVG/1.1/DTD/svg11.dtd">
<svg version="1.1" id="Layer_1" xmlns="http://www.w3.org/2000/svg" xmlns:xlink="http://www.w3.org/1999/xlink" x="0px" y="0px"
	 width="512px" height="512px" viewBox="0 0 512 512" enable-background="new 0 0 512 512" xml:space="preserve">
<path d="M455,81.6V37.7c0-8-6.5-14.6-14.6-14.6H51.8c-8,0-14.6,6.5-14.6,14.6v43.7h-6.5c-8.1,0-14.6,6.5-14.6,14.6
	c0,8,6.5,14.6,14.6,14.6h6.5v43.7c0,8,6.5,14.6,14.6,14.6h388.7c8,0,14.6-6.5,14.6-14.6v-43.4c6.3,0.8,11.3,6.1,11.3,12.6v68
	c0,7.1-5.8,13-13,13h-61.3l-102.3-1.6h-21c-23.2,0-42.1,18.9-42.1,42.1v29.1h-12.1c-8.1,0-14.6,6.5-14.6,14.6v184.6
	c0,8,6.5,14.6,14.6,14.6H268c8.1,0,14.6-6.5,14.6-14.6V288.7c0-8-6.5-14.6-14.6-14.6h-12.1V245c0-7.2,5.8-13,13-13l123.1,1.6h61.5
	c23.2,0,42.1-18.9,42.1-42.1v-68C495.5,100.9,477.5,82.5,455,81.6z"/>
</svg>
