<?xml version="1.0" encoding="utf-8"?>
<!-- Generator: Adobe Illustrator 13.0.0, SVG Export Plug-In . SVG Version: 6.00 Build 14948)  -->
<!DOCTYPE svg PUBLIC "-//W3C//DTD SVG 1.1//EN" "http://www.w3.org/Graphics/SVG/1.1/DTD/svg11.dtd">
<svg version="1.1" id="Layer_1" xmlns="http://www.w3.org/2000/svg" xmlns:xlink="http://www.w3.org/1999/xlink" x="0px" y="0px"
	 width="512px" height="512px" viewBox="0 0 512 512" enable-background="new 0 0 512 512" xml:space="preserve">
<path d="M428.1,67.1l-32.4,23.8l-16.1,23.9l1.2,1.2L254.1,242.6l-14.4-14.4c-4.9-4.9-13-4.9-17.9,0c-2.4,2.4-3.6,5.5-3.7,8.6
	c-6,1.1-11.7,4-16.3,8.6l-125,125c-12.2,12.2-12.2,31.9,0,44.1l19.3,19.3c12.2,12.2,31.9,12.2,44.1,0l125-125
	c4.5-4.5,7.3-10,8.5-15.7c3.3,0.1,6.7-1.1,9.3-3.7c4.9-4.9,4.9-13,0-17.9l-13.8-13.8L395.7,131l1.2,1.2l23.8-16.2l23.6-32.6
	L428.1,67.1z M100.7,380c-5.2-5.2-5.2-13.7,0-19l97.7-97.7c5.2-5.2,13.8-5.2,19,0c5.2,5.2,5.2,13.8,0,19L119.6,380
	C114.4,385.2,105.9,385.2,100.7,380z M249.3,314.1l-97.7,97.7c-5.2,5.2-13.7,5.2-19,0c-5.3-5.2-5.3-13.8,0-19l97.7-97.7
	c5.2-5.3,13.8-5.3,19,0C254.6,300.4,254.6,308.9,249.3,314.1z"/>
</svg>
