<?xml version="1.0" encoding="utf-8"?>
<!-- Generator: Adobe Illustrator 13.0.0, SVG Export Plug-In . SVG Version: 6.00 Build 14948)  -->
<!DOCTYPE svg PUBLIC "-//W3C//DTD SVG 1.1//EN" "http://www.w3.org/Graphics/SVG/1.1/DTD/svg11.dtd">
<svg version="1.1" id="Layer_1" xmlns="http://www.w3.org/2000/svg" xmlns:xlink="http://www.w3.org/1999/xlink" x="0px" y="0px"
	 width="512px" height="512px" viewBox="0 0 512 512" enable-background="new 0 0 512 512" xml:space="preserve">
<path id="location-11-icon" d="M256.141,5.52c-112.983,0-204.573,91.591-204.573,204.573c0,114.731,99.47,190.409,204.573,295.628
	c105.104-105.22,204.573-180.896,204.573-295.628C460.714,97.111,369.124,5.52,256.141,5.52z M256.141,353.911
	c-82.892,0-150.089-67.198-150.089-150.089c0-82.893,67.198-150.09,150.089-150.09c82.895,0,150.091,67.198,150.091,150.09
	C406.231,286.713,339.035,353.911,256.141,353.911z M329.615,200.07v75.209h-51.832v-39.765h-39.356v39.765h-51.833V200.07H161.88
	l96.226-96.15l96.225,96.15H329.615L329.615,200.07z"/>
</svg>
