<?xml version="1.0" encoding="utf-8"?>
<!-- Generator: Adobe Illustrator 13.0.0, SVG Export Plug-In . SVG Version: 6.00 Build 14948)  -->
<!DOCTYPE svg PUBLIC "-//W3C//DTD SVG 1.1//EN" "http://www.w3.org/Graphics/SVG/1.1/DTD/svg11.dtd">
<svg version="1.1" id="Layer_1" xmlns="http://www.w3.org/2000/svg" xmlns:xlink="http://www.w3.org/1999/xlink" x="0px" y="0px"
	 width="337px" height="412px" viewBox="87.5 50 337 412" enable-background="new 87.5 50 337 412" xml:space="preserve">
<path id="location-11-icon" d="M256,50c-93.061,0-168.5,75.44-168.5,168.5C87.5,313,169.43,375.333,256,462
	c86.57-86.667,168.5-149,168.5-243.5C424.5,125.44,349.061,50,256,50z M256,336.958c-68.275,0-123.624-55.349-123.624-123.624
	c0-68.276,55.349-123.624,123.624-123.624c68.277,0,123.625,55.348,123.625,123.624C379.625,281.609,324.277,336.958,256,336.958z
	 M316.518,210.244v61.947h-42.693v-32.752h-32.416v32.752h-42.693v-61.947h-20.354l79.256-79.196l79.257,79.196H316.518z"/>
</svg>
