<?xml version="1.0" encoding="utf-8"?>
<!-- Generator: Adobe Illustrator 13.0.0, SVG Export Plug-In . SVG Version: 6.00 Build 14948)  -->
<!DOCTYPE svg PUBLIC "-//W3C//DTD SVG 1.1//EN" "http://www.w3.org/Graphics/SVG/1.1/DTD/svg11.dtd">
<svg version="1.1" id="Layer_1" xmlns="http://www.w3.org/2000/svg" xmlns:xlink="http://www.w3.org/1999/xlink" x="0px" y="0px"
	 width="512px" height="512px" viewBox="0 0 512 512" enable-background="new 0 0 512 512" xml:space="preserve">
<g>
	<path d="M415.7,247.6c-44.1-44.7-116-45.2-160.7-1.1c-44.7,44.1-45.2,116-1.1,160.7c44.1,44.7,116,45.2,160.7,1.1
		C459.3,364.3,459.8,292.3,415.7,247.6z M349.8,324.8c-6.9,6.8-18.1,6.7-24.9-0.2c-6.8-6.9-6.7-18.1,0.2-24.9
		c6.9-6.8,18.1-6.8,24.9,0.2C356.8,306.8,356.8,317.9,349.8,324.8z M367.7,268.5c-6.9,6.8-18.1,6.7-24.9-0.2
		c-6.8-6.9-6.8-18.1,0.2-24.9c6.9-6.8,18.1-6.8,24.9,0.2S374.6,261.6,367.7,268.5z M409.9,311.4c-6.9,6.8-18.1,6.8-24.9-0.2
		c-6.8-6.9-6.8-18.1,0.2-24.9c6.9-6.8,18.1-6.8,24.9,0.2C416.9,293.5,416.8,304.6,409.9,311.4z"/>
	<path d="M158.7,159.9c4.1-16.5,12.1-32.8,12.1-53.7c0-38.2-38.5-41.3-41.3-41.3v0c0,0,0,0-0.1,0c0,0-0.1,0-0.1,0v0
		c-2.8,0-41.3,3.1-41.3,41.3c0,21.1,8.2,37.5,12.3,54.2C110.4,165.2,131.9,171.8,158.7,159.9z"/>
	<path d="M158.2,199.8c-10.8,4.1-20.9,5.6-29.7,5.6c-11.3,0-20.8-2.5-27.8-5.1c-2.3,12.2-7.1,23.4-15.6,36.9
		c-24.6,39.3-27.3,59.5-24.6,91.3c2.7,31.3,20.3,76,40.1,104.1c0,0,11.7,8.2,28.5,8.5v0c0.2,0,0.3,0,0.5,0c0.2,0,0.3,0,0.5,0v0
		c16.8-0.3,28.5-8.5,28.5-8.5c19.7-28.1,37.4-72.8,40.1-104.1c2.7-31.7,0-52-24.6-91.3C165.2,223.6,160.5,212.3,158.2,199.8z"/>
	<path d="M156.7,188.7c-0.3-3.6-0.4-7.4-0.4-11.4c0-1.6,0.1-3.2,0.2-4.8c-10.2,3.7-19.7,5.1-28.1,5.1c-10.4,0-19.3-2.1-26-4.5
		c0.1,1.4,0.2,2.8,0.2,4.2c0,4.2-0.1,8.2-0.4,12C112.6,193.7,132.3,198.8,156.7,188.7z"/>
</g>
</svg>
