<?xml version="1.0" encoding="utf-8"?>
<!-- Generator: Adobe Illustrator 13.0.0, SVG Export Plug-In . SVG Version: 6.00 Build 14948)  -->
<!DOCTYPE svg PUBLIC "-//W3C//DTD SVG 1.1//EN" "http://www.w3.org/Graphics/SVG/1.1/DTD/svg11.dtd">
<svg version="1.1" id="Layer_1" xmlns="http://www.w3.org/2000/svg" xmlns:xlink="http://www.w3.org/1999/xlink" x="0px" y="0px"
	 width="512px" height="512px" viewBox="0 0 512 512" enable-background="new 0 0 512 512" xml:space="preserve">
<g>
	<path fill="#010101" d="M232.6,310.5c-60.2-8.7-115.6-7.9-124.2-7.7C99.4,303,92.1,310,92.1,319c0,7.2,4.8,13.2,11.3,15.4
		c4.7,1.7,43.6,9.3,125,22.4c12.7,2,23.3-10.5,23.3-23.3C251.8,322,243.5,312.4,232.6,310.5"/>
	
		<rect x="144.3" y="195.1" transform="matrix(-0.8194 -0.5732 0.5732 -0.8194 120.9196 554.5074)" fill="#010101" width="7" height="126.1"/>
	<polygon fill="#010101" points="219.3,322.7 176.3,196.5 183.8,193.1 229.2,319.2 	"/>
	<polygon fill="#010101" points="186.3,209 184.8,202.2 330.1,176.9 331.6,186 	"/>
	<polygon fill="#010101" points="239.2,326.4 231.8,318.5 329.2,187.9 340.1,198.2 	"/>
	<path fill="#010101" d="M257.8,376.3c0,2.3-1.9,4.2-4.2,4.2h-15.4c-2.3,0-4.2-1.9-4.2-4.2l0,0c0-2.3,1.9-4.2,4.2-4.2h15.4
		C255.9,372.1,257.8,374,257.8,376.3L257.8,376.3z"/>
	
		<rect x="226.2" y="358.3" transform="matrix(-0.4216 -0.9068 0.9068 -0.4216 13.5632 733.4521)" fill="#010101" width="28.9" height="8.1"/>
	<path fill="#010101" d="M168.4,249c-0.9,1.3-2.7,1.6-4,0.7l0,0c-1.3-0.9-1.6-2.7-0.7-4l8.2-11.7c0.9-1.3,2.7-1.6,4-0.7l0,0
		c1.3,0.9,1.6,2.7,0.7,4L168.4,249z"/>
	<path fill="#010101" d="M156.5,265.1c-0.9,1.3-2.7,1.6-4,0.7l0,0c-1.3-0.9-1.6-2.7-0.7-4l11.8-16.2c0.9-1.3,2.7-1.6,4-0.7l0,0
		c1.3,0.9,1.6,2.7,0.7,4L156.5,265.1z"/>
	<path fill="#010101" d="M209.7,157.9c-0.8-3.7-12.7-5.9-22.6-4.3c-9.9,1.7-12.7,1.9-23.8,1c-11.1-1-19.5-1-23.1,2.2
		c-3.6,3.2-0.7,7.7-0.7,7.7c0.8,0.7,1.4,0.8,3.7,0.8c1,0,2.3-0.1,3.9-0.2c-0.4,0.9-0.6,1.8-0.6,2.8c0,3.9,3.1,7,7,7
		c1.6,0,3-0.5,4.2-1.4l6.6,0.1v3c0,0.5,0.4,1,1,1h5.3l5,14.9c-0.8,0.7-1.1,1.7-0.7,2.8c0.5,1.4,1.9,2.1,3.3,1.6l4.1-1.4
		c1.4-0.5,2.1-1.9,1.6-3.3c-0.3-1-1.3-1.7-2.3-1.7l-5.5-16.2c-0.1-0.3-0.3-0.6-0.5-0.9c1.4-0.3,3.3-1,5.3-2.5
		c2.5-1.9,5.7-4.3,7.2-5.4c0.5,0,1.1,0,1.7,0C200.9,165.5,210.6,161.6,209.7,157.9z M179.7,169.1c-3.1,2.3-6,2.4-6,2.4l-13.9-0.2
		c0.5-1,0.8-2.1,0.8-3.3c0-0.4,0-0.7-0.1-1.1c4.2,1.2,9,2.1,13.2,1.5c4-0.6,5.1-2,10.5-2.6C182.7,166.8,181.1,168,179.7,169.1z"/>
	<path fill="#010101" d="M406.3,318.2c0,5.6-4.5,10.1-10.1,10.1c-5.6,0-10.1-4.5-10.1-10.1c0-5.6,4.5-10.1,10.1-10.1
		C401.8,308.1,406.3,312.6,406.3,318.2z"/>
	<path fill="#010101" d="M471.1,318.2c0,41.4-33.5,74.9-74.9,74.9c-41.4,0-74.9-33.5-74.9-74.9c0-41.4,33.5-74.9,74.9-74.9
		C437.6,243.3,471.1,276.8,471.1,318.2z M396.2,230.4c-48.5,0-87.8,39.3-87.8,87.8c0,48.5,39.3,87.8,87.8,87.8
		c48.5,0,87.8-39.3,87.8-87.8C484,269.7,444.7,230.4,396.2,230.4z"/>
	<path fill="#010101" d="M304,331.3c-0.6-4.3-0.9-8.7-0.9-13.1c0-51.4,41.7-93.2,93.2-93.2v7.2c0,0-79.3,15.2-79.3,75.6l-3.7,26.8
		l-9.8,15.9l-4.6,0.6l4.6-12.8L304,331.3z"/>
	<path fill="#010101" d="M44.3,257c2.8-3.3,5.9-6.4,9.3-9.3c38.9-33.7,97.7-29.4,131.4,9.5l-5.5,4.7c0,0-63.4-50-109-10.5
		l-22.7,14.8l-18.4,3l-3.5-3.1l12.7-4.9L44.3,257z"/>
	<path fill="#010101" d="M189.5,318.2c0,41.4-33.5,74.9-74.9,74.9c-41.4,0-74.9-33.5-74.9-74.9c0-41.4,33.5-74.9,74.9-74.9
		C155.9,243.3,189.5,276.8,189.5,318.2z M114.6,230.4c-48.5,0-87.8,39.3-87.8,87.8c0,48.5,39.3,87.8,87.8,87.8
		c48.5,0,87.8-39.3,87.8-87.8C202.3,269.7,163,230.4,114.6,230.4z"/>
	<path fill="#010101" d="M326.1,106.1c-3.5-0.9-7.4,3.5-7.4,3.5l-19.8,5.5c-2.5,0.7-3.9,3.2-3.2,5.7c0.6,2.1,2.4,3.4,4.5,3.4
		c0.4,0,0.8-0.1,1.2-0.2l16.4-4.3c4.3,0.9,10.6-0.6,10.6-0.6l1.5,2.6c0,0-14,18.2-15.8,21.8c-1.7,3.7,0.9,8.2,0.9,8.2l5.9,15.4
		c-0.6,0.3-1,1-0.7,1.7l0.6,4.8c0.2,0.6,0.8,0.9,1.4,0.8c-0.6,0.3-0.8,1-0.6,1.6l15.3,39.4c0.2,0.4,0.5,0.7,0.9,0.8
		c-0.2,0.3-0.3,0.8-0.1,1.2l2,5c0.3,0.7,1,1,1.7,0.7l3.6-1.4l1.9,4.8l27.5,65.3c4.4,11.5,11.6,21.8,19.7,29c0.7,0.6,1.5,0.9,2.3,0.9
		c1,0,1.9-0.4,2.6-1.2c1.3-1.4,1.2-3.6-0.3-4.9c-7.2-6.4-12.6-14.7-16.7-25.1l-26.6-66.8c0-0.2,0-0.3-0.1-0.5l-2-5
		c-0.3-0.7-1-1-1.7-0.7l-1.7,0.7l-1.9-4.9c-0.2-0.4-0.5-0.7-1-0.8c0.1-0.3,0.2-0.7,0-1L331.7,172c-0.2-0.6-0.9-0.9-1.5-0.8
		c0.5-0.3,0.7-1,0.5-1.5l-2.8-3.9c-0.3-0.7-1-1-1.7-0.8l-4.2-10.9c-1.7-5.4,2.2-10.4,2.2-10.4s5-6.9,6.7-9.3
		c2.7-3.9,8.4-11.2,8.4-11.2c1.5-1.5-1.1-5-1.1-5s3.3-2.1,2.4-3.9C339.7,112.5,335.2,108.4,326.1,106.1z"/>
	<path fill="#010101" d="M367.5,217.2l7.2,1.2c0.7,0,1.3-0.6,1.3-1.3v-7.2c0,0,2.1-0.9,2.1-2.4c0-1.5,0-8.3,0-8.3s-0.1-1.9-3.2-2.7
		c-3.1-0.9-9.5-1.1-10.5,2.7c-1,3.9,1.5,8.2,3,11.5c0,0-4.2,1.9-4.5,3.6C362.7,215.7,364.3,216.7,367.5,217.2z"/>
	<path fill="#010101" d="M142,216.1H62.8c-2,0-4.9-0.4-7.8-2.1c-0.1,0-0.1-0.1-0.2-0.1l-6-4.6c-0.8-0.6-0.9-1.7-0.3-2.4
		c0.6-0.8,1.7-0.9,2.4-0.3l5.9,4.5c2.3,1.3,4.7,1.5,5.9,1.5h79.1c0.4-0.1,2.3-0.3,3.9-1.3l4.7-4.2c0.7-0.6,1.8-0.6,2.5,0.1
		c0.6,0.7,0.6,1.8-0.1,2.5l-4.8,4.4c-0.1,0.1-0.2,0.1-0.2,0.2c-2.4,1.5-5.4,1.9-5.6,1.9C142.1,216.1,142,216.1,142,216.1z"/>
	<path fill="#010101" d="M110.4,308.6c-0.6,0-1.2-0.3-1.5-0.9l-48.5-92.2c-0.4-0.8-0.1-1.9,0.7-2.3c0.9-0.4,1.9-0.1,2.3,0.7
		l48.5,92.2c0.4,0.8,0.1,1.9-0.7,2.3C110.9,308.6,110.7,308.6,110.4,308.6z"/>
	<path fill="#010101" d="M101,291.9H67.1c-7.8,0-10.4-3.7-11.2-5.9c-1.5-4-0.2-7.9,1.4-11.4l32.1-60.3c0.5-0.8,1.5-1.2,2.4-0.7
		c0.8,0.5,1.2,1.5,0.7,2.4l-32,60.2c-1.2,2.6-2.4,5.7-1.3,8.6c1.2,3.1,5,3.7,8,3.7H101c1,0,1.7,0.8,1.7,1.7
		C102.8,291.1,102,291.9,101,291.9z"/>
	<path fill="#010101" d="M102.4,293.1c-0.1,0-0.2,0-0.4,0c-0.9-0.2-1.5-1.1-1.3-2.1l16.7-76.2c0.2-0.9,1.1-1.5,2.1-1.3
		c0.9,0.2,1.5,1.1,1.3,2.1l-16.7,76.2C103.9,292.5,103.2,293.1,102.4,293.1z"/>
	<path fill="#010101" d="M169.7,225.3c-0.1,0-0.2,0-0.3,0l-50.6-8.5c-0.9-0.2-1.6-1.1-1.4-2c0.2-0.9,1.1-1.6,2-1.4l50.6,8.5
		c0.9,0.2,1.6,1.1,1.4,2C171.3,224.7,170.5,225.3,169.7,225.3z"/>
	<path fill="#010101" d="M62.4,234.7h-4c-1.7,0-3.1-1.4-3.1-3.1v-9.5c0-1.7,1.4-3.1,3.1-3.1h4c1.7,0,3.1,1.4,3.1,3.1v9.5
		C65.4,233.3,64.1,234.7,62.4,234.7z"/>
	
		<rect x="360.3" y="213.6" transform="matrix(-0.9773 -0.2117 0.2117 -0.9773 668.0186 523.3983)" fill="#010101" width="3.5" height="24.6"/>
</g>
</svg>
