<?xml version="1.0" encoding="utf-8"?>
<!-- Generator: Adobe Illustrator 13.0.0, SVG Export Plug-In . SVG Version: 6.00 Build 14948)  -->
<!DOCTYPE svg PUBLIC "-//W3C//DTD SVG 1.1//EN" "http://www.w3.org/Graphics/SVG/1.1/DTD/svg11.dtd">
<svg version="1.1" id="Layer_1" xmlns="http://www.w3.org/2000/svg" xmlns:xlink="http://www.w3.org/1999/xlink" x="0px" y="0px"
	 width="512px" height="512px" viewBox="0 0 512 512" enable-background="new 0 0 512 512" xml:space="preserve">
<g>
	<path d="M212,393.9c0.8,21.1,18.5,37.5,39.5,36.7c21.1-0.8,37.5-18.5,36.7-39.5s-18.5-37.5-39.5-36.7
		C227.7,355.1,211.2,372.8,212,393.9z M226.3,393.4c-0.2-6.6,2.2-12.6,6.4-17.1c4.2-4.5,10-7.3,16.6-7.6c6.6-0.2,12.6,2.2,17.1,6.4
		c4.5,4.2,7.3,10,7.6,16.6c0.2,6.6-2.2,12.6-6.4,17.1c-4.2,4.5-10,7.3-16.6,7.6c-6.6,0.2-12.6-2.2-17.1-6.4
		C229.4,405.8,226.5,399.9,226.3,393.4z M231.7,393.2c0.4,10.2,8.9,18.1,19.1,17.8c10.2-0.4,18.1-8.9,17.8-19.1
		c-0.4-10.2-8.9-18.1-19.1-17.8C239.3,374.4,231.3,383,231.7,393.2z M147.3,390.5c0.2,5.9,5.2,10.6,11.1,10.3l15.6-0.6
		c4.1,39.8,38.3,70.1,78.9,68.6c42.2-1.5,75.2-37,73.7-79.2c0-1-0.1-1.9-0.2-2.9c0.4,0,0.7-0.1,1.1-0.2c5.8-1.3,9.5-7,8.2-12.8
		c-3.7-17.3-12.5-32.6-24.7-44.4c0.1-0.4,0.2-0.8,0.3-1.2l25.2-180.9c2.6-0.4,5.4-1.3,8.3-2.8c4.4-2.3,8.7-6.3,11.6-11.7
		c2-3.6,3.4-7.8,4.2-12.5c1.5-8.1,2.4-16.9,2.1-25.7c-0.2-5.3-0.8-10.6-2.1-15.9c-1.2-5.2-3.4-9.8-6.2-13.6
		c-2.8-3.8-6.1-6.8-9.4-9.3c-6.7-5-13.6-8.2-19.3-11.5c-5.1-3-11.7-1.2-14.7,3.9c-3,5.1-1.2,11.7,3.9,14.7c5.1,2.9,9.8,5.3,13.7,7.7
		c3.9,2.4,6.7,4.7,8.5,7.2c0.9,1.2,1.6,2.5,2.1,4c-1.1-0.7-2.4-1.2-3.8-1.4c-5.7-1-11.2,2.7-12.4,8.3l-43.8,202.6l-32.7,13.3
		c-0.2,0.1-0.5,0.2-0.7,0.3c-20.5,1-39.2,9-53.5,21.7c-14.6,12.9-24.9,30.5-28.4,50.4c-0.1,0.7-0.2,1.4-0.2,2.2l-6.1,0.2
		C151.7,379.6,147,384.6,147.3,390.5z M195.1,394.5c-0.6-15.2,5.1-29.1,14.7-39.5c9.6-10.3,23.1-17,38.3-17.5
		c15.2-0.5,29.1,5.1,39.5,14.7c10.3,9.6,17,23.1,17.5,38.3c0.5,15.2-5.1,29.1-14.7,39.5c-9.6,10.3-23.1,17-38.3,17.5
		c-15.2,0.5-29.1-5.1-39.5-14.7C202.3,423.2,195.7,409.7,195.1,394.5z"/>
</g>
</svg>
