<?xml version="1.0" encoding="utf-8"?>
<!-- Generator: Adobe Illustrator 13.0.0, SVG Export Plug-In . SVG Version: 6.00 Build 14948)  -->
<!DOCTYPE svg PUBLIC "-//W3C//DTD SVG 1.1//EN" "http://www.w3.org/Graphics/SVG/1.1/DTD/svg11.dtd">
<svg version="1.1" id="Layer_1" xmlns="http://www.w3.org/2000/svg" xmlns:xlink="http://www.w3.org/1999/xlink" x="0px" y="0px"
	 width="512px" height="512px" viewBox="0 0 512 512" enable-background="new 0 0 512 512" xml:space="preserve">
<path d="M132.8,329.4c9.3,0,16.8,7.5,16.8,16.8c0,9.3-7.5,16.8-16.8,16.8s-16.8-7.5-16.8-16.8C116,336.9,123.5,329.4,132.8,329.4
	L132.8,329.4z M132.8,316c-16.6,0-30.1,13.5-30.1,30.1c0,16.6,13.5,30.1,30.1,30.1s30.1-13.5,30.1-30.1
	C162.9,329.5,149.4,316,132.8,316L132.8,316z M413.2,329.4c9.3,0,16.8,7.5,16.8,16.8c0,9.3-7.5,16.8-16.8,16.8s-16.8-7.5-16.8-16.8
	C396.5,336.9,404,329.4,413.2,329.4L413.2,329.4z M413.2,316c-16.6,0-30.1,13.5-30.1,30.1c0,16.6,13.5,30.1,30.1,30.1
	c16.6,0,30.1-13.5,30.1-30.1C443.4,329.5,429.9,316,413.2,316L413.2,316z M153,320c9.3,6.4,15.3,17.1,15.3,29.2H344
	c-3.8-23.4-5.9-49.8-5.9-77.8c0-22.5,1.4-43.9,3.9-63.6c0.4-2.8,2-4.2,5-4.2h72.9c6.9,0,12.6-5.7,12.6-12.6v-15.5
	c0-42.6-87.5-44-142.6-36.1c-28.7,4.1-49.4,14.4-79.5,14.4h-164c-8,0-14.5,6.5-14.5,14.5v148.6h-3.4c-1.1,0-1.9,0.9-1.9,1.9v19.5
	c0,1.1,0.9,1.9,1.9,1.9h3.4l8.7,8.9h57c0-12.3,6.2-23.1,15.7-29.4C125.5,311.4,140.8,311.5,153,320L153,320z M472.2,278.7
	c0.6,1.9,1,4,1.3,5.6c0.5,2.3,0.7,4.8,1,7.2c0.2,1.7,0.3,3.4,0.5,5.2c0.1,0.6,0.1,0.8-1.1,0.8h-5.2c-1.6,0-1.4,0.2-2.7-0.9
	c-1-0.9-2.3-2.2-3.2-3.1c-1.2-1.2-1-0.8-1.2-2.4l-1.7-13.3c-0.1-0.9,0.5-1.7,1.4-1.6l8.7,1C471.5,277.2,471.8,277.4,472.2,278.7
	L472.2,278.7z M405.4,225.8l26.7,26.4c4.8,4.5,2.8,8.6-3.6,8.6h-71.1c-2.7,0-5.2-2.1-5.3-4.8c-0.2-11.7,0.3-23.3,1.6-35
	c0.1-1.3,0.8-2.4,2.2-2.4l37.3,0.5C399,219.1,401.5,221.9,405.4,225.8L405.4,225.8z M483.1,333c0.5-6.6,0.8-18.7-1.6-20.4l-1.4-1.4
	c-1.1-1-1.7-2.5-1.8-4.5c-0.8-8.3-1.4-18.1-2.4-22.8c-1.6-8.2-3.1-9.9-7.5-13.5l-16-10c-1.8-1.2-3.4-2.4-4.9-3.8l-41.2-37.7
	c-5.7-5.4-9.3-9.9-23.8-10.1c-11.7-0.1-23.9-0.3-36.3-0.4c-2.4,19.5-3.8,40.8-3.8,63.1c0,28,2.1,54.4,5.9,77.8h29.6
	c0-19.6,15.9-35.4,35.4-35.4c19.6,0,35.4,15.9,35.4,35.4l11.3-0.4c6.2-0.5,14.6-3,19.6-6.8C482.6,339.7,482.7,337.8,483.1,333
	L483.1,333z M330.4,155.1h52c2.6,0,4.8,2.2,4.8,4.8v24.8c0,2.7-2.2,4.8-4.8,4.8h-52c-2.7,0-4.8-2.2-4.8-4.8v-24.8
	C325.5,157.3,327.7,155.1,330.4,155.1L330.4,155.1z M189.1,204.3h50.6c3.1,0,5.7,2.5,5.7,5.7v121.6c0,3.1-2.5,5.7-5.7,5.7h-50.6
	c-3.1,0-5.7-2.5-5.7-5.7V210C183.5,206.9,186,204.3,189.1,204.3L189.1,204.3z M239.7,207.9h-50.6c-1.1,0-2.1,0.9-2.1,2.1v121.6
	c0,1.1,0.9,2,2.1,2h50.6c1.1,0,2-0.9,2-2V210C241.7,208.9,240.8,207.9,239.7,207.9L239.7,207.9z M70.9,206.1h75.8c3.9,0,7,3.2,7,7
	v36.1c0,3.9-3.2,7-7,7H70.9c-3.9,0-7-3.2-7-7v-36.1C63.9,209.3,67.1,206.1,70.9,206.1L70.9,206.1z M199.7,215.2h29.5
	c2.8,0,5.1,2.3,5.1,5.1v26c0,2.8-2.3,5.1-5.1,5.1h-29.5c-2.8,0-5.1-2.3-5.1-5.1v-26C194.6,217.4,196.9,215.2,199.7,215.2
	L199.7,215.2z M257.4,297.8H326c2.3,0,4.1,1.8,4.1,4.1v31.2c0,2.3-1.8,4.1-4.1,4.1h-68.6c-2.3,0-4.1-1.8-4.1-4.1v-31.2
	C253.3,299.7,255.1,297.8,257.4,297.8L257.4,297.8z M326,300.2h-68.6c-0.9,0-1.7,0.8-1.7,1.7v31.2c0,0.9,0.8,1.7,1.7,1.7H326
	c0.9,0,1.7-0.8,1.7-1.7v-31.2C327.7,301,327,300.2,326,300.2L326,300.2z"/>
</svg>
