<?xml version="1.0" encoding="utf-8"?>
<!-- Generator: Adobe Illustrator 13.0.0, SVG Export Plug-In . SVG Version: 6.00 Build 14948)  -->
<!DOCTYPE svg PUBLIC "-//W3C//DTD SVG 1.1//EN" "http://www.w3.org/Graphics/SVG/1.1/DTD/svg11.dtd">
<svg version="1.1" id="Layer_1" xmlns="http://www.w3.org/2000/svg" xmlns:xlink="http://www.w3.org/1999/xlink" x="0px" y="0px"
	 width="512px" height="512px" viewBox="0 0 512 512" enable-background="new 0 0 512 512" xml:space="preserve">
<path fill-rule="evenodd" clip-rule="evenodd" d="M148.9,312.9c8.5,0,15.3,6.9,15.3,15.3c0,8.5-6.9,15.3-15.3,15.3
	c-8.5,0-15.3-6.9-15.3-15.3C133.6,319.8,140.4,312.9,148.9,312.9L148.9,312.9z M148.9,300.7c-15.2,0-27.5,12.3-27.5,27.5
	c0,15.2,12.3,27.5,27.5,27.5c15.2,0,27.5-12.3,27.5-27.5C176.5,313,164.1,300.7,148.9,300.7L148.9,300.7z M433.7,312.9
	c8.5,0,15.3,6.9,15.3,15.3c0,8.5-6.9,15.3-15.3,15.3c-8.5,0-15.3-6.9-15.3-15.3C418.4,319.8,425.2,312.9,433.7,312.9L433.7,312.9z
	 M433.7,300.7c-15.2,0-27.5,12.3-27.5,27.5c0,15.2,12.3,27.5,27.5,27.5c15.2,0,27.5-12.3,27.5-27.5
	C461.2,313,448.9,300.7,433.7,300.7L433.7,300.7z M497.6,316.2c0.5-6,0.7-17.1-1.5-18.7l-1.3-1.2c-1-0.9-1.5-2.3-1.6-4.1l-1-30.2
	c0-3.7-0.8-7.3-2.4-10.8c3.3,0,6.5,0,9.8,0c0.8,0,1.5-0.7,1.5-1.5v-34.9c0-0.8-0.7-1.5-1.5-1.5H493V246h-3.9l-3.8-51.9
	c-1.4-18.9-13.1-23.5-29.5-23.5h-410c-2.4,0-4.3,2-4.4,4.4c-3.1,39.2-3.9,79.5-3.8,118.8c0,4.1,0,4.6-3,7.4
	c-0.7,0.5-1.1,1.7-1.1,3.3v12.6c0.3,5.6,3.4,7.7,8,8l46.9,5.8h28.2c0-17.9,14.5-32.4,32.4-32.4c17.9,0,32.4,14.5,32.4,32.4h219.8
	c0-17.9,14.5-32.4,32.4-32.4c17.9,0,32.4,14.5,32.4,32.4l10.3-0.4c5.6-0.4,13.3-2.8,17.9-6.2C497,322.4,497.2,320.6,497.6,316.2
	L497.6,316.2z M477.3,196h-15.8c-0.9,0-1.3,0.5-1.2,1.4v48.6c0,0.6,0.4,0.9,1.1,0.8h19c1.7,0,3.2-1.4,3.1-3.1l-3.1-44.7
	C480.3,197.4,479,196,477.3,196L477.3,196z M452.6,196h-52.2c-1.7,0-3.1,1.4-3.1,3.1v35.4c0,1.7,1.5,2.5,3.1,3.1l25.1,8.5
	c1.7,0.6,3.6,0.9,5.6,0.8h22c0.7,0,1-0.3,1-0.9v-48.3C454.2,196.6,453.6,196,452.6,196L452.6,196z M378.5,196h-83.3
	c-1.5,0-2.6,1.2-2.6,2.6v32.5c0,1.5,1.2,2.6,2.6,2.6h83.3c1.4,0,2.6-1.2,2.6-2.6v-32.5C381.2,197.2,380,196,378.5,196L378.5,196z
	 M195.8,204.4h44c2.7,0,4.9,2.2,4.9,4.9v105.7c0,2.7-2.2,4.9-4.9,4.9h-44c-2.7,0-4.9-2.2-4.9-4.9V209.4
	C190.9,206.6,193.1,204.4,195.8,204.4L195.8,204.4z M239.8,207.6h-44c-1,0-1.8,0.8-1.8,1.8v105.7c0,1,0.8,1.8,1.8,1.8h44
	c1,0,1.8-0.8,1.8-1.8V209.4C241.5,208.4,240.7,207.6,239.8,207.6L239.8,207.6z M205,213.9h25.6c2.4,0,4.4,2,4.4,4.4v30.2
	c0,2.4-2,4.4-4.4,4.4H205c-2.4,0-4.4-2-4.4-4.4v-30.2C200.6,215.8,202.5,213.9,205,213.9L205,213.9z M145.3,196H61.9
	c-1.5,0-2.6,1.2-2.6,2.6v32.5c0,1.5,1.2,2.6,2.6,2.6h83.3c1.5,0,2.6-1.2,2.6-2.6v-32.5C147.9,197.2,146.7,196,145.3,196L145.3,196z
	 M35.2,229.9H14.6c-1,0-1.8,0.8-1.8,1.8v62.7c0,1,0.8,1.8,1.8,1.8H34l0.7-52.5L35.2,229.9L35.2,229.9z M87.4,155.4h105.5
	c3.6,0,6.5,2.9,6.5,6.5v4.6H80.9v-4.6C80.9,158.3,83.8,155.4,87.4,155.4L87.4,155.4z"/>
</svg>
