<?xml version="1.0" encoding="utf-8"?>
<!-- Generator: Adobe Illustrator 13.0.0, SVG Export Plug-In . SVG Version: 6.00 Build 14948)  -->
<!DOCTYPE svg PUBLIC "-//W3C//DTD SVG 1.1//EN" "http://www.w3.org/Graphics/SVG/1.1/DTD/svg11.dtd">
<svg version="1.1" id="Layer_1" xmlns="http://www.w3.org/2000/svg" xmlns:xlink="http://www.w3.org/1999/xlink" x="0px" y="0px"
	 width="512px" height="512px" viewBox="0 0 512 512" enable-background="new 0 0 512 512" xml:space="preserve">
<g>
	<path fill="#231F20" d="M417.3,248.8c-7.8,0.3-15.2,2-22,5L378.1,229c1.7-1.2,3.5-2.5,5.3-3.9c3.5-2.7,7.1-5.7,10.1-8.6
		c1.5-1.5,2.9-3,4-4.6c0.6-0.8,1.1-1.7,1.6-2.7c0.5-1,0.9-2.1,1.1-3.6c0.2-1.4,0.2-2.6,0.1-4.1c-0.1-3.8-0.8-9.2-2.5-15.7
		c-2.5-9.6-7.3-21.5-16.1-32.3c-8.8-10.8-21.8-20.5-39.8-25.2c-2.5-0.7-5.1,0-6.9,1.9c-1.8,1.8-2.5,4.4-1.9,6.9l11.6,44.1
		l-25.3-36.4c-1.5-2.2-3.8-3.6-6.4-4l-17.8-2.7c-5.2-0.8-10.1,2.8-10.9,8c-0.8,5.2,2.8,10.1,8.1,10.9l11.9,1.8l4.8,24.9l-45.2,1.6
		c-10,0.3-18.8,4.2-25.7,9.3c-10.4,7.7-17.4,18.1-22.1,26.6c-1.9,3.5-3.4,6.6-4.5,9.2l-44.3,1.6c-11.7-8.3-24.4-12.7-34.5-15.2
		c-6-1.5-11.2-2.3-14.6-2.7c-1.7-0.4-3.5-0.6-5.4-0.5l-65.1,2.4c-10.5,0.4-18.8,9-18.4,19.2l0.1,3.6c0.4,10.2,9.2,18.2,19.7,17.8
		l12.1-0.4c-12.8,11.1-22.3,25.9-26.8,42.7c-1.4,5.1,1.7,10.4,6.8,11.7c5.1,1.4,10.4-1.7,11.7-6.8l0,0c3.6-13.7,11.6-25.7,22.4-34.5
		c10.8-8.7,24.3-14.2,39.3-14.7c18.3-0.7,35.1,6.1,47.5,17.7c12.4,11.6,20.4,27.8,21.1,46.1v0l-5.2-0.6
		c-1.6-33.4-29.8-59.3-63.3-58.1C81.1,261,54.7,289.3,56,323.1c1.2,33.8,29.6,60.1,63.3,58.9c23.4-0.9,43.2-14.7,52.8-34.3
		l31.6,10.3c1.1,0.4,2.2,0.4,3.3,0.5c2.8,0.1,8.6-0.6,11.2-0.9l98.2-14.7c15.9-2.4,26.8-17.4,24.3-33.6l-0.9-5.7
		c-1.9-12.7-11.5-22.3-23.2-24.7c1.8-5,4-10.7,6.1-16c1.1-2.9,2.2-5.7,3.2-8.1l35.4-16l17.6,25.4c-13.3,11.7-21.4,29-20.7,48.1
		c1.2,33.8,29.6,60.1,63.4,58.9c33.7-1.2,60.1-29.6,58.9-63.3C479.4,273.9,451.1,247.5,417.3,248.8z M151.3,352.7
		c-8.2,8.8-19.6,14.4-32.5,14.9c-12.9,0.5-24.8-4.3-33.5-12.5c-8.8-8.2-14.4-19.6-14.9-32.6c-0.5-12.9,4.3-24.8,12.5-33.5
		c8.2-8.8,19.6-14.4,32.5-14.9c12.9-0.5,24.8,4.3,33.5,12.5c8.1,7.5,13.5,17.8,14.7,29.5l-16.3-1.9c-3.1-14.3-16.1-24.8-31.3-24.3
		c-17.1,0.6-30.4,15-29.8,32c0.6,17.1,15,30.4,32,29.8c10.3-0.4,19.2-5.7,24.6-13.7l15.5,5C156.3,346.6,154,349.8,151.3,352.7z
		 M131.7,312.4c-3-5.2-8.7-8.6-15.2-8.4c-9.3,0.3-16.6,8.2-16.2,17.5c0.3,9.3,8.2,16.6,17.5,16.2c4.1-0.2,7.8-1.8,10.7-4.3l4.7,1.5
		c-0.1,0.1-0.2,0.3-0.4,0.4c-3.7,4-8.9,6.6-14.9,6.8c-5.9,0.2-11.3-2-15.3-5.7c-4-3.7-6.6-9-6.8-14.9c-0.2-5.9,2-11.3,5.7-15.3
		c3.7-4,8.9-6.6,14.9-6.8c5.9-0.2,11.3,2,15.3,5.7c2.3,2.2,4.1,4.8,5.3,7.8L131.7,312.4z M295.8,280.1l-21.8,3.3l26.2-15.2
		C298.5,272.8,296.9,277.1,295.8,280.1z M453.8,341.7c-8.2,8.8-19.6,14.4-32.5,14.9c-12.9,0.5-24.8-4.3-33.5-12.5
		c-8.8-8.2-14.4-19.6-14.9-32.5c-0.5-12.9,4.3-24.8,12.5-33.5c0.7-0.7,1.4-1.4,2.1-2.1l9.2,13.2c-5.2,5.8-8.2,13.4-7.9,21.8
		c0.6,17.1,15,30.4,32.1,29.8c17.1-0.6,30.4-15,29.8-32c-0.6-17.1-15-30.4-32.1-29.8c-1.7,0.1-3.5,0.3-5.1,0.6l-9.5-13.7
		c4.4-1.6,9.1-2.5,14.1-2.7c12.9-0.5,24.8,4.3,33.5,12.5s14.4,19.6,14.9,32.5C466.8,321.1,462,332.9,453.8,341.7z M402.3,297.4
		l2.8,4c-1.6,2.7-2.4,5.8-2.3,9.2c0.3,9.3,8.2,16.6,17.5,16.2c9.3-0.3,16.6-8.2,16.2-17.5c-0.3-8-6.1-14.4-13.6-15.9l-3.3-4.8
		c5.6,0,10.7,2.1,14.6,5.7c4,3.7,6.6,9,6.8,14.9c0.2,5.9-2,11.3-5.7,15.3c-3.7,4-9,6.6-14.8,6.8c-5.9,0.2-11.3-2-15.3-5.7
		c-4-3.7-6.6-8.9-6.8-14.9C398.1,305.7,399.6,301.1,402.3,297.4z"/>
</g>
</svg>
