<?xml version="1.0" encoding="utf-8"?>
<!-- Generator: Adobe Illustrator 13.0.0, SVG Export Plug-In . SVG Version: 6.00 Build 14948)  -->
<!DOCTYPE svg PUBLIC "-//W3C//DTD SVG 1.1//EN" "http://www.w3.org/Graphics/SVG/1.1/DTD/svg11.dtd">
<svg version="1.1" id="Layer_1" xmlns="http://www.w3.org/2000/svg" xmlns:xlink="http://www.w3.org/1999/xlink" x="0px" y="0px"
	 width="512px" height="512px" viewBox="0 0 512 512" enable-background="new 0 0 512 512" xml:space="preserve">
<path d="M202.8,347.8l-46.1,46.1c-5.4,5.8-11,11.5-16.9,16.9l-17.6,17.6c-7.6,7.6-20,7.6-27.6,0l-12.4-12.4c-7.6-7.6-7.6-20,0-27.6
	l17.5-17.5c5.4-5.9,11.2-11.6,17.1-17l46-46c12.7-17.2,18.2-35.9,7.6-59.3c-3.1-6.8-5.4-13.3-7.1-19.5l118.3,118.3
	c-6.2-1.7-12.7-4-19.5-7.1C238.7,329.6,220,335.1,202.8,347.8L202.8,347.8z M160,206.3c-0.4-36,20.2-64.6,45.8-90.1
	c29.7-29.7,71.2-41.3,107.3-41.1c33.1-1,65,10.1,88.6,33.7c23.6,23.6,34.7,55.5,33.7,88.6c0.2,36.1-11.5,77.6-41.1,107.3
	c-25.6,25.6-54.1,46.2-90.1,45.8L160,206.3L160,206.3z M216.6,407.6c0-16.2,13.2-29.4,29.4-29.4c16.2,0,29.4,13.2,29.4,29.4
	c0,16.3-13.2,29.4-29.4,29.4C229.8,437,216.6,423.8,216.6,407.6L216.6,407.6z"/>
</svg>
