<?xml version="1.0" encoding="utf-8"?>
<!-- Generator: Adobe Illustrator 13.0.0, SVG Export Plug-In . SVG Version: 6.00 Build 14948)  -->
<!DOCTYPE svg PUBLIC "-//W3C//DTD SVG 1.1//EN" "http://www.w3.org/Graphics/SVG/1.1/DTD/svg11.dtd">
<svg version="1.1" id="Layer_1" xmlns="http://www.w3.org/2000/svg" xmlns:xlink="http://www.w3.org/1999/xlink" x="0px" y="0px"
	 width="512px" height="512px" viewBox="0 0 512 512" enable-background="new 0 0 512 512" xml:space="preserve">
<path d="M468.5,503.5l-29.3-29.3l48.7-21.3l15.6,15.6L468.5,503.5L468.5,503.5z M369.2,404.2l48.7-21.3l19.6,19.6l-48.7,21.3
	L369.2,404.2L369.2,404.2z M435.4,470.4l-19.6-19.6l48.7-21.3l19.6,19.6L435.4,470.4L435.4,470.4z M395.4,360.4l18.7,18.7
	l-48.7,21.3l-5-5l-19-27.7l26.3-26.3L395.4,360.4L395.4,360.4z M412.1,447.1l-19.6-19.6l48.7-21.3l19.6,19.6L412.1,447.1
	L412.1,447.1z M138.9,269.3l-3.7,3.7c3.6,1.3,7.3,2.6,11,3.7L138.9,269.3L138.9,269.3z M117.7,248.1l-11.4,11.4
	c7.7,4.4,15.7,8.2,24,11.6l5.2-5.2L117.7,248.1L117.7,248.1z M96.5,227l-15.3,15.3c6.6,5.4,13.6,10.3,20.8,14.7l12.2-12.2L96.5,227
	L96.5,227z M75.4,205.8l-15.8,15.8c2.2,2.5,4.5,4.9,6.8,7.2c3.6,3.6,7.3,7.1,11.2,10.3l15.6-15.6L75.4,205.8L75.4,205.8z
	 M54.2,184.6l-12.6,12.6c4.2,7.2,9.2,14.1,14.8,20.8L72,202.4L54.2,184.6L54.2,184.6z M33,163.5l-4.5,4.5
	c2.6,8.5,6.2,16.8,10.6,24.9l11.6-11.6L33,163.5L33,163.5z M27,162.7l2.6-2.6l-4.2-4.2C25.9,158.1,26.4,160.4,27,162.7L27,162.7z
	 M29.6,117.7l-4.9-4.9c-0.7,3.7-1.1,7.5-1.4,11.3L29.6,117.7L29.6,117.7z M50.8,138.9l-17.8-17.8l-10,10c0,2.3,0,4.7,0.1,7
	c0.2,3.1,0.5,6.3,0.9,9.4l9,9L50.8,138.9L50.8,138.9z M72,160l-17.8-17.8L36.5,160l17.8,17.8L72,160L72,160z M93.1,181.2l-17.8-17.8
	l-17.8,17.8L75.4,199L93.1,181.2L93.1,181.2z M114.3,202.4l-17.8-17.8l-17.8,17.8l17.8,17.8L114.3,202.4L114.3,202.4z M135.5,223.6
	l-17.8-17.8L100,223.6l17.8,17.8L135.5,223.6L135.5,223.6z M156.6,244.7L138.9,227l-17.8,17.8l17.8,17.7L156.6,244.7L156.6,244.7z
	 M177.8,265.9l-17.8-17.8l-17.8,17.8l13.4,13.4c2.3,0.6,4.7,1.2,7.1,1.7L177.8,265.9L177.8,265.9z M197.6,285.6l-16.4-16.4
	l-12.8,12.8c3.8,0.7,7.7,1.3,11.6,1.9c4.6,0.6,9,1,13.2,1.2L197.6,285.6L197.6,285.6z M50.8,96.6L35.6,81.3
	c-4.3,8.2-7.6,16.8-9.7,25.8l7.2,7.2L50.8,96.6L50.8,96.6z M72,117.7L54.2,100l-17.8,17.8l17.8,17.8L72,117.7L72,117.7z M93.1,138.9
	l-17.8-17.8l-17.8,17.8l17.8,17.8L93.1,138.9L93.1,138.9z M114.3,160l-17.8-17.8L78.8,160l17.8,17.8L114.3,160L114.3,160z
	 M135.5,181.2l-17.8-17.8L100,181.2l17.8,17.8L135.5,181.2L135.5,181.2z M156.6,202.4l-17.8-17.8l-17.8,17.8l17.8,17.8L156.6,202.4
	L156.6,202.4z M177.8,223.6L160,205.8l-17.8,17.8l17.8,17.8L177.8,223.6L177.8,223.6z M199,244.7L181.2,227l-17.8,17.8l17.8,17.7
	L199,244.7L199,244.7z M220.1,265.9l-17.8-17.8l-17.8,17.8l17.8,17.8L220.1,265.9L220.1,265.9z M237.8,283.5l-14.2-14.2l-17.3,17.3
	l10.6,1.2l1.7,0.2l8,0.9C230.4,287.4,234.1,285.6,237.8,283.5L237.8,283.5z M72,75.4L53.4,56.8c-6,6.2-11.1,13-15.3,20.2l16.2,16.2
	L72,75.4L72,75.4z M93.1,96.6L75.4,78.8L57.6,96.6l17.8,17.8L93.1,96.6L93.1,96.6z M114.3,117.7L96.5,100l-17.8,17.8l17.8,17.8
	L114.3,117.7L114.3,117.7z M135.5,138.9l-17.8-17.8L100,138.9l17.8,17.8L135.5,138.9L135.5,138.9z M156.6,160l-17.8-17.8L121.1,160
	l17.8,17.8L156.6,160L156.6,160z M177.8,181.2l-17.8-17.8l-17.8,17.8l17.8,17.8L177.8,181.2L177.8,181.2z M199,202.4l-17.7-17.8
	l-17.8,17.8l17.8,17.8L199,202.4L199,202.4z M220.1,223.6l-17.8-17.8l-17.8,17.8l17.8,17.8L220.1,223.6L220.1,223.6z M241.3,244.7
	L223.6,227l-17.8,17.8l17.8,17.7L241.3,244.7L241.3,244.7z M93.1,54.2L76.9,38c-7.2,4.3-14,9.4-20.2,15.4L75.4,72L93.1,54.2
	L93.1,54.2z M114.3,75.4L96.5,57.6L78.8,75.4l17.8,17.8L114.3,75.4L114.3,75.4z M135.5,96.6l-17.8-17.8L100,96.6l17.8,17.8
	L135.5,96.6L135.5,96.6z M156.6,117.7L138.9,100l-17.8,17.8l17.8,17.8L156.6,117.7L156.6,117.7z M177.8,138.9l-17.8-17.8l-17.8,17.8
	l17.8,17.8L177.8,138.9L177.8,138.9z M199,160l-17.7-17.8L163.5,160l17.8,17.8L199,160L199,160z M220.1,181.2l-17.8-17.8l-17.8,17.8
	l17.8,17.8L220.1,181.2L220.1,181.2z M241.3,202.4l-17.8-17.8l-17.8,17.8l17.8,17.8L241.3,202.4L241.3,202.4z M262.5,223.6
	l-17.8-17.8L227,223.6l17.8,17.8L262.5,223.6L262.5,223.6z M280.6,241.7L265.9,227l-17.8,17.8l17,17l-3.4,3.4l-17-17L227,265.9
	l15.1,15.1c7.3-4.5,14.2-10.1,20.8-16.7C270,257.2,275.9,249.7,280.6,241.7L280.6,241.7z M114.3,33.1l-7.2-7.2
	c-9,2.1-17.7,5.4-25.8,9.7l15.3,15.3L114.3,33.1L114.3,33.1z M135.5,54.2l-17.8-17.8L100,54.2L117.7,72L135.5,54.2L135.5,54.2z
	 M156.6,75.4l-17.8-17.8l-17.8,17.8l17.8,17.8L156.6,75.4L156.6,75.4z M177.8,96.6l-17.8-17.8l-17.8,17.8l17.8,17.8L177.8,96.6
	L177.8,96.6z M199,117.7L181.2,100l-17.8,17.8l17.8,17.8L199,117.7L199,117.7z M220.1,138.9l-17.8-17.8l-17.8,17.8l17.8,17.8
	L220.1,138.9L220.1,138.9z M241.3,160l-17.8-17.8L205.8,160l17.8,17.8L241.3,160L241.3,160z M262.5,181.2l-17.8-17.8L227,181.2
	l17.8,17.8L262.5,181.2L262.5,181.2z M283.6,202.4l-17.8-17.8l-17.8,17.8l17.8,17.8L283.6,202.4L283.6,202.4z M287.1,205.9
	l-17.8,17.7l13.8,13.8c2.4-4.5,4.4-9.1,6.1-13.9l-0.6-5.4l-0.2-1.7L287.1,205.9L287.1,205.9z M269.3,181.2l17,17l-1.5-13.4
	c0,0-0.6-3.2-0.8-4.8c-0.5-3.9-1.2-7.8-1.9-11.6L269.3,181.2L269.3,181.2z M112.8,24.7l4.9,4.9l6.3-6.3
	C120.3,23.6,116.5,24.1,112.8,24.7L112.8,24.7z M100.4,12.9c11-3,21.8-4.4,33-4.4c1.5,0,3,0,4.5,0c18.7,0.7,36.9,5.4,54.2,13.6
	c1.6,0.7,3.1,1.5,4.7,2.3c14.9,7.7,29,18.1,41.8,30.9c11.1,11.1,20.8,23.3,28.9,36.3L270,96c14.6,24.8,23.9,52.8,27.7,83.8l0.2,2.1
	c0.5,4.1,0.8,8,0.9,11.9l0.9,8.9l0.6,6.4l0.6,6.7l0.2,2c0.8,9.6,2.2,24,5.1,33.8c6.6,21.9,16.7,46,45.4,74.7l10.5,10.5l-8.7,8.7
	L343,335c-30.6-30.6-41.4-56.5-48.5-79.9c-5.4,7.2-11.5,14.8-18.8,22c-6.5,6.4-13.1,12.1-20.2,16.8c23.5,7.1,49.4,17.9,80,48.5
	L346,353l-8.7,8.7l-10.5-10.5c-28.7-28.7-52.9-38.8-74.7-45.4c-9.8-3-24.3-4.3-33.8-5.1l-2-0.2l-6.6-0.6l-6.4-0.6l-2.7-0.3
	c-5.9,0-20.4-1.2-20.7-1.3c-31-3.8-59-13.1-83.8-27.7c-1.5-0.9-2.9-1.8-4.3-2.7c-13-8.1-25.2-17.7-36.3-28.9
	c-12.8-12.8-23.1-26.9-30.8-41.8l-2.3-4.7C14,174.8,9.3,156.6,8.6,138.4c-0.1-2,0-3.5,0-5c0-11.6,1.6-23,4.7-33.9
	c1-3.6,2.2-7.1,3.5-10.5c6.2-16.1,15.8-31,28.5-43.7C58,32.5,72.8,22.9,88.9,16.7c3.4-1.3,7-2.5,10.5-3.5L100.4,12.9L100.4,12.9z
	 M156.6,33.1l-9-9c-3.1-0.4-6.3-0.7-9.4-0.9c-2.3-0.1-4.7-0.2-7-0.1l-10,10l17.8,17.8L156.6,33.1L156.6,33.1z M177.8,54.2
	l-17.8-17.8l-17.8,17.8L160.1,72L177.8,54.2L177.8,54.2z M199,75.4l-17.7-17.8l-17.8,17.8l17.8,17.8L199,75.4L199,75.4z M220.1,96.6
	l-17.8-17.8l-17.8,17.8l17.8,17.8L220.1,96.6L220.1,96.6z M241.3,117.7L223.6,100l-17.8,17.8l17.8,17.8L241.3,117.7L241.3,117.7z
	 M262.5,138.9l-17.8-17.8L227,138.9l17.8,17.8L262.5,138.9L262.5,138.9z M279.3,155.7l-13.4-13.4L248.1,160l17.8,17.8l15-15
	C280.4,160.4,279.9,158,279.3,155.7L279.3,155.7z M269.3,138.9l7.3,7.3c-1.1-3.7-2.4-7.4-3.7-11L269.3,138.9L269.3,138.9z
	 M248.1,117.7l17.8,17.8l5.2-5.2c-3.3-8.3-7.2-16.3-11.6-24L248.1,117.7L248.1,117.7z M227,96.6l17.8,17.8l12.2-12.2
	c-4.4-7.2-9.3-14.2-14.7-20.8L227,96.6L227,96.6z M205.8,75.4l17.8,17.8l15.6-15.6c-3.3-3.8-6.7-7.5-10.3-11.2
	c-2.4-2.4-4.8-4.6-7.2-6.8L205.8,75.4L205.8,75.4z M184.6,54.2L202.4,72l15.6-15.6c-6.6-5.6-13.6-10.5-20.8-14.8L184.6,54.2
	L184.6,54.2z M163.5,33.1l17.8,17.8l11.6-11.6c-8.1-4.4-16.4-8-24.9-10.6L163.5,33.1L163.5,33.1z M155.8,25.4l4.2,4.2l2.6-2.6
	C160.4,26.4,158.1,25.9,155.8,25.4L155.8,25.4z M448.8,136.4c8.9,9.5,14.4,22.2,14.4,36.2c0,14-5.5,26.8-14.4,36.2
	c-7-9.1-11.3-21.9-11.3-36.2C437.5,158.3,441.8,145.5,448.8,136.4L448.8,136.4z M376.7,213.3c8.1-10.2,13.2-24.7,13.2-40.7
	c0-16-5.1-30.5-13.2-40.7c9.1-7.6,20.9-12.2,33.7-12.2c12.8,0,24.6,4.6,33.7,12.2c-8.1,10.2-13.2,24.7-13.2,40.7
	c0,16,5.1,30.5,13.2,40.7c-9.1,7.6-20.9,12.1-33.7,12.1C397.5,225.5,385.8,220.9,376.7,213.3L376.7,213.3z M371.9,208.8
	c-8.9-9.5-14.4-22.2-14.4-36.2c0-14,5.5-26.8,14.4-36.2c7,9,11.3,21.9,11.3,36.2C383.2,186.9,378.9,199.8,371.9,208.8L371.9,208.8z"
	/>
</svg>
