<?xml version="1.0" encoding="utf-8"?>
<!-- Generator: Adobe Illustrator 13.0.0, SVG Export Plug-In . SVG Version: 6.00 Build 14948)  -->
<!DOCTYPE svg PUBLIC "-//W3C//DTD SVG 1.1//EN" "http://www.w3.org/Graphics/SVG/1.1/DTD/svg11.dtd">
<svg version="1.1" id="Layer_1" xmlns="http://www.w3.org/2000/svg" xmlns:xlink="http://www.w3.org/1999/xlink" x="0px" y="0px"
	 width="1648.697px" height="1838.548px" viewBox="0 0 1648.697 1838.548" enable-background="new 0 0 1648.697 1838.548"
	 xml:space="preserve">
<g>
	<path fill-rule="evenodd" clip-rule="evenodd" d="M683.327,291.729h297.682c54.902,0,99.862,45.11,99.862,97.994v217.18h-58.853
		V493.437c0-13.744-11.729-25.52-25.288-25.52l0,0c-15.722,0-27.451,11.776-27.451,25.52v113.466H699.01V493.437
		c0-13.744-11.773-25.52-27.369-25.52l0,0c-13.769,0-25.455,11.776-25.455,25.52v113.466h-64.636v-217.18
		C581.551,336.838,626.595,291.729,683.327,291.729L683.327,291.729z M832.147,0c70.542,0,127.316,56.813,127.316,127.296
		c0,70.455-56.774,127.23-127.316,127.23c-70.416,0-127.274-56.775-127.274-127.23C704.873,56.813,761.731,0,832.147,0z"/>
	<path fill-rule="evenodd" clip-rule="evenodd" d="M90.13,790.989h58.646c49.08,0,86.263,39.227,86.263,86.18v176.105
		l-86.263,282.001H90.13c-47,0-86.18-39.098-86.18-86.014V877.169C3.95,830.215,43.131,790.989,90.13,790.989L90.13,790.989z
		 M119.412,511.152c66.675,0,119.498,54.655,119.498,119.292c0,66.55-52.823,119.456-119.498,119.456
		C52.863,749.9,0,696.994,0,630.444C0,565.808,52.863,511.152,119.412,511.152z"/>
	<path fill-rule="evenodd" clip-rule="evenodd" d="M1497.924,790.989h60.6c47.041,0,86.14,39.227,86.14,86.18v372.093
		c0,46.916-39.099,86.014-86.14,86.014h-44.961l-101.862-330.826v-127.28C1411.701,830.215,1450.84,790.989,1497.924,790.989
		L1497.924,790.989z M1529.118,511.152c64.594,0,119.579,54.655,119.579,119.292c0,66.55-54.985,119.456-119.579,119.456
		c-66.425,0-119.33-52.906-119.33-119.456C1409.788,565.808,1462.693,511.152,1529.118,511.152z"/>
	<path d="M1057.29,1417.544c-19.466,0-37.227,15.725-37.227,35.188v60.727h72.454v-60.727
		C1092.517,1433.269,1076.962,1417.544,1057.29,1417.544z"/>
	<path d="M612.952,1417.544c-19.672,0-35.394,15.725-35.394,35.188v60.727h72.538v-60.727
		C650.096,1433.269,632.461,1417.544,612.952,1417.544z"/>
	<path d="M1477.001,1391.509l-183.548-624.146c-20.38-65.217-57.48-120.656-127.939-120.656H505.477
		c-70.499,0-109.389,55.439-127.939,120.656l-185.421,624.146c-18.551,65.218,57.481,120.62,127.939,120.62h190.953V1312.98
		c0-70.792,59.312-130.182,131.64-130.182h385.732c72.248,0,129.688,59.39,129.688,130.182v199.148h191.035
		C1419.481,1512.129,1495.553,1456.727,1477.001,1391.509z M835.516,1133.047c-92.751,0-166.912-76.609-166.912-170.525
		c0-93.752,74.161-170.448,166.912-170.448c90.84,0,164.998,76.696,164.998,170.448
		C1000.514,1056.438,926.356,1133.047,835.516,1133.047z"/>
	<path d="M489.465,1705.406c0,56.733,37.267,103.738,88.093,123.324v-315.271h-88.093V1705.406z"/>
	<path d="M1092.517,1826.778c48.997-21.504,80.276-68.508,80.276-121.372v-191.947h-80.276V1826.778z"/>
	<rect x="650.096" y="1513.459" width="369.967" height="325.089"/>
</g>
</svg>
