<?xml version="1.0" encoding="utf-8"?>
<!-- Generator: Adobe Illustrator 13.0.0, SVG Export Plug-In . SVG Version: 6.00 Build 14948)  -->
<!DOCTYPE svg PUBLIC "-//W3C//DTD SVG 1.1//EN" "http://www.w3.org/Graphics/SVG/1.1/DTD/svg11.dtd">
<svg version="1.1" id="Layer_1" xmlns="http://www.w3.org/2000/svg" xmlns:xlink="http://www.w3.org/1999/xlink" x="0px" y="0px"
	 width="512px" height="512px" viewBox="0 0 512 512" enable-background="new 0 0 512 512" xml:space="preserve">
<path d="M309.5,314.4c35.6-19.9,116.6-29,114.7-120.2c-1.8-91.2-69.5-150.3-69.5-150.3s-74.3,4.7-99.8,4.7
	c-25.6,0-99.8-4.7-99.8-4.7S87.5,103,85.7,194.2c-1.8,91.2,79.1,100.2,114.7,120.2c34.9,19.5,40.1,51.5,40.4,52.9c0,0.3,0,0.5,0,0.8
	c0,51.7-71.4,81.5-98.5,92.8c-5.8,2.6-4.1,5.2,0,5.2c3.9,0,103.7,0,112.3,0c0.4,0,0.9,0,0.9,0c8.6,0,108.4,0,112.3,0
	c4.1,0,5.9-2.6,0-5.2c-27.1-11.3-98.5-41.1-98.5-92.8c0-0.3,0-0.6,0-0.8C269.5,365.9,274.7,333.9,309.5,314.4z M180.7,273.8
	c-11.9-5.2-25.6-13-37.2-25.5c-11.8-12.3-20.5-29.7-22-48.6c-0.6-8.6,0.1-17.9,0.8-26.3c0.9-8.6,2.6-16.9,4.6-24.8
	c4.1-15.9,10.3-29.9,16.9-41.1c13.2-22.5,26.9-33.3,26.9-33.3s-10.2,13.9-19.2,37c-4.6,11.5-8.9,25.3-11.7,40.3
	c-1.5,7.5-2.4,15.3-3,23.3c-0.6,8.2-1.1,15.8-0.3,24c0.7,7.1,2.5,14.9,5.5,21.7c3.1,6.8,7,13.3,11.6,18.9
	c9.3,11.4,20.9,20,31.3,26.5c10.5,6.4,19.8,11.3,26.6,14.2c6.7,3,10.7,4.5,10.7,4.5S204.8,283.9,180.7,273.8z"/>
</svg>
