<?xml version="1.0" encoding="utf-8"?>
<!-- Generator: Adobe Illustrator 13.0.0, SVG Export Plug-In . SVG Version: 6.00 Build 14948)  -->
<!DOCTYPE svg PUBLIC "-//W3C//DTD SVG 1.1//EN" "http://www.w3.org/Graphics/SVG/1.1/DTD/svg11.dtd">
<svg version="1.1" id="Layer_1" xmlns="http://www.w3.org/2000/svg" xmlns:xlink="http://www.w3.org/1999/xlink" x="0px" y="0px"
	 width="512px" height="512px" viewBox="0 0 512 512" enable-background="new 0 0 512 512" xml:space="preserve">
<path d="M245.8,257c0-19.1-4.7-37.6-13.8-53.4l-2.2-3.8H95.7l-2.1,3.8c-9,15.8-13.8,34.3-13.8,53.4c0,48.7,31,89.1,71.2,95.8v113.7
	c-23.2,1-40.5,4.5-40.5,8.7c0,5,23.6,8.9,52.6,8.9s52.7-4,52.7-8.9c0-4.2-17.3-7.7-40.5-8.7V352.7
	C215.2,345.6,245.8,305.3,245.8,257z M162.8,338.9c-37.6,0-68.2-36.7-68.2-81.9c0-15,3.4-29.6,9.8-42.3h116.7
	c6.4,12.7,9.9,27.3,9.9,42.3C231,302.2,200.4,338.9,162.8,338.9z M387.9,74.5h-59V23.3h59V74.5z M387.9,137.9V90.2h-59v47.7
	c-24.9,11.2-42.4,36.3-42.4,65.5v46.7v149v87.5h143.7v-87.5v-149v-46.7C430.2,174.2,412.8,149.2,387.9,137.9z M417.5,414.5h-117V274
	h117V414.5z M224.8,258.5c0,0-3.1,74.2-61,74.2c-57.9,0-65.7-74.2-65.7-74.2H224.8z"/>
</svg>
