<?xml version="1.0" encoding="utf-8"?>
<!-- Generator: Adobe Illustrator 13.0.0, SVG Export Plug-In . SVG Version: 6.00 Build 14948)  -->
<!DOCTYPE svg PUBLIC "-//W3C//DTD SVG 1.1//EN" "http://www.w3.org/Graphics/SVG/1.1/DTD/svg11.dtd">
<svg version="1.1" id="Layer_1" xmlns="http://www.w3.org/2000/svg" xmlns:xlink="http://www.w3.org/1999/xlink" x="0px" y="0px"
	 width="512px" height="512px" viewBox="0 0 512 512" enable-background="new 0 0 512 512" xml:space="preserve">
<g id="b53_cheese">
	<path d="M276.1,77.2L53.5,278.3l398.9-107.7C452.4,170.6,432.3,98,276.1,77.2z M237.9,177.7c-9.3,0-16.8-7.5-16.8-16.8
		c0-9.3,7.5-16.8,16.8-16.8s16.8,7.5,16.8,16.8C254.7,170.2,247.2,177.7,237.9,177.7z M297,155.8c-8.4,0-15.2-6.8-15.2-15.2
		s6.8-15.2,15.2-15.2c8.4,0,15.2,6.8,15.2,15.2S305.4,155.8,297,155.8z M396.2,177.7c-10.2,0-18.6-8.3-18.6-18.6
		c0-10.3,8.3-18.6,18.6-18.6c10.2,0,18.6,8.3,18.6,18.6C414.8,169.4,406.5,177.7,396.2,177.7z"/>
	<path d="M455.2,188.2L53.5,285.7v149.1h210.8c7.3-23.7,29.2-41,55.3-41c26.1,0,47.9,17.3,55.3,41h81.7L455.2,188.2z M169.7,372.8
		c-6.4,0-11.5-5.1-11.5-11.5c0-6.3,5.1-11.5,11.5-11.5c6.3,0,11.5,5.2,11.5,11.5C181.2,367.6,176.1,372.8,169.7,372.8z M186.2,326.7
		c-8.8,0-15.9-7.1-15.9-15.9c0-8.7,7.1-15.9,15.9-15.9c8.8,0,15.9,7.2,15.9,15.9C202,319.6,194.9,326.7,186.2,326.7z M261.4,372.8
		c-12.7,0-23-10.3-23-23c0-12.7,10.3-23,23-23c12.7,0,23,10.3,23,23C284.4,362.5,274.1,372.8,261.4,372.8z M369.6,295
		c-12.9,0-23.3-10.4-23.3-23.3c0-12.8,10.4-23.3,23.3-23.3c12.9,0,23.3,10.4,23.3,23.3C392.8,284.6,382.4,295,369.6,295z"/>
</g>
<g id="Capa_1">
</g>
</svg>
