<?xml version="1.0" encoding="utf-8"?>
<!-- Generator: Adobe Illustrator 13.0.0, SVG Export Plug-In . SVG Version: 6.00 Build 14948)  -->
<!DOCTYPE svg PUBLIC "-//W3C//DTD SVG 1.1//EN" "http://www.w3.org/Graphics/SVG/1.1/DTD/svg11.dtd">
<svg version="1.1" id="Layer_1" xmlns="http://www.w3.org/2000/svg" xmlns:xlink="http://www.w3.org/1999/xlink" x="0px" y="0px"
	 width="512px" height="512px" viewBox="0 0 512 512" enable-background="new 0 0 512 512" xml:space="preserve">
<g id="Capa_1">
</g>
<path d="M486.5,41.1v55.8h-21.5V41.1H486.5L486.5,41.1z M456.4,11.4v115.4h-31.9V11.4H456.4L456.4,11.4z M45.1,41.1v55.8H23.6V41.1
	H45.1L45.1,41.1z M85.5,11.4v115.4H53.6V11.4H85.5L85.5,11.4z M413.7,60.3v15H96.3v-15H413.7L413.7,60.3z M255,167.1
	c-17.9,0-32.4-14.5-32.4-32.4c0-17.9,14.5-32.4,32.4-32.4c17.9,0,32.4,14.5,32.4,32.4C287.4,152.6,272.9,167.1,255,167.1L255,167.1z
	 M278.9,174.3l80.1-80.5c6.3-6.6,16.8-6.9,23.4-0.6c6.6,6.3,6.9,16.8,0.6,23.4l-84.1,84.3l0.1,279.5c0,10-8.1,18.2-18.2,18.2
	s-18.2-8.1-18.2-18.2l-0.2-151.6h-14.7l0,151.6c0,10-8.1,18.2-18.2,18.2c-10,0-18.2-8.1-18.2-18.2l0-279.5l-84.1-84.3
	c-6.3-6.6-6-17.1,0.6-23.4c6.6-6.3,17.1-6,23.4,0.6l80.6,80.6L278.9,174.3L278.9,174.3z"/>
</svg>
