<?xml version="1.0" encoding="iso-8859-1"?>
<!-- Generator: Adobe Illustrator 17.0.2, SVG Export Plug-In . SVG Version: 6.00 Build 0)  -->
<!DOCTYPE svg PUBLIC "-//W3C//DTD SVG 1.1//EN" "http://www.w3.org/Graphics/SVG/1.1/DTD/svg11.dtd">
<svg version="1.1" id="Capa_1" xmlns="http://www.w3.org/2000/svg" xmlns:xlink="http://www.w3.org/1999/xlink" x="0px" y="0px"
	 width="64px" height="64px" viewBox="0 0 64 64" style="enable-background:new 0 0 64 64;" xml:space="preserve">
<g>
	<path d="M43.254,40.591c0.189,0.164,0.422,0.244,0.654,0.244c0.279,0,0.559-0.117,0.756-0.345c0.154-0.179,3.762-4.417,1.027-7.859
		c-1.518-1.91-0.397-3.02-0.152-3.227c0.426-0.345,0.494-0.969,0.152-1.398c-0.344-0.433-0.975-0.503-1.406-0.159
		c-1.049,0.835-2.432,3.169-0.16,6.028c1.703,2.143-0.947,5.276-0.973,5.306C42.791,39.597,42.836,40.229,43.254,40.591z"/>
	<path d="M51.902,39.18c-0.361,0.417-0.316,1.049,0.102,1.411c0.189,0.164,0.422,0.244,0.654,0.244c0.279,0,0.559-0.117,0.756-0.345
		c0.154-0.179,3.762-4.417,1.027-7.859c-1.518-1.91-0.397-3.02-0.152-3.227c0.426-0.345,0.494-0.969,0.152-1.398
		c-0.344-0.433-0.975-0.503-1.406-0.159c-1.049,0.835-2.432,3.169-0.16,6.028C54.578,36.018,51.928,39.15,51.902,39.18z"/>
	<path d="M16.076,27.846c-0.432-0.343-1.062-0.273-1.406,0.159c-0.342,0.429-0.273,1.053,0.15,1.398
		c0.246,0.207,1.365,1.317-0.15,3.227c-2.734,3.443,0.871,7.681,1.027,7.859c0.197,0.229,0.477,0.345,0.756,0.345
		c0.232,0,0.465-0.081,0.654-0.244c0.418-0.362,0.463-0.994,0.102-1.411c-0.027-0.03-2.676-3.163-0.973-5.306
		C18.506,31.015,17.123,28.681,16.076,27.846z"/>
	<path d="M6.947,40.49c0.197,0.229,0.477,0.345,0.756,0.345c0.232,0,0.465-0.081,0.654-0.244c0.418-0.362,0.463-0.994,0.102-1.411
		c-0.027-0.03-2.676-3.163-0.973-5.306c2.27-2.859,0.887-5.193-0.16-6.028c-0.432-0.343-1.062-0.273-1.406,0.159
		c-0.342,0.429-0.273,1.053,0.15,1.398c0.246,0.207,1.365,1.317-0.15,3.227C3.185,36.073,6.791,40.311,6.947,40.49z"/>
	<circle cx="30.514" cy="23.722" r="5.12"/>
	<path d="M7.533,52.598h15.105c1.104,0,2-0.896,2-2v-2.45v-1.33c0-0.03,0.008-0.058,0.008-0.088
		c-0.006-1.652,1.338-2.995,2.992-2.995c1.371,0,2.518,0.931,2.875,2.19c0.355-1.259,1.502-2.19,2.875-2.19
		c1.652,0,2.996,1.343,2.998,2.995c-0.006,0.03,0.002,0.058,0.002,0.088v1.33v2.45c0,1.104,0.895,2,2,2h15.229
		c1.658,0,3-1.313,3-2.934s-1.342-2.934-3-2.934h-11.43c0.463-0.574,0.596-1.378,0.266-2.092l-5.375-11.625
		c-0.092-0.196-0.217-0.363-0.355-0.514c-0.549-1.944-2.494-2.842-4.83-2.842h-2.76c-2.258,0-4.145,0.846-4.764,2.658
		c-0.225,0.185-0.416,0.416-0.547,0.698l-5.375,11.625c-0.33,0.714-0.197,1.519,0.266,2.092H7.533c-1.656,0-3,1.313-3,2.934
		S5.877,52.598,7.533,52.598z M36.893,45.997v-3.854l1.93,4.173c0.07,0.154,0.168,0.287,0.27,0.414h-2.264
		C36.865,46.49,36.893,46.247,36.893,45.997z M22.078,46.316l2.055-4.445v4.126c0,0.25,0.027,0.494,0.064,0.733h-2.391
		C21.91,46.603,22.006,46.47,22.078,46.316z"/>
	<path d="M25.639,46.74v8.561c0,1.104,0.895,2,2,2c1.104,0,2-0.896,2-2V46.74c0-1.104-0.896-2-2-2
		C26.533,44.74,25.639,45.636,25.639,46.74z"/>
	<path d="M31.389,46.74v8.561c0,1.104,0.895,2,2,2c1.104,0,2-0.896,2-2V46.74c0-1.104-0.896-2-2-2
		C32.283,44.74,31.389,45.636,31.389,46.74z"/>
</g>
</svg>
