<?xml version="1.0" encoding="utf-8"?>
<!-- Generator: Adobe Illustrator 13.0.0, SVG Export Plug-In . SVG Version: 6.00 Build 14948)  -->
<!DOCTYPE svg PUBLIC "-//W3C//DTD SVG 1.1//EN" "http://www.w3.org/Graphics/SVG/1.1/DTD/svg11.dtd">
<svg version="1.1" id="Layer_1" xmlns="http://www.w3.org/2000/svg" xmlns:xlink="http://www.w3.org/1999/xlink" x="0px" y="0px"
	 width="512px" height="512px" viewBox="0 0 512 512" enable-background="new 0 0 512 512" xml:space="preserve">
<g id="Capa_1">
</g>
<g id="Layer_8">
	<path d="M156.4,261v-1.7l0.6-1.5c0.1-0.2,10.9-27.8,10.9-110.3c0-82.3-10.7-108.6-10.8-108.9l-0.6-1.5l0-1.7
		c0-9,7.4-16.4,16.4-16.4h164.1c9,0,16.4,7.4,16.4,16.4v1.1l-0.3,1.1c-0.1,0.4-11.2,41-11.2,108.6c0,67.7,11.1,112.4,11.2,112.9
		l0.2,1v1c0,9-7.4,16.4-16.4,16.4H172.8C163.7,277.4,156.4,270.1,156.4,261z M372.6,187.7c-9.1,0-16.4,7.3-16.4,16.4v82.1H153.8
		v-82.1c0-9.1-7.4-16.4-16.4-16.4c-9.1,0-16.4,7.3-16.4,16.4v98.5c0,9.1,7.4,16.4,16.4,16.4h235.3c9.1,0,16.4-7.4,16.4-16.4v-98.5
		C389,195,381.7,187.7,372.6,187.7z M372.6,384.2L270,328.8c-3.6-2-7.7-2.3-11.4-1.5c-3.9-0.9-8-0.4-11.6,1.5l-102.6,55.4
		c-5.3,2.9-8.6,8.4-8.6,14.4v18.5c0,5,2.2,9.4,5.7,12.4c-1.1,2.1-1.8,4.4-1.8,6.9c0,8.3,6.7,15.1,15,15.1c8.3,0,15-6.7,15-15.1
		c0-3.9-1.5-7.5-4-10.2c1.8-2.6,2.8-5.7,2.8-9.1v-8.6l69.8-37.7l0.1,85.4c0,4.2,1.7,8,4.3,10.9c-1.9,2.5-3.1,5.6-3.1,9
		c0,8.3,6.7,15.1,15,15.1c8.3,0,15-6.7,15-15.1c0-3.3-1.1-6.3-2.9-8.8c2.7-2.9,4.4-6.8,4.4-11.1l-0.1-89.3l77.1,41.6v8.7
		c0,3.3,1,6.4,2.7,8.9c-2.6,2.7-4.2,6.3-4.2,10.4c0,8.3,6.7,15,15.1,15c8.3,0,15.1-6.7,15.1-15c0-2.5-0.6-4.7-1.7-6.8
		c3.6-3,5.9-7.5,5.9-12.5v-18.5C381.2,392.6,377.9,387,372.6,384.2z"/>
</g>
</svg>
