<?xml version="1.0" encoding="utf-8"?>
<!-- Generator: Adobe Illustrator 13.0.0, SVG Export Plug-In . SVG Version: 6.00 Build 14948)  -->
<!DOCTYPE svg PUBLIC "-//W3C//DTD SVG 1.1//EN" "http://www.w3.org/Graphics/SVG/1.1/DTD/svg11.dtd">
<svg version="1.1" id="Layer_1" xmlns="http://www.w3.org/2000/svg" xmlns:xlink="http://www.w3.org/1999/xlink" x="0px" y="0px"
	 width="512px" height="512px" viewBox="0 0 512 512" enable-background="new 0 0 512 512" xml:space="preserve">
<g id="Capa_1">
</g>
<path d="M483,58l-0.4-0.9c-0.3-0.6-7-15.8-15.5-15c0.1-1.1,0-2.6-0.8-4.2c-1.9-4.2-7-7.5-15.1-9.8l-0.9-0.3l-0.4,0.8
	c-0.1,0.2-11.9,23.8-37.4,43l-0.9,0.7l0.6,0.9c0.2,0.3,4.8,7.2-5.1,16.7L249.9,240.7c-1.6-2.2-3.3-4.2-5.2-6.1
	c-8.9-8.9-20.8-13.9-33.5-13.9s-24.5,4.9-33.5,13.9c-8.7,8.7-13.6,20.2-13.8,32.6c-0.5,1.4-6.4,17.5-22.3,18.4c-0.1,0-0.2,0-0.3,0
	c-5.2-0.8-10.5-1.2-15.8-1.2c-27.2,0-52.8,10.6-72,29.7c-18.8,18.8-27,41.7-23.8,66.2c3,22.6,15.4,45.4,35.9,65.9
	c23.6,23.6,50.7,36.6,76.2,36.6l0,0c20.8,0,39.5-8.2,55.8-24.5c18.6-18.6,29.1-43.2,29.8-69.5l0,0l0-3.1c0-5.7,0.8-34.1,19.5-35.2
	c22.2-1.4,34.5-17.4,34.9-18c0.8-0.9,7.7-8.7,5.5-13.6c-1.4-3.2-5.9-4.2-13.6-3c-5.7,0.9-10.2-0.5-13.5-4c-7-7.7-6-23.2-5.9-24.5
	c0.5-1,0.9-2.1,1.3-3.1l168.5-177.4c0-0.1,5-7,12.5-7c1,0,2,0.1,2.9,0.3l0.7,0.2l0.5-0.6c0.2-0.3,22.2-30.1,41.2-41.2L483,58z
	 M175.8,302.8l8.7-8.7c3-3,7.9-3,11,0l23.3,23.3c3,3,3,7.9,0,11L210,337c-3,3-7.9,3-11,0l-23.3-23.3
	C172.8,310.7,172.8,305.8,175.8,302.8z"/>
</svg>
