<?xml version="1.0" encoding="utf-8"?>
<!-- Generator: Adobe Illustrator 13.0.0, SVG Export Plug-In . SVG Version: 6.00 Build 14948)  -->
<!DOCTYPE svg PUBLIC "-//W3C//DTD SVG 1.1//EN" "http://www.w3.org/Graphics/SVG/1.1/DTD/svg11.dtd">
<svg version="1.1" id="Layer_1" xmlns="http://www.w3.org/2000/svg" xmlns:xlink="http://www.w3.org/1999/xlink" x="0px" y="0px"
	 width="512px" height="512px" viewBox="0 0 512 512" enable-background="new 0 0 512 512" xml:space="preserve">
<g id="Capa_1">
</g>
<g>
	<path fill="#0A0A0A" d="M390.5,34.7H119.5c-28.1,0-50.8,22.8-50.8,50.8v338.9c0,28.1,22.8,50.8,50.8,50.8h271.1
		c28.1,0,50.8-22.8,50.8-50.8V85.6C441.4,57.5,418.6,34.7,390.5,34.7z M297.4,66.6c15.2,0,27.5,12.3,27.5,27.5
		c0,15.2-12.3,27.5-27.5,27.5c-15.2,0-27.5-12.3-27.5-27.5C269.9,78.9,282.2,66.6,297.4,66.6z M255,391.5
		c-66,0-119.6-53.5-119.6-119.6c0-66.1,53.6-119.6,119.6-119.6c66,0,119.6,53.5,119.6,119.6C374.6,338,321,391.5,255,391.5z
		 M382.1,121.5c-15.2,0-27.5-12.3-27.5-27.5c0-15.2,12.3-27.5,27.5-27.5s27.5,12.3,27.5,27.5C409.5,109.2,397.2,121.5,382.1,121.5z"
		/>
	<path fill="#0A0A0A" d="M255,173.5c-54.4,0-98.5,44.1-98.5,98.5c0,54.4,44.1,98.5,98.5,98.5c54.4,0,98.5-44.1,98.5-98.5
		C353.5,217.6,309.4,173.5,255,173.5z M255,190.4c42.4,0,77,32.7,80.8,74.2c-30.2-16-44.8,6.7-80.8,6.7c-36.3,0-46.8-24.8-80.8-6.7
		C177.9,223.2,212.5,190.4,255,190.4z"/>
</g>
</svg>
