<?xml version="1.0" encoding="utf-8"?>
<!-- Generator: Adobe Illustrator 13.0.0, SVG Export Plug-In . SVG Version: 6.00 Build 14948)  -->
<!DOCTYPE svg PUBLIC "-//W3C//DTD SVG 1.1//EN" "http://www.w3.org/Graphics/SVG/1.1/DTD/svg11.dtd">
<svg version="1.1" id="Layer_1" xmlns="http://www.w3.org/2000/svg" xmlns:xlink="http://www.w3.org/1999/xlink" x="0px" y="0px"
	 width="512px" height="512px" viewBox="0 0 512 512" enable-background="new 0 0 512 512" xml:space="preserve">
<g id="Capa_1">
</g>
<path d="M255,29.1c124.7,0,225.8,101.1,225.8,225.9c0,124.7-101.1,225.9-225.8,225.9C130.3,480.9,29.2,379.7,29.2,255
	C29.2,130.3,130.3,29.1,255,29.1L255,29.1z M94.3,400.3l5.7-35.8c-20.4-28.8-33-63.6-34.6-101.2L39,237.9
	c-0.4,5.6-0.7,11.4-0.7,17.1C38.4,310.9,59.5,361.9,94.3,400.3L94.3,400.3z M285.9,314.5h-59.1h-13.5l-22.5-69.2l-79.8-26.4
	l-37.5,48.4c2.2,33.3,13.4,64.2,31.2,90.3l67.3,16.2l41.2-59.4l13.6,0.1l-48.7,68.7l31,47.9c14.7,3.8,30,5.8,45.9,5.8
	c16.7,0,32.8-2.2,48.2-6.4l29.6-46.9L285.9,314.5L285.9,314.5z M250.8,106.5l-58-22.6c-31.6,11.5-59.2,31.5-79.9,57.3l4.8,68.8
	l68.9,23l64.1-46.7L250.8,106.5L250.8,106.5z M189.4,76.9l16.8-33C147.4,57.4,97.8,94.8,68,145.5l36.6-6.3
	C126.3,111.2,155.6,89.3,189.4,76.9L189.4,76.9z M394.2,211.7l4.7-68.2c-20.6-26.6-48.5-47.3-80.7-59.3l-57,22.2v79.7l64.5,45.6
	L394.2,211.7L394.2,211.7z M404.9,138.7l36.8,6.3C412,94.7,362.5,57.4,303.9,43.9l18.7,33.7C355.4,90.1,383.8,111.5,404.9,138.7
	L404.9,138.7z M338.9,374.1l67.7-18.3l3.3-0.9l1.8,7.2l5,27.9l1.4,7.6c33.3-38.1,53.5-88,53.5-142.6c0-5.2-0.2-10.3-0.5-15.4
	l-26.6,25.7c-1.9,35.7-13.7,68.9-32.8,96.7l-1.3-7.3l-3.7,1c17.4-26.2,28.3-57.2,30.1-90.6l-36-45.2l-79.3,24.9l-22.7,69.7
	L338.9,374.1L338.9,374.1z M337.2,455.5l-7.2-3.6l-26.8-13.4c-15.4,4-31.6,6.2-48.2,6.2c-16.2,0-31.9-2-46.9-5.8l-33.8,17.2
	c24.9,10,52.1,15.5,80.6,15.5C284.1,471.7,311.9,465.9,337.2,455.5L337.2,455.5z"/>
</svg>
