<?xml version="1.0" encoding="utf-8"?>
<!-- Generator: Adobe Illustrator 13.0.0, SVG Export Plug-In . SVG Version: 6.00 Build 14948)  -->
<!DOCTYPE svg PUBLIC "-//W3C//DTD SVG 1.1//EN" "http://www.w3.org/Graphics/SVG/1.1/DTD/svg11.dtd">
<svg version="1.1" id="Layer_1" xmlns="http://www.w3.org/2000/svg" xmlns:xlink="http://www.w3.org/1999/xlink" x="0px" y="0px"
	 width="512px" height="512px" viewBox="0 0 512 512" enable-background="new 0 0 512 512" xml:space="preserve">
<g id="Capa_1">
</g>
<g>
	<path d="M87.4,362.5c-8.3-9-20.9-10.9-28.1-4.1c-7.2,6.8-13.1,12.2-13.1,12.2s-33.8,31.6,15.4,87c19.5,22,42.9,24.2,59.4,21.9
		c12.1-1.7,27.1-11.1,34.3-17.4c7.2-6.3,6.3-18.7-2-27.7L87.4,362.5z"/>
	<path d="M469.1,278.6c-8.9-10.4-22.7-10.4-31.7-9c-1.6,0.2-3.3-0.4-4.4-1.6c-1.1-1.2-1.5-3-1-4.6c3.1-11.1,0.6-23.4-7.9-32.4
		c-7.6-8.1-18.2-11.5-28.4-10.3c-2.1,0.2-4.1-0.5-5.6-2c-1.4-1.5-2.1-3.6-1.7-5.7c1.7-10.1-1.1-20.9-8.7-29
		c-8.4-8.8-20.3-12.1-31.4-9.9c-1.6,0.3-3.3-0.2-4.4-1.4c-1.1-1.2-1.6-2.9-1.1-4.5c2.9-10.9,0.3-23.1-8.1-31.9
		c-6.8-7.2-16-10.7-25.2-10.5c-2.6,0.1-5.2-1-7-2.9c-1.8-1.9-2.8-4.5-2.5-7.1c0.7-9.2-2.3-18.6-9.1-25.8
		c-7.9-8.3-18.9-11.7-29.5-10.2c-2,0.3-4-0.4-5.4-1.9c-1.4-1.5-2-3.5-1.6-5.5c2.1-10.4-0.7-21.7-8.5-30
		c-12.9-13.6-34.4-14.2-48.1-1.3c-5.2,5-8.5,11.2-9.9,17.8c-0.8,0.6-55,214.4-55,214.4c-3,11.9-12.6,28.4-21.6,36.7l-0.8,0.8
		c-9,8.4-9.5,22.5-1.2,31.6l66.4,72.5c8.3,9,22.5,9.8,31.7,1.7l7.4-6.5c9.2-8.1,26.3-17.3,38.1-20.6l195.3-53.8
		c7.9-2.3,14-3.7,19.6-9C481.3,313.8,481.3,292.8,469.1,278.6z M185.1,299c-1.9,5.6-7.1,9.1-12.6,9.1c-1.4,0-2.8-0.2-4.3-0.7
		c-7-2.4-10.7-9.9-8.4-16.9l40.7-120.7c2.4-7,9.9-10.7,16.9-8.4c7,2.4,10.7,9.9,8.4,16.9L185.1,299z M213.5,290.3l90.4-87.4
		c5.3-5.1,13.7-5,18.9,0.3c5.1,5.3,5,13.7-0.3,18.9l-90.4,87.4c-2.6,2.5-5.9,3.7-9.3,3.7c-3.5,0-7-1.4-9.6-4.1
		C208.1,303.9,208.2,295.5,213.5,290.3z M350.8,321.7l-120.9,40.2c-1.4,0.5-2.8,0.7-4.2,0.7c-5.6,0-10.8-3.5-12.7-9.1
		c-2.3-7,1.5-14.5,8.4-16.9l120.9-40.2c7-2.3,14.5,1.5,16.9,8.4C361.5,311.9,357.8,319.4,350.8,321.7z"/>
</g>
</svg>
