<?xml version="1.0" encoding="utf-8"?>
<!-- Generator: Adobe Illustrator 13.0.0, SVG Export Plug-In . SVG Version: 6.00 Build 14948)  -->
<!DOCTYPE svg PUBLIC "-//W3C//DTD SVG 1.1//EN" "http://www.w3.org/Graphics/SVG/1.1/DTD/svg11.dtd">
<svg version="1.1" id="Layer_1" xmlns="http://www.w3.org/2000/svg" xmlns:xlink="http://www.w3.org/1999/xlink" x="0px" y="0px"
	 width="512px" height="512px" viewBox="0 0 512 512" enable-background="new 0 0 512 512" xml:space="preserve">
<g id="Capa_1">
</g>
<g>
	<path d="M473.3,255c0-67.1-30.3-127.1-77.9-167.1c26.5,55.9,40.8,119.4,40.8,184.1c0,44.7-6.7,88.4-19.5,129.6
		C451.8,362.9,473.3,311.5,473.3,255z"/>
	<path d="M95.5,106.1c-36.4,39-58.8,91.3-58.8,148.9c0,63.6,27.3,120.9,70.7,160.8c18.1-43.8,27.6-92.1,27.6-142
		C135,213.7,121.4,156.2,95.5,106.1z"/>
	<path d="M255,36.7c-52.2,0-100.1,18.3-137.6,48.9c30.5,55.9,46.6,120.5,46.6,188.2c0,56.7-11.4,111.4-33.1,160.7
		c35.2,24.4,78,38.8,124.1,38.8c42.7,0,82.5-12.3,116.1-33.5c23.6-51.2,36.1-108.6,36.1-167.8c0-78.6-22.4-154.9-63.1-216.3
		C316.9,43.6,286.7,36.7,255,36.7z M383.1,211.4c0,57.8-46.8,104.6-104.6,104.6c-57.8,0-104.6-46.8-104.6-104.6
		s46.8-104.6,104.6-104.6C336.2,106.8,383.1,153.6,383.1,211.4z"/>
	<path d="M233.9,153.6c-7.4,8.5-9.8,18.3-7.3,29.6c1.3,5.9,3.8,10.6,7.3,14.2c3.6,3.6,8.4,6.1,14.6,7.7c-6.2,4.2-10.4,9.1-12.7,14.6
		c-2.2,5.5-2.6,11.8-1,18.8c2.9,12.8,9.7,21.6,20.6,26.5c10.9,4.9,24.9,5.5,42,1.6c17-3.8,29.4-10.2,37.2-19.3
		c7.8-9.1,10.2-20,7.4-32.8c-1.6-7-4.5-12.6-8.9-16.6c-4.4-4-10.2-6.6-17.6-7.9c4.8-4.1,8.1-8.5,9.8-13.2c1.7-4.7,1.9-10.1,0.6-15.9
		c-2.5-11.3-8.9-19.2-19.2-23.7c-10.3-4.5-23.1-5.1-38.6-1.6C252.7,139.1,241.2,145.1,233.9,153.6z M304.9,220.6
		c1.1,4.8,0.5,8.9-1.9,12.3c-2.3,3.3-6.2,5.6-11.7,6.8c-5.4,1.2-9.9,0.8-13.5-1.2c-3.6-2-5.9-5.5-7-10.3c-1.1-5-0.5-9.2,1.9-12.7
		c2.4-3.5,6.2-5.9,11.6-7c5.3-1.2,9.8-0.7,13.4,1.5C301.5,212.1,303.8,215.6,304.9,220.6z M286.1,162.6c3.5,1.8,5.7,4.6,6.5,8.3
		c1,4.3,0.3,8-1.9,11c-2.2,3-5.8,5.1-10.8,6.2c-5.1,1.1-9.3,0.8-12.6-0.9c-3.3-1.8-5.5-4.8-6.5-9.2c-0.8-3.8,0-7.2,2.4-10.3
		c2.5-3.1,6-5.2,10.7-6.3C278.5,160.4,282.6,160.8,286.1,162.6z"/>
</g>
</svg>
