<?xml version="1.0" encoding="utf-8"?>
<!-- Generator: Adobe Illustrator 13.0.0, SVG Export Plug-In . SVG Version: 6.00 Build 14948)  -->
<!DOCTYPE svg PUBLIC "-//W3C//DTD SVG 1.1//EN" "http://www.w3.org/Graphics/SVG/1.1/DTD/svg11.dtd">
<svg version="1.1" id="Layer_1" xmlns="http://www.w3.org/2000/svg" xmlns:xlink="http://www.w3.org/1999/xlink" x="0px" y="0px"
	 width="512px" height="512px" viewBox="0 0 512 512" enable-background="new 0 0 512 512" xml:space="preserve">
<g id="Capa_1">
</g>
<g>
	<path d="M107.9,358c-19.1-27.4-30.6-59.2-33.9-91.6c-32.1,49.7-41.3,97.5-19.6,128.8c21.7,31.2,69.7,39.2,127.3,26.5
		C152.6,407.4,127.2,385.7,107.9,358z"/>
	<path d="M457.6,114.8c-21.7-31.2-69.7-39.2-127.3-26.5c29.1,14.2,54.5,35.9,73.8,63.7c19.2,27.6,30.7,59.2,33.9,91.5
		C470.1,193.9,479.3,146,457.6,114.8z"/>
	<path d="M298.3,97.2c-36.2,12-74.8,31.3-112.2,57.3c-37.4,26-68.9,55.5-92.7,85.2c-1.7,37.3,9.1,75.2,31.1,106.7
		c22.2,32,53.4,55,89.2,66.3c36.2-12,74.8-31.3,112.2-57.3c37.4-26,68.9-55.5,92.7-85.2c1.8-37.3-8.9-74.9-31.1-106.7
		C365.3,131.5,334.1,108.5,298.3,97.2z M357.8,227.7c-1.2,0.8-2.5,1.2-3.8,1.2c-2.1,0-4.2-1-5.5-2.9l-10.8-15.5l-23.6,16.4l11.1,16
		c2.1,3,1.4,7.2-1.7,9.4c-1.2,0.8-2.5,1.2-3.8,1.2c-2.1,0-4.2-1-5.5-2.9l-11.1-16l-17.8,12.4l11.4,16.3c2.1,3,1.4,7.2-1.7,9.4
		c-1.2,0.8-2.5,1.2-3.8,1.2c-2.1,0-4.2-1-5.5-2.9l-11.4-16.3L253.5,269l11.7,16.8c2.1,3.1,1.4,7.2-1.7,9.4c-1.2,0.8-2.5,1.2-3.8,1.2
		c-2.1,0-4.2-1-5.5-2.9l-11.7-16.8l-20.7,14.4l11.9,17.2c2.1,3.1,1.4,7.2-1.7,9.4c-1.2,0.8-2.5,1.2-3.8,1.2c-2.1,0-4.2-1-5.5-2.9
		l-11.9-17.2l-20.7,14.4l12.2,17.6c2.1,3,1.4,7.2-1.7,9.4c-1.2,0.8-2.5,1.2-3.8,1.2c-2.1,0-4.2-1-5.5-2.9L179,320.8l-4.9,3.4
		c-1.8,1.2-3.8,1.8-5.8,1.8c-3.2,0-6.3-1.5-8.3-4.3c-3.2-4.6-2.1-10.9,2.5-14.1l4.9-3.4l-14.6-21c-2.1-3-1.4-7.2,1.7-9.4
		c3.1-2.1,7.2-1.4,9.4,1.7l14.6,21l20.7-14.4l-14.9-21.4c-2.1-3.1-1.4-7.2,1.7-9.4c3.1-2.1,7.2-1.4,9.4,1.7l14.9,21.4l20.7-14.4
		l-15.2-21.8c-2.1-3.1-1.4-7.2,1.7-9.4c3.1-2.1,7.2-1.4,9.4,1.7l15.2,21.8l20.7-14.4l-15.5-22.3c-2.1-3-1.4-7.2,1.7-9.4
		c3.1-2.1,7.3-1.4,9.4,1.7l15.5,22.3l17.8-12.4l-15.7-22.6c-2.1-3.1-1.4-7.2,1.7-9.4c3.1-2.1,7.3-1.4,9.4,1.7l15.7,22.6l23.6-16.4
		l-16.1-23.1c-2.1-3.1-1.4-7.2,1.7-9.4c3.1-2.1,7.3-1.4,9.4,1.7l16,23.1l2.4-1.7c4.6-3.2,10.9-2.1,14.1,2.5
		c3.2,4.6,2.1,10.9-2.5,14.1l-2.4,1.7l10.8,15.5C361.7,221.4,360.9,225.6,357.8,227.7z"/>
</g>
</svg>
