<?xml version="1.0" encoding="utf-8"?>
<!-- Generator: Adobe Illustrator 13.0.0, SVG Export Plug-In . SVG Version: 6.00 Build 14948)  -->
<!DOCTYPE svg PUBLIC "-//W3C//DTD SVG 1.1//EN" "http://www.w3.org/Graphics/SVG/1.1/DTD/svg11.dtd">
<svg version="1.1" id="Layer_1" xmlns="http://www.w3.org/2000/svg" xmlns:xlink="http://www.w3.org/1999/xlink" x="0px" y="0px"
	 width="512px" height="512px" viewBox="0 0 512 512" enable-background="new 0 0 512 512" xml:space="preserve">
<g id="Capa_1">
</g>
<path d="M275.9,406V283.6L471.1,49.4H40.9l195.1,234.2V406c-56.6,4.6-99.8,28.1-99.8,56.7h239.5C375.8,434.1,332.6,410.6,275.9,406z
	 M263.9,186.1c-11.2,0-20.3-9.1-20.3-20.3c0-11.2,9.1-20.3,20.3-20.3c11.2,0,20.4,9.1,20.4,20.3C284.3,177,275.1,186.1,263.9,186.1z
	 M395.4,84.9l-17.5,21l-214.1,35.7l-47.2-56.7H395.4z"/>
</svg>
