<?xml version="1.0" encoding="utf-8"?>


<!-- The icon can be used freely in both personal and commercial projects with no attribution required, but always appreciated. 
You may NOT sub-license, resell, rent, redistribute or otherwise transfer the icon without express written permission from iconmonstr.com -->


<!DOCTYPE svg PUBLIC "-//W3C//DTD SVG 1.1//EN" "http://www.w3.org/Graphics/SVG/1.1/DTD/svg11.dtd">

<svg version="1.1" xmlns="http://www.w3.org/2000/svg" xmlns:xlink="http://www.w3.org/1999/xlink" x="0px" y="0px"

	 width="512px" height="512px" viewBox="0 0 512 512" enable-background="new 0 0 512 512" xml:space="preserve">

<path id="inbox-6-icon" d="M368.369,75.392H144.023L50,228.294v208.314h412V228.294L368.369,75.392z M306.788,300.735H205.211

	c-9.318,0-16.873-7.555-16.873-16.875c0-9.318,7.555-16.873,16.873-16.873h101.577c9.319,0,16.874,7.555,16.874,16.873

	C323.662,293.181,316.107,300.735,306.788,300.735z M96.961,228.294l68.861-112.805h180.637l68.62,112.805H96.961z M367.587,177.528

	H145.573l12.818-21h196.422L367.587,177.528z M347.716,144.86H165.515l10.988-18h160.264L347.716,144.86z M388.878,212.528H124.207

	l13.43-22h237.858L388.878,212.528z"/>

</svg>

