<?xml version="1.0" encoding="utf-8"?>
<!-- Generator: Adobe Illustrator 13.0.0, SVG Export Plug-In . SVG Version: 6.00 Build 14948)  -->
<!DOCTYPE svg PUBLIC "-//W3C//DTD SVG 1.1//EN" "http://www.w3.org/Graphics/SVG/1.1/DTD/svg11.dtd">
<svg version="1.1" id="Layer_1" xmlns="http://www.w3.org/2000/svg" xmlns:xlink="http://www.w3.org/1999/xlink" x="0px" y="0px"
	 width="512px" height="512px" viewBox="0 0 512 512" enable-background="new 0 0 512 512" xml:space="preserve">
<g id="Capa_1">
</g>
<g>
	<path d="M345.3,391.2c0-25.5-20.5-46.2-46-46.5v0h-0.4c0,0-0.1,0-0.1,0c0,0-0.1,0-0.1,0h-244c0,0-0.1,0-0.1,0c0,0-0.1,0-0.1,0h-1.2
		v0.1C28.3,345.4,8.2,366,8.2,391.2c0,25.3,20.2,45.8,45.2,46.4v0.1h245.9v-0.1C324.7,437.4,345.3,416.7,345.3,391.2z M299.1,410.5
		h-0.7c-0.1,0-0.3,0-0.5,0l0,0H54.2l0,0c-10.4-0.3-18.8-8.8-18.8-19.2c0-10.4,8.3-18.8,18.6-19.2h243.9l0,0c0.1,0,0.2,0,0.2,0h1.2v0
		c10.4,0.3,18.8,8.8,18.8,19.2C318.1,401.8,309.6,410.3,299.1,410.5z"/>
	<path d="M43.4,283.5V332h260.4V222.2c0-2.1-0.2-4.2-0.5-6.3l67.3-77.1l50.3,99.6c2.4,4.4,5,9,8.4,12.3l-40,105.1
		c0,0,87.8,6.4,107.4-52.7c12.3-36.9-15.3-57-36.8-66.7c-0.2-4.3-1.5-8.8-3.4-12.8L413.3,92.5c-6.3-15.1-23.5-22.2-38.6-16
		c-7.7,3.2-13.3,9.3-16.1,16.4l-95.8,81.6c-2.3-0.3-4.7-0.6-7.1-0.6h-56c-26.6,0-48.2,21.6-48.2,48.2v13.1H91.7
		C65,235.2,43.4,256.8,43.4,283.5z M370.7,104.7c0-8.2,6.7-14.9,14.9-14.9c8.2,0,14.9,6.7,14.9,14.9c0,8.2-6.7,14.9-14.9,14.9
		C377.3,119.6,370.7,112.9,370.7,104.7z M260,284.1h-12l5.4-7.3l7.7,5.3L260,284.1z M175.5,222.8c0-14.9,12.1-27,27-27h48.8
		c14.9,0,27,12.1,27,27V265l-11.7,7.3l-2,3.6l-7-4.8l6.6-9c1.7-2.4,1.2-5.7-1.1-7.4c-2.4-1.7-5.7-1.2-7.4,1.1l-16.3,22.2
		c-1.4,1.9-1.2,4.2,0,6h-63.9V222.8z"/>
</g>
</svg>
