<?xml version="1.0" encoding="utf-8"?>
<!-- Generator: Adobe Illustrator 13.0.0, SVG Export Plug-In . SVG Version: 6.00 Build 14948)  -->
<!DOCTYPE svg PUBLIC "-//W3C//DTD SVG 1.1//EN" "http://www.w3.org/Graphics/SVG/1.1/DTD/svg11.dtd">
<svg version="1.1" id="Layer_1" xmlns="http://www.w3.org/2000/svg" xmlns:xlink="http://www.w3.org/1999/xlink" x="0px" y="0px"
	 width="512px" height="512px" viewBox="0 0 512 512" enable-background="new 0 0 512 512" xml:space="preserve">
<g id="Capa_1">
</g>
<g>
	<path d="M174.2,245.4c5.9-16.6,21.8-28.6,40.4-28.6c18.6,0,34.5,11.9,40.4,28.6c5.9-16.6,21.8-28.6,40.4-28.6
		c18.6,0,34.5,11.9,40.4,28.6c5.9-16.6,21.8-28.6,40.4-28.6c6,0,11.8,1.3,17.1,3.6c2.1-5.9,3.8-12,4.8-18.3l1-15.9
		c-1-48.6-21.8-91.8-54-120.1l-5.8-4.9c-23.7-18.9-52.9-30-84.4-30c-29.5,0-56.9,9.8-79.8,26.5l0.2,0.2l-5.3,3.8
		C135,89.8,111.9,135,110.9,186.2l0.8,15.9c0.9,6.6,2.3,12.8,4.2,18.8c5.5-2.5,11.5-4,18-4C152.4,216.8,168.3,228.8,174.2,245.4z"/>
	<path d="M338.3,259.8v28.3h-5.1v-28.3c0-20.9-17-37.9-37.9-37.9c-20.9,0-37.9,17-37.9,37.9v28.3h-5v-28.3c0-20.9-17-37.9-37.9-37.9
		c-20.9,0-37.9,17-37.9,37.9v28.3h-5v-28.3c0-20.9-17-37.9-37.9-37.9c-5.9,0-11.4,1.4-16.4,3.8c19,51.7,73.3,81,98.9,139h5.7
		l4.8,47.9h-6.9v66.2h75.9v-66.2h-8.5l6-47.9h5.1c24.6-55.6,73.9-92.8,93.1-139.5c-4.7-2.1-9.8-3.2-15.2-3.2
		C355.3,221.9,338.3,238.9,338.3,259.8z M234.2,412.5h-4.7l-4.8-47.9h9.4V412.5z M276.9,412.5H237v-47.9h39.9V412.5z M284.5,412.5
		h-4.8v-47.9h10.8L284.5,412.5z"/>
</g>
</svg>
