<?xml version="1.0" encoding="utf-8"?>
<!-- Generator: Adobe Illustrator 13.0.0, SVG Export Plug-In . SVG Version: 6.00 Build 14948)  -->
<!DOCTYPE svg PUBLIC "-//W3C//DTD SVG 1.1//EN" "http://www.w3.org/Graphics/SVG/1.1/DTD/svg11.dtd">
<svg version="1.1" id="Layer_1" xmlns="http://www.w3.org/2000/svg" xmlns:xlink="http://www.w3.org/1999/xlink" x="0px" y="0px"
	 width="512px" height="512px" viewBox="0 0 512 512" enable-background="new 0 0 512 512" xml:space="preserve">
<g id="Capa_1">
</g>
<g>
	<path d="M357.3,366.2c0,27.2,22.1,49.3,49.3,49.3s49.3-22.1,49.3-49.3c0-27.2-22.1-49.3-49.3-49.3S357.3,339,357.3,366.2z
		 M386.1,366.2c0-11.3,9.2-20.5,20.5-20.5c11.3,0,20.5,9.2,20.5,20.5c0,11.3-9.2,20.5-20.5,20.5
		C395.3,386.7,386.1,377.5,386.1,366.2z"/>
	<path d="M96.8,366.2c0,27.2,22.1,49.3,49.3,49.3c27.2,0,49.3-22.1,49.3-49.3c0-27.2-22.1-49.3-49.3-49.3
		C118.9,316.9,96.8,339,96.8,366.2z M125.7,366.2c0-11.3,9.2-20.5,20.5-20.5s20.5,9.2,20.5,20.5c0,11.3-9.2,20.5-20.5,20.5
		S125.7,377.5,125.7,366.2z"/>
	<path d="M194.1,330.6c7.4,10,11.9,22.3,11.9,35.7c0,1.5-0.1,2.9-0.2,4.4H307v-40H194.1z M19.4,130.9v153.2
		c0,20.1,16.3,36.5,36.5,36.5h51.7c10.4-8.8,23.9-14.2,38.6-14.2s28.2,5.3,38.6,14.2h87.2c20.1,0,36.5-16.3,36.5-36.5V130.9
		c0-20.1-16.3-36.5-36.5-36.5H55.8C35.7,94.4,19.4,110.8,19.4,130.9z M98.2,330.6H45.1v40h41.5c-0.1-1.4-0.2-2.9-0.2-4.4
		C86.3,352.9,90.8,340.5,98.2,330.6z M319.3,210.9v88.9c0,0,0.1,35.6,0.1,49.6c0,13.9,10.4,21.2,21,21.2h6.5
		c-0.1-1.4-0.2-2.9-0.2-4.4c0-33,26.8-59.8,59.8-59.8c33,0,59.8,26.8,59.8,59.8c0,1.5-0.1,2.9-0.2,4.4h1.2
		c14.4,0,22.7-8.1,23.2-20.4h-5.3c-6.5,0-8.8-2.8-8.8-8.8v-24.6c0-9.4,5.2-9.4,14.3-9.3v-16.2c0-25.7-8.6-42.3-19-71.8
		c-9.6-27.2-12.7-38.4-35.4-38.6c-5.2-10.5-28.4-49.7-93.3-68.6v69C321.1,183.6,319.3,195.5,319.3,210.9z M436.5,278.3l4.8-6.6
		l7.5,5.2l-0.8,1.4L436.5,278.3L436.5,278.3z M365.3,216.4c0-8,4.3-11.3,11.3-11.3h60.5c6.6,0,12.3-0.5,14.6,5.7
		c2.7,7,12.7,33.9,16.9,47.5l-14.5,9.1l-1.9,3.5l-6.8-4.7l6.4-8.7c1.7-2.3,1.2-5.5-1.1-7.2c-2.3-1.7-5.5-1.2-7.2,1.1l-15.9,21.6
		c-1.2,1.6-1.2,3.7-0.4,5.3c-27.5,0-61.9,0-61.9,0S365.3,224.4,365.3,216.4z"/>
</g>
</svg>
