<?xml version="1.0" encoding="utf-8"?>
<!-- Generator: Adobe Illustrator 13.0.0, SVG Export Plug-In . SVG Version: 6.00 Build 14948)  -->
<!DOCTYPE svg PUBLIC "-//W3C//DTD SVG 1.1//EN" "http://www.w3.org/Graphics/SVG/1.1/DTD/svg11.dtd">
<svg version="1.1" id="Layer_1" xmlns="http://www.w3.org/2000/svg" xmlns:xlink="http://www.w3.org/1999/xlink" x="0px" y="0px"
	 width="512px" height="512px" viewBox="0 0 512 512" enable-background="new 0 0 512 512" xml:space="preserve">
<g id="Capa_1">
</g>
<g>
	<path d="M32.3,327l0.5,18.5h11.3c0.8-48,39.9-86.8,88.1-86.8c48.2,0,87.3,38.7,88.1,86.8h99.3c0-0.9-0.1-1.8-0.1-2.7
		c0-46.3,37.6-83.9,83.9-83.9c25.1,0,47.5,11.1,62.8,28.5c-10.1-34.1-40.6-55.5-77.1-58.6v-36.2c0,0-1.3-5.3-10.7-10
		c-10.6-5.3-21.3,0-21.3,0s-22.5-52.6-40.4-72.6c-18-20-32.6-24.6-16-5.3c13.6,15.8,30.3,57.5,36.8,74.5l-12.5-6.9
		c-1.2-0.6-2.5-1-3.9-1h-23.3c-4.4,0-8,3.6-8,8c0,4.4,3.6,8,8,8h21.2l20.7,11.4v40.5c-8.8,6.8-19.8,22-24.9,36
		c-5.1,13.9-8.9,31.3-9.7,51.8h-72.2v-44.1c0-36.7-34.1-66.5-70.8-66.5h-36.2C76.6,216.2,32.3,267.9,32.3,327z M222.3,195.8
		c0-7.2-5.8-13-13-13H106.4c-7.2,0-13,5.8-13,13c0,7.2,5.8,13,13,13h102.9C216.5,208.7,222.3,202.9,222.3,195.8z"/>
	<path d="M332.2,346.6c0,40.2,32.6,72.7,72.7,72.7c40.2,0,72.7-32.6,72.7-72.7c0-40.2-32.6-72.7-72.7-72.7
		C364.8,273.9,332.2,306.4,332.2,346.6z M374.8,346.6c0-16.7,13.5-30.2,30.2-30.2c16.7,0,30.2,13.5,30.2,30.2
		c0,16.7-13.5,30.2-30.2,30.2C388.3,376.7,374.8,363.2,374.8,346.6z M59.6,346.9c0,40.2,32.6,72.7,72.7,72.7s72.7-32.6,72.7-72.7
		c0-40.1-32.6-72.7-72.7-72.7S59.6,306.8,59.6,346.9z M102.1,346.9c0-16.7,13.5-30.2,30.2-30.2c16.7,0,30.2,13.5,30.2,30.2
		c0,16.7-13.5,30.2-30.2,30.2C115.6,377.1,102.1,363.6,102.1,346.9z"/>
</g>
</svg>
