<?xml version="1.0" encoding="utf-8"?>
<!-- Generator: Adobe Illustrator 13.0.0, SVG Export Plug-In . SVG Version: 6.00 Build 14948)  -->
<!DOCTYPE svg PUBLIC "-//W3C//DTD SVG 1.1//EN" "http://www.w3.org/Graphics/SVG/1.1/DTD/svg11.dtd">
<svg version="1.1" id="Layer_1" xmlns="http://www.w3.org/2000/svg" xmlns:xlink="http://www.w3.org/1999/xlink" x="0px" y="0px"
	 width="512px" height="512px" viewBox="0 0 512 512" enable-background="new 0 0 512 512" xml:space="preserve">
<g id="Capa_1">
</g>
<g>
	<path d="M360.6,358.9c0,26.3,21.4,47.7,47.7,47.7c26.3,0,47.7-21.4,47.7-47.7c0-26.3-21.4-47.7-47.7-47.7
		C381.9,311.2,360.6,332.6,360.6,358.9z M388.5,358.9c0-10.9,8.9-19.8,19.8-19.8c10.9,0,19.8,8.9,19.8,19.8
		c0,10.9-8.9,19.8-19.8,19.8C397.3,378.7,388.5,369.8,388.5,358.9z"/>
	<path d="M107,358.9c0,26.3,21.4,47.7,47.7,47.7c26.3,0,47.7-21.4,47.7-47.7c0-26.3-21.4-47.7-47.7-47.7
		C128.3,311.2,107,332.6,107,358.9z M134.9,358.9c0-10.9,8.9-19.8,19.8-19.8c10.9,0,19.8,8.9,19.8,19.8c0,10.9-8.9,19.8-19.8,19.8
		C143.8,378.7,134.9,369.8,134.9,358.9z"/>
	<path d="M329.7,204.5v91.2c0,0,0.1,34.5,0.1,47.9s10.1,20.5,20.3,20.5h0.5c-0.2-1.7-0.3-3.5-0.3-5.3c0-31.9,25.9-57.8,57.8-57.8
		c31.9,0,57.9,25.9,57.9,57.8c0,1.8-0.1,3.5-0.3,5.3h7c13.5,0,21.5-7.4,22.3-18.7h-3.8c-6.3,0-8.5-2.7-8.5-8.5v-23.8
		c0-8.6,4.5-9,12.5-9v-16.7c0-24.9-8.3-46.2-18.3-74.6c-9.3-26.6-12.3-37.3-34.8-37.3h-81.9C331.7,175.5,329.7,187.9,329.7,204.5z
		 M444.6,269.6l4.1-5.6l7.3,5l-0.3,0.6H444.6z M374.1,209.8c0-7.8,4.1-11,11-11h58.5c6.4,0,11.9-0.5,14.2,5.5
		c2.7,7,12.9,34.4,16.7,47.1l-13.4,8.4l-1.9,3.4l-6.6-4.5l6.2-8.4c1.6-2.2,1.2-5.4-1.1-7c-2.2-1.6-5.4-1.1-7,1.1l-15.3,20.9
		c-1,1.3-1.1,3-0.7,4.4c-26.7,0-60.6,0-60.6,0S374.1,217.5,374.1,209.8z M107.5,325.5H59.2v38.7h37.9c-0.2-1.7-0.3-3.5-0.3-5.3
		C96.8,346.4,100.8,334.9,107.5,325.5z M201.8,325.5c6.7,9.5,10.7,21,10.7,33.5c0,1.8-0.1,3.5-0.3,5.3h105.5v-38.7L201.8,325.5
		L201.8,325.5z M54.4,304.2h81.6c5.8-2,12.1-3.1,18.6-3.1c6.5,0,12.8,1.1,18.6,3.1h139.4V145.7l50-20.7l-5.6-21.7l-73.3,11.5
		l-14.7,19.9L14.7,180.9L54.4,304.2z"/>
</g>
</svg>
