<?xml version="1.0" encoding="utf-8"?>
<!-- Generator: Adobe Illustrator 13.0.0, SVG Export Plug-In . SVG Version: 6.00 Build 14948)  -->
<!DOCTYPE svg PUBLIC "-//W3C//DTD SVG 1.1//EN" "http://www.w3.org/Graphics/SVG/1.1/DTD/svg11.dtd">
<svg version="1.1" id="Layer_1" xmlns="http://www.w3.org/2000/svg" xmlns:xlink="http://www.w3.org/1999/xlink" x="0px" y="0px"
	 width="512px" height="512px" viewBox="0 0 512 512" enable-background="new 0 0 512 512" xml:space="preserve">
<g id="Capa_1">
</g>
<g>
	<path d="M38.2,230.8c0,0-11.1,38.2,0,55.7c9.4,14.8,63.3,42.2,116.6,50.2c-11.7,10.5-23.8,21.5-33.9,31.4
		c-14.5,14.2-17.3,25.1,3.2,25.1c61,0,38,0,51.2,0c7.5,0,37.2-5.2,128.6-54.3h115.5c46.1,0,62-30.2,60.4-42.9
		c-1.6-12.7-33.4-39.8-42.9-54.1c-9.5-14.3-23.9-35-76.3-35H196.8c-12.1,0-23.1,0.2-33.4,0.5c-13.6-18.6-44.8-61.4-52.9-74
		c-10.5-16.2-19.2-14.6-31.4-14.6c-12.2,0-47.1,0-47.1,0l20.8,102.9C39.8,226.6,38.2,230.8,38.2,230.8z M398.4,228.5
		c0,0,9.4,0,15.9,0c7.7,3.1,12,11.8,16.9,19.3l6.3,11.3c0,0-7.5,0-14,0c-6.5,0-13.7,0-17.3-6.7C402.5,245.6,398.4,228.5,398.4,228.5
		z M314.6,252.9c0-8.8,7.1-15.9,15.9-15.9s15.9,7.1,15.9,15.9c0,8.8-7.1,15.9-15.9,15.9S314.6,261.7,314.6,252.9z M266.4,252.9
		c0-8.8,7.1-15.9,15.9-15.9c8.8,0,15.9,7.1,15.9,15.9c0,8.8-7.1,15.9-15.9,15.9C273.5,268.9,266.4,261.7,266.4,252.9z M218.1,252.9
		c0-8.8,7.1-15.9,15.9-15.9s15.9,7.1,15.9,15.9c0,8.8-7.1,15.9-15.9,15.9C225.3,268.9,218.1,261.7,218.1,252.9z M169.9,252.9
		c0-8.8,7.1-15.9,15.9-15.9c8.8,0,15.9,7.1,15.9,15.9c0,8.8-7.1,15.9-15.9,15.9C177,268.9,169.9,261.7,169.9,252.9z"/>
	<circle cx="378.4" cy="368.1" r="22.7"/>
</g>
</svg>
