<?xml version="1.0" encoding="utf-8"?>
<!-- Generator: Adobe Illustrator 13.0.0, SVG Export Plug-In . SVG Version: 6.00 Build 14948)  -->
<!DOCTYPE svg PUBLIC "-//W3C//DTD SVG 1.1//EN" "http://www.w3.org/Graphics/SVG/1.1/DTD/svg11.dtd">
<svg version="1.1" id="Layer_1" xmlns="http://www.w3.org/2000/svg" xmlns:xlink="http://www.w3.org/1999/xlink" x="0px" y="0px"
	 width="512px" height="512px" viewBox="0 0 512 512" enable-background="new 0 0 512 512" xml:space="preserve">
<g id="Capa_1">
</g>
<g>
	<path d="M43.1,205.3c1.9,13.4,11.2,19.2,11.2,14.3c0-3.3,3-10.5,7.1-13.7c1.4,3,4.2,5.3,7.5,5.9c3.5,8.5,10.7,16.7,18.9,11.4
		c11.4-7.3,12.9-18.1,8.4-16.1c-3.1,1.4-11.3,1.6-15.8-1.1c0.7-1.4,1.1-3,1.1-4.6c0,0,0,0,0,0c7.2-6.3,13.2-16.8,4.8-22.9
		c-11-7.9-21.6-5.3-18.1-1.9c2.4,2.3,5.4,9.3,4.9,14.4c-0.7-0.1-1.4-0.2-2.2-0.2c-2.4,0-4.6,0.8-6.3,2.1
		C54.9,191.7,41.5,194.4,43.1,205.3z M27.3,159.7V202c0,15.8,7.9,41.6,41.5,43.3c30,1.5,39-19.1,42.1-28.9l67.9,14.8
		c-0.3,6,0.5,22.2,0.5,29c0,43.3,26.4,76.4,63.9,90.8c22.9,8.8,38.3,9.2,60.3,9.2c55.8,0,96.6-34.9,96.6-92.3
		c0-51.5-49.5-94.7-101.6-107v-22.3h-26.6v-31.1h70c19.4,4.3,62,7.3,93.2,7.3c41.7,0,47.4-5.3,47.4-11.9c0-6.6-5.7-11.9-47.4-11.9
		c-34.8,0-83.8,3.7-98.9,8.8H194.5c-15.1-5.1-64.1-8.8-98.9-8.8c-41.7,0-47.4,5.3-47.4,11.9c0,6.6,5.7,11.9,47.4,11.9
		c31.2,0,73.8-3,93.2-7.3h70v31.1h-24.4v20.3c-33.5,2.3-84.4,6.9-127,11c-23.9-27.9-31.3-38.5-41.9-38.5H47
		C38.3,131.3,27.3,134.7,27.3,159.7z M314.5,184.9c28.1,8.6,57.4,34.7,65.1,56.2c3.7,10.2,6.4,21.8,2.1,30.9L370,259.6
		c1.6-3.3,1.1-7.4-1.5-10.3c-3.5-3.7-9.3-3.9-13-0.4c-3.7,3.5-3.9,9.3-0.4,13c2.8,2.9,7,3.6,10.5,2.1l12.5,13.4
		c-0.3,0.3-0.6,0.6-0.9,0.9l-21.8-8.2c0-3.7-2.3-7.1-5.9-8.5c-4.8-1.8-10.1,0.6-11.8,5.4c-1.8,4.8,0.6,10.1,5.4,11.9
		c3.8,1.4,7.9,0.2,10.3-2.8l17.7,6.7c-8,4.1-20.3,6.5-38.8,6c-59-1.7-61.2-25.9-67.3-54C258.8,206.4,258.8,167.8,314.5,184.9z
		 M40.3,201.6c0-16.9,13.7-30.6,30.6-30.6s30.6,13.7,30.6,30.6c0,16.9-13.7,30.6-30.6,30.6S40.3,218.5,40.3,201.6z"/>
	<path d="M178.8,375.7h182.5c12.5,0,22.7,10.2,22.7,22.7c0,12.5-10.2,22.7-22.7,22.7H178.8c-12.5,0-22.7-10.2-22.7-22.7
		C156.1,385.8,166.2,375.7,178.8,375.7z"/>
</g>
</svg>
