<?xml version="1.0" encoding="utf-8"?>
<!-- Generator: Adobe Illustrator 13.0.0, SVG Export Plug-In . SVG Version: 6.00 Build 14948)  -->
<!DOCTYPE svg PUBLIC "-//W3C//DTD SVG 1.1//EN" "http://www.w3.org/Graphics/SVG/1.1/DTD/svg11.dtd">
<svg version="1.1" id="Layer_1" xmlns="http://www.w3.org/2000/svg" xmlns:xlink="http://www.w3.org/1999/xlink" x="0px" y="0px"
	 width="512px" height="512px" viewBox="0 0 512 512" enable-background="new 0 0 512 512" xml:space="preserve">
<g id="Capa_1">
</g>
<g>
	<path d="M332.4,320.8c0,25.6,20.7,46.3,46.3,46.3c25.5,0,46.3-20.7,46.3-46.3c0-25.5-20.7-46.2-46.3-46.2
		C353.2,274.5,332.4,295.3,332.4,320.8z M359.5,320.8c0-10.6,8.6-19.2,19.2-19.2s19.2,8.6,19.2,19.2c0,10.6-8.6,19.2-19.2,19.2
		S359.5,331.4,359.5,320.8z"/>
	<path d="M72.1,320.8c0,25.6,20.7,46.3,46.3,46.3c25.5,0,46.3-20.7,46.3-46.3c0-25.5-20.7-46.2-46.3-46.2
		C92.8,274.5,72.1,295.3,72.1,320.8z M99.1,320.8c0-10.6,8.6-19.2,19.2-19.2c10.6,0,19.2,8.6,19.2,19.2c0,10.6-8.6,19.2-19.2,19.2
		C107.7,340,99.1,331.4,99.1,320.8z"/>
	<path d="M23.5,287.4c0,17.8,6.5,39.7,25.8,39.7h13.2c-0.2-2.1-0.4-4.1-0.4-6.3c0-31,25.1-56.1,56.1-56.1c31,0,56.1,25.1,56.1,56.1
		c0,2.1-0.1,4.2-0.4,6.3H323c-0.2-2.1-0.4-4.1-0.4-6.3c0-31,25.1-56.1,56.1-56.1c31,0,56.1,25.1,56.1,56.1c0,2.1-0.1,4.2-0.4,6.3
		h0.3c14.1,0,35.9,0.7,39.2-5.8c2.8-5.6,20.3-16.2,9.8-44.5H469c-9.1,0-17.8-8.3-20.3-12.4c-2.5-4.1-5.4-12.8,0.8-12.8h18.7
		c-25.6-26.7-70.5-26.7-97.7-48.1c-30.7-24.2-75.9-53.3-114.6-56.5c-38.7-3.2-96.9-3.2-122.7,4.8c-25.8,8.1-54.9,58.1-85.5,75.9
		C17.1,245.4,23.5,261.6,23.5,287.4z M221.3,162.6c29.4,0.4,52.1,3.6,73.5,13.9c14.1,6.8,27.7,16.3,37.4,23.7l-13.1,8.2l-1.8,3.3
		l-6.4-4.4l6-8.2c1.6-2.2,1.1-5.2-1-6.8c-2.2-1.6-5.2-1.1-6.8,1L293.8,214h-72.5V162.6z M101.4,214c0,0,10.1-14,19.8-26.3
		c7.3-9.3,16.7-19,26.4-21.6c6.1-1.6,28.7-3.1,55-3.5V214H101.4z"/>
</g>
</svg>
