<?xml version="1.0" encoding="utf-8"?>
<!-- Generator: Adobe Illustrator 13.0.0, SVG Export Plug-In . SVG Version: 6.00 Build 14948)  -->
<!DOCTYPE svg PUBLIC "-//W3C//DTD SVG 1.1//EN" "http://www.w3.org/Graphics/SVG/1.1/DTD/svg11.dtd">
<svg version="1.1" id="Layer_1" xmlns="http://www.w3.org/2000/svg" xmlns:xlink="http://www.w3.org/1999/xlink" x="0px" y="0px"
	 width="512px" height="512px" viewBox="0 0 512 512" enable-background="new 0 0 512 512" xml:space="preserve">
<g id="Capa_1">
</g>
<g>
	<path d="M194.6,345.8c0,4.8-0.5,9.5-1.2,14.1h125.1c-0.7-4.6-1.2-9.3-1.2-14.1c0-52.7,42.7-95.4,95.4-95.4c11.2,0,21.8,2,31.7,5.5
		c2.4,0.8,4.5,0.4,5.5,0.2c13.3-2.4,27.4-7-4.7-52.4c-25.9-36.6-58.7-48-87.9-51.1l-29.7-59.3c-2.4-4.8-7.3-7.8-12.7-7.8h-56.6
		c-7.8,0-14.1,6.3-14.1,14.2c0,7.8,6.3,14.1,14.1,14.1h47.9l20,40c-31,10.7-65.2,61.5-75.9,68.7c-12,8-12-41.4-13.3-57.4
		c-1.3-16-20-22.7-36-22.7h-66.8c-22.7,0-33.4-2.7-38.7,9.3c-5.3,12-24,38.7-46.7,52.1c-22.7,13.4-25.4,24-14.7,29.4
		c8.4,4.2,20.8,5.2,30.3,23.9c10.8-4.2,22.4-6.6,34.7-6.6C151.9,250.4,194.6,293.1,194.6,345.8z"/>
	<path d="M334.1,345.8c0,43.5,35.2,78.7,78.7,78.7c43.4,0,78.7-35.2,78.7-78.7c0-43.4-35.2-78.7-78.7-78.7
		C369.4,267.2,334.1,302.4,334.1,345.8z M380.2,345.8c0-18,14.6-32.6,32.6-32.6c18,0,32.6,14.6,32.6,32.6s-14.6,32.6-32.6,32.6
		S380.2,363.9,380.2,345.8z M20.5,345.8c0,43.5,35.2,78.7,78.7,78.7c43.5,0,78.7-35.2,78.7-78.7c0-43.4-35.2-78.7-78.7-78.7
		C55.7,267.2,20.5,302.4,20.5,345.8z M66.5,345.8c0-18,14.6-32.6,32.6-32.6c18,0,32.6,14.6,32.6,32.6s-14.6,32.6-32.6,32.6
		C81.2,378.5,66.5,363.9,66.5,345.8z"/>
</g>
</svg>
