<?xml version="1.0" encoding="utf-8"?>
<!-- Generator: Adobe Illustrator 13.0.0, SVG Export Plug-In . SVG Version: 6.00 Build 14948)  -->
<!DOCTYPE svg PUBLIC "-//W3C//DTD SVG 1.1//EN" "http://www.w3.org/Graphics/SVG/1.1/DTD/svg11.dtd">
<svg version="1.1" id="Layer_1" xmlns="http://www.w3.org/2000/svg" xmlns:xlink="http://www.w3.org/1999/xlink" x="0px" y="0px"
	 width="512px" height="512px" viewBox="0 0 512 512" enable-background="new 0 0 512 512" xml:space="preserve">
<g id="Capa_1">
</g>
<g>
	<path d="M312.7,167.1c0,0-4-16.1-17-21.6c-9.6-4.1-37-16.7-54.9-21.1c-3.1-0.8-9.1-1.2-12.3,3.8c-3.7,5.8-2.4,13.4,6.7,16.3
		c14.5,4.5,50.7,14.3,50.7,14.3l1.5,8.3L312.7,167.1z"/>
	<path d="M39.3,301.1h455c-10-10.5-36.6-20.6-45.1-29.5c-12-12.6-125.7-90.7-125.7-90.7s-27.7,0-46.6,0c-18.9,0-26,30.3-36.9,51.9
		c-6.6,13.1-38,13.7-41,6.9c-3-6.9-15.9-24-26.9-24h-58.5c-20.9,0-28.3,3.1-31.3,18.3C80,245.4,77.7,278,50,294.5
		C46,296.9,42.4,299.1,39.3,301.1z M15.7,330.5c0,11.4,3.2,57.7,22.1,57.7h263.9c123.2,0,174.1-48.5,189.1-67.1H17.5
		C16.1,324,15.7,327,15.7,330.5z"/>
</g>
</svg>
