<?xml version="1.0" encoding="utf-8"?>
<!-- Generator: Adobe Illustrator 13.0.0, SVG Export Plug-In . SVG Version: 6.00 Build 14948)  -->
<!DOCTYPE svg PUBLIC "-//W3C//DTD SVG 1.1//EN" "http://www.w3.org/Graphics/SVG/1.1/DTD/svg11.dtd">
<svg version="1.1" id="Layer_1" xmlns="http://www.w3.org/2000/svg" xmlns:xlink="http://www.w3.org/1999/xlink" x="0px" y="0px"
	 width="512px" height="512px" viewBox="0 0 512 512" enable-background="new 0 0 512 512" xml:space="preserve">
<g id="Capa_1">
</g>
<g>
	<path d="M54.1,404.9L54.1,404.9l263.2,0.1v-0.1c24.7-0.7,44.5-20.8,44.5-45.7c0-24.8-19.8-45-44.5-45.7v-0.1h-1.1c0,0-0.1,0-0.1,0
		c0,0-0.1,0-0.1,0H54.7c0,0-0.1,0-0.1,0c0,0-0.1,0-0.1,0h-0.4v0c-25,0.3-45.2,20.6-45.2,45.7C8.9,384.3,29.1,404.6,54.1,404.9z
		 M35.7,359.2c0-10.3,8.2-18.6,18.5-18.9v0h1.2c0.1,0,0.2,0,0.2,0l0,0h261.2c10.2,0.4,18.3,8.7,18.3,18.9c0,10.3-8.2,18.7-18.5,18.9
		v0H55.4l0-0.1c-0.1,0-0.3,0-0.4,0.1h-0.7C44,377.9,35.7,369.5,35.7,359.2z"/>
	<path d="M46.5,303.6h284.4v0.1h0c0.5,0,1,0,1.4,0.1l51.4,25.3c2,19.5,3.5,37.3,5.6,55.1c2.1,17.8,10.8,21.4,32.4,21.4h56.4
		c22.2,0,30.4-7.1,6.4-32.8c-25.7-27.6-67.8-74.8-78.6-88c-13.6-16.8-30-20.9-26,11.2c0.3,2.6,0.6,5.1,0.9,7.7l-51.4-27.8
		c-2.3-11-4.2-32-4.2-32c-3.8-13.4-8.9-18.2-30.7-22c-9.7-1.7-24.7-5.1-44.7-8.4l-8.2-86.9h17.6v-21.9h-55.6c-0.5,0-0.9-0.1-1.4-0.1
		h-51.9c-23.1,0-26,11.4-30.8,41.7l-10.6,68.6H76.9c-10.6,0-23.6,0.6-26.2,27.9C49.3,257.1,47.9,291.1,46.5,303.6z M195,214.8
		c0.3-0.2,0.6-0.4,0.8-0.7l5.4-7.4l7.6,5.2l-1.6,2.9H195z M142.9,214.8c0,0,3.8-50,5.4-66.3c1.7-16.3,8.6-22,17.8-22
		c9.2,0,54.1,0,54.1,0l6.4,67.9l-12.5,7.8l-2,3.5l-6.9-4.7l6.5-8.8c1.7-2.3,1.2-5.6-1.1-7.3c-2.3-1.7-5.6-1.2-7.3,1.1l-16,21.8
		c-1.6,2.2-1.2,5.1,0.7,6.9L142.9,214.8L142.9,214.8z"/>
</g>
</svg>
