<?xml version="1.0" encoding="utf-8"?>
<!-- Generator: Adobe Illustrator 13.0.0, SVG Export Plug-In . SVG Version: 6.00 Build 14948)  -->
<!DOCTYPE svg PUBLIC "-//W3C//DTD SVG 1.1//EN" "http://www.w3.org/Graphics/SVG/1.1/DTD/svg11.dtd">
<svg version="1.1" id="Layer_1" xmlns="http://www.w3.org/2000/svg" xmlns:xlink="http://www.w3.org/1999/xlink" x="0px" y="0px"
	 width="512px" height="512px" viewBox="0 0 512 512" enable-background="new 0 0 512 512" xml:space="preserve">
<g id="Capa_1">
</g>
<g>
	<path fill="#010101" d="M422.1,222.2H87.9c-25.9,0-42.1-19.8-48.3-46.6c-1.2,5-12.9,34.9-13,46.6c-0.3,34.3,30.5,62.1,61.3,62.1
		h334.2c30.8,0,61.6-27.8,61.3-62.1c-0.1-11.7-11.8-41.6-13-46.6C464.2,202.4,448.1,222.2,422.1,222.2z"/>
	<g>
		<path fill="#010101" d="M159.4,290.1c6.2,1.4,14.2,14.4,11.7,20.3c-4.3,10-27.7,30.4-38.5,31.8c-8.9,1.2-25.5-27.9-20.1-34.9
			C119.1,298.9,149,287.7,159.4,290.1z"/>
		<path fill="#010101" d="M317.2,199.5c-1.9,6.1,5.3,19.5,11.7,20.3c10.8,1.3,40.2-8.6,46.9-17.2c5.5-7.1-11.3-36.1-20.1-34.9
			C345,169.1,320.4,189.3,317.2,199.5z"/>
		
			<rect x="239.8" y="145.3" transform="matrix(0.4983 0.867 -0.867 0.4983 343.5389 -83.47)" stroke="#FFFFFF" stroke-width="2.3211" width="8.2" height="219.6"/>
	</g>
</g>
</svg>
