<?xml version="1.0" encoding="utf-8"?>
<!-- Generator: Adobe Illustrator 13.0.0, SVG Export Plug-In . SVG Version: 6.00 Build 14948)  -->
<!DOCTYPE svg PUBLIC "-//W3C//DTD SVG 1.1//EN" "http://www.w3.org/Graphics/SVG/1.1/DTD/svg11.dtd">
<svg version="1.1" id="Layer_1" xmlns="http://www.w3.org/2000/svg" xmlns:xlink="http://www.w3.org/1999/xlink" x="0px" y="0px"
	 width="512px" height="512px" viewBox="0 0 512 512" enable-background="new 0 0 512 512" xml:space="preserve">
<g id="Capa_1">
</g>
<g>
	<g>
		<path fill="#010101" d="M338.5,279.1c-1.3,0.9-4.2,0.8-4.2,0.8l-82.1,0c-1.7,0-2.4-1.5-1.4-3.3l9.2-17.1c1-1.8,3.2-3.2,4.9-3.2
			l56,0c0,0,2.3,0.3,3.5,2.1c1.2,1.8,14.2,17.2,14.2,17.2C340,276.8,339.5,278.4,338.5,279.1z M448.6,280.8l0.2,0.1
			c-27.3-2.2-65.2-5.4-76.3-6.3l-18.6,3.3c-1.7,0.3-4.2-0.7-5.6-2.3l-15.3-17c-1.4-1.6-1-3.1,0.7-3.4l12.4-1.9l-31.4-28.5h-71.9
			l-29.5-46.8H211v-4.2h6l-2.3-7.5h-17.1l-2.8,7.5h6v4.2h-1.9l22.3,47.9v21.2l-8.4,1.7l-1.1,5.6l14.5,3.9c0,0,3.9,1.7,1.7,6.1
			c-2.2,4.5-18.9,37.9-18.9,37.9s-114.4,5.5-171.6-1.7c-4.5-0.6-15-3.9-17.8-1.7c-2.8,2.2-2.2,5.6-2.2,5.6l15.6,39.6h409
			c0,0,32.8-41.6,39.8-50.7l13.1-5v-6.8L448.6,280.8z"/>
		
			<line fill="none" stroke="#010101" stroke-width="2.8211" stroke-linecap="round" stroke-linejoin="round" stroke-miterlimit="10" x1="374.1" y1="277.8" x2="341.5" y2="250.9"/>
	</g>
	<g>
		<path fill="#010101" d="M68,297.4c0-3,2.5-5.5,5.5-5.5H92v16.2H96v-16.2h24.1v16.2h3.9v-16.2h24.1v16.2h3.9v-16.2h18.7
			c3,0,5.5,2.5,5.5,5.5v10.8h3.9v-10.8c0-5.2-4.2-9.4-9.4-9.4H73.4c-5.2,0-9.4,4.2-9.4,9.4v10.8H68V297.4L68,297.4z"/>
	</g>
</g>
</svg>
