<?xml version="1.0" encoding="utf-8"?>
<!-- Generator: Adobe Illustrator 13.0.0, SVG Export Plug-In . SVG Version: 6.00 Build 14948)  -->
<!DOCTYPE svg PUBLIC "-//W3C//DTD SVG 1.1//EN" "http://www.w3.org/Graphics/SVG/1.1/DTD/svg11.dtd">
<svg version="1.1" id="Layer_1" xmlns="http://www.w3.org/2000/svg" xmlns:xlink="http://www.w3.org/1999/xlink" x="0px" y="0px"
	 width="512px" height="512px" viewBox="0 0 512 512" enable-background="new 0 0 512 512" xml:space="preserve">
<g id="Capa_1">
</g>
<g>
	<g>
		<polygon fill="#010101" points="37,248.9 350.1,248.9 350.1,188.2 15,188.2 15,256 28.1,256 		"/>
		<rect x="74.3" y="245.1" fill="#010101" width="275.7" height="15.9"/>
		<path fill="none" stroke="#FFFFFF" stroke-width="14.1705" stroke-miterlimit="10" d="M179.9,244.5c-20.8,0-37.6,16.9-37.6,37.6
			c0,20.8,16.8,37.6,37.6,37.6c20.8,0,37.6-16.9,37.6-37.6C217.6,261.4,200.7,244.5,179.9,244.5z"/>
		<path fill="#FFFFFF" d="M203.3,282.2c0,12.9-10.5,23.4-23.4,23.4c-12.9,0-23.4-10.5-23.4-23.4c0-12.9,10.5-23.4,23.4-23.4
			C192.8,258.8,203.3,269.3,203.3,282.2z"/>
		<rect x="408.9" y="194.1" fill="#010101" width="7.6" height="56"/>
		<polygon fill="#010101" points="459.3,266.3 293.7,279.1 271.4,274.4 271.4,260 459.3,260 		"/>
		<path fill="#010101" d="M427.2,260v-3.7c0-1.3,1.1-2.4,2.4-2.4h63c1.3,0,2.4,1.1,2.4,2.4v3.7H427.2z"/>
		<path fill="#010101" d="M475,260c0,1.3-1.1,2.4-2.4,2.4h-50.5c-1.3,0-2.4-1.1-2.4-2.4v-7.3c0-1.3,1.1-2.4,2.4-2.4h50.5
			c1.3,0,2.4,1.1,2.4,2.4V260z"/>
		<rect x="410.3" y="247.2" fill="#010101" width="4.8" height="30.3"/>
		<path fill="#010101" d="M433.9,188.2c0,0.7-0.5,1.2-1.2,1.2h-4.1c-0.7,0-1.2-0.5-1.2-1.2v-1.4c0-0.7,0.5-1.2,1.2-1.2h4.1
			c0.7,0,1.2,0.5,1.2,1.2V188.2z"/>
		<rect x="428.9" y="188.1" fill="#010101" width="3.4" height="3.8"/>
		<path fill="#010101" d="M413.7,196.2c-0.5,0-0.8-0.4-0.8-0.8v-3.7c0-0.5,0.4-0.8,0.8-0.8c0.5,0,0.8,0.4,0.8,0.8v3.7
			C414.5,195.8,414.1,196.2,413.7,196.2z"/>
		<path fill="#010101" d="M430.2,193.3h-16.5c-0.5,0-0.8-0.4-0.8-0.8c0-0.5,0.4-0.8,0.8-0.8h16l0.4-1c0.2-0.4,0.7-0.6,1.1-0.4
			c0.4,0.2,0.6,0.7,0.4,1.1l-0.7,1.5C430.8,193.1,430.5,193.3,430.2,193.3z"/>
		<path fill="#010101" d="M396.1,292.2"/>
		<path fill="#010101" d="M410.8,288.5l5.1-7.2c1.2-1.6,0.8-3.9-0.9-5l-1-0.7c-1.6-1.1-3.9-0.8-5,0.9l-5.1,7.2l-7.8,8.6l2.8,4.5
			L410.8,288.5z"/>
		<circle fill="#010101" cx="395" cy="296.1" r="7.1"/>
		<circle fill="#010101" cx="395" cy="296.1" r="11.8"/>
		<path fill="#010101" d="M443.1,251.6c0,0,8.4-7.2,10.2-8.6c1.8-1.5,4.5-1,4.5-1s7.2,0,9,0s3.7-1.5,3.7-2.8c0-1.3-1.8-1.5-1.8-1.5
			s-9.9,0-12.3,0c-2.9,0-5.6,2.2-5.6,2.2l-5.6,4.4l-7.7,7.1L443.1,251.6z"/>
		<path fill="#010101" d="M467.2,247.3c0,0-1-1.1,0.2-2.4c1.2-1.2,3.3-1.7,5.6-1.7c2.4,0,6.2,0,6.2,0s1.9,0,3.3,1.8
			c1.3,1.8,6.1,9.3,6.1,9.3l-7.5,0.6v-3.1c0,0-1.9-4-3.6-4.4c-1.7-0.3-6.5,0-6.5,0S468.6,248.9,467.2,247.3z"/>
	</g>
	<path fill="#010101" d="M203.3,282.2c0,12.9-10.5,23.4-23.4,23.4c-12.9,0-23.4-10.5-23.4-23.4c0-12.9,10.5-23.4,23.4-23.4
		C192.8,258.8,203.3,269.3,203.3,282.2z M179.9,244.5c-20.8,0-37.6,16.9-37.6,37.6c0,20.8,16.8,37.6,37.6,37.6
		c20.8,0,37.6-16.9,37.6-37.6C217.6,261.4,200.7,244.5,179.9,244.5z"/>
</g>
</svg>
