<?xml version="1.0" encoding="utf-8"?>
<!-- Generator: Adobe Illustrator 13.0.0, SVG Export Plug-In . SVG Version: 6.00 Build 14948)  -->
<!DOCTYPE svg PUBLIC "-//W3C//DTD SVG 1.1//EN" "http://www.w3.org/Graphics/SVG/1.1/DTD/svg11.dtd">
<svg version="1.1" id="Layer_1" xmlns="http://www.w3.org/2000/svg" xmlns:xlink="http://www.w3.org/1999/xlink" x="0px" y="0px"
	 width="512px" height="512px" viewBox="0 0 512 512" enable-background="new 0 0 512 512" xml:space="preserve">
<g id="Capa_1">
</g>
<g>
	<path fill="#010101" d="M90.5,228.4l-9-1.5l7.1-42.2c1.2-8.2,4.5-15.2,9.6-20.2c5.3-5.2,12.2-7.9,20-7.9h72.6v9.1h-72.6
		c-10.9,0-18.8,7.8-20.6,20.3l0,0.1L90.5,228.4z"/>
	<path fill="#010101" d="M51.5,265.1c0,2.7-2.2,4.8-4.8,4.8H29.8c-2.7,0-4.8-2.2-4.8-4.8V194c0-2.7,2.2-4.8,4.8-4.8h16.9
		c2.7,0,4.8,2.2,4.8,4.8V265.1z"/>
	<path fill="#010101" d="M154.7,308.7c0,14.5-11.8,26.3-26.3,26.3c-14.5,0-26.3-11.8-26.3-26.3c0-14.5,11.8-26.3,26.3-26.3
		S154.7,294.2,154.7,308.7z M128.4,264.1c-24.7,0-44.7,20-44.7,44.7c0,24.7,20,44.7,44.7,44.7c24.7,0,44.7-20,44.7-44.7
		C173.1,284.1,153.1,264.1,128.4,264.1z"/>
	<path fill="#010101" d="M423.1,308.7c0,14.5-11.8,26.3-26.3,26.3c-14.5,0-26.3-11.8-26.3-26.3c0-14.5,11.8-26.3,26.3-26.3
		C411.3,282.5,423.1,294.2,423.1,308.7z M396.8,264.1c-24.7,0-44.7,20-44.7,44.7c0,24.7,20,44.7,44.7,44.7c24.7,0,44.7-20,44.7-44.7
		C441.5,284.1,421.5,264.1,396.8,264.1z"/>
	<path fill="#010101" d="M459,267.4l21.2,2.2c2.7,0,4.8,2.2,4.8,4.8v16.2c0,2.7-2.2,4.8-4.8,4.8l-29.5,3c-1.6,0-2.1-2.3-2.1-2.3
		s-8.3-29.4-11.5-34.9c-3.2-5.5-7.6-7.6-13.1-8.5c-5.5-0.9-46.4-2.1-46.4-2.1c-12.3,0-17.8,9.9-17.8,9.9l-28.5,45.5
		c-2,3.5-8.2,5-8.2,5l-14,2.9c0,0-120.3,0-123.2,0s-3.8-3.8-3.8-3.8v-17.5c0,0-12-18.7-20.1-31.2c-8.2-12.5-25.4-10.8-25.4-10.8
		s-28.3,0-35.9,0c-7.6,0-10.8,7.6-10.8,7.6l-17.1,39.1H43.3c-2.7,0-4.8-2.2-4.8-4.8V278c0-2.7,2.2-4.8,4.8-4.8h12.9
		c-0.8-0.4-1.3-1.2-1.3-2.2v-47.1c0-1.3,1.1-2.4,2.4-2.4h127v-64.9h85.9c0,0,6.3,0.1,8.8,5.7c2.1,4.6,28.8,49.6,28.8,49.6
		l124.9,13.3c0,0,7,1.2,9.4,6.3c2.3,5.1,3.3,9.1,3.3,9.1S456.8,255,459,267.4 M269.1,170.6c-1.6-3.7-4.5-5.7-7.6-5.7h-50.6
		c-3.1,0-5.7,2.5-5.7,5.7v36.3c0,3.1,2.5,5.7,5.7,5.7h72.3c3.1,0,7.1-2.8,4.8-7.1L269.1,170.6z"/>
</g>
</svg>
