<?xml version="1.0" encoding="utf-8"?>
<!-- Generator: Adobe Illustrator 13.0.0, SVG Export Plug-In . SVG Version: 6.00 Build 14948)  -->
<!DOCTYPE svg PUBLIC "-//W3C//DTD SVG 1.1//EN" "http://www.w3.org/Graphics/SVG/1.1/DTD/svg11.dtd">
<svg version="1.1" id="Layer_1" xmlns="http://www.w3.org/2000/svg" xmlns:xlink="http://www.w3.org/1999/xlink" x="0px" y="0px"
	 width="512px" height="512px" viewBox="0 0 512 512" enable-background="new 0 0 512 512" xml:space="preserve">
<g id="Capa_1">
</g>
<path d="M420.2,93.4v63H89.8v-63H358c0.1-13.3-2.1-28.4-10.5-39.5c-7.4-9.8-18.9-15.3-34.1-16.5c-1.2,2.3-3.6,4-6.5,4h-12.7
	c-4.1,0-7.4-3.3-7.4-7.4c0-4.1,3.3-7.4,7.4-7.4h12.7c3.3,0,6,2.2,7,5.2c16.8,1.3,29.6,7.5,38.1,18.7c9.4,12.4,11.9,28.7,11.7,42.9
	L420.2,93.4L420.2,93.4z M145.7,483.4H366l14.7-313.5H129.3L145.7,483.4z"/>
</svg>
