<?xml version="1.0" encoding="utf-8"?>
<!-- Generator: Adobe Illustrator 13.0.0, SVG Export Plug-In . SVG Version: 6.00 Build 14948)  -->
<!DOCTYPE svg PUBLIC "-//W3C//DTD SVG 1.1//EN" "http://www.w3.org/Graphics/SVG/1.1/DTD/svg11.dtd">
<svg version="1.1" id="Layer_1" xmlns="http://www.w3.org/2000/svg" xmlns:xlink="http://www.w3.org/1999/xlink" x="0px" y="0px"
	 width="512px" height="512px" viewBox="0 0 512 512" enable-background="new 0 0 512 512" xml:space="preserve">
<g id="Capa_1">
</g>
<g>
	<path d="M458.4,251.8c0,52-90.8,94.2-202.7,94.2c-112,0-202.8-42.2-202.8-94.2c0-52,90.8-94.2,202.8-94.2
		C367.6,157.6,458.4,199.8,458.4,251.8z"/>
	<g>
		<path d="M242.8,119.7c0,12.8-7.5,23.2-16.7,23.2h-94.1c-9.2,0-16.7-10.4-16.7-23.2l0,0c0-12.8,7.5-23.2,16.7-23.2h94.1
			C235.4,96.5,242.8,106.9,242.8,119.7L242.8,119.7z"/>
		<path d="M396,119.7c0,12.8-7.5,23.2-16.7,23.2h-94.1c-9.2,0-16.7-10.4-16.7-23.2l0,0c0-12.8,7.4-23.2,16.7-23.2h94.1
			C388.5,96.5,396,106.9,396,119.7L396,119.7z"/>
	</g>
	<g>
		<path d="M242.8,390.3c0,12.8-7.5,23.2-16.7,23.2h-94.1c-9.2,0-16.7-10.4-16.7-23.2l0,0c0-12.8,7.5-23.2,16.7-23.2h94.1
			C235.4,367.1,242.8,377.5,242.8,390.3L242.8,390.3z"/>
		<path d="M396,390.3c0,12.8-7.5,23.2-16.7,23.2h-94.1c-9.2,0-16.7-10.4-16.7-23.2l0,0c0-12.8,7.4-23.2,16.7-23.2h94.1
			C388.5,367.1,396,377.5,396,390.3L396,390.3z"/>
	</g>
	<path d="M21,188.1c12.2,0,22.1,7.4,22.1,16.6v94.1c0,9.2-9.9,16.7-22.1,16.7l0,0c-12.1,0-22-7.5-22-16.7v-94.1
		C-1.1,195.5,8.8,188.1,21,188.1L21,188.1z"/>
	<path d="M489.6,188.1c11.8,0,21.4,7.4,21.4,16.6v94.1c0,9.2-9.6,16.7-21.4,16.7l0,0c-11.8,0-21.4-7.5-21.4-16.7v-94.1
		C468.2,195.5,477.8,188.1,489.6,188.1L489.6,188.1z"/>
</g>
</svg>
