<?xml version="1.0" encoding="utf-8"?>
<!-- Generator: Adobe Illustrator 13.0.0, SVG Export Plug-In . SVG Version: 6.00 Build 14948)  -->
<!DOCTYPE svg PUBLIC "-//W3C//DTD SVG 1.1//EN" "http://www.w3.org/Graphics/SVG/1.1/DTD/svg11.dtd">
<svg version="1.1" id="Layer_1" xmlns="http://www.w3.org/2000/svg" xmlns:xlink="http://www.w3.org/1999/xlink" x="0px" y="0px"
	 width="512px" height="512px" viewBox="0 0 512 512" enable-background="new 0 0 512 512" xml:space="preserve">
<g id="Capa_1">
</g>
<rect x="55" y="55" fill="none" width="400" height="400"/>
<path d="M447.1,210.6l-65.8-60.3c-2.6-2-5.9-3-9.2-3H137.8c-3.3,0-6.5,1.1-9.2,3l-67.4,61.5c0,0-6.2,3.9-6.2,12.4V255
	c0,8.5,6.9,15.4,15.4,15.4h369.2c8.5,0,15.4-6.9,15.4-15.4v-30.8C455,216.1,447.1,210.6,447.1,210.6z"/>
<path d="M85.8,455c-8.5,0-15.4-6.9-15.4-15.4V255h46.2v184.6c0,8.5-6.9,15.4-15.4,15.4H85.8z"/>
<path d="M408.8,455c-8.5,0-15.4-6.9-15.4-15.4V255h46.2v184.6c0,8.5-6.9,15.4-15.4,15.4H408.8z"/>
<path d="M362.7,378.1c-8.5,0-15.4-6.9-15.4-15.4v-76.9h30.8v76.9C378.1,371.2,371.2,378.1,362.7,378.1L362.7,378.1z"/>
<path d="M147.3,378.1c-8.5,0-15.4-6.9-15.4-15.4v-76.9h30.8v76.9C162.7,371.2,155.8,378.1,147.3,378.1L147.3,378.1z"/>
</svg>
