<?xml version="1.0" encoding="utf-8"?>
<!-- Generator: Adobe Illustrator 13.0.0, SVG Export Plug-In . SVG Version: 6.00 Build 14948)  -->
<!DOCTYPE svg PUBLIC "-//W3C//DTD SVG 1.1//EN" "http://www.w3.org/Graphics/SVG/1.1/DTD/svg11.dtd">
<svg version="1.1" id="Layer_1" xmlns="http://www.w3.org/2000/svg" xmlns:xlink="http://www.w3.org/1999/xlink" x="0px" y="0px"
	 width="433.335px" height="454.562px" viewBox="0 0 433.335 454.562" enable-background="new 0 0 433.335 454.562"
	 xml:space="preserve">
<path d="M216.668,367.125c-38.935,0-72.395-17.954-87.063-43.641l-70.479,28.219C32.994,362.16,0,387.066,0,418.516v10.148v8.148
	c0,10.311,8.441,18.751,18.752,18.751c131.945,0,263.886,0,395.826,0c10.314,0,18.758-8.44,18.758-18.751v-8.148v-10.148
	c0-31.449-33-56.354-59.125-66.812l-70.479-28.22C289.062,349.171,255.603,367.125,216.668,367.125L216.668,367.125z
	 M124.545,237.902c0.971,3.459,1.893,6.925,3.061,10.315c27.187,78.584,147.815,80.577,177.231,2.533
	c1.605-4.257,2.785-8.626,4.031-12.989c3.135-1.027,6.387-1.882,9.268-3.527c9.277-5.283,15.32-16.818,18.25-26.567
	c4.414-14.68,4.785-33.403-3.688-46.202c-2.617-3.948-4.354-3.65-6.869,0.68c-2.381,4.094-3.621,10.069-6.361,11.726
	c-4.857,2.932-8.188-1.954-9.535-5.862c-2.293-6.689-2.793-20.471-4.286-24.542c-2.796-7.614-11.597-17.229-13-26.714
	c-1.5-10.115-1.786-11.199-5.667-16.775c-3.818-5.498-9.271-8.098-20.941-4.116c-29.41,10.041-60.376,19.009-96.84,19.402
	c-17.156,0.186-23.851-2.297-32.809,13.534c-3.015,5.33-7.087,10.271-8.704,14.669c-1.488,4.065-1.994,17.853-4.285,24.542
	c-1.341,3.908-4.678,8.794-9.535,5.862c-5.695-3.453-6.655-22.997-13.911-12.118c-5.144,7.71-6.104,20.436-5.807,28.752
	c0.534,15.012,5.847,31.259,17.527,41.075C115.537,234.831,119.833,236.252,124.545,237.902L124.545,237.902z M108.018,253.043
	c-3.32-1.65-6.392-3.762-9.228-6.148c-16.079-13.513-23.935-35.048-24.676-55.683c-0.473-13.247,1.831-28.506,9.215-40.001
	c0.096-12.328-0.146-24.036,1.876-36.195c9.704-58.344,40.148-101.345,102.9-111.094c31.948-4.953,85.137-6.828,106.006,21.537
	c37.07,14.596,50.289,55.575,55.637,100.945c0.18,1.539,0.189,16.422,0.254,24.885c11.129,17.6,11.623,42.191,5.625,62.111
	c-4.811,16.012-14.982,31.938-30.279,39.632C294.195,354.021,138.77,352.591,108.018,253.043L108.018,253.043z"/>
</svg>
