<?xml version="1.0" encoding="utf-8"?>
<!-- Generator: Adobe Illustrator 13.0.0, SVG Export Plug-In . SVG Version: 6.00 Build 14948)  -->
<!DOCTYPE svg PUBLIC "-//W3C//DTD SVG 1.1//EN" "http://www.w3.org/Graphics/SVG/1.1/DTD/svg11.dtd">
<svg version="1.1" id="Layer_1" xmlns="http://www.w3.org/2000/svg" xmlns:xlink="http://www.w3.org/1999/xlink" x="0px" y="0px"
	 width="465.64px" height="453.333px" viewBox="0 0 465.64 453.333" enable-background="new 0 0 465.64 453.333"
	 xml:space="preserve">
<path d="M211.175,346.265c-4.808,0-8.699,2.123-11.479,5.218c-3.597,3.993-4.414,8.671-3.415,13.895l4.65,24.211
	c0.8,4.16,3.283,7.529,6.865,9.086l-13.268,39.43L143.23,322.18L41.136,358.709C18.895,368.51,0,390.206,0,416.286v10.143v8.154
	c0,10.311,8.441,18.752,18.757,18.752h428.125c10.312,0,18.756-8.441,18.756-18.752v-8.154v-10.143
	c0-26.08-18.895-47.774-41.139-57.574L322.406,322.18L271.11,438.102l-13.269-39.43c3.58-1.555,6.064-4.926,6.863-9.086
	l4.646-24.211c1.003-5.223,0.184-9.899-3.409-13.894c-2.782-3.095-6.671-5.218-11.481-5.218L211.175,346.265L211.175,346.265z
	 M99.48,149.389c0.062-8.474,0.082-23.277,0.264-24.811C108.598,49.42,145.943-0.146,230.926,0
	c27.033,0.044,50.184,3.959,68.687,13.006c39.678,19.375,60.1,59.04,66.285,111.571c0.18,1.534,0.189,16.421,0.256,24.879
	c11.125,17.6,11.617,42.198,5.627,62.112c-4.811,16.011-14.986,31.937-30.281,39.63c-31.15,100.991-186.577,99.555-217.33,0.012
	c-3.318-1.655-6.394-3.768-9.229-6.147c-16.079-13.513-23.929-35.055-24.668-55.682C89.795,176.138,92.098,160.885,99.48,149.389
	L99.48,149.389z M336.292,152.506c-12.932-14.658-6.631-55.075-36.189-63.662c-23.042-6.695-31.132,9.912-67.055,9.839
	c-35.919-0.073-44.02-16.534-67.056-9.839c-29.562,8.586-23.713,49.003-36.641,63.662c-2.156,2.443-7.456,1.387-10.583,4.256
	c-7.486,6.863-8.813,22.318-8.468,31.91c0.533,15.017,5.846,31.264,17.524,41.075c3.867,3.252,8.163,4.678,12.875,6.328
	c0.966,3.453,1.893,6.92,3.063,10.311c27.181,78.585,147.815,80.578,177.231,2.533c1.602-4.256,2.781-8.625,4.023-12.989
	c3.143-1.021,6.387-1.888,9.275-3.531c9.275-5.285,15.316-16.814,18.248-26.563c4.418-14.68,4.783-33.398-3.691-46.196
	C344.888,153.652,339.425,156.067,336.292,152.506L336.292,152.506z"/>
</svg>
