<?xml version="1.0" encoding="utf-8"?>
<!-- Generator: Adobe Illustrator 13.0.0, SVG Export Plug-In . SVG Version: 6.00 Build 14948)  -->
<!DOCTYPE svg PUBLIC "-//W3C//DTD SVG 1.1//EN" "http://www.w3.org/Graphics/SVG/1.1/DTD/svg11.dtd">
<svg version="1.1" id="Layer_1" xmlns="http://www.w3.org/2000/svg" xmlns:xlink="http://www.w3.org/1999/xlink" x="0px" y="0px"
	 width="433.335px" height="489.219px" viewBox="0 0 433.335 489.219" enable-background="new 0 0 433.335 489.219"
	 xml:space="preserve">
<path d="M125.61,275.701c0.96,3.426,1.87,6.863,3.033,10.227c26.648,77.32,143.722,80.6,175.67,6.565
	c2.381-5.521,3.978-11.187,5.62-16.938c12.086-3.953,19.365-10.721,24.77-22.699c1.039-2.308,1.965-4.778,2.75-7.39
	c4.662-15.495,5.521-38.042-6.299-49.386c-5.814,1.578-6.621,13.164-10.621,15.584c-4.857,2.943-8.193-1.949-9.535-5.857
	c-2.291-6.683-2.791-20.47-4.285-24.542c-2.797-7.615-11.598-17.235-13-26.715c-1.494-10.12-1.787-11.199-5.668-16.774
	c-3.818-5.504-9.271-8.098-20.941-4.111c-13.713,4.678-31.538,7.025-49.369,7.025c-17.83,0-35.654-2.347-49.375-7.025
	c-11.669-3.987-17.122-1.393-20.94,4.111c-3.875,5.576-4.167,6.654-5.661,16.774c-1.404,9.479-10.21,19.1-13.007,26.715
	c-1.489,4.071-1.988,17.858-4.285,24.542c-1.337,3.909-4.673,8.8-9.535,5.857c-4.011-2.426-4.818-14.108-10.688-15.606
	c-7.886,7.244-9.412,21.706-9.03,32.246c0.555,15.018,5.823,31.242,17.521,41.075C116.749,272.742,120.832,274.033,125.61,275.701
	L125.61,275.701z M216.667,400.772c-38.935,0-72.395-17.954-87.062-43.636l-70.486,28.215C32.999,395.809,0,420.727,0,452.17v10.144
	v8.147c0,10.316,8.436,18.758,18.757,18.758c131.941,0,263.88,0,395.821,0c10.314,0,18.758-8.44,18.758-18.758v-8.147V452.17
	c0-31.443-32.996-56.361-59.125-66.818l-70.479-28.213C289.056,382.818,255.596,400.772,216.667,400.772L216.667,400.772z
	 M228.658,34.156c10.956-6.188,19.875-13.327,24.086-23.615c7.055,11.322,9.159,22.722,7.614,33.28
	c62.849,13.68,83.317,59.803,90.448,120.388c0.182,1.539,0.197,16.421,0.266,24.884c11.068,17.662,11.631,42.136,5.629,62.106
	c-1.045,3.477-2.293,6.777-3.697,9.9c-6.412,14.209-16.354,24.58-26.592,29.73c-31.148,100.99-186.577,99.559-217.329,0.011
	c-3.319-1.649-6.396-3.768-9.232-6.149c-16.062-13.5-23.941-35.055-24.665-55.682c-0.499-13.607,1.943-27.99,9.21-39.693
	c0.298-37.678,4.751-77.517,28.624-108.522c6.751-8.766,15-16.606,24.222-22.682c30-19.773,73.214-29.315,85.788-58.114
	C228.724,11.743,230.251,23.379,228.658,34.156L228.658,34.156z"/>
</svg>
