<?xml version="1.0" encoding="utf-8"?>
<!-- Generator: Adobe Illustrator 13.0.0, SVG Export Plug-In . SVG Version: 6.00 Build 14948)  -->
<!DOCTYPE svg PUBLIC "-//W3C//DTD SVG 1.1//EN" "http://www.w3.org/Graphics/SVG/1.1/DTD/svg11.dtd">
<svg version="1.1" id="Layer_1" xmlns="http://www.w3.org/2000/svg" xmlns:xlink="http://www.w3.org/1999/xlink" x="0px" y="0px"
	 width="399.773px" height="441.014px" viewBox="0 0 399.773 441.014" enable-background="new 0 0 399.773 441.014"
	 xml:space="preserve">
<path d="M107.682,240.131c0.966,3.454,1.887,6.925,3.06,10.315c27.182,78.578,147.816,80.576,177.234,2.527
	c1.602-4.252,2.776-8.621,4.023-12.988c3.139-1.028,6.389-1.883,9.27-3.527c9.274-5.285,15.323-16.814,18.249-26.563
	c3.812-12.669,4.605-28.338-0.69-40.625c-21.809-2.224-51.107-0.787-71.038-6.778c-8.003-2.41-28.366-31.663-32.479-31.988
	c-5.295-0.416,6.324,29.703,1.533,29.45c-14.099-0.747-32.94-2.303-47.286-15.287c-27.071-24.485-20.153-64.672-32.356-55.131
	c-16.833,13.164-26.558,63.061-42.231,66.425c-3.123,1.381-6.661,2.516-9.218,4.857c-7.484,6.868-8.815,22.318-8.469,31.916
	c0.536,15.011,5.846,31.257,17.524,41.069C98.671,237.053,102.967,238.479,107.682,240.131L107.682,240.131z M112.011,320.315
	l-59.514,27.838C26.369,358.61,0,383.522,0,414.965v10.137v8.16c0,10.316,8.44,18.752,18.757,18.752h152.514l-31.915-70.93
	c36.622,19.824,84.059,19.908,120.583-0.097l-31.434,71.025h152.51c10.316,0,18.759-8.436,18.759-18.752v-8.16v-10.137
	c0-31.443-26.37-56.355-52.498-66.812l-60.319-28.213l-6.411,14.494c-36.194,54.855-125.232,54.435-161.861,0.707L112.011,320.315
	L112.011,320.315z M266.861,311.083c-38.783,25.688-93.574,25.715-132.692,0.657c-0.23-0.146-1.143-0.81-2.232-1.364
	c-61.376-2.701-82.36-42.4-88.029-82.094C34.574,162.924,67.175,32.646,145.94,26.491c65.299-38.271,151.478-2.415,185.783,72.255
	c33.601,73.142,50.938,206.896-62.996,211.735C267.605,310.526,267.833,310.442,266.861,311.083L266.861,311.083z"/>
</svg>
