<?xml version="1.0" encoding="utf-8"?>
<!-- Generator: Adobe Illustrator 13.0.0, SVG Export Plug-In . SVG Version: 6.00 Build 14948)  -->
<!DOCTYPE svg PUBLIC "-//W3C//DTD SVG 1.1//EN" "http://www.w3.org/Graphics/SVG/1.1/DTD/svg11.dtd">
<svg version="1.1" id="Layer_1" xmlns="http://www.w3.org/2000/svg" xmlns:xlink="http://www.w3.org/1999/xlink" x="0px" y="0px"
	 width="403.682px" height="441.472px" viewBox="0 0 403.682 441.472" enable-background="new 0 0 403.682 441.472"
	 xml:space="preserve">
<path d="M201.841,365.964c-37.905,0-70.62-17.016-85.858-41.618L55.072,351.19C30.833,361.871,0,385.38,0,415.093v11.428v7.863
	c0,9.951,8.14,18.088,18.089,18.088h367.507c9.945,0,18.086-8.137,18.086-18.088v-7.863v-11.428
	c0-29.713-30.837-53.223-55.071-63.903l-60.914-26.844C272.463,348.949,239.745,365.964,201.841,365.964L201.841,365.964z
	 M380.193,297.36c-19.394,10.25-66.427,16.479-104.544,13.642c-0.471-0.033-5.539-0.504-5.53-0.521
	c-37.914,25.67-91.557,26.496-130.767,3.021c-0.211-0.129-2.325-1.433-2.308-1.403c-47.027,4.655-94.199-2.882-110.847-11.974
	c14.621-38.392,26.471-83.508,30.214-127.364c0.954-11.158,2.074-22.581,4.669-34.875c9.825-46.618,29.803-106.91,87.208-111.397
	c65.3-38.266,151.48-2.42,185.783,72.26c9.058,19.712,14.205,46.164,16.165,74.187C353.217,215.561,367.526,266.216,380.193,297.36
	L380.193,297.36z M321.176,169.257c-19.383-2.089-50.45-2.836-63.508-6.767c-8.008-2.41-28.364-31.663-32.479-31.983
	c-5.299-0.416,6.322,29.697,1.529,29.444c-14.099-0.747-25.634-5.015-37.284-13.956c-19.557-15.022-31.16-61.572-52.657-56.018
	c-20.695,5.34-23.781,62.617-39.455,65.981c-3.122,1.381-6.661,2.511-9.219,4.864c-7.483,6.868-8.816,22.317-8.469,31.909
	c0.534,15.012,5.847,31.259,17.525,41.075c3.863,3.244,8.16,4.678,12.874,6.322c0.966,3.453,1.887,6.924,3.061,10.316
	c27.178,78.577,147.816,80.576,177.234,2.533c1.603-4.257,2.774-8.627,4.024-12.996c3.135-1.021,6.388-1.881,9.266-3.525
	c9.278-5.285,15.326-16.814,18.252-26.563C325.688,197.219,326.477,181.544,321.176,169.257L321.176,169.257z"/>
</svg>
