<?xml version="1.0" encoding="utf-8"?>
<!-- Generator: Adobe Illustrator 13.0.0, SVG Export Plug-In . SVG Version: 6.00 Build 14948)  -->
<!DOCTYPE svg PUBLIC "-//W3C//DTD SVG 1.1//EN" "http://www.w3.org/Graphics/SVG/1.1/DTD/svg11.dtd">
<svg version="1.1" id="Layer_1" xmlns="http://www.w3.org/2000/svg" xmlns:xlink="http://www.w3.org/1999/xlink" x="0px" y="0px"
	 width="405.875px" height="421.402px" viewBox="0 0 405.875 421.402" enable-background="new 0 0 405.875 421.402"
	 xml:space="preserve">
<path d="M126.158,303.52l-58.119,28.438c-22.837,10.06-57.318,32.226-57.318,60.222v10.766v7.405c0,9.38,7.674,17.052,17.05,17.052
	h345.743c9.37,0,17.044-7.672,17.044-17.052v-7.405V392.18c0-27.996-34.479-50.162-57.318-60.222l-58.22-28.487
	c-11.285,46.813-42.297,79.194-74.375,96.036C167.468,381.968,134.607,345.162,126.158,303.52L126.158,303.52z"/>
<g>
	<g>
		<path d="M405.701,242.998c-12.854-37.048-45.924-74.889-75.085-91.636c3.857-70.838-34.642-137.976-101.673-137.486
			C177.655-7.381,127.117,17.593,97.681,50.722c-24.662,27.754-32.796,65.307-32.333,100.592
			c-26.401,18.818-53.755,52.34-65.173,85.245c-3.835,19.991,57.047,49.582,71.997,38.267c1.658-16.416,7.935-33.824,12.908-43.58
			c3.872,4.129,8.398,7.795,13.475,10.328c28.975,93.802,175.439,95.155,204.794-0.013c5.121-2.572,9.631-6.127,13.522-10.322
			c4.765,5.768,14.677,28.742,16.833,50.027C348.652,292.592,409.537,262.996,405.701,242.998z M313.75,198.811
			c-4.33,14.427-11.877,23.755-25.932,28.36c-1.174,4.111-2.282,8.228-3.795,12.236c-27.719,73.545-141.396,71.663-167.009-2.388
			c-1.102-3.194-1.977-6.463-2.887-9.723c-4.442-1.549-8.486-2.896-12.137-5.957c-11.001-9.25-16.004-24.553-16.508-38.706
			c-0.3-8.329,0.745-21.357,6.434-28.404c1.69-2.092,2.793-2.581,5.427-3.277c4.142-1.101,8.794-1.606,15.132-1.927
			c28.804-1.466,61.971-34.83,76.856-40.361c15.301-5.694-17.264,39.485-14.422,39.828c62.063,7.543,82.178-58.152,90.225-51.396
			c15.419,12.944,14.158,47.724,28.925,50.896c5.885,1.258,12.721,1.994,16.216,7.278
			C318.255,167.339,317.915,184.979,313.75,198.811z"/>
	</g>
</g>
</svg>
