<?xml version="1.0" encoding="utf-8"?>
<!-- Generator: Adobe Illustrator 13.0.0, SVG Export Plug-In . SVG Version: 6.00 Build 14948)  -->
<!DOCTYPE svg PUBLIC "-//W3C//DTD SVG 1.1//EN" "http://www.w3.org/Graphics/SVG/1.1/DTD/svg11.dtd">
<svg version="1.1" id="Layer_1" xmlns="http://www.w3.org/2000/svg" xmlns:xlink="http://www.w3.org/1999/xlink" x="0px" y="0px"
	 width="512px" height="512px" viewBox="0 0 512 512" enable-background="new 0 0 512 512" xml:space="preserve">
<g id="Capa_1">
</g>
<g>
	<path fill="#010101" d="M200.9,316.3c6.7,0,12.2,5.4,12.2,12.2c0,6.7-5.4,12.2-12.2,12.2c-6.7,0-12.2-5.4-12.2-12.2
		C188.8,321.8,194.2,316.3,200.9,316.3z M172.2,328.5c0,15.8,12.8,28.7,28.7,28.7c15.8,0,28.7-12.8,28.7-28.7s-12.8-28.7-28.7-28.7
		C185.1,299.8,172.2,312.6,172.2,328.5z"/>
	<path fill="#010101" d="M364.7,326.7h-126l-8.1-17h-57.6l-8.1,17h-126l-6.5-7.6c0,0,0-81.1,0-122.5c0-41.4,44.9-43.8,44.9-43.8
		s155.8,0,199.8,0c44.1,0,56.2,27,56.2,27s40.3,79,44.9,87.6c3.9,7.4-0.5,16-0.5,16c7,4.6,5.4,16.5,5.4,16.5l-4.6,16.2h93.9
		c2.9,0,5.3,2.4,5.3,5.3v0.2c0,2.9-2.4,5.3-5.3,5.3H377L364.7,326.7z M255.1,250.6c0,4.4,3.6,8,8,8h60.1c4.4,0,8-3.6,8-8v-32.5
		c0-4.4-3.6-8-8-8h-60.1c-4.4,0-8,3.6-8,8V250.6z M175.2,236.5c0,4.4,3.6,8,8,8h35.4c4.4,0,8-3.6,8-8v-18.4c0-4.4-3.6-8-8-8h-35.4
		c-4.4,0-8,3.6-8,8V236.5z M80.6,231.1c0,4.4,3.6,8,8,8h28.7c4.4,0,8-3.6,8-8v-45.2c0-4.4-3.6-8-8-8H88.6c-4.4,0-8,3.6-8,8
		L80.6,231.1L80.6,231.1z"/>
	<path fill="#010101" d="M417.5,300.6c0,1,0.8,1.8,1.8,1.8h13c1,0,1.8-0.8,1.8-1.8l0,0c0-1-0.8-1.8-1.8-1.8h-13
		C418.3,298.9,417.5,299.7,417.5,300.6L417.5,300.6z"/>
	<path fill="#010101" d="M417.2,294.9c0,0.8,0.7,1.5,1.5,1.5h8.1c0.8,0,1.5-0.7,1.5-1.5l0,0c0-0.8-0.7-1.5-1.5-1.5h-8.1
		C417.8,293.4,417.2,294,417.2,294.9L417.2,294.9z"/>
	<rect x="420.9" y="295.3" fill="#010101" width="3.6" height="5"/>
	<rect x="428.3" y="301.4" fill="#010101" width="3.6" height="18"/>
	<path fill="#010101" d="M404.1,292.9c-0.5,1.4,0.2,2.9,1.6,3.4l0.8,0.3c1.4,0.5,2.9-0.2,3.4-1.6l4.4-9.5c0.5-1.4-0.2-2.9-1.6-3.4
		l-2.5-0.9c-1.4-0.5-2.9,0.2-3.4,1.6L404.1,292.9z"/>
	
		<rect x="401.4" y="292.7" transform="matrix(0.9415 0.3371 -0.3371 0.9415 126.6369 -117.8893)" fill="#010101" width="2.8" height="26.1"/>
	
		<rect x="407.9" y="298.1" transform="matrix(0.8989 -0.4382 0.4382 0.8989 -93.6844 210.7413)" fill="#010101" width="3.7" height="20.6"/>
	<circle fill="#010101" cx="403.2" cy="337.8" r="8.8"/>
	<polygon fill="#010101" points="434.2,325.7 434.2,334.8 420.7,340 404.5,340.2 404.5,336.4 418.6,336.4 426.6,331.9 426.6,325.7 	
		"/>
	<path fill="#010101" d="M471.2,317.1l-3.8-4.4c0,0-1.1-1.7-3.4-1.1c-2.3,0.6-14.4,5.5-14.4,5.5H471.2z"/>
	<line fill="none" stroke="#FFFFFF" stroke-width="2.8107" stroke-miterlimit="10" x1="174.2" y1="311" x2="228.4" y2="311"/>
</g>
</svg>
