<?xml version="1.0" encoding="utf-8"?>
<!-- Generator: Adobe Illustrator 13.0.0, SVG Export Plug-In . SVG Version: 6.00 Build 14948)  -->
<!DOCTYPE svg PUBLIC "-//W3C//DTD SVG 1.1//EN" "http://www.w3.org/Graphics/SVG/1.1/DTD/svg11.dtd">
<svg version="1.1" id="Layer_1" xmlns="http://www.w3.org/2000/svg" xmlns:xlink="http://www.w3.org/1999/xlink" x="0px" y="0px"
	 width="512px" height="512px" viewBox="0 0 512 512" enable-background="new 0 0 512 512" xml:space="preserve">
<g id="Capa_1">
</g>
<g>
	<polygon fill="#010101" points="480.7,317 524.1,317 255,47.4 -14.1,317 32.8,317 11.1,479.2 502.4,479.2 	"/>
	<path fill="#FFFFFF" d="M190.4,479.2c0,0,34.4-62.7,40.3-92.8c8.6-43.7,25.6-108.6,25.6-108.6s16.2,65.3,25.6,108.6
		c6.4,29.4,40.3,92.8,40.3,92.8H190.4z"/>
	
		<rect x="131.7" y="25.6" transform="matrix(-0.7071 -0.7071 0.7071 -0.7071 109.1972 434.3817)" fill="#FFFFFF" width="25.6" height="338"/>
	
		<rect x="352.6" y="25.6" transform="matrix(-0.7072 0.707 -0.707 -0.7072 761.4694 73.854)" fill="#FFFFFF" width="25.6" height="338"/>
	
		<rect x="111.2" y="-14.4" transform="matrix(-0.7072 -0.7071 0.7071 -0.7072 86.1221 401.2666)" fill="#010101" width="29.9" height="394.4"/>
	
		<rect x="368.9" y="-14.4" transform="matrix(-0.7073 0.707 -0.707 -0.7073 784.5685 40.6615)" fill="#010101" width="29.9" height="394.4"/>
</g>
</svg>
