<?xml version="1.0" encoding="utf-8"?>
<!-- Generator: Adobe Illustrator 13.0.0, SVG Export Plug-In . SVG Version: 6.00 Build 14948)  -->
<!DOCTYPE svg PUBLIC "-//W3C//DTD SVG 1.1//EN" "http://www.w3.org/Graphics/SVG/1.1/DTD/svg11.dtd">
<svg version="1.1" id="Layer_1" xmlns="http://www.w3.org/2000/svg" xmlns:xlink="http://www.w3.org/1999/xlink" x="0px" y="0px"
	 width="512px" height="512px" viewBox="0 0 512 512" enable-background="new 0 0 512 512" xml:space="preserve">
<g id="Capa_1">
</g>
<g>
	<path d="M18.4,346.9v20.9c0,3,2.4,5.5,5.5,5.5h5.5h16.5c1.1-11.6,4.8-22.4,10.6-31.8c10.1-16.7,26.5-29.2,45.9-34.2
		c6.1-1.6,12.4-2.4,19-2.4c5.3,0,10.5,0.6,15.6,1.6c21.9,4.6,40.4,18.7,50.9,37.8c4.8,8.8,8,18.6,9,29.1c0,0.3,0,0.6,0.1,0.9h123.4
		c0.5-6.3,1.8-12.3,3.8-18.1c1.4-4.1,3.2-8.1,5.3-11.9c4.8-8.6,11.1-16.3,18.8-22.4c3-2.4,6.2-4.6,9.5-6.6
		c11.2-6.6,24.3-10.4,38.2-10.4c37.7,0,69,27.6,74.8,63.6h9.8c4.1,0,7.8-2.6,9.7-6.7c1.9-4.2,1.8-9.2-0.4-13.2L468,308.4
		c-13-23.9-35.6-38.3-59.8-38.3h0c0,0,0,0,0-0.1l-84.4-156h22.5c0-20.3-16.5-36.8-36.8-36.8H93.7c-7.5,0-13.6,6.1-13.6,13.6v4.8V114
		v18.4h22.3v94.8l-5.2-2.2c-17.5-7.4-36.1,6.2-41.5,30.4l-19.2,85.9H23.9C20.9,341.4,18.4,343.9,18.4,346.9z M136.8,241.8V132.4
		h11.4c13.6,0,25.5-7.4,31.9-18.4h104.3l84.5,156h-37.4c-2.5,0-4.7,1.6-5.4,4l-2.7,8.7l-28.6-20.9l6.4-8.3c3.1-4,2.4-9.7-1.6-12.8
		l-4.7-3.7c-4-3.1-9.7-2.4-12.8,1.6l-24.9,32.1c-3.1,4-2.4,9.7,1.6,12.8l4.7,3.7c4,3.1,9.7,2.4,12.8-1.6l7.3-9.5l33.9,24.9
		L304,344.2h-61.6L225.2,304c-8.4-19.5-21.7-34-37.4-40.7L136.8,241.8z"/>
	<path d="M106.2,330.7c4.8-1.5,9.9-2.2,15.1-2.2c4.2,0,8.3,0.5,12.3,1.5c9.7,2.3,18.3,7.4,25.1,14.3c7.6,7.7,12.7,17.8,14.3,29.1
		c0,0.3,0.1,0.6,0.1,0.9c0.3,2.1,0.4,4.3,0.4,6.5c0,28.8-23.4,52.2-52.2,52.2c-28.8,0-52.2-23.4-52.2-52.2c0-2.5,0.2-5,0.5-7.4
		C72.5,353,87,336.5,106.2,330.7z"/>
	<path d="M395.8,432.8c-28.8,0-52.2-23.4-52.2-52.2c0-2.2,0.2-4.3,0.4-6.5c0.3-2.3,0.7-4.7,1.3-6.9c1-3.9,2.5-7.7,4.4-11.2
		c8.8-16.5,26.1-27.7,46.1-27.7c24.6,0,45.2,17,50.7,40c0.9,3.9,1.5,8,1.5,12.2C448,409.4,424.6,432.8,395.8,432.8z"/>
</g>
</svg>
