<?xml version="1.0" encoding="utf-8"?>
<!-- Generator: Adobe Illustrator 13.0.0, SVG Export Plug-In . SVG Version: 6.00 Build 14948)  -->
<!DOCTYPE svg PUBLIC "-//W3C//DTD SVG 1.1//EN" "http://www.w3.org/Graphics/SVG/1.1/DTD/svg11.dtd">
<svg version="1.1" id="Layer_1" xmlns="http://www.w3.org/2000/svg" xmlns:xlink="http://www.w3.org/1999/xlink" x="0px" y="0px"
	 width="512px" height="512px" viewBox="0 0 512 512" enable-background="new 0 0 512 512" xml:space="preserve">
<g id="Capa_1">
</g>
<g>
	<rect x="412.1" y="287.5" fill="#010101" width="7" height="51.7"/>
	<polygon fill="#010101" points="458.6,354.1 270.1,365.9 249.6,355.1 249.6,348.2 458.6,348.2 	"/>
	<path fill="#010101" d="M429,348.2v-3.4c0-1.2,1-2.2,2.2-2.2h58.1c1.2,0,2.2,1,2.2,2.2v3.4H429z"/>
	<path fill="#010101" d="M473.1,348.2c0,1.2-1,2.2-2.2,2.2h-46.7c-1.2,0-2.2-1-2.2-2.2v-6.7c0-1.2,1-2.2,2.2-2.2h46.7
		c1.2,0,2.2,1,2.2,2.2V348.2z"/>
	<rect x="413.3" y="336.5" fill="#010101" width="4.5" height="27.9"/>
	<path fill="#010101" d="M435.1,282c0,0.6-0.5,1.1-1.1,1.1h-3.8c-0.6,0-1.1-0.5-1.1-1.1v-1.3c0-0.6,0.5-1.1,1.1-1.1h3.8
		c0.6,0,1.1,0.5,1.1,1.1V282z"/>
	<rect x="430.6" y="281.9" fill="#010101" width="3.1" height="3.5"/>
	<path fill="#010101" d="M416.5,289.4c-0.4,0-0.8-0.3-0.8-0.8v-3.4c0-0.4,0.4-0.8,0.8-0.8c0.4,0,0.8,0.4,0.8,0.8v3.4
		C417.3,289,416.9,289.4,416.5,289.4z"/>
	<path fill="#010101" d="M431.7,286.7h-15.2c-0.4,0-0.8-0.4-0.8-0.8c0-0.4,0.4-0.8,0.8-0.8h14.7l0.4-0.9c0.2-0.4,0.6-0.6,1-0.4
		c0.4,0.2,0.6,0.6,0.4,1l-0.6,1.3C432.3,286.5,432,286.7,431.7,286.7z"/>
	<path fill="#010101" d="M400.2,378"/>
	<path fill="#010101" d="M413.8,374.6l4.7-6.7c1.1-1.5,0.7-3.6-0.8-4.6l-0.9-0.6c-1.5-1.1-3.6-0.7-4.6,0.8l-4.7,6.7l-7.2,7.9
		l2.6,4.1L413.8,374.6z"/>
	<circle fill="#010101" cx="399.3" cy="381.6" r="6.5"/>
	<path fill="#010101" d="M410.2,381.6c0,6-4.9,10.9-10.9,10.9c-6,0-10.9-4.9-10.9-10.9c0-6,4.9-10.9,10.9-10.9
		C405.3,370.7,410.2,375.6,410.2,381.6z"/>
	<path fill="#010101" d="M443.6,340.5c0,0,7.8-6.6,9.4-8c1.7-1.3,4.1-0.9,4.1-0.9s6.6,0,8.3,0c1.7,0,3.4-1.4,3.4-2.6
		s-1.7-1.3-1.7-1.3s-9.1,0-11.4,0c-2.7,0-5.2,2-5.2,2l-5.1,4.1l-7.1,6.5L443.6,340.5z"/>
	<path fill="#010101" d="M465.9,336.5c0,0-0.9-1,0.2-2.2c1.1-1.1,3-1.6,5.2-1.6s5.7,0,5.7,0s1.8,0,3,1.7c1.2,1.7,5.6,8.6,5.6,8.6
		l-6.9,0.5v-2.9c0,0-1.8-3.7-3.3-4c-1.6-0.3-6,0-6,0S467.1,338,465.9,336.5z"/>
	<path fill="#010101" d="M108.5,370.1c0,12.1-9.8,21.8-21.8,21.8c-12.1,0-21.8-9.8-21.8-21.8c0-12.1,9.8-21.8,21.8-21.8
		C98.7,348.2,108.5,358,108.5,370.1z M86.7,336.7c-18.4,0-33.4,14.9-33.4,33.4s14.9,33.4,33.4,33.4c18.4,0,33.4-14.9,33.4-33.4
		C120.1,351.6,105.1,336.7,86.7,336.7z"/>
	<path fill="#010101" d="M189.2,370.1c0,12.1-9.8,21.8-21.8,21.8c-12.1,0-21.8-9.8-21.8-21.8c0-12.1,9.8-21.8,21.8-21.8
		C179.4,348.2,189.2,358,189.2,370.1z M167.4,336.7c-18.4,0-33.4,14.9-33.4,33.4s14.9,33.4,33.4,33.4c18.4,0,33.4-14.9,33.4-33.4
		C200.8,351.6,185.8,336.7,167.4,336.7z"/>
	<path fill="#010101" d="M365.8,356.4l-158.9,1c-3-17-17.9-30-35.8-30H83c-18.3,0-33.4,13.4-36,31l-28.5,0.2V115.6
		c0-5,4.1-9.1,9.1-9.1H322c0,0,24,0,29,13.4c4.9,13.4,14.8,74.7,14.8,90.9C365.8,227,365.8,356.4,365.8,356.4z M336.1,131.9
		c0-5-4.1-9.1-9.1-9.1h-40.4c-5,0-9.1,4.1-9.1,9.1v28.5c0,5,4.1,9.1,9.1,9.1H327c5,0,9.1-4.1,9.1-9.1V131.9z"/>
</g>
</svg>
