<?xml version="1.0" encoding="utf-8"?>
<!-- Generator: Adobe Illustrator 13.0.0, SVG Export Plug-In . SVG Version: 6.00 Build 14948)  -->
<!DOCTYPE svg PUBLIC "-//W3C//DTD SVG 1.1//EN" "http://www.w3.org/Graphics/SVG/1.1/DTD/svg11.dtd">
<svg version="1.1" id="Layer_1" xmlns="http://www.w3.org/2000/svg" xmlns:xlink="http://www.w3.org/1999/xlink" x="0px" y="0px"
	 width="512px" height="512px" viewBox="0 0 512 512" enable-background="new 0 0 512 512" xml:space="preserve">
<g id="Capa_1">
</g>
<path fill-rule="evenodd" clip-rule="evenodd" fill="#231F20" d="M99.6,213.6c-6.2,0-11.2-3.6-11.2-8.1v-18.4c0-4.4,5-8.1,11.2-8.1
	V213.6L99.6,213.6z M418,213.6c6.2,0,11.2-3.6,11.2-8.1v-18.4c0-4.4-5-8.1-11.2-8.1V213.6L418,213.6z M485.7,277.7
	c0-3.7-3.1-6.8-6.8-6.8h-2.4v-46.7c0-2.8-2.3-5-5-5l0,0c-2.8,0-5,2.3-5,5v46.7H455v-9.6c0-7.5-2.7-13.3-8.4-18.1l-36-31v-39.9
	c0-7-5.7-12.7-12.7-12.7l0,0c-7,0-12.7,5.7-12.7,12.7v146.5h-66.6c30.2-13.7,53.4-38.6,58.1-74.5c-8.6,13.3-20.2,24.3-33.6,32.9
	c-22.7,14.6-51,22.2-79.5,22.8c-28.5,0.6-57.4-5.8-81.7-19.2c-16.9-9.3-31.6-22-42.3-38l0-0.3c4.2,36.9,27.4,62.3,57.8,76.2h-65.1
	V172.2c0-7-5.7-12.7-12.7-12.7l0,0c-7,0-12.7,5.7-12.7,12.7v168.5c-6.6-2.5-13.7-3.9-21.2-3.9c-33,0-59.8,26.8-59.8,59.8
	c0,33,26.8,59.8,59.8,59.8c33,0,59.8-26.8,59.8-59.8c0-14.2-4.9-27.2-13.1-37.4v-15.1h252.8v99.6c0,7,5.7,12.7,12.7,12.7l0,0
	c7,0,12.7-5.7,12.7-12.7V308.5h29.8c6.9,0,14.5-7.6,14.5-14.6v-9.4h11.4v46.7c0,2.8,2.3,5,5,5l0,0c2.8,0,5-2.3,5-5v-46.7h2.4
	C482.6,284.5,485.7,281.5,485.7,277.7L485.7,277.7L485.7,277.7z M139,200.3v-6.1c0-1.6,0-3.1,0.1-4.7c-0.4-8.5-0.1-17.5,1.1-27
	c3.4-26.6,14.4-53.5,27.5-69.8c20-24.8,55.2-36.7,89.9-35.8c34.7-0.9,69.9,11,89.9,35.8c13.2,16.2,22.8,43.4,27.5,69.8
	c1.7,9.6,2.5,18.6,2.5,27.2v0c-1.8,33.2-18.7,57.5-42.5,72.9c-20.4,13.1-45.8,19.9-71.7,20.5c-25.9,0.5-52.2-5.2-74.1-17.3
	C164.6,252.2,145.6,230.4,139,200.3L139,200.3z M87.1,368.7c15.5,0,28,12.5,28,28s-12.5,28-28,28c-15.5,0-28-12.5-28-28
	S71.7,368.7,87.1,368.7L87.1,368.7z M258.3,69.1c42.6,0,77.2,22.9,77.2,51.1s-34.6,51.1-77.2,51.1c-42.6,0-77.2-22.9-77.2-51.1
	S215.6,69.1,258.3,69.1z"/>
</svg>
