<?xml version="1.0" encoding="utf-8"?>
<!-- Generator: Adobe Illustrator 13.0.0, SVG Export Plug-In . SVG Version: 6.00 Build 14948)  -->
<!DOCTYPE svg PUBLIC "-//W3C//DTD SVG 1.1//EN" "http://www.w3.org/Graphics/SVG/1.1/DTD/svg11.dtd">
<svg version="1.1" id="Shapes" xmlns="http://www.w3.org/2000/svg" xmlns:xlink="http://www.w3.org/1999/xlink" x="0px" y="0px"
	 width="590.995px" height="595.654px" viewBox="0 0 590.995 595.654" enable-background="new 0 0 590.995 595.654"
	 xml:space="preserve">
<path d="M232.715,316.489l0.16,57.708l-154.398,0.608L0,499.599l8.13-0.021v0.691l79.998-0.313l24.157-0.096
	c0.086,10.134,1.73,19.895,4.714,29.054c3.401,10.456,8.524,20.134,15.049,28.685c17.716,23.199,45.682,38.145,77.119,38.057
	c31.442-0.082,59.325-15.184,76.91-38.479c6.48-8.586,11.556-18.289,14.896-28.763c1.179-3.688,2.127-7.477,2.862-11.334
	c1.096-5.828,1.688-11.831,1.695-17.977l21.034-0.087c0.034,6.159,0.665,12.174,1.801,18.002c0.748,3.858,1.731,7.634,2.923,11.309
	c3.4,10.456,8.529,20.134,15.053,28.685c17.715,23.199,45.682,38.144,77.115,38.057c31.441-0.082,59.33-15.184,76.91-38.479
	c6.48-8.586,11.557-18.289,14.896-28.763c2.975-9.325,4.584-19.255,4.562-29.562l24.165-0.101l47.004-0.183l-0.344-125.184
	l-83.16,0.321l-34.452,0.135l-53.475,0.214l-0.166-60.144L232.715,316.489z M209.027,544.263
	c-13.631,0.034-25.844-5.989-34.164-15.506c-6.82-7.807-11.008-17.95-11.16-29.098c-0.004-0.169-0.031-0.335-0.035-0.509
	c-0.064-24.974,20.133-45.277,45.111-45.342c24.983-0.07,45.291,20.12,45.355,45.094c0,0.135-0.013,0.27-0.013,0.4
	c-0.069,11.187-4.214,21.399-11.017,29.268C234.842,538.13,222.663,544.224,209.027,544.263z M457.399,527.982
	c-8.264,9.561-20.446,15.653-34.082,15.688c-13.626,0.039-25.844-5.984-34.159-15.501c-6.877-7.864-11.088-18.103-11.184-29.354
	c0-0.082-0.012-0.165-0.012-0.252c-0.066-24.975,20.133-45.277,45.107-45.343c24.982-0.069,45.289,20.121,45.359,45.095
	c0,0.048-0.009,0.096-0.009,0.148C468.416,509.75,464.25,520.058,457.399,527.982z"/>
<line fill="none" stroke="#000000" stroke-width="20" x1="195.076" y1="287.635" x2="418.264" y2="323.855"/>
<line fill="none" stroke="#000000" stroke-width="20" x1="416.641" y1="231.298" x2="200.072" y2="287.51"/>
<line fill="none" stroke="#000000" stroke-width="20" x1="192.568" y1="186.959" x2="413.955" y2="232.924"/>
<rect x="115.926" y="0.5" stroke="#000000" width="255" height="194"/>
</svg>
