<?xml version="1.0" encoding="utf-8"?>
<!-- Generator: Adobe Illustrator 13.0.0, SVG Export Plug-In . SVG Version: 6.00 Build 14948)  -->
<!DOCTYPE svg PUBLIC "-//W3C//DTD SVG 1.1//EN" "http://www.w3.org/Graphics/SVG/1.1/DTD/svg11.dtd">
<svg version="1.1" id="Layer_1" xmlns="http://www.w3.org/2000/svg" xmlns:xlink="http://www.w3.org/1999/xlink" x="0px" y="0px"
	 width="512px" height="512px" viewBox="0 0 512 512" enable-background="new 0 0 512 512" xml:space="preserve">
<path d="M141.8,215.4l25.7,62l-9.7,4l-26.4-63.7C134.9,217.1,138.4,216.3,141.8,215.4L141.8,215.4z M104.1,217.7l-26.4,63.7l-9.7-4
	l25.7-62C97.1,216.3,100.6,217.1,104.1,217.7L104.1,217.7z M113.5,28.9H124v16.6c-2.1-0.1-4.2-0.2-6.3-0.2c-1.4,0-2.8,0-4.2,0.1
	L113.5,28.9L113.5,28.9z M51.8,132c0,36.4,29.5,65.9,65.9,65.9c36.4,0,65.9-29.5,65.9-65.9c0-36.4-29.5-66-65.9-66
	C81.3,66.1,51.8,95.6,51.8,132L51.8,132z M117.7,212.3c-44.3,0-80.3-35.9-80.3-80.3c0-44.3,35.9-80.3,80.3-80.3
	c44.3,0,80.3,35.9,80.3,80.3C198,176.4,162.1,212.3,117.7,212.3L117.7,212.3z M79.3,132c0,21.2,17.2,38.5,38.5,38.5
	c21.2,0,38.5-17.2,38.5-38.5c0-21.2-17.2-38.5-38.5-38.5C96.5,93.6,79.3,110.8,79.3,132L79.3,132z M117.7,184.8
	c-29.2,0-52.8-23.6-52.8-52.8c0-29.2,23.6-52.8,52.8-52.8s52.8,23.6,52.8,52.8C170.5,161.2,146.9,184.8,117.7,184.8L117.7,184.8z
	 M106.8,132c0,6,4.9,11,11,11c6.1,0,11-4.9,11-11c0-6.1-4.9-11-11-11C111.7,121.1,106.8,126,106.8,132L106.8,132z M117.7,157.3
	c-14,0-25.3-11.3-25.3-25.3c0-14,11.3-25.3,25.3-25.3S143,118,143,132C143,146,131.7,157.3,117.7,157.3L117.7,157.3z M410.1,124.6
	l9.7,9.7L277.4,276.7c13.4,14.5,13,37.1-1.1,51.1c-9.9,9.9-24,13-36.5,9.3l-89.5,136.7c-4.5,8.2-13.2,9.7-19.5,3.4l-47.1-47.1
	c-6.3-6.3-6.3-16.6,0-22.9l130.3-130.3c4.7-4.7,11.5-5.9,17.3-3.7L457.5,47.1l15.1,15.1L410.1,124.6L410.1,124.6z M268.3,285.8
	L255.2,299c1.6,5.7,1.1,12.2-1.7,17.3l-6,9.2c7,0.8,14.3-1.5,19.7-6.9C276.2,309.6,276.6,295.2,268.3,285.8L268.3,285.8z"/>
</svg>
