<?xml version="1.0" encoding="utf-8"?>
<!-- Generator: Adobe Illustrator 13.0.0, SVG Export Plug-In . SVG Version: 6.00 Build 14948)  -->
<!DOCTYPE svg PUBLIC "-//W3C//DTD SVG 1.1//EN" "http://www.w3.org/Graphics/SVG/1.1/DTD/svg11.dtd">
<svg version="1.1" id="Layer_1" xmlns="http://www.w3.org/2000/svg" xmlns:xlink="http://www.w3.org/1999/xlink" x="0px" y="0px"
	 width="512px" height="512px" viewBox="0 0 512 512" enable-background="new 0 0 512 512" xml:space="preserve">
<path d="M380.1,190.4v140.2h-43.9l6.2-14.2h1.4c10.5,0,19.1-8.5,19.1-19.1v-3.1c0-10.5-8.5-19.1-19.1-19.1H166.2
	c-10.5,0-19.1,8.5-19.1,19.1v3.1c0,10.5,8.5,19.1,19.1,19.1h1.4l6.2,14.2h-43.9V190.4H380.1L380.1,190.4z M14.5,93.2
	c0-16.9,13.7-30.6,30.6-30.6h419.8c16.9,0,30.6,13.7,30.6,30.6v259.2c0,16.9-13.7,30.6-30.6,30.6H313.3l16.6-37.9h64.6V176H115.6
	v169h64.6l16.6,37.9H45.1c-16.9,0-30.6-13.7-30.6-30.6V93.2L14.5,93.2z M255.1,376.7l12.8-29.2l-13-29.8l-12.8,29.4L255.1,376.7
	L255.1,376.7z M223.2,390.5l13,29.5l12.9-29.6l-13-29.6L223.2,390.5L223.2,390.5z M204.2,347.2l13,29.6l12.9-29.7l-12.9-29.5
	L204.2,347.2L204.2,347.2z M299.9,306.3l12,26.9l11.8-26.9H299.9L299.9,306.3z M261.9,306.3l12,27.5l12-27.5H261.9L261.9,306.3z
	 M224.3,306.3l11.9,27.1l11.8-27.1H224.3L224.3,306.3z M186.3,306.3l12,27.3l12-27.3H186.3L186.3,306.3z M255.1,404.1l-18.9,43.2
	l-61.9-141.1h-8.1c-4.9,0-8.9-4-8.9-8.9v-3.1c0-4.9,4-8.9,8.9-8.9h177.5c4.9,0,8.9,4,8.9,8.9v3.1c0,4.9-4,8.9-8.9,8.9h-8.1
	l-61.6,141.1L255.1,404.1L255.1,404.1z M273.9,361.2l-12.8,29.2L274,420l12.7-29.1L273.9,361.2L273.9,361.2z M306,346.8l-13-29.3
	l-13.1,30l12.9,29.6L306,346.8L306,346.8z"/>
</svg>
