<?xml version="1.0" encoding="utf-8"?>
<!-- Generator: Adobe Illustrator 13.0.0, SVG Export Plug-In . SVG Version: 6.00 Build 14948)  -->
<!DOCTYPE svg PUBLIC "-//W3C//DTD SVG 1.1//EN" "http://www.w3.org/Graphics/SVG/1.1/DTD/svg11.dtd">
<svg version="1.1" id="Layer_1" xmlns="http://www.w3.org/2000/svg" xmlns:xlink="http://www.w3.org/1999/xlink" x="0px" y="0px"
	 width="512px" height="512px" viewBox="0 0 512 512" enable-background="new 0 0 512 512" xml:space="preserve">
<path d="M444.3,461.1v17.8c0,3.2-10.9,5.7-24.3,5.7c-13.4,0-24.3-2.6-24.3-5.7v-17.8c0-3.2,10.9-5.7,24.3-5.7
	C433.4,455.4,444.3,458,444.3,461.1L444.3,461.1z M258.2,99c-20.3,0-36.8-16.5-36.8-36.8c0-20.3,16.5-36.8,36.8-36.8
	c20.3,0,36.8,16.5,36.8,36.8C295,82.5,278.6,99,258.2,99L258.2,99z M289.6,185.3c-0.6-2.3,0.7-4.7,3-5.3l4.2-1.1
	c2.3-0.6,4.6,0.7,5.3,3l7.2,27h9.7l11.7,1c6.2,2.2,10.7,8.2,10.7,15.1c0,8.9-7.2,16.1-16.1,16.1h-7.4l45.8,171l67.4-18.1
	c4.6-1.2,9.3,1.5,10.5,6.1l3.8,14.3c1.2,4.6-1.5,9.3-6.1,10.5l-71.6,19.2c-4.6,1.2-9.3-1.5-10.5-6.1l-52.8-197h-57.7
	c-8.9,0-16.1-7.2-16.1-16.1v-27l-31,44.2l-2.1,2.7l60.8,85.5c2.8,4,4.1,8.6,4,13.2v119.1c0,12.1-9.8,21.9-21.9,21.9
	c-12.1,0-21.9-9.8-21.9-21.9V350.1l-39.3-55.3v70.6c0,4.9-1.6,9.4-4.3,13l-69,97c-7,9.8-20.7,12.1-30.5,5.1
	c-9.8-7-12.2-20.7-5.1-30.5l65.3-91.8c0.1-41.6-0.1-132.6-0.1-132.6c-0.4-9.2,1.6-17.1,6.4-23.9l56.9-81
	c11.2-15.9,33.2-19.8,49.1-8.7c10,7,15.3,18.3,15,29.6V209h33L289.6,185.3L289.6,185.3z"/>
</svg>
