<?xml version="1.0" encoding="utf-8"?>
<!-- Generator: Adobe Illustrator 16.0.0, SVG Export Plug-In . SVG Version: 6.00 Build 0)  -->
<!DOCTYPE svg PUBLIC "-//W3C//DTD SVG 1.1//EN" "http://www.w3.org/Graphics/SVG/1.1/DTD/svg11.dtd">
<svg version="1.1" id="Layer_1" xmlns="http://www.w3.org/2000/svg" xmlns:xlink="http://www.w3.org/1999/xlink" x="0px" y="0px"
	 width="800px" height="800px" viewBox="0 0 800 800" enable-background="new 0 0 800 800" xml:space="preserve">
<g>
	<path fill="#231F20" d="M667.26,136.08h65.803c0,0,12.788-50.869-44.475-52.988H561.213c0-3.878-2.517-7.404-6.458-8.282
		L251.657,6.983c-4.57-0.908-9.11,1.871-10.136,6.427c-0.133,0.631-0.033,1.24-0.033,1.854H234.9c0-1.223-0.2-2.465-0.764-3.659
		c-2.038-4.239-7.103-6.026-11.29-3.99L32.082,98.757c-4.125,1.968-5.861,6.808-4.11,10.944l-21.923,0.381
		c0,0-10.599,25.998,82.662,25.998H194.69v61.469h139.894V136.08h315.719v409.36c0,0.712,0.234,1.343,0.398,2.005
		c-17.238,3.728-30.204,19.038-30.204,37.393c0,18.182,12.783,33.381,29.806,37.258v25.414c0,2.933,1.508,5.65,4.005,7.207
		l13.912,8.66c1.458,1.737,2.256,3.906,2.256,6.207c0,2.588-0.998,5.037-2.819,6.854c-3.771,3.743-9.897,3.761-13.678-0.014
		c-3.308-3.313-8.676-3.313-11.988,0c-3.312,3.313-3.312,8.674,0,11.986c5.186,5.201,12.004,7.786,18.828,7.786
		c6.808,0,13.627-2.585,18.83-7.77c5.034-5.051,7.781-11.727,7.781-18.846c0-7.118-2.764-13.79-7.798-18.811
		c-0.454-0.462-0.963-0.859-1.511-1.205l-10.861-6.759v-20.715c17.022-3.877,29.811-19.077,29.811-37.258
		c0-18.354-12.969-33.665-30.209-37.393c0.165-0.662,0.398-1.294,0.398-2.006V136.08L667.26,136.08z M218.006,106.407L49.273,109.34
		l176.302-84.234L218.006,106.407z M315.508,83.092l-55.11,26.99l-9.601-85.893l263.257,58.902L315.508,83.092L315.508,83.092z
		 M680.111,584.838c0,11.756-9.574,21.326-21.332,21.326c-11.755,0-21.325-9.57-21.325-21.326c0-11.76,9.57-21.33,21.325-21.33
		C670.537,563.508,680.111,573.078,680.111,584.838z"/>
	<rect x="165.016" y="203.908" fill="#231F20" width="135.652" height="140.816"/>
	<rect x="188.332" y="358.886" fill="#231F20" width="89.021" height="328.867"/>
	<polygon fill="#231F20" points="336.701,799.512 277.353,764.357 277.353,709.724 188.332,709.724 188.332,754.617 
		131.102,799.512 	"/>
</g>
</svg>
