<?xml version="1.0" encoding="utf-8"?>
<!-- Generator: Adobe Illustrator 13.0.0, SVG Export Plug-In . SVG Version: 6.00 Build 14948)  -->
<!DOCTYPE svg PUBLIC "-//W3C//DTD SVG 1.1//EN" "http://www.w3.org/Graphics/SVG/1.1/DTD/svg11.dtd">
<svg version="1.1" id="Layer_1" xmlns="http://www.w3.org/2000/svg" xmlns:xlink="http://www.w3.org/1999/xlink" x="0px" y="0px"
	 width="512px" height="512px" viewBox="0 0 512 512" enable-background="new 0 0 512 512" xml:space="preserve">
<path d="M122.8,16.5L122.8,16.5c5.9,0,10.8,4.8,10.8,10.8v127.2h204.9l0.2-0.1V27.1c0-3.7,3-6.8,6.8-6.8l0,0c3.7,0,6.8,3,6.8,6.8V53
	h71.7V27.3c0-5.9,4.8-10.8,10.8-10.8l0,0c5.9,0,10.8,4.8,10.8,10.8v138l0,0v221l0,0v20c2.2,1.3,3.7,3.7,3.7,6.4v28.1
	c0,4.1-3.4,7.5-7.5,7.5h-11.8c3,4.6,4.8,10.1,4.8,16c0,16.1-13.1,29.2-29.2,29.2c-16.1,0-29.2-13.1-29.2-29.2
	c0-16.1,13.1-29.2,29.2-29.2c5.2,0,10.2,1.4,14.4,3.8v-26.2c0-2.9,1.7-5.4,4.1-6.6v-9h-71.7v31.2c0,3.7-3,6.8-6.8,6.8l0,0
	c-3.7,0-6.8-3-6.8-6.8V397H133.6v9.5c2,1.3,3.2,3.6,3.2,6.1v28.1c0,4.1-3.4,7.5-7.5,7.5h-12.8c3,4.6,4.8,10.1,4.8,16
	c0,16.1-13.1,29.2-29.2,29.2c-16.1,0-29.2-13.1-29.2-29.2c0-16.1,13.1-29.2,29.2-29.2c5.6,0,10.9,1.6,15.4,4.4v-26.7
	c0-3.1,1.9-5.7,4.5-6.9v-19.5v-221v-138C112.1,21.4,116.9,16.5,122.8,16.5L122.8,16.5z M92.9,450.6c-7.6,0-13.7,6.1-13.7,13.7
	c0,7.6,6.1,13.7,13.7,13.7c7.6,0,13.7-6.1,13.7-13.7C106.5,456.7,100.4,450.6,92.9,450.6L92.9,450.6z M406,450.6
	c-7.6,0-13.7,6.1-13.7,13.7c0,7.6,6.1,13.7,13.7,13.7c7.6,0,13.7-6.1,13.7-13.7C419.7,456.7,413.6,450.6,406,450.6L406,450.6z
	 M352.2,154.5h71.7v-31.3h-71.7V154.5L352.2,154.5z M423.9,176h-71.7v47.1h71.7V176L423.9,176z M338.6,176h-5l-95.2,97.9l98.8,101.6
	h1.4V176L338.6,176z M352.2,375.5h71.7V350h-71.7V375.5L352.2,375.5z M352.2,66.6v43.2h71.7V66.6H352.2L352.2,66.6z M352.2,236.6
	v43.2h71.7v-43.2H352.2L352.2,236.6z M352.2,293.3v43.2h71.7v-43.2H352.2L352.2,293.3z M317.4,176H143.2l87.1,89.6L317.4,176
	L317.4,176z M225,271.1l-2.8,2.9l-88.6-91.1v182.3L225,271.1L225,271.1z M139.6,375.5H321l-90.7-93.3l2.6-2.7L139.6,375.5
	L139.6,375.5z M122.8,382c-2.4,0-4.3,1.9-4.3,4.3c0,2.4,1.9,4.3,4.3,4.3c2.4,0,4.3-1.9,4.3-4.3C127.1,383.9,125.2,382,122.8,382
	L122.8,382z M334.4,161.3c-2.4,0-4.3,1.9-4.3,4.3s1.9,4.3,4.3,4.3s4.3-1.9,4.3-4.3C338.6,163.2,336.7,161.3,334.4,161.3L334.4,161.3
	z M122.8,161.3c-2.4,0-4.3,1.9-4.3,4.3s1.9,4.3,4.3,4.3c2.4,0,4.3-1.9,4.3-4.3S125.2,161.3,122.8,161.3L122.8,161.3z M334.4,382
	c-2.4,0-4.3,1.9-4.3,4.3c0,2.4,1.9,4.3,4.3,4.3s4.3-1.9,4.3-4.3C338.6,383.9,336.7,382,334.4,382z"/>
</svg>
