<?xml version="1.0" encoding="utf-8"?>
<!-- Generator: Adobe Illustrator 13.0.0, SVG Export Plug-In . SVG Version: 6.00 Build 14948)  -->
<!DOCTYPE svg PUBLIC "-//W3C//DTD SVG 1.1//EN" "http://www.w3.org/Graphics/SVG/1.1/DTD/svg11.dtd">
<svg version="1.1" id="Layer_1" xmlns="http://www.w3.org/2000/svg" xmlns:xlink="http://www.w3.org/1999/xlink" x="0px" y="0px"
	 width="512px" height="512px" viewBox="0 0 512 512" enable-background="new 0 0 512 512" xml:space="preserve">
<path d="M222,22.6h68.7c13.8,0,27.4,11.4,25,25l-12.3,70.7c9.3,5.9,16.1,18.5,14.3,32.7l-13,104.4c-2.4,19.7-11.6,36.3-25.8,36.3
	h-45.7c-14.2,0-23.5-16.6-25.8-36.3L195,151c-1.7-13.9,4.8-26.3,13.8-32.4l-11.8-71C194.8,34,208.3,22.6,222,22.6L222,22.6z
	 M91.1,30.8l63.2,5.3c5.2,0.4,9.7,3.4,11.6,7.9h17.9l2,14.6h-19.1c-1.1,5.6-6.3,9.4-12.3,10.1l-63.2,7.6
	c-6.8,0.8-12.5-5.6-12.5-12.5V43.4C78.6,36.5,84.2,30.3,91.1,30.8L91.1,30.8z M346.1,44h-17.9l-2,14.6h19.2
	c1.1,5.6,6.3,9.4,12.3,10.1l63.2,7.6c6.8,0.8,12.5-5.6,12.5-12.5V43.4c0-6.9-5.7-13.1-12.5-12.5l-63.2,5.3
	C352.5,36.6,348,39.6,346.1,44L346.1,44z M243,300.5h26.8v62.4l10.8,14.8c8.3,11.3,10.5,20.9,8.3,32.6l-13,68.8
	c-1.1,5.6-4.6,10.3-10.3,10.3h-18.4c-5.7,0-9.2-4.7-10.3-10.3l-13-68.8c-2.2-11.7,0-21.2,8.3-32.6l10.8-14.8L243,300.5L243,300.5z
	 M231.3,134.5c-10,0-19.9,12.9-18.3,28.2l8.8,81c1.6,15.3,8.2,28.2,18.3,28.2h32.3c10,0,16.5-12.9,18.2-28.2l9.2-81
	c1.7-15.3-8.2-28.2-18.2-28.2H231.3L231.3,134.5z M240.8,152.8v10.9H272v-10.9H240.8z"/>
</svg>
