<?xml version="1.0" encoding="utf-8"?>
<!-- Generator: Adobe Illustrator 13.0.0, SVG Export Plug-In . SVG Version: 6.00 Build 14948)  -->
<!DOCTYPE svg PUBLIC "-//W3C//DTD SVG 1.1//EN" "http://www.w3.org/Graphics/SVG/1.1/DTD/svg11.dtd">
<svg version="1.1" id="Layer_1" xmlns="http://www.w3.org/2000/svg" xmlns:xlink="http://www.w3.org/1999/xlink" x="0px" y="0px"
	 width="512px" height="512px" viewBox="0 0 512 512" enable-background="new 0 0 512 512" xml:space="preserve">
<path fill="#000003" d="M45.5,96.4h46.1v123.2h16.8v12.9H91.6v204.6h40.7l34.9,11.9v9.1H15.5v-20.9h9.1V125.7L45.5,96.4L45.5,96.4z
	 M335.6,92.8h-14.9l-11.3-26.9h9.7L335.6,92.8L335.6,92.8z M175.7,92.8h30.7l11.3-26.9h-25.5L175.7,92.8L175.7,92.8z M408.2,86.1
	h-30.6l-2.2,7.1l2.6,5.1l-3.5,1.4l-4.7-5l-37-45.2c-51.4,0-102.9,0-154.3,0l-37,45.2l-5,5.4l-4.4-1.8l2.6-5.1l-2.2-7.1h-30.6
	l-2.4,15.2l19.1,3.4l0,0l11.4,2.3l-12.7,13.6l1.7,16.9l-6.2,0v97.5h50.7v-21.3h6.7v4.4h15.3v-4.4h60.3l-22.6,23l-5.9-1.7
	c-6.2,4.2-10.5,9.4-13.8,14.9c0.6,0.6,1.2,1.2,1.8,1.8c3.9-3.2,6.2-4.7,10.2-7.9l5.8,4.3l4.4,5.7c-3.1,4-4.6,6.3-7.7,10.3
	c0.6,0.6,1.2,1.2,1.8,1.8c5.5-3.5,10.5-7.8,14.6-14.1l-1.7-5.6l2.8-2.8l7.6,35.2l16.5,22.1l-1.3,64.3l-31.6,26.7l-11.7,68.1
	l19.5,0.7l14.9-53.6l27.8-22.1l2.4,25.5l3.2,46.3h23.4l-4.4-46.3l1.7-23.8l7.6-94.2L259.9,265l-11.6-34.7l8.4-8.5l5.7,1.6
	c4.2-2.9,7.5-6.1,10.2-9.7h55v4.4h15.3v-4.4h5.4v21.3H399v-97.5l-6.7-0.1l1.7-16.9l-12.9-13.8l10.4-2.1h0l19.1-3.4L408.2,86.1
	L408.2,86.1z M418.4,219.6V96.4h46.1l20.9,29.3v311.4h9.1v21H342.8V449l34.9-11.9h40.7V232.5h-13.8v-12.9H418.4L418.4,219.6z
	 M345.3,219.6v12.9h-24.4v-12.9H345.3L345.3,219.6z M164.6,94.5c59.6-0.5,122.9-0.5,182,0l-23.5-30.7c-45,0-90,0-135,0L164.6,94.5
	L164.6,94.5z M293.3,145.9h-8.9l58-46.8l3.1,0.2L293.3,145.9L293.3,145.9z M216.8,145.9h8.9l-58-46.8l-3.1,0.2L216.8,145.9
	L216.8,145.9z M374.3,130.9l-5.8,26.6h-59.8l1.9-9.4L374.3,130.9L374.3,130.9z M170.1,173.1H337l-5.2,21.7c-38.8,0-117.7,0-156.5,0
	L170.1,173.1L170.1,173.1z M137.3,130.9l5.8,26.6h59.8l-1.9-9.4L137.3,130.9L137.3,130.9z M263.1,213.8h2.1c-0.3,0.3-0.7,0.5-1,0.8
	L263.1,213.8L263.1,213.8z M263.8,255.5l-1.7-26.7l9.3-8.2l6.6,23.4L263.8,255.5L263.8,255.5z M301.6,234.2
	c13.1,0,23.8,10.6,23.8,23.8c0,13.1-10.6,23.8-23.8,23.8s-23.8-10.6-23.8-23.8C277.8,244.9,288.4,234.2,301.6,234.2L301.6,234.2z
	 M167.8,219.6h24.4v12.9h-24.4V219.6z"/>
</svg>
