<?xml version="1.0" encoding="utf-8"?>
<!-- Generator: Adobe Illustrator 13.0.0, SVG Export Plug-In . SVG Version: 6.00 Build 14948)  -->
<!DOCTYPE svg PUBLIC "-//W3C//DTD SVG 1.1//EN" "http://www.w3.org/Graphics/SVG/1.1/DTD/svg11.dtd">
<svg version="1.1" id="Layer_1" xmlns="http://www.w3.org/2000/svg" xmlns:xlink="http://www.w3.org/1999/xlink" x="0px" y="0px"
	 width="512px" height="512px" viewBox="0 0 512 512" enable-background="new 0 0 512 512" xml:space="preserve">
<g>
	<path d="M440.4,356.4c14.1,0,26.6,7.3,33.8,18.3c34.7-51.7,33.3-120.1-4.5-170.4c-127.5,0-255.1,0-382.6,0
		C71,225.9,61.5,250.7,58.6,276h-5.8c0-0.2,0.1-0.3,0.1-0.5v-7.4h1.9c1.6,0,2.9-1.3,2.9-2.9v-4.1c0-1.6-1.3-2.9-2.9-2.9h-43
		c-1.6,0-2.9,1.3-2.9,2.9v4.1c0,1.6,1.3,2.9,2.9,2.9h24.1v7.4c0,0.2,0.1,0.3,0.1,0.5h-3.3c-1.6,0-2.9,1.3-2.9,2.9v4.4h-6.1
		c-1.6,0-2.9,1.3-2.9,2.9v5.5c0,1.6,1.3,2.9,2.9,2.9h6.1v4.4c0,1.6,1.3,2.9,2.9,2.9h25.3c1.7,28,11.4,55.6,29.2,79.3
		c105.4,0,210.7,0,316.1,0C409.3,366.6,423.7,356.4,440.4,356.4z M232.2,254.4h-33.6c-2.9,0-5.3-2.4-5.3-5.3c0-2.9,2.4-5.3,5.3-5.3
		h33.6c2.9,0,5.3,2.4,5.3,5.3C237.5,252,235.1,254.4,232.2,254.4z M257.2,249.1c0-2.9,2.4-5.3,5.3-5.3h193c2.9,0,5.3,2.4,5.3,5.3
		c0,2.9-2.4,5.3-5.3,5.3h-193C259.6,254.4,257.2,252,257.2,249.1z"/>
	<polygon points="145.2,423.6 154.6,392 119.9,392 110.5,423.6 	"/>
	<path d="M414.2,197.7v-76.9c0-4.8-3.9-8.6-8.6-8.6h-8.6c-6.6-17.1-23.1-29.3-42.6-29.3c-5.8,0-11.3,1.1-16.3,3.1l-88.8,16.7v-5.8
		c0-3.2-2.6-5.8-5.8-5.8H216c-3.7,0-7.4,1.2-10.4,3.4L146,137.7c-2.9,2.1-4.7,5.5-4.7,9.1v13.2c0,3.2-2.6,5.8-5.8,5.8h-12
		c-2,0-4,0.8-5.6,2.3c-1.5,1.5-2.3,3.6-2.3,5.6v18.5h133.5v-23.6l43.7-4.4v33.5H414.2z M404.5,188.3H304.1v-5.1h100.3V188.3z
		 M404.5,176H304.1v-5.1h33.2h33.9h33.2L404.5,176L404.5,176z M404.5,151.3h-9.6h-1h-52.7h-26.4h-10.6v-5.1h8.1h28h28.2h14.3h9.2
		h4.5h8.1V151.3L404.5,151.3z M404.5,139h-5.8h-11.1h-9.2h-4h-40.1h-24.3h-5.8v-5.1h4.9h23.3h43h0.9h8.3h15.1h4.9V139z M399.4,121.6
		h4.1v5h-3.6h-19.6h-3.4H371h-39.3h-23h-3.6v-5h4.1h23.5h35.3h7.8h1.4H399.4z M354.3,105.9c1.6,0,3.2,0.2,4.8,0.5
		c4.2,0.9,7.9,2.9,10.9,5.8h-7.4h-23.8C342.8,108.3,348.2,105.9,354.3,105.9z M249.1,160.7v-10.6v-39.4l72.1-13.5
		c-4.1,4.3-7.3,9.4-9.5,15.1h-10.2c-4.8,0-8.6,3.9-8.6,8.6v35.4L249.1,160.7z M304.1,158.6H320h27.9h40.7h15.8v5.1h-21h-58.3h-21
		V163V158.6z"/>
	<path d="M440.4,366.6c-10.9,0-20.5,5.8-25.8,14.5c-2.8,4.6-4.4,10-4.4,15.7c0,16.7,13.5,30.3,30.3,30.3c16.7,0,30.3-13.5,30.3-30.3
		c0-5.8-1.6-11.1-4.4-15.7C460.9,372.4,451.3,366.6,440.4,366.6z"/>
</g>
</svg>
