<?xml version="1.0" encoding="utf-8"?>
<!-- Generator: Adobe Illustrator 13.0.0, SVG Export Plug-In . SVG Version: 6.00 Build 14948)  -->
<!DOCTYPE svg PUBLIC "-//W3C//DTD SVG 1.1//EN" "http://www.w3.org/Graphics/SVG/1.1/DTD/svg11.dtd">
<svg version="1.1" id="Layer_1" xmlns="http://www.w3.org/2000/svg" xmlns:xlink="http://www.w3.org/1999/xlink" x="0px" y="0px"
	 width="512px" height="512px" viewBox="0 0 512 512" enable-background="new 0 0 512 512" xml:space="preserve">
<g>
	<path d="M356.5,324.9h-25.2v6.5c0,2.2,1.8,4,4,4h101.8c2.2,0,4-1.8,4-4v-76.5H331.3v12.7h25.2c1.2,0,2.2,1,2.2,2.2
		c0,1.2-1,2.2-2.2,2.2h-25.2v8.8h25.2c1.2,0,2.2,1,2.2,2.2c0,1.2-1,2.2-2.2,2.2h-25.2v8.8h25.2c1.2,0,2.2,1,2.2,2.2
		c0,1.2-1,2.2-2.2,2.2h-25.2v8.8h25.2c1.2,0,2.2,1,2.2,2.2s-1,2.2-2.2,2.2h-25.2v8.8h25.2c1.2,0,2.2,1,2.2,2.2
		S357.7,324.9,356.5,324.9z"/>
	<path d="M213.9,335.4h101.8c2.2,0,4-1.8,4-4v-76.5h-18.2H192.8l0,7.5c0,0,0.1,0,0.1,0l10,5.5c0.7,0.4,1,1.3,0.6,2l-9.8,17.8
		l-0.9-0.5l-2.3-1.2l2.2-4.1l5.8-10.5c0.4-0.6,0.1-1.4-0.5-1.8l-5.3-2.9l-3-1.7l-0.7-0.4c-0.6-0.4-1.5-0.1-1.8,0.5l-21.6,39.2
		c-0.4,0.6-0.1,1.5,0.5,1.8l0.7,0.4l8.3,4.6c0.6,0.4,1.5,0.1,1.8-0.5l8-14.6l3.1,1.7l4.6,2.6l0,5.9c0,2.4,1.6,4.4,3.9,5.1l13.2,3.6
		v16.6C210,333.6,211.7,335.4,213.9,335.4z"/>
	<path d="M406.7,356.1v-8.6h-20.1v8.6H254v-8.6h-20.1v8.6H186c5.8,6,9.9,13.7,11.4,22.2h233.2c1.5-8.6,5.5-16.3,11.4-22.2H406.7z"/>
	<path d="M483.4,355.9c-3.5-1.3-7.2-2-11.1-2c-3.9,0-7.7,0.7-11.1,2c-0.1,0.1-0.3,0.1-0.4,0.1c-9.6,3.8-16.9,12-19.3,22.2
		c-0.5,2.3-0.9,4.8-0.9,7.3c0,17.5,14.2,31.7,31.7,31.7c17.5,0,31.7-14.2,31.7-31.7C504,372,495.4,360.5,483.4,355.9z"/>
	<path d="M187.4,385.6c0-2.5-0.3-4.9-0.9-7.3c-2.4-10.2-9.7-18.5-19.3-22.2c-3.3-1.3-6.8-2-10.4-2.1c-0.4,0-0.7-0.1-1.1-0.1
		c-8.1,0-15.6,3.1-21.2,8.2c-6.5,5.8-10.5,14.2-10.5,23.5c0,17.5,14.2,31.7,31.7,31.7C173.2,417.3,187.4,403.1,187.4,385.6z"/>
	<path d="M179.9,197v4.9v5.6v1.5v12.1h11.2v-11.9v-0.3v-4.9v-5.1V197h-9.6L179.9,197L179.9,197z M182.2,218.8l1-7.2h4.6l1,7.2H182.2
		z"/>
	<path d="M440.6,199.8c-1.4-1.3-3.1-2.2-5-2.8c-1.1-0.3-2.2-0.5-3.4-0.5c-2.9,0-5.5,1-7.6,2.7c-1.7,1.3-3.1,3.1-3.9,5.1
		c-0.6,1.4-0.9,2.9-0.9,4.5c0,0.2,0.1,0.4,0.1,0.6c0.2,4.6,2.9,8.5,6.8,10.4l1.9,4.9h6.5l1.8-4.5c4.4-1.9,7.6-6.2,7.6-11.4
		c0-1.7-0.4-3.4-1-4.9C442.9,202.3,441.9,200.9,440.6,199.8z"/>
	<path d="M397.2,199.1c-2.1-1.6-4.7-2.7-7.6-2.7c-2.9,0-5.5,1-7.6,2.7c-1.7,1.3-3.1,3.1-3.9,5.1c-0.6,1.4-0.9,2.9-0.9,4.5
		c0,0.2,0.1,0.4,0.1,0.6c0.2,4.6,2.9,8.5,6.8,10.4l1.9,4.9h6.5l1.8-4.5c4.3-1.8,7.3-5.9,7.5-10.8c0-0.2,0.1-0.4,0.1-0.6
		c0-1.6-0.3-3.1-0.9-4.5C400.3,202.2,399,200.5,397.2,199.1z"/>
	<path d="M125.7,280.9h8.9V349c6.2-3.6,13.5-5.7,21.2-5.7c0.4,0,0.7,0,1.1,0.1v-88.4v-6.7h37.1h125.8h11.5h109.8h20.1v6.7v89.9
		c3.6-1,7.3-1.5,11.1-1.5s7.6,0.6,11.1,1.5V105.5c0-3.8-2-7.4-5.2-9.4c-3.2-2-7.3-2.3-10.7-0.6L407.7,124
		c9.7,1.2,18.6,5.7,25.4,12.5l28.1-13.4v33.6h-16.3h-5.5h-5.5l-0.7-1.7c-2.1-5.5-5.7-10.1-10.1-13.7c-5.8-4.7-13.1-7.4-20.8-7.4H400
		H214.9c-0.5,0-1,0-1.5,0.1c-7.7,0.4-15,3.4-20.6,8.4c-3.8,3.4-6.9,7.7-8.8,12.6l-0.7,1.7h-5.5h-5.5h-15.5v-32.9l26.5,13.6
		c6.2-6.6,14.5-11.2,23.5-12.9l-55.9-28.8c-3.4-1.8-7.6-1.6-10.9,0.4s-5.3,5.6-5.3,9.5v20.2h-8.9v-19.3c0-6.1-5-11.1-11.1-11.1H95.4
		c-2.3-1.7-5.1-2.7-8.1-2.7H19.8C12.2,92.7,6,98.9,6,106.5c0,7.6,6.2,13.8,13.8,13.8h67.5c3,0,5.8-1,8.1-2.7h8.1v8.1h-8.8v23.9h8.8
		V257h-6.8v23.9h6.8v15.4c0,6.1,5,11.1,11.1,11.1c6.1,0,11.1-5,11.1-11.1L125.7,280.9L125.7,280.9z M173.6,227.5V204v-7v-6.1h2h21.8
		v8.3v5.1v5.1v18.1L173.6,227.5L173.6,227.5z M454.1,224.5c0,1.5-1.2,2.7-2.7,2.7H295.1c-1.5,0-2.7-1.2-2.7-2.7v-15.1v-5.1v-5.1
		v-4.7c0-1.5,1.2-2.7,2.7-2.7H441h5.7h4.7c0.2,0,0.5,0.1,0.7,0.1c1.1,0.3,2,1.3,2,2.5V224.5L454.1,224.5z M125.7,149.6h8.9V257h-8.9
		V149.6z"/>
</g>
</svg>
