<?xml version="1.0" encoding="utf-8"?>
<!-- Generator: Adobe Illustrator 13.0.0, SVG Export Plug-In . SVG Version: 6.00 Build 14948)  -->
<!DOCTYPE svg PUBLIC "-//W3C//DTD SVG 1.1//EN" "http://www.w3.org/Graphics/SVG/1.1/DTD/svg11.dtd">
<svg version="1.1" id="Layer_1" xmlns="http://www.w3.org/2000/svg" xmlns:xlink="http://www.w3.org/1999/xlink" x="0px" y="0px"
	 width="512px" height="512px" viewBox="0 0 512 512" enable-background="new 0 0 512 512" xml:space="preserve">
<g>
	<path d="M245.5,171.7l25.2,41.1L314,233l47.7-7.2l53.2-114.4l4.8-10.3l5.9,2.7c2.3-3.1,4.6-6.2,7-9.3c2.2-3,1.5-7.3-1.8-9.6
		c-36.8-26.3-78.2-45.5-122-56.7c-3.8-1-7.7,1.2-8.5,4.9c-0.9,3.8-1.8,7.6-2.7,11.3l5.9,2.7l-4.8,10.3L245.5,171.7z M360,184.9
		l-6.5,14c-0.7,1.5-2.1,2.3-3.7,2.3c-0.6,0-1.2-0.1-1.7-0.4c-2-0.9-2.9-3.3-2-5.4l6.5-14c0.9-2,3.4-2.9,5.4-2
		C360,180.5,360.9,182.9,360,184.9z M397.8,103.6L370.2,163c-0.7,1.5-2.1,2.3-3.7,2.3c-0.6,0-1.1-0.1-1.7-0.4c-2-0.9-2.9-3.3-2-5.4
		l27.7-59.5c0.9-2,3.4-2.9,5.4-2C397.9,99.1,398.8,101.5,397.8,103.6z"/>
	<polygon points="286.1,251.9 290.6,242.3 307.1,240.3 264.6,220.5 273.7,234.5 265.7,251.5 	"/>
	<path d="M447.4,302.4l0.3-17.8l-12.1-0.2l0,2.3l-3.5-0.1l0-2.3l-12.1-0.2l0,2.3l-21.5-0.4l-5.7-6l-14.1-0.3l0.1-3.6
		c0.1-3.7-2.9-6.8-6.6-6.9l-86.9-1.8l-1.2,0l9-11.3l-8.8-0.2l-13.3-0.3l-12.9-0.3l-1.2,0l-17.1,21.5l-15-0.3l-1.1,51.9l83.3,1.7
		c9,20.3,10.4,44.5,1.9,67.6c-1.1,3-0.1,6.5,2.7,8.1c2.7,1.6,6.3,0.9,8-1.8c11.4-17.9,17.4-39.1,17-61.1l13.9,0.3l3.7,0.1l12.2,84.9
		c0.3,1.7,1,3.4,2.1,4.7l41,49.5c1.1,1.3,2.7,1.9,4.4,1.7l5.2-0.8l0.9-0.1c1.5-0.2,2.5-1.6,2.3-3.1l-6-41.5
		c4.1-1.2,8.2-3.4,12.2-6.8c3.1-2.7,4-7.1,2.7-11.1l-27.6-88.8l19,0.4l0.4-20.8l-13.1-13.6l9.6,0.2l-0.1,3.6l12.1,0.2l0.1-3.6
		l3.6,0.1l-0.1,3.6L447.4,302.4z"/>
	<path d="M186.8,337.9l24.4,0.5c3.7,0.1,6.8-2.9,6.9-6.6l1.2-60.4c0.1-3.7-2.9-6.8-6.6-6.9l-24.4-0.5c-3.7-0.1-6.8,2.9-6.9,6.6
		l-0.2,7.9l-26.4,10.1v19.1l25.6,11.1l-0.2,12.1C180.1,334.8,183.1,337.9,186.8,337.9z M188.5,275l2,0l15.3,0.3l6.1,0.1
		c1,0,1.7,0.8,1.7,1.8c0,1-0.8,1.7-1.8,1.7l-6.1-0.1l-17.3-0.4c-1,0-1.7-0.8-1.7-1.8c0-0.1,0-0.2,0.1-0.2
		C186.9,275.6,187.7,274.9,188.5,275z M213.2,299.8c0,1-0.8,1.7-1.8,1.7l-6.1-0.1L188,301c-1,0-1.7-0.8-1.7-1.8c0-1,0.8-1.7,1.8-1.7
		l17.3,0.4l6.1,0.1C212.4,298.1,213.2,298.9,213.2,299.8z M187.6,320.2l17.3,0.4l6.1,0.1c1,0,1.7,0.8,1.7,1.8c0,1-0.8,1.7-1.8,1.7
		l-6.1-0.1l-13.4-0.3l-3.9-0.1c-1,0-1.7-0.8-1.7-1.8c0-0.2,0.1-0.3,0.1-0.5C186.2,320.6,186.8,320.1,187.6,320.2z"/>
	<path d="M102.3,297.5c0,1.1,0.9,2,2,2.1l6.9,0.1c0,0,0,0,0,0c1.1,0,2-0.9,2-2l0,0c0-1.1-0.9-2-2-2.1l-6.9-0.1c0,0,0,0,0,0
		C103.2,295.6,102.3,296.4,102.3,297.5z"/>
	<path d="M130,298.1C130,298.1,130,298.1,130,298.1c0,1.1,0.9,2,2,2.1l6.9,0.1c0,0,0,0,0,0c1.1,0,2-0.9,2-2l0,0c0-1.1-0.9-2-2-2.1
		l-6.9-0.1C131,296,130,297,130,298.1z"/>
	<path d="M76.6,299l6.9,0.1c0,0,0,0,0,0c1.1,0,2-0.9,2-2l0,0c0-1.1-0.9-2-2-2.1l-6.9-0.1c0,0,0,0,0,0c-1.1,0-2,0.9-2,2l0,0
		C74.6,298.1,75.5,299,76.6,299z"/>
	<path d="M127.1,298L127.1,298c0-1.1-0.9-2-2-2.1l-6.9-0.1c-1.2-0.1-2,0.9-2.1,2l0,0c0,1.1,0.9,2,2,2.1l6.9,0.1c0,0,0,0,0,0
		C126.2,300,127.1,299.1,127.1,298z"/>
	<path d="M97.3,299.5C97.4,299.5,97.4,299.5,97.3,299.5c1.1,0,2-0.9,2.1-2v0c0-1.1-0.9-2-2-2.1l-6.9-0.1c-1.1-0.1-2,0.9-2.1,2l0,0
		c0,1.1,0.9,2,2,2.1L97.3,299.5z"/>
	<path d="M66.3,298.8l3.4,0.1c0,0,0,0,0,0c1.1,0,2-0.9,2-2v0c0-1.1-0.9-2-2-2.1l-3.4-0.1c0,0,0,0,0,0c-1.1,0-2,0.9-2,2
		C64.3,297.9,65.2,298.8,66.3,298.8z"/>
	<path d="M106.3,277l6,2.4c0.2,0.1,0.5,0.1,0.8,0.1c0.8,0,1.6-0.5,1.9-1.3c0.4-1-0.1-2.2-1.1-2.6l-6-2.4c-1-0.4-2.2,0.1-2.6,1.1
		C104.8,275.4,105.3,276.6,106.3,277z"/>
	<path d="M124.3,284.3c0.2,0.1,0.5,0.1,0.8,0.1c0.8,0,1.6-0.5,1.9-1.3c0.4-1-0.1-2.2-1.1-2.6l-6-2.4c-1-0.4-2.2,0.1-2.6,1.1
		c-0.4,1,0.1,2.2,1.1,2.6L124.3,284.3z"/>
	<path d="M137.7,285.4l-6-2.4c-1-0.4-2.2,0.1-2.6,1.1c-0.4,1,0.1,2.2,1.1,2.6l6,2.4c0.2,0.1,0.5,0.1,0.8,0.1c0.8,0,1.6-0.5,1.9-1.3
		C139.3,287,138.8,285.8,137.7,285.4z"/>
	<path d="M94.4,272.1l6,2.4c0.2,0.1,0.5,0.1,0.8,0.1c0.8,0,1.6-0.5,1.9-1.3c0.4-1-0.1-2.2-1.1-2.6l-6-2.4c-1-0.4-2.2,0.1-2.6,1.1
		C92.9,270.5,93.4,271.7,94.4,272.1z"/>
	<path d="M85.3,268.4l3.1,1.3c0.2,0.1,0.5,0.2,0.8,0.2c0.8,0,1.6-0.5,1.9-1.3c0.4-1-0.1-2.2-1.1-2.6l-3.1-1.3
		c-1-0.4-2.2,0.1-2.6,1.1C83.8,266.8,84.3,268,85.3,268.4z"/>
	<path d="M123.7,311.7l-6.1,2.2c-1,0.4-1.6,1.5-1.2,2.6c0.3,0.8,1.1,1.3,1.9,1.3c0.2,0,0.5,0,0.7-0.1l6.1-2.2
		c1.1-0.4,1.6-1.5,1.2-2.6C125.9,311.8,124.7,311.3,123.7,311.7z"/>
	<path d="M128.5,312.1c0.3,0.8,1.1,1.3,1.9,1.3c0.2,0,0.5,0,0.7-0.1l6.1-2.2c1-0.4,1.6-1.5,1.2-2.6c-0.4-1.1-1.5-1.6-2.6-1.2
		l-6.1,2.2C128.7,309.9,128.2,311,128.5,312.1z"/>
	<path d="M111.6,316l-6.1,2.2c-1.1,0.4-1.6,1.5-1.2,2.6c0.3,0.8,1.1,1.3,1.9,1.3c0.2,0,0.5,0,0.7-0.1l6.1-2.2
		c1.1-0.4,1.6-1.5,1.2-2.6C113.8,316.2,112.6,315.7,111.6,316z"/>
	<path d="M94,326.5c0.2,0,0.5,0,0.7-0.1l6.1-2.2c1-0.4,1.6-1.5,1.2-2.6c-0.4-1.1-1.5-1.6-2.6-1.2l-6.1,2.2c-1,0.4-1.6,1.5-1.2,2.6
		C92.4,326,93.2,326.5,94,326.5z"/>
	<path d="M87.3,324.8l-3.2,1.1c-1.1,0.4-1.6,1.5-1.2,2.6c0.3,0.8,1.1,1.3,1.9,1.3c0.2,0,0.5,0,0.7-0.1l3.2-1.1
		c1-0.4,1.6-1.5,1.2-2.6C89.5,324.9,88.3,324.4,87.3,324.8z"/>
</g>
</svg>
