<?xml version="1.0" encoding="utf-8"?>
<!-- Generator: Adobe Illustrator 13.0.0, SVG Export Plug-In . SVG Version: 6.00 Build 14948)  -->
<!DOCTYPE svg PUBLIC "-//W3C//DTD SVG 1.1//EN" "http://www.w3.org/Graphics/SVG/1.1/DTD/svg11.dtd">
<svg version="1.1" id="Layer_1" xmlns="http://www.w3.org/2000/svg" xmlns:xlink="http://www.w3.org/1999/xlink" x="0px" y="0px"
	 width="512px" height="512px" viewBox="0 0 512 512" enable-background="new 0 0 512 512" xml:space="preserve">
<g>
	<path d="M118.5,222.8c1.7-1.9,3.5-3.8,5.4-5.7c4.1-4.1,8.5-7.9,13-11.5l-12.8-39.4l1.3-0.4c3.4,2.6,7.6,4.1,12,4.1
		c2,0,4.1-0.3,6.1-1l80.6-26.1c6.4-2.1,11.1-7.1,12.9-13.2l2.7-0.9l13.7,42.2c8.9,1.4,17.6,3.5,26,6.4l-21.5-66.5
		c-1.9-6-8.4-9.3-14.4-7.3l-13.5,4.4c-5-3.8-11.7-5.2-18.2-3.1l-80.6,26.1c-6.4,2.1-11.1,7.1-12.9,13.2l-12.1,3.9
		c-2.9,0.9-5.3,3-6.6,5.7c-1.4,2.7-1.6,5.8-0.7,8.7L118.5,222.8z"/>
	<path d="M32.9,326.2c0.6,1.7,2.8,2,3.9,0.7l47.8-60.5c1.4-1.8,1.3-4.4-0.4-6.1L56,232.4c-1.7-1.7-4.3-2-6.4-0.7L12,254.8
		c-2,1.2-2.9,3.7-2.1,6L32.9,326.2z"/>
	<path d="M313.7,405.7l4.2,0.3c4.6-4.8,8.6-10.1,12.3-15.5h-30.4c1,1.3,1.3,2.9,1,4.4L313.7,405.7z"/>
	<path d="M165.2,396.9l-10.2,13.4l-0.1,4.2c7.4,6.4,15.6,11.8,24.3,16.2l3.8-1.7l8.4-14.5c-1-1.4-1.2-3.3-0.5-5
		c1.1-2.7,4.2-4,6.9-2.8c2.7,1.1,4,4.2,2.8,6.9c-0.7,1.7-2.2,2.8-3.9,3.1l-4.5,16.2l1.5,3.9c9.2,3.2,18.8,5.2,28.6,6l2.9-3l2.4-16.6
		c-1.4-1-2.4-2.6-2.4-4.5c0-2.9,2.4-5.2,5.4-5.2c2.9,0,5.2,2.4,5.2,5.4c0,1.8-1,3.4-2.4,4.3l1.9,16.8l2.8,3.1
		c9.6-0.5,19.2-2.2,28.8-5.1l1.6-3.9l-4-16.3c-1.7-0.4-3.2-1.5-3.9-3.3c-1-2.7,0.3-5.8,3-6.8c2.7-1,5.8,0.3,6.8,3
		c0.7,1.7,0.4,3.5-0.6,4.9l8,14.9l3.7,1.8c9-4.2,17.4-9.4,24.8-15.4l0-4.2l-9.8-13.7c-1.7,0.3-3.5-0.2-4.8-1.6
		c-1.8-1.9-1.8-4.8-0.3-6.8H171.3c0.4,1.7-0.1,3.6-1.4,4.9C168.6,396.7,166.8,397.2,165.2,396.9z"/>
	<path d="M133.7,390.5c3,4.5,6.3,8.9,9.9,12.9l4.2-0.2l13.2-10.4c-0.2-0.8-0.1-1.6,0-2.3H133.7z"/>
	<path d="M232,293.1c-12.1,0-21.9,9.8-21.9,21.9c0,12.1,9.8,21.9,21.9,21.9c12.1,0,21.9-9.8,21.9-21.9
		C253.9,302.9,244.1,293.1,232,293.1z M232,328c-7.2,0-13.1-5.8-13.1-13.1c0-7.2,5.9-13.1,13.1-13.1c7.2,0,13.1,5.8,13.1,13.1
		C245,322.2,239.2,328,232,328z"/>
	<path d="M85,283.2l-29.8,40.4c-1,1.4,0,3.3,1.7,3.3h22.3h4.1h4.1c0.2,19.7,4.3,38.4,11.7,55.4h29.7H335h29.8
		c7.5-17.5,11.7-36.8,11.7-57.1c0-14.3-2.1-28-5.9-41.1l3.2-3.4l3.2-3.4l20.7-22.1c0.8-0.9,1.6-1.8,2.3-2.8
		c11.9,11.1,30.5,10.5,41.6-1.3l55.1-58.7c5.2-5.5,4.9-14.1-0.6-19.3l-1.1-1c-4.9-4.6-12.6-4.4-17.2,0.6c-4.6,4.9-12.3,5.2-17.2,0.6
		l-69.3-65c-4.9-4.6-5.2-12.3-0.6-17.2c4.6-4.9,4.4-12.6-0.6-17.2l-1.1-1c-5.5-5.2-14.1-4.9-19.3,0.6l-55.1,58.7
		c-11.1,11.8-10.5,30.5,1.3,41.6l4.7,4.4c-0.9,0.8-1.8,1.6-2.6,2.5l-9.8,10.4c14,8.5,26.8,19.4,37.5,32.3c0.1,0.2,0.2,0.3,0.3,0.5
		c1.3,1.9,1.3,4.4,0,6.3c-0.3,0.4-0.6,0.9-1.1,1.2c-0.7,0.6-1.5,0.9-2.3,1.1c-0.5,0.1-0.9,0.2-1.4,0.2c-1.6,0-3.3-0.7-4.4-2.1
		c-10.5-12.6-23-23-36.8-31.1c-5.3-3.1-10.7-5.8-16.4-8.2c-8.5-3.6-17.4-6.3-26.6-8.1c-7-1.4-14.2-2.3-21.5-2.5
		c-1.3,0-2.6-0.1-4-0.1c-35.1,0-67.3,12.5-92.4,33.4c-6.6,5.4-12.6,11.5-18.1,18c-11.8,14-21,30.2-26.9,47.9h-3
		c-0.5,0-0.9,0.1-1.3,0.2C88.2,280.4,86.3,281.5,85,283.2L85,283.2z M341.8,148.1l13.8-14.7c33.6-35.9,36.8,74.2,79.6,71.7
		c3.5-0.2,6.1,3.7,3.7,6.2L425,226.2c-5.3,5.6-14,5.9-19.6,0.6l-1.2-1.2l-56.9-53.4l-4.8-4.5C336.8,162.5,336.6,153.7,341.8,148.1z
		 M232,346.7c-17.5,0-31.7-14.2-31.7-31.7c0-17.5,14.2-31.7,31.7-31.7c17.5,0,31.7,14.2,31.7,31.7
		C263.7,332.5,249.5,346.7,232,346.7z M235.8,201.9c2.9,0.1,5.1,2.6,5,5.5c0,0,0,0.1,0,0.1c-0.1,2.9-2.5,5.1-5.6,5.1
		c-2.3-0.1-4.5-0.1-6.8-0.1c-0.9,0-1.8,0.1-2.7,0.1c-2.3,0.1-4.5,0.2-6.8,0.5c-11.3,1.2-22.2,4.1-32.3,8.6c-2.9,1.3-5.8,2.7-8.6,4.2
		c-9.7,5.4-18.6,12.3-26.4,20.5c-2.1,2.3-4.2,4.6-6.1,7.1c-1.2,1.5-2.3,3-3.4,4.6c-1.8,2.6-3.6,5.2-5.2,8c-1,1.7-2.8,2.6-4.6,2.6
		c-0.9,0-1.8-0.2-2.7-0.7c-0.3-0.2-0.5-0.4-0.8-0.6c-1.9-1.6-2.4-4.4-1.1-6.7C150.2,222.3,191.6,199.9,235.8,201.9z M124.5,279.7
		c0.2,0.1,0.3,0.1,0.4,0.2c0.3,0.1,0.6,0.3,0.9,0.5c0.3,0.2,0.5,0.4,0.8,0.6c1.4,1.4,1.9,3.4,1.3,5.4c-0.5,1.5-0.9,3.1-1.4,4.6
		c-2.2,7.8-3.5,15.8-3.9,24c-0.1,2.8-2.5,5.1-5.3,5.1c-0.1,0-0.2,0-0.3,0c-1.1-0.1-2.2-0.5-3-1.1c-1.3-1-2.1-2.6-2-4.4
		c0.5-10.8,2.5-21.3,5.8-31.5c0.5-1.5,1.6-2.6,2.9-3.2C121.9,279.3,123.2,279.2,124.5,279.7z"/>
</g>
</svg>
