<?xml version="1.0" encoding="utf-8"?>
<!-- Generator: Adobe Illustrator 13.0.0, SVG Export Plug-In . SVG Version: 6.00 Build 14948)  -->
<!DOCTYPE svg PUBLIC "-//W3C//DTD SVG 1.1//EN" "http://www.w3.org/Graphics/SVG/1.1/DTD/svg11.dtd">
<svg version="1.1" id="Layer_1" xmlns="http://www.w3.org/2000/svg" xmlns:xlink="http://www.w3.org/1999/xlink" x="0px" y="0px"
	 width="512px" height="512px" viewBox="0 0 512 512" enable-background="new 0 0 512 512" xml:space="preserve">
<g>
	<path d="M145.5,216.1h17.7v36.4h-12.5c-3.3,0-5.9,2.6-5.9,5.9v5.1c0,3.3,2.6,5.9,5.9,5.9h6.2c-2.7,40.5-2.8,81.2-0.2,121.8h-6
		c-3.3,0-5.9,2.6-5.9,5.9v5.1c0,3.3,2.6,5.9,5.9,5.9h56.2c3.3,0,5.9-2.6,5.9-5.9v-5.1c0-3.3-2.6-5.9-5.9-5.9h-6
		c2.6-40.5,2.5-81.2-0.2-121.8h6.2c3.3,0,5.9-2.6,5.9-5.9v-5.1c0-3.3-2.6-5.9-5.9-5.9h-12.6v-36.4h14.1l30.2,136.6
		c0.3,1.5,0.8,3,1.4,4.5c0.6,1.5,1.4,3,2.2,4.4c0.3,0.5,0.7,1.1,1,1.6l5,7l17.1,24.1c0.5,0.8,1.2,1.5,1.9,2.1c2,1.7,4.7,2.8,7.4,2.8
		h63.3c3.7,0,7.3-1.7,9.5-4.6l15.2-19.3c2.4-3,3.6-6.7,3.6-10.5v-0.1L324,217.9c-0.9-3.1,0.9-6.4,4-7.3c3.1-0.9,6.4,0.9,7.3,4
		l39,135.2h35.1c0.9,0,1.9-0.1,2.8-0.3c0.7-0.1,1.4-0.3,2-0.5c2-0.7,3.8-1.8,5.4-3.2l51.7-48.8c2.7-2.6,4.3-6.2,4.3-9.9v-14.1h5.6
		c2.6,0,5-1.7,5.7-4.2c8.9-31.6,8.9-63.2,0-94.8c-0.7-2.5-3.1-4.3-5.7-4.3h-5.6v-21c0-3.8-1.5-7.4-4.2-10L459.7,127
		c-2.7-2.6-6.3-4.1-10.1-4.1h-9.2c-2.5-12-13.2-21.1-26-21.1H194.6c-12.8,0-23.5,9-26,21.1h-23.2c-3.3,0-5.9,2.6-5.9,5.9v81.4
		C139.6,213.5,142.2,216.1,145.5,216.1z M302,226.7l1.5,5h-71.6l-1.5-5H302z M317.5,150.2c0,2.4-2,4.4-4.4,4.4h-7.3l-10-10.7h17.3
		c2.4,0,4.4,2,4.4,4.4V150.2z M280.8,143.9l10,10.7h-13.1l-10-10.7H280.8z M252.7,143.9l10,10.7h-84.3c-2.4,0-4.4-2-4.4-4.4v-1.9
		c0-2.4,2-4.4,4.4-4.4H252.7z M239.5,257.5l-1.5-5h71.6l1.5,5H239.5z M247.1,283.3l-1.5-5h71.6l1.5,5H247.1z M341.5,360.8H270
		l-1.5-5h71.6L341.5,360.8z M333.9,335h-71.6l-1.5-5h71.6L333.9,335z M324.9,304.2l1.5,5h-71.6l-1.5-5H324.9z M407.7,292.9
		c-5.3,0-10.1-3.3-11.9-8.3l-31.9-85.8c-2-5.5-3.1-11.3-3.1-17.1V163v-2.8c0-4.9,4-8.8,8.8-8.8h48.3c4.8,0,8.7,3.8,8.8,8.6
		c0,0.1,0,0.2,0,0.3v39.8c0,7.4-8.8,10-8.8,23.1s8.8,13.7,8.8,21.1v39.8c0,4.9-4,8.8-8.8,8.8L407.7,292.9L407.7,292.9z"/>
	<path d="M419.5,164c0-0.5-0.1-1-0.2-1.4c-0.6-2.6-2.9-4.5-5.7-4.5h-2c-3.3,0-6.4,1.9-7.8,4.9c-0.1,0.2-0.2,0.4-0.3,0.5l-9.5,23.9
		c-1,2.6,0.9,5.5,3.7,5.5h15.9c3.3,0,5.9-2.6,5.9-5.9V164L419.5,164z"/>
	<path d="M121.1,213.3c2.9,0.7,5.7-1.5,5.7-4.4v-78.8c0-3-2.8-5.2-5.7-4.5l-39.8,10.1c-3.4,0.8-5.7,3.9-5.7,7.3v7.9H42.4
		c-1,0-1.9,0.3-2.7,0.9l-9.7,7.2c-0.7,0.5-1.2,1.4-1.2,2.4v0.8c0,0.8-0.6,1.6-1.5,1.7l-9.5,1.2c-0.8,0.1-1.5,0.8-1.5,1.7v2.8
		c0,0.8,0.6,1.6,1.5,1.7l9.5,1.2c0.8,0.1,1.5,0.8,1.5,1.7v3.2c0,0.9,0.4,1.8,1.2,2.4l9.7,7.2c0.8,0.6,1.7,0.9,2.7,0.9h33.2v8.1
		c0,3.5,2.4,6.5,5.7,7.3L121.1,213.3z"/>
</g>
</svg>
