<?xml version="1.0" encoding="utf-8"?>
<!-- Generator: Adobe Illustrator 13.0.0, SVG Export Plug-In . SVG Version: 6.00 Build 14948)  -->
<!DOCTYPE svg PUBLIC "-//W3C//DTD SVG 1.1//EN" "http://www.w3.org/Graphics/SVG/1.1/DTD/svg11.dtd">
<svg version="1.1" id="Layer_1" xmlns="http://www.w3.org/2000/svg" xmlns:xlink="http://www.w3.org/1999/xlink" x="0px" y="0px"
	 width="512px" height="512px" viewBox="0 0 512 512" enable-background="new 0 0 512 512" xml:space="preserve">
<g>
	<path d="M455.3,191.1h1.3c3.4,0,6.5,0.1,9,0.7c0.6,0.1,1.2,0.3,1.8,0.5c0.3,0.1,0.5,0.2,0.8,0.3l0.4,0.2l0,0l0,0
		c0.1,0.1-0.2-0.1-0.1-0.1l0,0l0.1,0.1l0.3,0.2c0.9,0.4,1.9,1.2,2.9,2.2c2,1.9,3.9,4.8,6.4,7.9c1.3,1.5,2.7,3.1,4.4,4.5
		c0.9,0.7,1.8,1.4,2.8,2l0.7,0.4c0.3,0.2,0.5,0.3,0.8,0.4c0.5,0.2,1.1,0.5,1.6,0.7c4.4,1.5,8.6,1.4,12.4,0.8
		c1.9-0.3,3.8-0.8,5.6-1.4c1.8-0.6,3.5-1.2,5.4-2.1l-1.7-4.5c-1.5,0.3-3.3,0.6-4.9,0.8c-1.7,0.2-3.3,0.3-4.9,0.2
		c-3.2-0.1-6.3-0.6-8.5-1.9c-0.3-0.2-0.5-0.3-0.8-0.5c-0.1-0.1-0.3-0.2-0.3-0.3l-0.4-0.3c-0.4-0.4-0.9-0.8-1.3-1.3
		c-0.9-1-1.7-2.2-2.5-3.5c-1.6-2.7-3.2-6.1-5.8-9.5c-1.3-1.7-2.9-3.4-4.9-5l-0.3-0.2l-0.1-0.1l0,0l-0.2-0.1l-0.1-0.1
		c-0.3-0.2-0.5-0.4-0.8-0.5c-0.5-0.3-1-0.6-1.6-0.9c-1.1-0.6-2.1-1-3.2-1.4c-4.2-1.6-8.3-2.2-12-2.7l-1.4-0.2l-1.5-0.2
		c-0.7-0.1-1.4-0.1-2.1-0.2v15.3c0.5,0,0.9-0.1,1.4-0.1L455.3,191.1z"/>
	<path d="M29.4,150.8h11.9c0,0-11.7,58.6-11.7,112.3c0,53.7,11.7,95.8,11.7,95.8h192.6v-37.4h154.4c18.7,0,34.2-13.7,37.1-31.7
		h-27.9c-2.9,0-5.2-2.3-5.2-5.2c0-2.9,2.3-5.2,5.2-5.2h28.4v-11.1h-28.4c-2.9,0-5.2-2.3-5.2-5.2c0-2.9,2.3-5.2,5.2-5.2h28.4v-11.1
		h-28.4c-2.9,0-5.2-2.3-5.2-5.2c0-2.9,2.3-5.2,5.2-5.2h28.3c-0.4-12.5-2.1-24.6-4.9-36.3l14.4-3.4v2.4h5.8h5.8v-7.1v-16.1v-9.5H441
		h-5.8v3.1l-28-6.6c-28.9-58-88.3-98.1-157.3-99.1v-1.7c0-4.1-3.3-7.4-7.4-7.4H121.1c-4.1,0-7.4,3.3-7.4,7.4v1.7h-38
		c-28.7,0-51.9,23.2-51.9,51.9v29.8C23.9,148.3,26.3,150.8,29.4,150.8z M322.1,195v0.1c0,3.6-2.9,6.6-6.6,6.6H163.8
		c-4.7,0-8.5-3.8-8.5-8.5v-44.8c0-4.7,3.8-8.5,8.5-8.5h63.1C279.5,139.9,322.1,164.6,322.1,195z M57.4,212.2H73
		c11.4,0,20.7,11.4,20.7,25.5v60.1c0,14.6-9,26.5-20,26.5H59.7c-2.6-12.8-6-34.7-6-59.9C53.7,246.3,55.4,227.5,57.4,212.2z"/>
	<path d="M162.7,154.8v1.5c0,4.2,3.2,7.8,7.4,8.3l44.6,5.1c4.5,0.5,8.9-1.7,11.2-5.5l6.2-10.3c1.7-2.8-0.3-6.4-3.6-6.4h-58.3
		C166.1,147.3,162.7,150.7,162.7,154.8z"/>
	<path d="M82.6,455.5h196.3v-18.2h40.8h4.7l4-2.9l48.6-35.5h85.3v-49.7l-90.6,15.6l-7.1,1.2l-2.8,2.3L314,408.3h-35.1V390h-60.8
		v-12.5c0-1.2-0.9-2.1-2.1-2.1H58.3c-1.2,0-2.1,0.9-2.1,2.1V390H29.8L-2,425v30.6h67.8H82.6z"/>
</g>
</svg>
