<?xml version="1.0" encoding="utf-8"?>
<!-- Generator: Adobe Illustrator 13.0.0, SVG Export Plug-In . SVG Version: 6.00 Build 14948)  -->
<!DOCTYPE svg PUBLIC "-//W3C//DTD SVG 1.1//EN" "http://www.w3.org/Graphics/SVG/1.1/DTD/svg11.dtd">
<svg version="1.1" id="Layer_1" xmlns="http://www.w3.org/2000/svg" xmlns:xlink="http://www.w3.org/1999/xlink" x="0px" y="0px"
	 width="512px" height="512px" viewBox="0 0 512 512" enable-background="new 0 0 512 512" xml:space="preserve">
<g>
	<path d="M73.6,302.2l-39.1,41.5c-1.6,1.7-1.5,4.3,0.2,5.9l9.8,9.2L73.6,302.2z"/>
	<path d="M55.8,428.3c2.4,3.5,6.1,6,10.6,6.9c4.5,0.9,9-0.2,12.6-2.6l106-72.3l0.8-6.6l21.5-183.2l-16.4,11.2l-2.8-4.2l-2.1-3.1
		c1.1-3.2,0.7-6.7-1.3-9.7l-10.8-15.8l6.2-21.4l7.8,11.4c2,3,5.2,4.6,8.6,4.8l13.2,19.3l8.9,13.1l-1.4,1l-11.7,99.5l9.1-6.2
		c1.1-0.8,2.7-0.5,3.5,0.7c0.8,1.2,0.5,2.7-0.7,3.5l-12.7,8.6l-1.2,10.1l9.8-6.7c1.2-0.8,2.7-0.5,3.5,0.7s0.5,2.7-0.7,3.5l-13.4,9.2
		l-1.2,10.1l14.4-9.8c1.2-0.8,2.7-0.5,3.5,0.7c0.8,1.1,0.5,2.7-0.7,3.5l-17.7,12c-0.1,0.1-0.2,0.1-0.3,0.1l-2.6,21.9l90-61.4
		l8.3-5.7c2.3-1.6,2.9-4.7,1.3-6.9L296,262c2.1-2.1,3.8-4.5,4.9-7.2c1.8-0.9,3.5-1.9,5.3-2.8l-2.4-4.5c3-1.6,5.9-3.2,8.8-4.8
		l2.4,4.4c3-1.6,5.9-3.3,8.8-4.9l-2.5-4.4c2.9-1.7,5.8-3.3,8.7-5l2.5,4.4c2.9-1.7,5.8-3.4,8.7-5.2l-2.6-4.3c2.9-1.7,5.7-3.5,8.6-5.2
		l2.7,4.3c2.9-1.8,5.7-3.6,8.6-5.4l-2.7-4.3c2.8-1.8,5.6-3.6,8.5-5.5l2.8,4.2c2.8-1.8,5.6-3.7,8.4-5.6l-2.8-4.2
		c2.8-1.9,5.6-3.8,8.3-5.7l2.9,4.2c2.8-1.9,5.5-3.9,8.3-5.8l-2.9-4.1c2.7-1.9,5.4-3.9,8.2-5.9l3,4.1c2.7-2,5.4-4,8.1-6l-3-4.1
		c2.7-2,5.4-4,8-6.1l3.1,4c2.7-2.1,5.3-4.1,8-6.2l-3.1-3.9c2.6-2.1,5.2-4.2,7.9-6.3l3.2,3.9c2.6-2.1,5.2-4.3,7.8-6.4l-3.2-3.9
		c2.6-2.1,5.2-4.3,7.7-6.5l3.3,3.8c2.6-2.2,5.1-4.4,7.7-6.6l-3.3-3.8c2.5-2.2,5-4.4,7.5-6.7l3.4,3.8l3.8-3.4
		c1.4-1.4,2.8-2.9,3.9-4.5l-4.1-3c2-2.7,3.5-5.7,4.6-8.9l4.8,1.6c1.2-3.6,1.9-7.4,2.1-11.2l-5-0.2c0.1-3.4-0.2-6.8-1-10l4.9-1.3
		c-1-3.9-2.6-7.5-4.8-10.7l-4.2,2.8c-1.6-2.3-3.5-4.3-5.7-6.1l3.2-3.9c-2.9-2.4-6.3-4.3-10-5.8l-1.9,4.7c-3.1-1.2-6.4-2-9.7-2.4
		l0.5-5c-1.3-0.1-2.6-0.2-3.9-0.2c-2.7,0-5.2,0.3-7.7,0.8l1,5c-2.2,0.5-4.4,1.1-6.5,2.1c-1,0.5-1.9,1-2.9,1.5l-2.3-4.5
		c-3,1.5-6,3-9,4.6l2.3,4.5c-3,1.5-5.9,3.1-8.9,4.7l-2.4-4.5c-3,1.6-5.9,3.2-8.9,4.8l2.4,4.4c-2.9,1.6-5.9,3.2-8.8,4.9l-2.5-4.4
		c-2.9,1.7-5.9,3.3-8.8,5l2.5,4.4c-2.9,1.7-5.8,3.4-8.7,5.1l-2.6-4.3c-2.9,1.7-5.8,3.5-8.7,5.3l2.7,4.3c-2.9,1.8-5.7,3.5-8.5,5.3
		l-2.7-4.3c-2.8,1.8-5.7,3.6-8.5,5.5l2.8,4.2c-2.8,1.8-5.6,3.7-8.4,5.6l-2.8-4.2c-2.8,1.9-5.6,3.8-8.4,5.7l2.9,4.2
		c-2.8,1.9-5.5,3.8-8.3,5.7l-2.9-4.1c-2.8,1.9-5.5,3.9-8.2,5.9l3,4.1c-2.7,2-5.4,4-8.1,6l-3-4.1c-2.7,2-5.4,4.1-8.1,6.1l3.1,4
		c-2.7,2-5.3,4.1-8,6.2l-3.1-4c-2.7,2.1-5.3,4.2-7.9,6.3l3.2,3.9c-2.6,2.1-5.2,4.2-7.8,6.4l-3.2-3.9c-2.2,1.8-4.4,3.7-6.6,5.5
		c-6.5-4.8-15.1-5.8-22.6-2.4l-7.2-10.5c-1-1.5-2.7-2.3-4.4-2.2l-22.5-33c1.1-3.2,0.7-6.7-1.3-9.7L185,95.7
		c-2.4-3.5-6.6-5.3-10.8-4.7c-4.2,0.7-7.6,3.7-8.8,7.8l-14.1,48.9c-0.9,3.1-0.4,6.5,1.5,9.2l13.7,20.1c2,3,5.2,4.6,8.6,4.7l2.1,3.1
		l2.2,3.3c-1.9,0.4-3.9,0.4-5.8-0.2l-38.4-10.3c-3.3-0.9-6.9,0.6-8.6,3.5l-47,80.7c-1.8,3.1-1.7,7,0.4,9.9l2.7,3.9l2.4,3.6
		c2,3,2.3,6.9,0.6,10.1l-1,2l-36.4,70.9l-11.5,22.4c-1.3,2.6-2,5.6-1.8,8.7c0.2,3.1,1.2,6,2.9,8.4l18,26.3
		C55.7,428.2,55.7,428.2,55.8,428.3z M429.1,97.7c-6.1,6.3-7.1,16.2-2,23.7c5.1,7.5,14.7,10.2,22.8,6.8
		c-45.5,41.5-96.1,77.1-150.5,105.8c-0.2-0.3-0.3-0.6-0.5-0.9l-23.2-34.1C322.3,158.9,373.8,124.9,429.1,97.7z M144.6,282.1
		c1.8-1.2,4.2-0.8,5.4,1c1.2,1.8,0.8,4.2-1,5.4c-1.8,1.2-4.2,0.8-5.4-1C142.3,285.7,142.8,283.3,144.6,282.1z M136.7,314
		c10.1,10.9,15.2,39.4,6.4,47.8l-57.3,39.1c-4.8,3.3-11.4,2.1-14.7-2.8c-3.5-5.2-3.2-12.1,0.8-16.9l54.7-65.7
		C129.2,312.3,133.9,311,136.7,314z M119,278.2c3.8-2.6,8.9-1.6,11.5,2.2c2.6,3.8,1.6,8.9-2.2,11.5c-3.8,2.6-8.9,1.6-11.5-2.2
		C114.3,285.9,115.3,280.8,119,278.2z"/>
	<path d="M108.5,342.5c-1.3,1.6-0.6,3.9,1.3,4.6l8.6,3c2.2,0.8,4.6-0.4,5.3-2.6l8.6-25c0.4-1.3-0.2-2.7-1.5-3.1
		c-1.4-0.5-3,0-3.9,1.1L108.5,342.5z"/>
	<polygon points="307.9,194.7 401,131.2 399.1,128.5 397.3,125.7 304.2,189.2 306,191.9 	"/>
	<polygon points="364.1,167.1 312.9,202 314.8,204.7 316.7,207.5 367.8,172.6 366,169.8 	"/>
</g>
</svg>
