<?xml version="1.0" encoding="utf-8"?>
<!-- Generator: Adobe Illustrator 13.0.0, SVG Export Plug-In . SVG Version: 6.00 Build 14948)  -->
<!DOCTYPE svg PUBLIC "-//W3C//DTD SVG 1.1//EN" "http://www.w3.org/Graphics/SVG/1.1/DTD/svg11.dtd">
<svg version="1.1" id="Layer_1" xmlns="http://www.w3.org/2000/svg" xmlns:xlink="http://www.w3.org/1999/xlink" x="0px" y="0px"
	 width="512px" height="512px" viewBox="0 0 512 512" enable-background="new 0 0 512 512" xml:space="preserve">
<g>
	<path fill="#010101" d="M325.8,375.2c0,21-23.9,38.1-53.3,38.1h-26.7c-29.4,0-53.3-17-53.3-38.1V184.8c0-21,23.9-38.1,53.3-38.1
		h26.7c29.4,0,53.3,17,53.3,38.1V375.2z"/>
	<path fill="#010101" d="M246.9,193c5.5-10.3-1.3-24.7-15.2-32.1l0,0c-13.9-7.4-29.7-5.1-35.2,5.2l-54.2,101.6
		c-5.5,10.3,1.3,24.7,15.2,32.1l0,0c13.9,7.4,29.7,5.1,35.2-5.2L246.9,193z"/>
	<path fill="#010101" d="M203.6,292.5c11-8.5,12.1-25.6,2.4-38l0,0c-9.7-12.5-26.4-15.6-37.4-7.1L60.2,331.4
		c-11,8.5-12.1,25.6-2.4,38l0,0c9.7,12.5,26.4,15.7,37.4,7.1L203.6,292.5z"/>
	<path fill="#010101" d="M271,193c-5.5-10.3,1.3-24.7,15.2-32.1l0,0c13.9-7.4,29.7-5.1,35.2,5.2l54.2,101.6
		c5.5,10.3-1.3,24.7-15.2,32.1l0,0c-13.9,7.4-29.7,5.1-35.2-5.2L271,193z"/>
	<path fill="#010101" d="M314.2,292.5c-11-8.5-12.1-25.6-2.4-38l0,0c9.7-12.5,26.4-15.6,37.4-7.1l108.5,84.1
		c11,8.5,12.1,25.6,2.4,38l0,0c-9.7,12.5-26.4,15.7-37.4,7.1L314.2,292.5z"/>
	<path fill="#010101" d="M73.5,366.2C56.7,363.9,40.8,379,38,399.8l0,0c-2.8,20.8,8.6,39.6,25.4,41.8L229,463.9
		c16.8,2.3,32.7-12.8,35.5-33.7l0,0c2.8-20.9-8.5-39.6-25.4-41.8L73.5,366.2z"/>
	<path fill="#010101" d="M438.5,366.2c16.8-2.3,32.7,12.8,35.5,33.7l0,0c2.8,20.8-8.6,39.6-25.4,41.8L283,463.9
		c-16.8,2.3-32.7-12.8-35.5-33.7l0,0c-2.8-20.9,8.5-39.6,25.4-41.8L438.5,366.2z"/>
	<path fill="#010101" d="M111.9,464.9c-16.9-0.7-30-18.3-29.1-39.3l0,0c0.9-21,15.3-37.5,32.2-36.8l167,6.9
		c16.9,0.7,30,18.3,29.1,39.3l0,0c-0.9,21-15.3,37.5-32.2,36.8L111.9,464.9z"/>
	<path fill="#010101" d="M400.1,464.9c16.9-0.7,30-18.3,29.1-39.3l0,0c-0.9-21-15.3-37.5-32.2-36.8l-167,6.9
		c-16.9,0.7-30,18.3-29.1,39.3l0,0c0.9,21,15.3,37.5,32.2,36.8L400.1,464.9z"/>
	<circle fill="#010101" cx="259.1" cy="88.6" r="50.4"/>
</g>
</svg>
