<?xml version="1.0" encoding="utf-8"?>
<!-- Generator: Adobe Illustrator 13.0.0, SVG Export Plug-In . SVG Version: 6.00 Build 14948)  -->
<!DOCTYPE svg PUBLIC "-//W3C//DTD SVG 1.1//EN" "http://www.w3.org/Graphics/SVG/1.1/DTD/svg11.dtd">
<svg version="1.1" id="Layer_1" xmlns="http://www.w3.org/2000/svg" xmlns:xlink="http://www.w3.org/1999/xlink" x="0px" y="0px"
	 width="512px" height="512px" viewBox="0 0 512 512" enable-background="new 0 0 512 512" xml:space="preserve">
<g>
	<path fill="#010101" d="M137.6,213c-7.9,12.7-4.1,29.4,8.6,37.3l11.5,7.2c12.7,7.9,29.4,4.1,37.3-8.6L266.8,134
		c7.9-12.7,4.1-29.4-8.6-37.3l-11.5-7.2c-12.7-7.9-29.4-4.1-37.3,8.6L137.6,213z"/>
	<path fill="#010101" d="M187.5,232.7c-1.1-12-14-20.7-28.9-19.4l0,0c-14.9,1.3-26.1,12.1-25.1,24.1l10.4,118.4
		c1,12,14,20.7,28.9,19.4l0,0c14.9-1.3,26.1-12.1,25.1-24.1L187.5,232.7z"/>
	<path fill="#010101" d="M154.1,470.9c1,12,14,20.7,28.9,19.4l0,0c14.9-1.3,26.1-12.1,25.1-24.1l-10.4-118.4
		c-1-12-14-20.7-28.9-19.4l0,0c-14.9,1.3-26.1,12.1-25.1,24.1L154.1,470.9z"/>
	<path fill="#010101" d="M248.2,30.9c13.2-14.7,35.9-15.9,50.6-2.7c14.7,13.2,15.9,35.9,2.7,50.6c-13.2,14.7-35.9,15.9-50.6,2.7
		C236.2,68.3,235,45.6,248.2,30.9z"/>
	<path fill="#010101" d="M228.8,144.2c-2.7-11.8,3.9-23.3,14.9-25.9l0,0c10.9-2.5,22,5,24.7,16.7l26.8,115.8
		c2.7,11.8-3.9,23.3-14.9,25.9l0,0c-10.9,2.5-22-5-24.7-16.7L228.8,144.2z"/>
	<g>
		<path fill="#010101" d="M311.5,464.3c-0.7,10.1,7.8,26.6,29,28.4c24.8,2.1,36.3-9.7,37.9-24.1c1.1-10-13.4-15.4-31.9-17.1
			C315,448.7,312.2,454.2,311.5,464.3z"/>
		<path fill="#010101" d="M281.5,331.9c0.6,3.1,4.4,4.9,8.6,4.1l0,0c4.2-0.8,7.1-3.9,6.5-7l-10.4-54.4c-0.6-3.1-15.7-0.2-15.1,2.9
			L281.5,331.9z"/>
		<path fill="#010101" d="M312.4,471.5l-28.1-140.9c-0.5-2.8,1.8-5.6,3.8-6c1.9-0.4,5.2,1.4,5.7,4.2l25.6,141.4
			c0.5,2.8-0.6,5.4-2.5,5.7C314.9,476.3,312.9,474.3,312.4,471.5z"/>
	</g>
</g>
</svg>
