<?xml version="1.0" encoding="utf-8"?>
<!-- Generator: Adobe Illustrator 13.0.0, SVG Export Plug-In . SVG Version: 6.00 Build 14948)  -->
<!DOCTYPE svg PUBLIC "-//W3C//DTD SVG 1.1//EN" "http://www.w3.org/Graphics/SVG/1.1/DTD/svg11.dtd">
<svg version="1.1" id="Layer_1" xmlns="http://www.w3.org/2000/svg" xmlns:xlink="http://www.w3.org/1999/xlink" x="0px" y="0px"
	 width="512px" height="512px" viewBox="0 0 512 512" enable-background="new 0 0 512 512" xml:space="preserve">
<path d="M453.5,495.9H312.1V323.3h141.4V495.9L453.5,495.9z M56.5,369.1c7.1,0,13.8-1.5,20-4.3c6.2-2.9,13.2-4.5,20.4-4.5
	c7.3,0,14.3,1.7,20.5,4.5c6,2.7,12.9,4.3,19.9,4.3c7.1,0,13.8-1.5,19.9-4.3c6.2-2.9,13.2-4.5,20.5-4.5c7.3,0,14.3,1.7,20.5,4.5
	c6,2.7,12.9,4.3,20,4.3s13.8-1.5,19.9-4.3c6.2-2.9,13.2-4.5,20.5-4.5c7.3,0,14.3,1.7,20.5,4.5c6,2.7,12.9,4.3,20,4.3v29.9
	c-7.1,0-13.9-1.5-20-4.3c-6.2-2.9-13.2-4.6-20.5-4.6c-7.3,0-14.3,1.7-20.5,4.6c-6,2.7-12.8,4.3-19.9,4.3s-13.9-1.5-20-4.3
	c-6.2-2.9-13.2-4.6-20.5-4.6c-7.3,0-14.3,1.7-20.5,4.6c-6,2.7-12.8,4.3-19.9,4.3c-7,0-13.8-1.5-19.9-4.3c-6.2-2.9-13.2-4.6-20.5-4.6
	c-7.2,0-14.2,1.7-20.4,4.6c-6.1,2.7-12.9,4.3-20,4.3V369.1L56.5,369.1z M56.5,417.6c7.1,0,13.8-1.5,20-4.3
	c6.2-2.9,13.2-4.5,20.4-4.5c7.3,0,14.3,1.7,20.5,4.5c6,2.7,12.9,4.3,19.9,4.3c7.1,0,13.8-1.5,19.9-4.3c6.2-2.9,13.2-4.5,20.5-4.5
	c7.3,0,14.3,1.7,20.5,4.5c6,2.7,12.9,4.3,20,4.3c7.1,0,13.8-1.5,19.9-4.3c6.2-2.9,13.2-4.5,20.5-4.5c7.3,0,14.3,1.7,20.5,4.5
	c6,2.7,12.9,4.3,20,4.3v29.8c-7.1,0-13.9-1.5-20-4.3c-6.2-2.9-13.2-4.6-20.5-4.6c-7.3,0-14.3,1.7-20.5,4.6c-6,2.7-12.8,4.3-19.9,4.3
	c-7.1,0-13.9-1.5-20-4.3c-6.2-2.9-13.2-4.6-20.5-4.6c-7.3,0-14.3,1.7-20.5,4.6c-6,2.7-12.8,4.3-19.9,4.3c-7,0-13.8-1.5-19.9-4.3
	c-6.2-2.9-13.2-4.6-20.5-4.6c-7.2,0-14.2,1.7-20.4,4.6c-6.1,2.7-12.9,4.3-20,4.3V417.6L56.5,417.6z M56.5,466.1
	c7.1,0,13.8-1.5,20-4.3c6.2-2.9,13.2-4.5,20.4-4.5c7.3,0,14.3,1.7,20.5,4.5c6,2.7,12.9,4.3,19.9,4.3c7.1,0,13.8-1.5,19.9-4.3
	c6.2-2.9,13.2-4.5,20.5-4.5c7.3,0,14.3,1.7,20.5,4.5c6,2.7,12.9,4.3,20,4.3c7.1,0,13.8-1.5,19.9-4.3c6.2-2.9,13.2-4.5,20.5-4.5
	c7.3,0,14.3,1.7,20.5,4.5c6,2.7,12.9,4.3,20,4.3v29.8c-7.1,0-13.9-1.5-20-4.3c-6.2-2.9-13.2-4.6-20.5-4.6c-7.3,0-14.3,1.7-20.5,4.6
	c-6,2.7-12.8,4.3-19.9,4.3c-7.1,0-13.9-1.5-20-4.3c-6.2-2.9-13.2-4.6-20.5-4.6c-7.3,0-14.3,1.7-20.5,4.6c-6,2.7-12.8,4.3-19.9,4.3
	c-7,0-13.8-1.5-19.9-4.3c-6.2-2.9-13.2-4.6-20.5-4.6c-7.2,0-14.2,1.7-20.4,4.6c-6.1,2.7-12.9,4.3-20,4.3V466.1L56.5,466.1z
	 M278.7,251.7h110.8v64.6h-53.9v-53.9h-56.9V251.7L278.7,251.7z M216.4,60.4c-10.1-10.1-10.1-26.6,0-36.8
	c10.1-10.1,26.6-10.1,36.8,0c10.2,10.2,10.2,26.6,0,36.8C243,70.6,226.6,70.6,216.4,60.4L216.4,60.4z M365.9,69.3
	c18.7,3.7,30.9,21.8,27.2,40.5c-2,10.3-8.6,19.2-17,23.5l-55,29.2l26.4,51.2c2.9,6.8,2.1,15.1-2.8,21.4c-7.2,9.2-18.7,8.5-27.9,1.3
	c-2.1-1.7-2.8-3.4-4.1-5.6l-35.4-70.5c-2.5-5.3-2.9-13.4,0.1-17.2c2.2-2.7,3.4-5.6,5.4-6.5l36.8-20.8l-50.8-13l-31.5,23.8
	c-5.2,4.5-10.9,5.8-16.6,4.1l-65.9-17.3c-7.1-2.1-11.1-9.5-9.1-16.6c2.1-7.1,9.5-11.2,16.6-9.1l52.1,13.7l53-45.4
	c6.5-5.3,15-7.4,22.9-6L365.9,69.3L365.9,69.3z"/>
</svg>
