<?xml version="1.0" encoding="utf-8"?>
<!-- Generator: Adobe Illustrator 13.0.0, SVG Export Plug-In . SVG Version: 6.00 Build 14948)  -->
<!DOCTYPE svg PUBLIC "-//W3C//DTD SVG 1.1//EN" "http://www.w3.org/Graphics/SVG/1.1/DTD/svg11.dtd">
<svg version="1.1" id="Layer_1" xmlns="http://www.w3.org/2000/svg" xmlns:xlink="http://www.w3.org/1999/xlink" x="0px" y="0px"
	 width="512px" height="512px" viewBox="0 0 512 512" enable-background="new 0 0 512 512" xml:space="preserve">
<path d="M184.2,143c9.4,29.5,29.8,42.4,52.3,50.8c-4.5,7.1-11.3,13.1-21.6,17.8c-18.9-12.9-31.3-34.5-31.3-59.1
	C183.6,149.2,183.8,146.1,184.2,143L184.2,143z M210.6,96.4c1.6,12.2,8.1,35.9,33.6,47.5c0.6,16.2,0.7,31-4.4,43.4
	c-24.7-9-45.5-23-51.9-59.4C192.4,115.5,200.4,104.6,210.6,96.4L210.6,96.4z M284.2,87.2c-19.3-0.5-42.2,5.3-59.3,29.7
	c-4.4-7.4-7-16-7.5-25.2C228.3,84.9,241.2,81,255,81C265.4,81,275.3,83.2,284.2,87.2L284.2,87.2z M229.3,123.2
	c19.8-30.3,48.9-31,69.4-27.2c8.5,6.6,15.5,15.1,20.3,24.9c-33.2-14.8-60.1,5.1-72,16.5C239.9,133.7,233.9,128.9,229.3,123.2
	L229.3,123.2z M274.7,221.1c22.7-23.3,26.4-62.8,20.7-98.4c8.6,0,17.9,2.3,27.8,8.2c2.1,6.8,3.3,14,3.3,21.5
	C326.4,185.1,304.5,212.6,274.7,221.1L274.7,221.1z M222.2,215.9c29.4-15.5,30.2-42.3,29.1-72.9c7.3-7.1,20.3-17.4,36.9-19.8
	c6.5,40,0.4,81.7-27.8,100.4c-1.8,0.1-3.6,0.2-5.4,0.2C243.2,223.9,232,221,222.2,215.9L222.2,215.9z M87.3,295.5v-28h-28v28H87.3
	L87.3,295.5z M87.3,335.9v-28h-28v28H87.3L87.3,335.9z M87.3,376.3v-28h-28v28H87.3L87.3,376.3z M87.3,416.7v-28h-28v28H87.3
	L87.3,416.7z M127.7,295.5v-28h-28v28H127.7L127.7,295.5z M127.7,335.9v-28h-28v28H127.7L127.7,335.9z M127.7,376.3v-28h-28v28
	H127.7L127.7,376.3z M127.7,416.7v-28h-28v28H127.7L127.7,416.7z M168.1,295.5v-28h-28v28H168.1L168.1,295.5z M168.1,335.9v-28h-28
	v28H168.1L168.1,335.9z M168.1,376.3v-28h-28v28H168.1L168.1,376.3z M168.1,416.7v-28h-28v28H168.1L168.1,416.7z M208.4,295.5v-28
	h-28v28H208.4L208.4,295.5z M208.4,335.9v-28h-28v28H208.4L208.4,335.9z M208.4,376.3v-28h-28v28H208.4L208.4,376.3z M208.4,416.7
	v-28h-28v28H208.4L208.4,416.7z M248.8,295.5v-28h-28v28H248.8L248.8,295.5z M248.8,335.9v-28h-28v28H248.8L248.8,335.9z
	 M248.8,376.3v-28h-28v28H248.8L248.8,376.3z M248.8,416.7v-28h-28v28H248.8L248.8,416.7z M289.2,295.5v-28h-28v28H289.2
	L289.2,295.5z M289.2,335.9v-28h-28v28H289.2L289.2,335.9z M289.2,376.3v-28h-28v28H289.2L289.2,376.3z M289.2,416.7v-28h-28v28
	H289.2L289.2,416.7z M329.6,295.5v-28h-28v28H329.6L329.6,295.5z M329.6,335.9v-28h-28v28H329.6L329.6,335.9z M329.6,376.3v-28h-28
	v28H329.6L329.6,376.3z M329.6,416.7v-28h-28v28H329.6L329.6,416.7z M370,295.5v-28h-28v28H370L370,295.5z M370,335.9v-28h-28v28
	H370L370,335.9z M370,376.3v-28h-28v28H370L370,376.3z M370,416.7v-28h-28v28H370L370,416.7z M410.4,295.5v-28h-28v28H410.4
	L410.4,295.5z M410.4,335.9v-28h-28v28H410.4L410.4,335.9z M410.4,376.3v-28h-28v28H410.4L410.4,376.3z M410.4,416.7v-28h-28v28
	H410.4L410.4,416.7z M450.8,295.5v-28h-28v28H450.8L450.8,295.5z M450.8,335.9v-28h-28v28H450.8L450.8,335.9z M450.8,376.3v-28h-28
	v28H450.8L450.8,376.3z M450.8,416.7v-28h-28v28H450.8L450.8,416.7z M463.1,388.6v28h28v-28H463.1L463.1,388.6z M463.1,348.2v28h28
	v-28H463.1L463.1,348.2z M463.1,307.8v28h28v-28H463.1L463.1,307.8z M463.1,267.4v28h28v-28H463.1L463.1,267.4z M18.8,429H6.5
	l0-12.3V267.4l0-12.3h12.3l484.5,0l0.2,12.3v28v12.3v28v12.3v28v12.3v28V429h-7.7l-4.6,0h-28h-12.3h-28h-12.4h-28H370h-28h-12.3h-28
	h-12.3h-28h-12.4h-28h-12.3h-28h-12.3h-28h-12.3h-28H87.3h-28H46.9H18.8L18.8,429z M18.8,388.6v28h28v-28H18.8L18.8,388.6z
	 M18.8,348.2v28h28v-28H18.8L18.8,348.2z M18.8,307.8v28h28v-28H18.8L18.8,307.8z M18.8,267.4v28h28v-28H18.8L18.8,267.4z"/>
</svg>
