<?xml version="1.0" encoding="utf-8"?>
<!-- Generator: Adobe Illustrator 13.0.0, SVG Export Plug-In . SVG Version: 6.00 Build 14948)  -->
<!DOCTYPE svg PUBLIC "-//W3C//DTD SVG 1.1//EN" "http://www.w3.org/Graphics/SVG/1.1/DTD/svg11.dtd">
<svg version="1.1" id="Layer_1" xmlns="http://www.w3.org/2000/svg" xmlns:xlink="http://www.w3.org/1999/xlink" x="0px" y="0px"
	 width="512px" height="512px" viewBox="0 0 512 512" enable-background="new 0 0 512 512" xml:space="preserve">
<path d="M474.4,430.8l-73.9-73.9c-5.9-5.9-14.9-6.7-21.6-2.4c-28-46.4-47.4-110.5-55.7-141.4c-7-37.6-25.8-82.8-59.8-130.6
	c-8.5-11.9-17.6-21.8-27.2-29.4c-14.3-12.8-33.3-19.6-55-19.6c-33.8,0-70.9,17-99.3,45.4c-48.5,48.5-59.8,116.2-25.8,154.2
	c7.6,9.6,17.6,18.8,29.5,27.2c46,32.7,85.3,48.7,115.5,56.3c0,0,0,0,0,0c4.4,1.1,8.5,2,12.5,2.8c29.8,7.9,96.2,27.5,144,56.4
	c-4.3,6.7-3.5,15.8,2.4,21.6l73.9,73.9c6.8,6.8,17.8,6.8,24.7,0l15.9-15.9C481.2,448.7,481.2,437.6,474.4,430.8z M307.5,246.4
	c-0.1,9.2-1.1,17.3-2.9,24.3l-17.4-17.4l13.4-13.4l5.6,5.6C306.6,245.8,307.1,246.1,307.5,246.4z M147.7,158.1l13.4-13.4l20.6,20.6
	c-4.5,4.5-9,9-13.4,13.4C161.2,171.7,154.3,164.8,147.7,158.1z M159.5,187.4c-4.6,4.6-9.1,9.1-13.4,13.4c-7-7-13.9-13.9-20.6-20.6
	l13.4-13.4L159.5,187.4z M190.4,174l20.6,20.6L197.6,208c-6.8-6.8-13.7-13.7-20.6-20.6L190.4,174z M199.2,165.2l13.4-13.4l20.6,20.6
	l-13.4,13.4L199.2,165.2z M242,181.1l20.6,20.6l-13.4,13.4l-20.6-20.6L242,181.1z M271.3,210.5l20.6,20.6l-13.4,13.4l-20.6-20.6
	L271.3,210.5z M250.7,172.4l13.4-13.4l20.6,20.6l-13.4,13.4C264.8,186.5,257.9,179.5,250.7,172.4z M242,163.6
	c-6.8-6.8-13.7-13.7-20.6-20.6l13.4-13.4l20.6,20.6L242,163.6z M212.6,134.3c-7-7-13.9-13.9-20.6-20.6l13.4-13.4l20.6,20.6
	C221.9,125.1,217.4,129.6,212.6,134.3z M203.9,143c-4.4,4.4-8.9,8.9-13.4,13.4l-20.6-20.6l13.4-13.4L203.9,143z M161.1,127.1
	l-20.6-20.6L154,93.2l20.6,20.6C170.2,118.1,165.7,122.6,161.1,127.1z M152.4,135.9c-4.5,4.5-9,9-13.4,13.4
	c-7.3-7.3-14.3-14.3-20.6-20.6l13.4-13.4L152.4,135.9z M130.2,158.1c-4.6,4.6-9.1,9.1-13.4,13.4c-7.4-7.4-14.3-14.3-20.6-20.6
	l13.4-13.4L130.2,158.1z M108,180.3c-4.7,4.7-9.2,9.2-13.4,13.4c-7.5-7.5-14.5-14.5-20.6-20.6l13.4-13.4L108,180.3z M116.7,189.1
	l20.6,20.6c-4.7,4.7-9.2,9.2-13.4,13.4c-7-7-13.9-13.9-20.6-20.6L116.7,189.1z M146.1,218.4l20.6,20.6l-13.4,13.4
	c-6.7-6.7-13.6-13.6-20.6-20.6L146.1,218.4z M154.8,209.6l13.4-13.4l20.6,20.6l-13.4,13.4C168.6,223.4,161.7,216.5,154.8,209.6z
	 M197.6,225.5l20.6,20.6l-13.4,13.4c-6.5-6.5-13.4-13.4-20.6-20.6L197.6,225.5z M206.3,216.8l13.4-13.4l20.6,20.6l-13.4,13.4
	C220.3,230.7,213.4,223.8,206.3,216.8z M249.1,232.6l20.6,20.6l-13.4,13.4c-6.2-6.2-13.1-13.1-20.6-20.6L249.1,232.6z M278.4,262
	l21.1,21.1c0.1,0.1,0.1,0.1,0.2,0.2c-1.7,3.1-3.6,5.7-5.7,7.8c-2.1,2.1-4.7,4-7.8,5.7c-0.1-0.1-0.1-0.1-0.1-0.2
	c-0.6-0.5-8.6-8.6-21.1-21.1L278.4,262z M297,191.8c0.9,0.9,1.6,1.6,2.3,2.3c0.3,1,0.6,2,0.9,3.1c0,0.6,0.1,1.3,0.2,1.9
	c0.3,1.1,1.6,7.1,4.1,16.4c0.2,0.8,0.3,1.6,0.4,2.4l-4.4,4.4c-5.6-5.6-12.6-12.6-20.6-20.6l13.4-13.4L297,191.8z M289.7,167
	c-5-5-10.7-10.7-16.8-16.8l6.2-6.2C283.1,151.9,286.6,159.5,289.7,167z M273,132.6l-8.9,8.9c-6.6-6.6-13.6-13.6-20.6-20.6l13.9-13.9
	C263.2,115.7,268.4,124.2,273,132.6z M231.8,74c5.7,5.5,11.2,11.9,16.4,19.3c0.8,1.1,1.5,2.1,2.2,3.2c-3.9,3.9-9.2,9.2-15.6,15.6
	c-7-7-13.9-13.9-20.6-20.6l15.3-15.3C230.4,75.4,231.1,74.7,231.8,74z M194,53.1c11,1.8,20.6,6.2,28.4,12.7
	c-3.9,3.9-9.7,9.7-16.9,16.9c-7.6-7.6-14.6-14.6-20.6-20.6L194,53.1z M196.7,91.5c-4.2,4.2-8.7,8.7-13.4,13.4
	c-7.4-7.4-14.3-14.3-20.6-20.6L176.2,71L196.7,91.5z M177.4,52.2l-1.2,1.2c-0.4-0.4-0.8-0.8-1.1-1.1
	C175.8,52.3,176.6,52.2,177.4,52.2z M159.8,54.6c0.8,0.8,1.7,1.7,2.8,2.8l4.8,4.8L154,75.6c-5.7-5.7-10.6-10.6-14.3-14.3
	C146.4,58.5,153.1,56.2,159.8,54.6z M128,67.1c0.8,0.8,1.7,1.7,2.8,2.8l14.5,14.5l-13.4,13.4l-20.1-20.1
	C116.9,73.7,122.4,70.2,128,67.1z M95,92c2.3-2.3,4.6-4.4,6.9-6.5l21,21L109.6,120c-9.1-9.1-16.4-16.4-21.1-21.1
	C90.6,96.6,92.8,94.3,95,92z M80.7,108.6c4.2,4.2,10.5,10.6,20.1,20.2l-13.4,13.4c-7.4-7.4-13.3-13.3-17.2-17.2
	C73.2,119.4,76.8,113.9,80.7,108.6z M64.4,136.8L78.6,151l-13.4,13.4c-2.8-2.8-5.3-5.3-7.4-7.4C59.3,150.3,61.5,143.5,64.4,136.8z
	 M55.3,174.3c0-0.7,0.1-1.4,0.1-2.1l1,1L55.3,174.3z M68.8,219.4c-6.7-8-10.8-17.7-12.6-28.5l9-9l20.6,20.6
	C78.6,209.7,72.7,215.5,68.8,219.4z M99.5,247.4c-1.1-0.7-2.1-1.5-3.2-2.2c-7.4-5.2-13.8-10.7-19.3-16.4l17.5-17.5l20.6,20.6
	C108.7,238.2,103.4,243.6,99.5,247.4z M135.6,270c-8.5-4.7-17.1-9.9-25.6-15.5l13.9-13.9l20.6,20.6L135.6,270z M147.1,276l6.1-6.1
	l16.6,16.6C162.3,283.4,154.7,279.9,147.1,276z M162,261.1l13.4-13.4l20.6,20.6l-13.4,13.4C176.4,275.6,169.4,268.6,162,261.1z
	 M221,301.9c-1.1-0.2-2.3-0.4-3.4-0.7c-8.7-2.3-14.3-3.6-15.4-3.8c-0.5-0.1-0.9-0.1-1.4-0.2c-1.2-0.3-2.5-0.7-3.7-1.1
	c-1.7-1.7-3.7-3.7-5.8-5.8l13.4-13.4l20.6,20.6L221,301.9z M213.5,268.3l13.4-13.4l20.6,20.6L234,288.8
	C228.4,283.2,221.4,276.2,213.5,268.3z M249.4,304.5c-0.3-0.5-0.6-0.9-1-1.3c-0.1-0.1-2.1-2.1-5.6-5.6l13.4-13.4l12.4,12.4
	c2,2,3.6,3.6,5,5C266.5,303.4,258.3,304.4,249.4,304.5z M277.9,319.6c12.2-3.1,22.2-8.4,29.3-15.5c7.1-7.1,12.4-16.9,15.6-29
	c8.9,25.5,20.4,53.8,34.4,78.9C331.9,340.1,303.5,328.6,277.9,319.6z M347.7,181.4c0-20.2,16.4-36.6,36.6-36.6
	c20.2,0,36.6,16.4,36.6,36.6c0,20.2-16.4,36.6-36.6,36.6C364,218,347.7,201.6,347.7,181.4z"/>
</svg>
