<?xml version="1.0" encoding="utf-8"?>
<!-- Generator: Adobe Illustrator 13.0.0, SVG Export Plug-In . SVG Version: 6.00 Build 14948)  -->
<!DOCTYPE svg PUBLIC "-//W3C//DTD SVG 1.1//EN" "http://www.w3.org/Graphics/SVG/1.1/DTD/svg11.dtd">
<svg version="1.1" id="Layer_1" xmlns="http://www.w3.org/2000/svg" xmlns:xlink="http://www.w3.org/1999/xlink" x="0px" y="0px"
	 width="512px" height="512px" viewBox="0 0 512 512" enable-background="new 0 0 512 512" xml:space="preserve">
<path fill="#020202" d="M179.4,57.1c24.1-13.7,86.8-36.2,153.9,47.3c-45,42.3-114.8,97.5-141.1,92.5c-15.2-2.9-28.6-54.1-12.9-139.1
	C179.4,57.6,179.4,57.4,179.4,57.1z M467.1,316.9c6.9,22.3,5.8,79.7-149.6,136c-76.7,27.8-137.8,31.9-174.3,8.4
	c-40.5-26.1-74.8-64.5-95.5-128.8c-30.1-93.9-3.8-247.2,68.3-292.2c19.3-12,35.2,0.4,44.5,11.4c-0.4,0.8-0.7,1.6-0.8,2.5
	c-13.9,75.5-10.4,155.1,28.9,162.6c2.1,0.4,4.3,0.6,6.6,0.6c49.7,0,144.2-90.2,163.7-109.3c19.2-2.1,45.6,1.4,46,36.4
	c-20,21.1-63.7,63.6-117.8,95.7c-4.8,2.8-6.4,9-3.6,13.8c1.9,3.2,5.2,5,8.7,5c1.7,0,3.5-0.4,5.1-1.4C351,225.7,393.9,184.9,416,162
	c16.3,3.6,42.2,14.3,37.3,45.4c-43.3,40.4-111,95.8-135.4,96c-5.6,0.1-10,4.6-10,10.2c0.1,5.5,4.6,10,10.1,10c0,0,0.1,0,0.1,0
	c33.2-0.3,102.9-59.6,138.4-91.8c12.4,8.2,31.3,26.7,17.3,57.4C416,325,333.8,367.9,308.1,359.6c-5.3-1.7-11,1.2-12.7,6.5
	c-1.7,5.3,1.2,11,6.5,12.7c3.7,1.2,7.9,1.7,12.7,1.7C353.3,380.5,423.2,343,467.1,316.9z M79.7,134.5c1.3,0.5,2.5,0.7,3.8,0.7
	c4,0,7.8-2.4,9.4-6.3l13.4-32.8c2.1-5.2-0.4-11.1-5.5-13.2c-5.2-2.1-11.1,0.4-13.2,5.5l-13.4,32.8C72.1,126.5,74.6,132.4,79.7,134.5
	z M62.8,199.2c0.6,0.1,1.1,0.1,1.7,0.1c4.8,0,9.1-3.5,9.9-8.4l5.9-35c0.9-5.5-2.8-10.7-8.3-11.6c-5.5-0.9-10.7,2.8-11.6,8.3l-5.9,35
	C53.6,193,57.3,198.2,62.8,199.2z M63.2,264.3c0.1,0,0.2,0,0.3,0c5.6-0.2,9.9-4.9,9.8-10.4l-1.2-35.4c-0.2-5.6-4.8-10-10.4-9.8
	c-5.6,0.2-9.9,4.9-9.8,10.4l1.2,35.4C53.3,260,57.7,264.3,63.2,264.3z M72.4,329.7c0.5,0,1.1,0,1.6-0.1c5.5-0.9,9.3-6,8.4-11.5
	l-5.5-35c-0.9-5.5-6.1-9.3-11.5-8.4c-5.5,0.9-9.3,6-8.4,11.5l5.5,35C63.2,326.2,67.5,329.7,72.4,329.7z M107.5,377.6l-14.9-32.2
	c-2.3-5.1-8.4-7.3-13.4-4.9c-5.1,2.3-7.3,8.3-4.9,13.4l14.9,32.2c1.7,3.7,5.4,5.8,9.2,5.8c1.4,0,2.9-0.3,4.2-0.9
	C107.6,388.6,109.8,382.6,107.5,377.6z M149.8,425.2l-24.4-25.7c-3.8-4-10.2-4.2-14.3-0.4c-4,3.8-4.2,10.2-0.4,14.3l24.4,25.7
	c2,2.1,4.7,3.1,7.3,3.1c2.5,0,5-0.9,6.9-2.8C153.4,435.6,153.6,429.2,149.8,425.2z M242.4,367.6c-65.8-32.9-65.2-99.1-65.1-102
	c0.1-5.6-4.3-10.2-9.8-10.3c-5.5-0.1-10.2,4.3-10.4,9.8c-0.1,3.3-1.3,81.8,76.3,120.6c1.4,0.7,3,1.1,4.5,1.1c3.7,0,7.3-2,9-5.6
	C249.4,376.2,247.4,370.1,242.4,367.6z"/>
</svg>
