<?xml version="1.0" encoding="utf-8"?>
<!-- Generator: Adobe Illustrator 13.0.0, SVG Export Plug-In . SVG Version: 6.00 Build 14948)  -->
<!DOCTYPE svg PUBLIC "-//W3C//DTD SVG 1.1//EN" "http://www.w3.org/Graphics/SVG/1.1/DTD/svg11.dtd">
<svg version="1.1" id="Layer_1" xmlns="http://www.w3.org/2000/svg" xmlns:xlink="http://www.w3.org/1999/xlink" x="0px" y="0px"
	 width="512px" height="512px" viewBox="0 0 512 512" enable-background="new 0 0 512 512" xml:space="preserve">
<g>
	<g>
		<path d="M315.7,194.3c-6.9-16.7-12.5-41.9,3.1-59.6c8.3-7.9,15.5-23.3,15.5-35.8c0-14.4-40.3-79.5-50.9-87.4h-12.2
			c0,0,15.7,45.2,10.4,55.6c-2.2,4.5-11.9,11.5-25.6,11.5c-14,0-23.4-7-25.6-11.5c-5.2-10.4,10.4-55.6,10.4-55.6h-12.2
			c-10.7,7.9-50.9,73-50.9,87.4c0,12.5,7.2,27.8,15.5,35.8c15.5,17.8,9.9,42.9,3.1,59.6C133.4,244.6,40.9,472.2,40.9,475.8
			c0,0,0,0.4,0.1,1.2c0.6,12.6,90.7,19.8,103.3,19.8c2.1,0,4.2,0.5,6.2,0c2,0.5,4.1,0,6.3,0l94.1,1.7h10.4l94.1-1.7
			c2.2,0,4.3,0.5,6.3,0c2,0.5,4,0,6.2,0c12.6,0,102.7-7.2,103.3-19.8c0.1-0.7,0.1-1.2,0.1-1.2C471.1,472.2,378.6,244.6,315.7,194.3z
			 M258.1,279.5c0,0,0.2-28.9-17.2-13.6c-9.6,8.4,6.7-36.4,0.9-72.4h-5.3c-20.6,53.4,7.2,132.5-14.2,128.6
			c-26-4.7-29.1,18.9-29.1,18.9c-15.5-61.9,8.9-115.4,30-147.5h-11.8c4.2-12,6-23.4,5.5-33.8h78c-0.5,10.4,1.3,21.8,5.5,33.8h-48.3
			C262,215.2,269.8,246.2,258.1,279.5z"/>
	</g>
</g>
</svg>
