<?xml version="1.0" encoding="utf-8"?>
<!-- Generator: Adobe Illustrator 13.0.0, SVG Export Plug-In . SVG Version: 6.00 Build 14948)  -->
<!DOCTYPE svg PUBLIC "-//W3C//DTD SVG 1.1//EN" "http://www.w3.org/Graphics/SVG/1.1/DTD/svg11.dtd">
<svg version="1.1" id="Layer_1" xmlns="http://www.w3.org/2000/svg" xmlns:xlink="http://www.w3.org/1999/xlink" x="0px" y="0px"
	 width="512px" height="512px" viewBox="0 0 512 512" enable-background="new 0 0 512 512" xml:space="preserve">
<g>
	<g>
		<path d="M378,124.3L352.2,23.5c-2.5-11.8-8.8-20.2-40.7-21.3c-2.2-0.6-4.5-0.9-6.9-0.9h-25l20.4,0.2l-43.5,136.2L210.3,1.3h-3.8
			c-2.3,0-4.6,0.3-6.8,0.9c-32.9,0.9-39.4,9.4-41.9,21.3L132,124.3l-14.2,143.9l47.5,2.3L178,139.3l0.1-0.5V267
			c0,8,3.4,12.2,8.8,14.3L202.8,526h43l9.2-224.1l9.2,224.1h43l15.9-244.4c6-2,9.8-6.1,9.8-14.6V147l11.8,123.5l47.5-2.3L378,124.3z
			 M255,248.6c-4.2,0-7.7-3.4-7.7-7.7c0-4.2,3.4-7.7,7.7-7.7c4.2,0,7.7,3.4,7.7,7.7C262.7,245.1,259.2,248.6,255,248.6z M255,213.4
			c-4.2,0-7.7-3.4-7.7-7.7c0-4.2,3.4-7.7,7.7-7.7c4.2,0,7.7,3.4,7.7,7.7C262.7,210,259.2,213.4,255,213.4z M255,179.7
			c-4.2,0-7.7-3.4-7.7-7.7s3.4-7.7,7.7-7.7c4.2,0,7.7,3.4,7.7,7.7S259.2,179.7,255,179.7z M210.1,0.8l0.2,0.6h69.3L210.1,0.8z"/>
	</g>
</g>
<path d="M275.1-12.9c-3.9,2.2-10,5.8-14.4,8.3c-1.4-1.6-3.4-2.6-5.7-2.6c-2.3,0-4.3,1-5.7,2.6c-4.4-2.5-10.5-6-14.4-8.3
	c-4.4-2.5-7.9-0.5-7.9,4.6c0,5,0,13.3,0,18.3s3.6,7.1,7.9,4.6c4-2.3,10.4-6,14.8-8.5c1.4,1.3,3.2,2.1,5.3,2.1s3.9-0.8,5.3-2.1
	c4.4,2.5,10.8,6.2,14.8,8.5c4.4,2.5,7.9,0.5,7.9-4.6s0-13.3,0-18.3C283-13.4,279.4-15.4,275.1-12.9z"/>
</svg>
