<?xml version="1.0" encoding="utf-8"?>
<!-- Generator: Adobe Illustrator 13.0.0, SVG Export Plug-In . SVG Version: 6.00 Build 14948)  -->
<!DOCTYPE svg PUBLIC "-//W3C//DTD SVG 1.1//EN" "http://www.w3.org/Graphics/SVG/1.1/DTD/svg11.dtd">
<svg version="1.1" id="Layer_1" xmlns="http://www.w3.org/2000/svg" xmlns:xlink="http://www.w3.org/1999/xlink" x="0px" y="0px"
	 width="512px" height="512px" viewBox="0 0 512 512" enable-background="new 0 0 512 512" xml:space="preserve">
<polygon points="425.4,479.3 425.4,106.8 446,106.8 446,102.1 379.5,45.9 358.5,45.9 358.5,6.4 322,6.4 322,45.9 130.5,45.9 
	64,102.1 64,106.8 84.6,106.8 84.6,479.3 52.5,479.3 52.5,503.6 457.5,503.6 457.5,479.3 "/>
<g>
	<rect x="137.5" y="130.2" fill="#FFFFFF" width="50.6" height="74.9"/>
	<rect x="229.7" y="130.2" fill="#FFFFFF" width="50.6" height="74.9"/>
	<rect x="322" y="130.2" fill="#FFFFFF" width="50.6" height="74.9"/>
	<rect x="137.5" y="248.2" fill="#FFFFFF" width="50.6" height="74.9"/>
	<rect x="229.7" y="248.2" fill="#FFFFFF" width="50.6" height="74.9"/>
	<rect x="322" y="248.2" fill="#FFFFFF" width="50.6" height="74.9"/>
	<rect x="137.5" y="374.6" fill="#FFFFFF" width="50.6" height="74.9"/>
	<rect x="229.7" y="374.6" fill="#FFFFFF" width="50.6" height="90.8"/>
	<rect x="322" y="374.6" fill="#FFFFFF" width="50.6" height="74.9"/>
</g>
<rect x="159.2" y="104" fill="#FFFFFF" width="191.6" height="2.9"/>
</svg>
