<?xml version="1.0" encoding="utf-8"?>
<!-- Generator: Adobe Illustrator 13.0.0, SVG Export Plug-In . SVG Version: 6.00 Build 14948)  -->
<!DOCTYPE svg PUBLIC "-//W3C//DTD SVG 1.1//EN" "http://www.w3.org/Graphics/SVG/1.1/DTD/svg11.dtd">
<svg version="1.1" id="Layer_1" xmlns="http://www.w3.org/2000/svg" xmlns:xlink="http://www.w3.org/1999/xlink" x="0px" y="0px"
	 width="512px" height="512px" viewBox="0 0 512 512" enable-background="new 0 0 512 512" xml:space="preserve">
<polygon points="360.8,472.6 360.8,94.9 386.9,94.9 386.9,89.6 255,11.5 123.1,89.6 123.1,89.6 123.1,94.9 149.2,94.9 149.2,472.6 
	109.6,472.6 109.6,498.5 400.4,498.5 400.4,472.6 "/>
<g>
	<rect x="175.3" y="118.6" fill="#FFFFFF" width="33.6" height="42.3"/>
	<rect x="238.2" y="118.6" fill="#FFFFFF" width="33.6" height="42.3"/>
	<rect x="301.1" y="118.6" fill="#FFFFFF" width="33.6" height="42.3"/>
</g>
<g>
	<rect x="175.3" y="187.5" fill="#FFFFFF" width="33.6" height="42.3"/>
	<rect x="238.2" y="187.5" fill="#FFFFFF" width="33.6" height="42.3"/>
	<rect x="301.1" y="187.5" fill="#FFFFFF" width="33.6" height="42.3"/>
</g>
<g>
	<rect x="175.3" y="256.4" fill="#FFFFFF" width="33.6" height="42.3"/>
	<rect x="238.2" y="256.4" fill="#FFFFFF" width="33.6" height="42.3"/>
	<rect x="301.1" y="256.4" fill="#FFFFFF" width="33.6" height="42.3"/>
</g>
<rect x="223.9" y="402.4" fill="#FFFFFF" width="62.3" height="73.5"/>
<g>
	<rect x="175.3" y="325.3" fill="#FFFFFF" width="33.6" height="42.3"/>
	<rect x="238.2" y="325.3" fill="#FFFFFF" width="33.6" height="42.3"/>
	<rect x="301.1" y="325.3" fill="#FFFFFF" width="33.6" height="42.3"/>
</g>
<rect x="240.1" y="49.2" fill="#FFFFFF" width="29.9" height="29.9"/>
<rect x="191.6" y="91.5" fill="#FFFFFF" width="126.7" height="3.1"/>
</svg>
