<?xml version="1.0" encoding="utf-8"?>
<!-- Generator: Adobe Illustrator 13.0.0, SVG Export Plug-In . SVG Version: 6.00 Build 14948)  -->
<!DOCTYPE svg PUBLIC "-//W3C//DTD SVG 1.1//EN" "http://www.w3.org/Graphics/SVG/1.1/DTD/svg11.dtd">
<svg version="1.1" id="Layer_1" xmlns="http://www.w3.org/2000/svg" xmlns:xlink="http://www.w3.org/1999/xlink" x="0px" y="0px"
	 width="512px" height="512px" viewBox="0 0 512 512" enable-background="new 0 0 512 512" xml:space="preserve">
<g>
	<path fill="#010101" d="M130.4,286.3c0,8.4-6.8,15.3-15.3,15.3c-8.4,0-15.3-6.8-15.3-15.3c0-8.4,6.8-15.3,15.3-15.3
		C123.5,271,130.4,277.9,130.4,286.3z M115.1,261.5c-13.7,0-24.8,11.1-24.8,24.8c0,13.7,11.1,24.8,24.8,24.8
		c13.7,0,24.8-11.1,24.8-24.8C139.9,272.6,128.8,261.5,115.1,261.5z"/>
	<path fill="#010101" d="M435.9,286.3c0,8.4-6.8,15.3-15.3,15.3s-15.3-6.8-15.3-15.3c0-8.4,6.8-15.3,15.3-15.3
		S435.9,277.9,435.9,286.3z M420.7,261.5c-13.7,0-24.8,11.1-24.8,24.8c0,13.7,11.1,24.8,24.8,24.8c13.7,0,24.8-11.1,24.8-24.8
		C445.5,272.6,434.4,261.5,420.7,261.5z"/>
	<path fill="#010101" d="M469.7,269.5c-0.6-4.6-5.8-18-8.6-19c-26.3-8.8-90.3-14.8-90.3-14.8s-28.4-16.1-36.8-21.1
		c-8.4-5-21.7-8.8-28.4-9.8c-34.4-4.9-131.5-4.2-151-3.6c-19.6,0.6-70.2,27.6-70.2,27.6s-29.3,3.5-32.6,4.4c-3.3,1-7,17.3-7.2,20.1
		c-0.3,2.8-1,4.6-3.3,7.9c-2.3,3.3-0.3,12.3-0.3,14.1c0,1.8,2,8.9,8.2,10c0,0,33,4.9,35.3,4.9c2.3,0,2.3-4,2.3-4
		c0-15.7,12.7-28.4,28.4-28.4c15.7,0,28.4,12.7,28.4,28.4c0,0,0.7,9.1,2.8,9.1c2,0,240,0,240,0c1.6,0,4.8,0.2,5.6-0.7
		c0.8-0.8,0.7-2.2,0.5-3.3c-0.3-1.6-0.4-3.3-0.4-5.1c0-15.8,12.9-28.7,28.7-28.7c15.9,0,28.7,12.8,28.7,28.7c0,3.2-0.5,6.2-1.5,9
		c2.1,0,16.4-1.4,19.7-2.6c3.3-1.1,3.8-4,3.1-6.9c-0.8-2.9,0.6-8.2,1.1-11.1C472.3,271.8,469.7,269.5,469.7,269.5z M279.1,208.2
		l1.2,28c-20-1-43.1-1.9-67.3-2.6l-7.5-26.4C232.2,207.3,262.5,207.7,279.1,208.2z M160.9,207.6c7.6-0.4,21.6-0.5,37.6-0.4l1.1,26
		c-16.7-0.4-33.8-0.7-50.5-0.8v-22.6C152.8,208.6,156.7,207.8,160.9,207.6z M120.8,232.5c0,0,9.3-14.9,25.7-21.7v21.6
		C137.8,232.4,129.2,232.4,120.8,232.5z M346.5,239.9c0,0-20.7-1.4-51.9-3l-8.1-28.4c2.1,0.1,3.6,0.2,4.4,0.3
		c9.2,1,28.1,1.4,55.7,20.1c0,0,2.3,1.5,2.3,3.5c0,2.3,0,3.9,0,3.9S349,239.9,346.5,239.9z"/>
</g>
</svg>
