<?xml version="1.0" encoding="utf-8"?>
<!-- Generator: Adobe Illustrator 13.0.0, SVG Export Plug-In . SVG Version: 6.00 Build 14948)  -->
<!DOCTYPE svg PUBLIC "-//W3C//DTD SVG 1.1//EN" "http://www.w3.org/Graphics/SVG/1.1/DTD/svg11.dtd">
<svg version="1.1" id="Layer_1" xmlns="http://www.w3.org/2000/svg" xmlns:xlink="http://www.w3.org/1999/xlink" x="0px" y="0px"
	 width="512px" height="512px" viewBox="0 0 512 512" enable-background="new 0 0 512 512" xml:space="preserve">
<path d="M323.6,208.9v-91.7c0-25.1,20.4-45.5,45.5-45.5h72.7c25.1,0,45.5,20.4,45.5,45.5v144.2v1.3c-0.1,31.7-6.1,60.9-16.1,84.7
	H338c-6-14.2-10.5-30.3-13.2-47.7c-9.3-4.5-18.9-11.2-27.6-19.9c-25.1-25.1-33.8-57.1-19.5-71.4
	C287.4,198.6,305.3,199.5,323.6,208.9L323.6,208.9z M24.9,376c0-8.4,6.8-15.2,15.2-15.2h130.7c8.4,0,15.2,6.8,15.2,15.2v47.1
	c0,8.4-6.8,15.2-15.2,15.2H40.1c-8.4,0-15.2-6.8-15.2-15.2V376L24.9,376z M186.4,208.9c18.3-9.4,36.2-10.3,45.9-0.6
	c14.3,14.3,5.6,46.3-19.5,71.4c-8.7,8.7-18.2,15.4-27.6,19.9c-2.7,17.4-7.3,33.5-13.2,47.7H38.8c-10-23.7-16-53-16.1-84.6v-1.3
	V117.2C22.7,92,43,71.7,68.2,71.7h72.7c25.1,0,45.5,20.4,45.5,45.5V208.9L186.4,208.9z M324.1,376c0-8.4,6.8-15.2,15.2-15.2h130.7
	c8.4,0,15.2,6.8,15.2,15.2v47.1c0,8.4-6.8,15.2-15.2,15.2H339.2c-8.4,0-15.2-6.8-15.2-15.2V376L324.1,376z"/>
</svg>
