<?xml version="1.0" encoding="utf-8"?>
<!-- Generator: Adobe Illustrator 13.0.0, SVG Export Plug-In . SVG Version: 6.00 Build 14948)  -->
<!DOCTYPE svg PUBLIC "-//W3C//DTD SVG 1.1//EN" "http://www.w3.org/Graphics/SVG/1.1/DTD/svg11.dtd">
<svg version="1.1" id="Layer_1" xmlns="http://www.w3.org/2000/svg" xmlns:xlink="http://www.w3.org/1999/xlink" x="0px" y="0px"
	 width="512px" height="512px" viewBox="0 0 512 512" enable-background="new 0 0 512 512" xml:space="preserve">
<path d="M267.4,212.5l34.4-34.6l12.2,12.2l-36.2,36.3l0,41.4c-2.9,0.8-5.7,1.9-8.4,3.1c-4.4,2-9.3,3.1-14.4,3.1
	c-5.1,0-10.1-1.1-14.3-3c-2.7-1.3-5.6-2.3-8.5-3.2v-41.4L195.9,190l12.2-12.2l34.7,34.7L267.4,212.5L267.4,212.5z M254.9,208.7
	c-9.3,0-16.9-7.6-16.9-16.9c0-9.3,7.6-16.9,16.9-16.9c9.3,0,16.9,7.6,16.9,16.9C271.8,201.1,264.2,208.7,254.9,208.7L254.9,208.7z
	 M398.1,179.7l70.8-71.2c5.6-5.9,14.8-6.1,20.7-0.5c5.9,5.6,6.1,14.8,0.5,20.7l-74.4,74.5l0,70.4c-1.5,0.2-3.1,0.3-4.7,0.3
	c-5.1,0-10.1-1.1-14.4-3c-7.4-3.4-15.8-5.5-24.7-5.5c-8.9,0-17.3,2-24.7,5.5c-2.8,1.3-5.8,2.2-9,2.7v-70.3l-74.4-74.5
	c-5.6-5.9-5.3-15.1,0.5-20.7c5.9-5.6,15.1-5.3,20.7,0.5l71.2,71.2L398.1,179.7L398.1,179.7z M376.8,173.3
	c-15.8,0-28.6-12.8-28.6-28.6c0-15.8,12.8-28.6,28.6-28.6c15.8,0,28.6,12.8,28.6,28.6C405.4,160.5,392.6,173.3,376.8,173.3
	L376.8,173.3z M21,379.3c6.8,0,13.4-1.5,19.2-4.1c6-2.8,12.7-4.4,19.8-4.4s13.8,1.6,19.8,4.4c5.8,2.6,12.4,4.1,19.3,4.1
	c6.8,0,13.4-1.5,19.2-4.1c6-2.8,12.7-4.4,19.8-4.4s13.8,1.6,19.8,4.4c5.8,2.6,12.4,4.1,19.2,4.1c6.8,0,13.4-1.5,19.2-4.1
	c6-2.8,12.7-4.4,19.8-4.4c7.1,0,13.8,1.6,19.8,4.4c5.8,2.6,12.4,4.1,19.3,4.1c6.8,0,13.4-1.5,19.3-4.1c6-2.8,12.7-4.4,19.7-4.4
	c7.1,0,13.8,1.6,19.8,4.4c5.8,2.6,12.4,4.1,19.2,4.1c6.8,0,13.3-1.5,19.2-4.1c6-2.8,12.7-4.4,19.8-4.4c7.1,0,13.8,1.6,19.8,4.4
	c5.8,2.6,12.4,4.1,19.3,4.1c6.8,0,13.3-1.5,19.2-4.1c6-2.8,12.7-4.4,19.8-4.4c7.1,0,13.8,1.6,19.8,4.4c5.8,2.6,12.4,4.1,19.3,4.1
	v28.8c-6.8,0-13.4-1.5-19.3-4.1c-6-2.8-12.7-4.4-19.8-4.4c-7.1,0-13.8,1.6-19.8,4.4c-5.8,2.6-12.4,4.1-19.2,4.1
	c-6.8,0-13.4-1.5-19.3-4.1c-6-2.8-12.7-4.4-19.8-4.4c-7.1,0-13.8,1.6-19.8,4.4c-5.8,2.6-12.3,4.1-19.2,4.1c-6.8,0-13.4-1.5-19.2-4.1
	c-6-2.8-12.7-4.4-19.8-4.4c-7,0-13.7,1.6-19.7,4.4c-5.9,2.6-12.4,4.1-19.3,4.1c-6.8,0-13.4-1.5-19.3-4.1c-6-2.8-12.7-4.4-19.8-4.4
	c-7.1,0-13.8,1.6-19.8,4.4c-5.8,2.6-12.4,4.1-19.2,4.1c-6.8,0-13.4-1.5-19.2-4.1c-6-2.8-12.7-4.4-19.8-4.4s-13.8,1.6-19.8,4.4
	c-5.8,2.6-12.3,4.1-19.2,4.1c-6.8,0-13.4-1.5-19.3-4.1c-6-2.8-12.7-4.4-19.8-4.4s-13.8,1.6-19.8,4.4c-5.8,2.6-12.3,4.1-19.2,4.1
	V379.3L21,379.3z M21,332.5c6.8,0,13.4-1.5,19.2-4.1c6-2.8,12.7-4.4,19.8-4.4s13.8,1.6,19.8,4.4c5.8,2.6,12.4,4.1,19.3,4.1
	c6.8,0,13.4-1.5,19.2-4.1c6-2.8,12.7-4.4,19.8-4.4s13.8,1.6,19.8,4.4c5.8,2.6,12.4,4.1,19.2,4.1c6.8,0,13.4-1.5,19.2-4.1
	c6-2.8,12.7-4.4,19.8-4.4c7.1,0,13.8,1.6,19.8,4.4c5.8,2.6,12.4,4.1,19.3,4.1c6.8,0,13.4-1.5,19.3-4.1c6-2.8,12.7-4.4,19.7-4.4
	c7.1,0,13.8,1.6,19.8,4.4c5.8,2.6,12.4,4.1,19.2,4.1c6.8,0,13.3-1.5,19.2-4.1c6-2.8,12.7-4.4,19.8-4.4c7.1,0,13.8,1.6,19.8,4.4
	c5.8,2.6,12.4,4.1,19.3,4.1c6.8,0,13.3-1.5,19.2-4.1c6-2.8,12.7-4.4,19.8-4.4c7.1,0,13.8,1.6,19.8,4.4c5.8,2.6,12.4,4.1,19.3,4.1
	v28.8c-6.8,0-13.4-1.5-19.3-4.1c-6-2.8-12.7-4.4-19.8-4.4c-7.1,0-13.8,1.6-19.8,4.4c-5.8,2.6-12.4,4.1-19.2,4.1
	c-6.8,0-13.4-1.5-19.3-4.1c-6-2.8-12.7-4.4-19.8-4.4c-7.1,0-13.8,1.6-19.8,4.4c-5.8,2.6-12.3,4.1-19.2,4.1c-6.8,0-13.4-1.5-19.2-4.1
	c-6-2.8-12.7-4.4-19.8-4.4c-7,0-13.7,1.6-19.7,4.4c-5.9,2.6-12.4,4.1-19.3,4.1c-6.8,0-13.4-1.5-19.3-4.1c-6-2.8-12.7-4.4-19.8-4.4
	c-7.1,0-13.8,1.6-19.8,4.4c-5.8,2.6-12.4,4.1-19.2,4.1c-6.8,0-13.4-1.5-19.2-4.1c-6-2.8-12.7-4.4-19.8-4.4s-13.8,1.6-19.8,4.4
	c-5.8,2.6-12.3,4.1-19.2,4.1c-6.8,0-13.4-1.5-19.3-4.1c-6-2.8-12.7-4.4-19.8-4.4s-13.8,1.6-19.8,4.4c-5.8,2.6-12.3,4.1-19.2,4.1
	V332.5L21,332.5z M21,285.7c6.8,0,13.4-1.5,19.2-4.1c6-2.8,12.7-4.4,19.8-4.4s13.8,1.6,19.8,4.4c5.8,2.6,12.4,4.1,19.3,4.1
	c6.8,0,13.4-1.5,19.2-4.1c6-2.8,12.7-4.4,19.8-4.4c7.1,0,13.8,1.6,19.8,4.4c5.8,2.6,12.4,4.1,19.2,4.1c6.8,0,13.4-1.5,19.2-4.1
	c6-2.8,12.7-4.4,19.8-4.4c7.1,0,13.8,1.6,19.8,4.4c5.8,2.6,12.4,4.1,19.3,4.1c6.8,0,13.3-1.5,19.3-4.1c6-2.8,12.7-4.4,19.7-4.4
	c7.1,0,13.8,1.6,19.8,4.4c5.8,2.6,12.4,4.1,19.2,4.1c6.8,0,13.4-1.5,19.2-4.1c6-2.8,12.7-4.4,19.8-4.4c7.1,0,13.8,1.6,19.8,4.4
	c5.8,2.6,12.4,4.1,19.3,4.1c6.8,0,13.4-1.5,19.2-4.1c6-2.8,12.7-4.4,19.8-4.4s13.8,1.6,19.8,4.4c5.8,2.6,12.4,4.1,19.2,4.1v28.8
	c-6.8,0-13.4-1.5-19.2-4.1c-6-2.8-12.7-4.4-19.8-4.4s-13.8,1.6-19.8,4.4c-5.8,2.6-12.3,4.1-19.2,4.1s-13.4-1.5-19.3-4.1
	c-6-2.8-12.7-4.4-19.8-4.4c-7.1,0-13.8,1.6-19.8,4.4c-5.8,2.6-12.4,4.1-19.2,4.1c-6.7,0-13.3-1.5-19.2-4.1c-6-2.8-12.7-4.4-19.8-4.4
	c-7,0-13.7,1.6-19.7,4.4c-5.9,2.6-12.4,4.1-19.3,4.1c-6.8,0-13.4-1.5-19.3-4.1c-6-2.8-12.7-4.4-19.8-4.4c-7.1,0-13.8,1.6-19.8,4.4
	c-5.8,2.6-12.4,4.1-19.2,4.1c-6.8,0-13.4-1.5-19.2-4.1c-6-2.8-12.7-4.4-19.8-4.4c-7.1,0-13.8,1.6-19.8,4.4
	c-5.8,2.6-12.3,4.1-19.2,4.1c-6.8,0-13.4-1.5-19.3-4.1c-6-2.8-12.7-4.4-19.8-4.4c-7.1,0-13.8,1.6-19.8,4.4
	c-5.8,2.6-12.3,4.1-19.2,4.1V285.7L21,285.7z M132.9,173.3c-15.8,0-28.6-12.8-28.6-28.6c0-15.8,12.8-28.6,28.6-28.6
	c15.8,0,28.6,12.8,28.6,28.6C161.5,160.5,148.7,173.3,132.9,173.3L132.9,173.3z M154.1,179.7l70.8-71.2c5.6-5.9,14.8-6.1,20.7-0.5
	c5.8,5.6,6.1,14.8,0.5,20.7l-74.4,74.5l0,70.3c-3.2-0.5-6.2-1.4-9-2.7c-7.4-3.4-15.8-5.5-24.7-5.5c-8.9,0-17.3,2-24.7,5.5
	c-4.3,2-9.1,3-14.3,3c-1.6,0-3.2-0.1-4.7-0.3v-70.4l-74.4-74.5c-5.6-5.9-5.3-15.1,0.5-20.7c5.9-5.6,15.1-5.3,20.7,0.5l71.2,71.2
	L154.1,179.7L154.1,179.7z"/>
</svg>
