<?xml version="1.0" encoding="utf-8"?>
<!-- Generator: Adobe Illustrator 13.0.0, SVG Export Plug-In . SVG Version: 6.00 Build 14948)  -->
<!DOCTYPE svg PUBLIC "-//W3C//DTD SVG 1.1//EN" "http://www.w3.org/Graphics/SVG/1.1/DTD/svg11.dtd">
<svg version="1.1" id="Layer_1" xmlns="http://www.w3.org/2000/svg" xmlns:xlink="http://www.w3.org/1999/xlink" x="0px" y="0px"
	 width="512px" height="512px" viewBox="0 0 512 512" enable-background="new 0 0 512 512" xml:space="preserve">
<g>
	<path d="M54,33.8c11.9,93.6,22.6,97.6,20.6,166.4c-2.3,81.1-52.9,148.8-7.8,183c21.6,16.4,74.1-27.7,141.6,15.4
		c43.4,27.6,115.5,36.3,169.4,36.3c65.9,0,114.8-17.4,114.8-46.6c0-37-62.4-38.5-118.6-60.3c-48-18.7-129.8-99.3-145.3-149.6
		c-18.4-60,14.7-123.2-7.2-145.1C191.8,3.6,54,33.8,54,33.8z"/>
	<path fill="#010101" d="M363.3,461.6c22.9-0.3,92.2-11.3,92.2-57.2l17-7.4c0,68.3-61.5,106.8-108.3,106.8l-326.8,0
		c-7.6,0-17.9-8.3-17.9-23.6v-12.7C19.5,467.5,253.4,463.3,363.3,461.6z"/>
	<path fill="#010101" d="M155,411.8c0,12.3-7.9,22.3-17.7,22.3H66.2c-9.8,0-17.7-10-17.7-22.3v-65.3c0-12.3,7.9-22.3,17.7-22.3h71.1
		c9.8,0,17.7,10,17.7,22.3L155,411.8L155,411.8z"/>
	<rect x="81" y="406.5" fill="#010101" width="42.6" height="60.3"/>
	<rect x="316" y="406.5" fill="#010101" width="42.6" height="60.3"/>
	<circle fill="#FFFFFF" cx="265.7" cy="267.9" r="8.9"/>
	<circle fill="#FFFFFF" cx="289.4" cy="289.9" r="8.9"/>
	<circle fill="#FFFFFF" cx="222.5" cy="214.6" r="8.9"/>
	<circle fill="#FFFFFF" cx="242.9" cy="243.6" r="8.9"/>
	<circle fill="#FFFFFF" cx="202.7" cy="149.2" r="8.9"/>
	<circle fill="#FFFFFF" cx="209.1" cy="183.4" r="8.9"/>
	<circle fill="#FFFFFF" cx="206" cy="79" r="8.9"/>
	<circle fill="#FFFFFF" cx="203.9" cy="113.1" r="8.9"/>
	<circle fill="#FFFFFF" cx="313.3" cy="311.3" r="8.9"/>
	<circle fill="#FFFFFF" cx="341.2" cy="330" r="8.9"/>
</g>
</svg>
