<?xml version="1.0" encoding="utf-8"?>
<!-- Generator: Adobe Illustrator 13.0.0, SVG Export Plug-In . SVG Version: 6.00 Build 14948)  -->
<!DOCTYPE svg PUBLIC "-//W3C//DTD SVG 1.1//EN" "http://www.w3.org/Graphics/SVG/1.1/DTD/svg11.dtd">
<svg version="1.1" id="Layer_1" xmlns="http://www.w3.org/2000/svg" xmlns:xlink="http://www.w3.org/1999/xlink" x="0px" y="0px"
	 width="512px" height="512px" viewBox="0 0 512 512" enable-background="new 0 0 512 512" xml:space="preserve">
<g>
	<g>
		<g>
			<polygon points="169,444.4 157.8,446.2 164.6,494.5 175.9,492.7 			"/>
			<path d="M149.3,447.6l-20.8,3.3c-5,0.8-8.5,5-8.5,9.9l4.2,29.8c0.8,5.5,5.9,9.3,11.4,8.5l20.5-3.2L149.3,447.6z"/>
			<path d="M485.1,70.8l-6.3-49.3c-0.6-4.7-4.3-9.4-11.3-8.6l-28.9,4c-5.5,0.8-9.3,5.8-8.5,11.3l7.7,56.7
				c3.9,26.5-1.3,44.1-1.3,44.1S359.2,380.8,359,381.3c-0.4,1.2-7.8,20.7-31.4,28c-15.2,4.7-75,20.8-109.9,26.9l7,48.3
				c36.9-6.5,99.7-23.2,117.3-28.6c48.4-14.9,62.8-57.6,63.4-59.4L482,140.4C486.4,120.8,488.2,98.2,485.1,70.8z"/>
			<path d="M211.6,431.6v-23.1c13-6.8,21.9-20.5,21.9-36.2h-14.3c0,14.7-11.9,26.6-26.6,26.6c-14.7,0-26.6-11.9-26.6-26.6h-14.3
				c0,15.7,8.9,29.3,21.9,36.2v28.8L211.6,431.6z"/>
		</g>
		<g>
			<path d="M217.5,303.7c-9,4.6-26.3,10-48.9,0.7c-1.6-0.7-3.3-1.4-4.9-2.2c-2.2,3-4.5,5.8-7.1,8.4c35.2,18.6,61.6,5.8,70.9-0.3
				c-2.5-2.5-4.8-5.3-6.9-8.3C219.7,302.5,218.6,303.1,217.5,303.7z"/>
			<g>
				<path d="M90.8,176.3c27.7-6.4,100.2-6.3,101-6.3c0.8,0,74-0.1,101.8,6.3c30.9,7.1,44.9,24.3,45.5,55.5H361
					c-0.5-50.2-24.3-69.8-55.6-78c-31.6-8.3-113.2-8-113.2-8s-81.6-0.3-113.2,8c-31.3,8.2-55.1,27.8-55.6,78h22
					C45.9,200.6,60,183.4,90.8,176.3z"/>
				<path d="M61,147c5.2-12.8,15.6-28.2,45.5-30c51.1-3,119.8-3.3,170.8,0c31.7,2,41.9,17.5,46.6,30.2c7.1,3,13.5,6.7,19.1,11.1
					c-1.7-9.4-12.7-53.8-65-56.9c-47.2-2.7-84.5-2.2-85.8-2.1c-1.4,0-35.5-0.8-86.3,2.1c-50.2,2.9-62.5,47.8-64.5,56.8
					C47.1,153.9,53.6,150.1,61,147z"/>
			</g>
			<path d="M295,300.2c-33.4,0-48.5-11.5-62.3-47.5c-3.1-11.1-15.2-32.5-40.6-32.5c-25.4,0-37.5,21.5-40.6,32.5
				c-13.7,35.9-28.9,47.5-62.3,47.5c-10.5,0-41.9,0-43.9-60.1H23.4c1.2,47.8,15.4,81.2,55.6,84.4c32.1,2.6,65-4.6,81.7-34.9
				c3.2-5.8,6.5-15,9.2-22.6c0,0,5.8-21.3,22.8-21.3c17,0,22,21.3,22,21.3c2.7,7.7,5.9,16.8,9.2,22.6c16.7,30.3,49.6,37.4,81.7,34.9
				c40.1-3.3,54.4-36.6,55.5-84.4H339C336.9,300.2,305.6,300.2,295,300.2z"/>
		</g>
	</g>
</g>
</svg>
