<?xml version="1.0" encoding="utf-8"?>
<!-- Generator: Adobe Illustrator 13.0.0, SVG Export Plug-In . SVG Version: 6.00 Build 14948)  -->
<!DOCTYPE svg PUBLIC "-//W3C//DTD SVG 1.1//EN" "http://www.w3.org/Graphics/SVG/1.1/DTD/svg11.dtd">
<svg version="1.1" id="Layer_1" xmlns="http://www.w3.org/2000/svg" xmlns:xlink="http://www.w3.org/1999/xlink" x="0px" y="0px"
	 width="512px" height="512px" viewBox="0 0 512 512" enable-background="new 0 0 512 512" xml:space="preserve">
<g>
	<path d="M96.8,470.2c33.1,11.3,57.2,11.7,68.6,11.7h245.7c16.6,0,16.5,20.2,0,20.2H195.7c-56.1,0-77.4-10.5-98.9-18.7
		C83.1,478.1,88.5,467.3,96.8,470.2z"/>
	<g>
		<path d="M412.3,340.5c-0.2-4.6-0.6-9.3-1.2-14.3c-12.2-95.9-28.9-200.7-39.6-264.6c-5.1-30.4-25.4-72.7-54.3-28.8
			c-52.3,79.3-87.5,178-111.8,283.8L412.3,340.5z"/>
		<path d="M199.6,342.8c-5.6,26.4-10.5,53.1-14.8,80c-7.3,44.8,11.9,40.6,36.1,39.6l139.3-38.5c29.5-8.1,45.9-27.9,50.8-56.7
			L199.6,342.8z"/>
	</g>
</g>
</svg>
