<?xml version="1.0" encoding="utf-8"?>
<!-- Generator: Adobe Illustrator 13.0.0, SVG Export Plug-In . SVG Version: 6.00 Build 14948)  -->
<!DOCTYPE svg PUBLIC "-//W3C//DTD SVG 1.1//EN" "http://www.w3.org/Graphics/SVG/1.1/DTD/svg11.dtd">
<svg version="1.1" id="Layer_1" xmlns="http://www.w3.org/2000/svg" xmlns:xlink="http://www.w3.org/1999/xlink" x="0px" y="0px"
	 width="512px" height="512px" viewBox="0 0 512 512" enable-background="new 0 0 512 512" xml:space="preserve">
<g>
	<g>
		<polygon points="51.5,476.8 51.5,499.7 189.3,499.7 203.2,476.8 		"/>
		<polygon points="299,499.7 460.5,499.7 460.5,476.8 286.5,476.8 		"/>
	</g>
	<path d="M430.3,379.5c-6.1-3.9-13.9-8.8-22.2-14.1l-29.9,43.8l-23-15.7l29.3-43c-12.2-7.7-24-15.2-32.8-20.8l-48.3,70.8l-22.9-15.6
		l48.1-70.5c-5.4-5.2-11.6-15.2-13.3-30.1h-94.8v-31.7h96.2c1-9,2.3-18.9,3.8-30.6l-97.8-13.6L227,177l97.8,13.6
		c1.6-11.4,3.3-23,4.9-34.3l-123.5-22.9l4.4-30.9l123.9,21.9c4.4-29.4,7.9-51.2,7.9-51.2l-158-57.3c-18.1-6.3-34.1-5.7-45.6,13
		c-19.9,32.2-94.1,260.8-78.7,303.8c0,0-8.6,56.3-8.6,127.4h409v-26.4C460.5,433.8,462.2,399.6,430.3,379.5z M147.7,393.1
		c-13.8,0-24.9-11.2-24.9-25c0-13.8,11.2-24.9,24.9-24.9c13.8,0,24.9,11.2,24.9,24.9C172.7,382,161.5,393.1,147.7,393.1z
		 M206.3,284.2h-58.6l-18.1-7.8v-16.9l19.2-6.9h57.5L206.3,284.2L206.3,284.2z M208.5,206.5l-58-7.7l-17.1-9.8l2.3-16.8l19.9-4.7
		l57.1,7.5L208.5,206.5z"/>
</g>
</svg>
