<?xml version="1.0" encoding="utf-8"?>
<!-- Generator: Adobe Illustrator 13.0.0, SVG Export Plug-In . SVG Version: 6.00 Build 14948)  -->
<!DOCTYPE svg PUBLIC "-//W3C//DTD SVG 1.1//EN" "http://www.w3.org/Graphics/SVG/1.1/DTD/svg11.dtd">
<svg version="1.1" id="Layer_1" xmlns="http://www.w3.org/2000/svg" xmlns:xlink="http://www.w3.org/1999/xlink" x="0px" y="0px"
	 width="512px" height="512px" viewBox="0 0 512 512" enable-background="new 0 0 512 512" xml:space="preserve">
<g>
	<g>
		<g>
			<g>
				<path d="M376.7,233.5c-1.4,0-2.8-0.7-3.6-2l-10.8-17.8h-73.4l-10.8,17.8c-1.2,2-3.8,2.6-5.8,1.4c-2-1.2-2.6-3.8-1.4-5.8l12-19.8
					c0.8-1.3,2.1-2,3.6-2h78.2c1.5,0,2.9,0.8,3.6,2l12,19.8c1.2,2,0.6,4.6-1.4,5.8C378.2,233.3,377.5,233.5,376.7,233.5z"/>
			</g>
		</g>
		<g>
			<path d="M439.5,180v324.8c0,2.4,1.9,4.2,4.2,4.2c2.3,0,4.2-1.9,4.2-4.2V180H439.5z"/>
		</g>
		<path d="M460.5,476.8c0,2.2-1.7,3.9-3.9,3.9h-25.8c-2.2,0-3.9-1.7-3.9-3.9c0-2.1,1.7-3.9,3.9-3.9h25.8
			C458.8,472.9,460.5,474.7,460.5,476.8z"/>
		<path d="M460.5,178c0,2.2-1.7,3.9-3.9,3.9h-25.8c-2.2,0-3.9-1.7-3.9-3.9c0-2.1,1.7-3.9,3.9-3.9h25.8
			C458.8,174.1,460.5,175.9,460.5,178z"/>
		<path d="M452.3,164v-46c0-4.7-3.8-8.6-8.6-8.6c-4.8,0-8.6,3.8-8.6,8.6v46H452.3z"/>
		<g>
			<g>
				<path d="M133.3,233.5c1.4,0,2.8-0.7,3.6-2l10.8-17.8h73.4l10.8,17.8c1.2,2,3.8,2.6,5.8,1.4c2-1.2,2.6-3.8,1.4-5.8l-12-19.8
					c-0.8-1.3-2.2-2-3.6-2h-78.2c-1.5,0-2.9,0.8-3.6,2l-12,19.8c-1.2,2-0.6,4.6,1.4,5.8C131.8,233.3,132.5,233.5,133.3,233.5z"/>
			</g>
		</g>
		<g>
			<path d="M62,180v324.8c0,2.4,1.9,4.2,4.2,4.2c2.3,0,4.2-1.9,4.2-4.2V180H62z"/>
		</g>
		<path d="M49.5,476.8c0,2.2,1.7,3.9,3.9,3.9h25.8c2.2,0,3.9-1.7,3.9-3.9c0-2.1-1.7-3.9-3.9-3.9H53.4
			C51.2,472.9,49.5,474.7,49.5,476.8z"/>
		<path d="M49.5,178c0,2.2,1.7,3.9,3.9,3.9h25.8c2.2,0,3.9-1.7,3.9-3.9c0-2.1-1.7-3.9-3.9-3.9H53.4C51.2,174.1,49.5,175.9,49.5,178z
			"/>
		<path d="M57.7,164v-46c0-4.7,3.8-8.6,8.6-8.6s8.6,3.8,8.6,8.6v46L57.7,164L57.7,164z"/>
		<path d="M159.9,480.2c0,13.5,11,24.5,24.5,24.5c13.5,0,24.5-11,24.5-24.5V25.5C208.9,12,198,1,184.4,1c-13.5,0-24.5,11-24.5,24.5
			L159.9,480.2L159.9,480.2z"/>
		<path d="M350.1,480.2c0,13.5-11,24.5-24.5,24.5c-13.6,0-24.5-11-24.5-24.5V25.5C301.1,12,312,1,325.6,1c13.5,0,24.5,11,24.5,24.5
			V480.2z"/>
	</g>
</g>
</svg>
