<?xml version="1.0" encoding="utf-8"?>
<!-- Generator: Adobe Illustrator 13.0.0, SVG Export Plug-In . SVG Version: 6.00 Build 14948)  -->
<!DOCTYPE svg PUBLIC "-//W3C//DTD SVG 1.1//EN" "http://www.w3.org/Graphics/SVG/1.1/DTD/svg11.dtd">
<svg version="1.1" id="Layer_1" xmlns="http://www.w3.org/2000/svg" xmlns:xlink="http://www.w3.org/1999/xlink" x="0px" y="0px"
	 width="512px" height="512px" viewBox="0 0 512 512" enable-background="new 0 0 512 512" xml:space="preserve">
<g>
	<path d="M24.6,365.1c-0.6,0.5-1.2,1-1.7,1.6c-26.6,24.4-25.8,79.7,7.5,113c33.3,33.3,88.6,34.1,113,7.5c0.5-0.6,1-1.2,1.6-1.7
		L24.6,365.1z"/>
	<path d="M325.1,71.6l113.3,113.3c8.8-7.2,17.4-14.3,25.6-21.3L346.3,46.1C339.4,54.2,332.3,62.8,325.1,71.6z"/>
	<path d="M93.8,307L203,416.2c20.6-25.3,41.8-50.9,62.2-72.5c19-20.2,58.3-59.4,78.4-78.4c21.6-20.4,47.3-41.6,72.5-62.2L307,93.8
		c-20.6,25.3-41.8,50.9-62.2,72.5c-19,20.2-58.3,59.4-78.4,78.4C144.7,265.1,119,286.3,93.8,307z"/>
	<path d="M184.9,438.4L71.6,325.1c-8.8,7.2-17.4,14.3-25.6,21.3l117.6,117.6C170.6,455.8,177.7,447.2,184.9,438.4z"/>
	<path d="M485.4,144.9c0.6-0.5,1.2-1,1.8-1.6c26.7-24.4,25.8-79.7-7.5-113c-33.3-33.3-88.6-34.1-113-7.5c-0.5,0.6-1,1.2-1.6,1.7
		L485.4,144.9z"/>
</g>
</svg>
