<?xml version="1.0" encoding="utf-8"?>
<!-- Generator: Adobe Illustrator 13.0.0, SVG Export Plug-In . SVG Version: 6.00 Build 14948)  -->
<!DOCTYPE svg PUBLIC "-//W3C//DTD SVG 1.1//EN" "http://www.w3.org/Graphics/SVG/1.1/DTD/svg11.dtd">
<svg version="1.1" id="Layer_1" xmlns="http://www.w3.org/2000/svg" xmlns:xlink="http://www.w3.org/1999/xlink" x="0px" y="0px"
	 width="512px" height="512px" viewBox="0 0 512 512" enable-background="new 0 0 512 512" xml:space="preserve">
<g>
	<g>
		<g>
			<path d="M334.6,368.2c-51.2,0-205.3-89.2-205.3-161.8c0-24,19.5-43.5,43.5-43.5c35.9,0,166.6,54.6,283.5,30.7
				c-32.9-78.5-95.8-156.4-215.6-156.4C109.4,37.2,3,143.6,3,274.9c0,131.3,88.2,197.9,106.4,197.9c69.3,0,319.2,0,319.2,0
				c45,0,78.4-33.4,78.4-78.4v-30.5C435,375.2,334.6,368.2,334.6,368.2z"/>
			<path d="M334.6,368.2c-51.2,0-205.3-89.2-205.3-161.8c0-24,19.5-43.5,43.5-43.5c35.9,0,166.6,54.6,283.5,30.7
				c-32.9-78.5-95.8-156.4-215.6-156.4C109.4,37.2,3,143.6,3,274.9c0,131.3,88.2,197.9,106.4,197.9c69.3,0,319.2,0,319.2,0
				c45,0,78.4-33.4,78.4-78.4v-30.5C435,375.2,334.6,368.2,334.6,368.2z"/>
		</g>
		<g>
			<path d="M172.9,167.9c9.8,0,28.2,4.6,51.6,10.5c44.3,11.1,105,26.3,168.3,26.3c21.4,0,41.7-1.8,60.6-5.3
				c33.1,79.4,47.5,126.6,48.6,160.2c-26.2,3.8-58.7,5.7-96.6,5.7c-39.1,0-70-2.1-70.3-2.1c-25.1,0-76.2-22.7-119.3-52.8
				c-51.7-36.1-81.3-74-81.3-104C134.4,185.2,151.6,167.9,172.9,167.9z M172.9,162.9c-24,0-43.5,19.5-43.5,43.5
				c0,72.6,154.1,161.8,205.3,161.8c0,0,30.9,2.2,70.6,2.2c32,0,69.7-1.4,101.7-6.4c0-37.1-17.2-90.5-50.7-170.3
				c-21,4.3-42.4,6-63.6,6C295.6,199.7,202.3,162.9,172.9,162.9z"/>
		</g>
	</g>
	<path d="M174.1,194.6c9.3,0,16.9,7.6,16.9,16.9c0,9.3-7.6,16.9-16.9,16.9c-9.3,0-16.9-7.6-16.9-16.9
		C157.3,202.1,164.8,194.6,174.1,194.6z"/>
</g>
</svg>
