<?xml version="1.0" encoding="utf-8"?>
<!-- Generator: Adobe Illustrator 13.0.0, SVG Export Plug-In . SVG Version: 6.00 Build 14948)  -->
<!DOCTYPE svg PUBLIC "-//W3C//DTD SVG 1.1//EN" "http://www.w3.org/Graphics/SVG/1.1/DTD/svg11.dtd">
<svg version="1.1" id="Layer_1" xmlns="http://www.w3.org/2000/svg" xmlns:xlink="http://www.w3.org/1999/xlink" x="0px" y="0px"
	 width="512px" height="512px" viewBox="0 0 512 512" enable-background="new 0 0 512 512" xml:space="preserve">
<g>
	<path d="M395.6,303.6l-23.8,34.9L353.5,326l23.4-34.3c-9.7-6.2-19.1-12.1-26.1-16.6l-38.5,56.4L294,319.1l38.3-56.2
		c-4.3-4.1-9.2-12.1-10.6-24h-75.6v-25.3h76.7c0.8-7.2,1.8-15,3.1-24.4l-78-10.8l3.4-25l78,10.8c1.3-9.1,2.6-18.4,3.9-27.4
		l-98.5-18.2l3.5-24.6l98.8,17.5c3.5-23.5,6.3-40.8,6.3-40.8l-126-45.7c-14.4-5-27.2-4.6-36.4,10.3
		c-15.9,25.7-66.5,165.3-57.9,224.6v119.2h322.2v-44.3L395.6,303.6z M188.1,325.7c-11,0-19.9-8.9-19.9-19.9c0-11,8.9-19.9,19.9-19.9
		c11,0,19.9,8.9,19.9,19.9C207.9,316.8,199,325.7,188.1,325.7z M234.7,238.9H188l-14.4-6.3v-13.5l15.3-5.5h45.8V238.9z M236.6,176.9
		l-46.2-6.1l-13.6-7.8l1.8-13.4l15.9-3.8l45.5,6L236.6,176.9z"/>
	<path d="M129,490c-24.6,0-44.7-20-44.7-44.7c0-24.6,20-44.7,44.7-44.7c24.6,0,44.7,20,44.7,44.7C173.7,469.9,153.7,490,129,490z
		 M129,423.9c-11.8,0-21.4,9.6-21.4,21.4c0,11.8,9.6,21.4,21.4,21.4c11.8,0,21.4-9.6,21.4-21.4C150.4,433.5,140.8,423.9,129,423.9z"
		/>
	<path d="M227.1,490c-24.6,0-44.7-20-44.7-44.7c0-24.6,20-44.7,44.7-44.7c24.6,0,44.7,20,44.7,44.7C271.8,469.9,251.8,490,227.1,490
		z M227.1,423.9c-11.8,0-21.4,9.6-21.4,21.4c0,11.8,9.6,21.4,21.4,21.4c11.8,0,21.4-9.6,21.4-21.4
		C248.5,433.5,238.9,423.9,227.1,423.9z"/>
	<path d="M325.2,490c-24.6,0-44.7-20-44.7-44.7c0-24.6,20.1-44.7,44.7-44.7c24.6,0,44.7,20,44.7,44.7
		C369.9,469.9,349.8,490,325.2,490z M325.2,423.9c-11.8,0-21.4,9.6-21.4,21.4c0,11.8,9.6,21.4,21.4,21.4c11.8,0,21.4-9.6,21.4-21.4
		C346.6,433.5,337,423.9,325.2,423.9z"/>
	<path d="M423.3,490c-24.6,0-44.7-20-44.7-44.7c0-24.6,20.1-44.7,44.7-44.7c24.6,0,44.7,20,44.7,44.7C468,469.9,447.9,490,423.3,490
		z M423.3,423.9c-11.8,0-21.4,9.6-21.4,21.4c0,11.8,9.6,21.4,21.4,21.4c11.8,0,21.4-9.6,21.4-21.4
		C444.6,433.5,435.1,423.9,423.3,423.9z"/>
	<path d="M99.8,311.8L69.5,342C54.3,357.2,42,386.9,42,408.4v29.9l57.7-57.7V311.8z"/>
</g>
</svg>
