<?xml version="1.0" encoding="utf-8"?>
<!-- Generator: Adobe Illustrator 13.0.0, SVG Export Plug-In . SVG Version: 6.00 Build 14948)  -->
<!DOCTYPE svg PUBLIC "-//W3C//DTD SVG 1.1//EN" "http://www.w3.org/Graphics/SVG/1.1/DTD/svg11.dtd">
<svg version="1.1" id="Layer_1" xmlns="http://www.w3.org/2000/svg" xmlns:xlink="http://www.w3.org/1999/xlink" x="0px" y="0px"
	 width="512px" height="512px" viewBox="0 0 512 512" enable-background="new 0 0 512 512" xml:space="preserve">
<g>
	<g>
		<path d="M206.3,501c-50.5,0-91.5-41.1-91.5-91.5v-68.1h43v68.1c0,26.8,21.8,48.5,48.5,48.5c24.5,0,37.3-19,43.7-35
			c0.2-0.4,0.3-0.8,0.5-1.2l113.9-278.2c12-31.2,10.7-54.4-4-68.7c-25.7-24.8-91.7-25.9-147.1-2.4c-34.2,14.5-55.5,35.4-55.5,54.6
			v30.2h-43v-30.2c0-37.8,29.8-72.1,81.7-94.2C258,7,346.8,2.1,390.3,44.2C409.8,63,428,98.3,404.4,159.6L289.9,439.2
			c-0.1,0.3-0.3,0.7-0.4,1C273.5,478.9,243.3,501,206.3,501z"/>
	</g>
	<g>
		<path d="M180.2,319.1H92.4V197.3h87.7V319.1z M106.8,304.7h59.1v-93.1h-59.1V304.7z"/>
	</g>
</g>
</svg>
