<?xml version="1.0" encoding="utf-8"?>
<!-- Generator: Adobe Illustrator 13.0.0, SVG Export Plug-In . SVG Version: 6.00 Build 14948)  -->
<!DOCTYPE svg PUBLIC "-//W3C//DTD SVG 1.1//EN" "http://www.w3.org/Graphics/SVG/1.1/DTD/svg11.dtd">
<svg version="1.1" id="Layer_1" xmlns="http://www.w3.org/2000/svg" xmlns:xlink="http://www.w3.org/1999/xlink" x="0px" y="0px"
	 width="472.468px" height="455.425px" viewBox="0 0 472.468 455.425" enable-background="new 0 0 472.468 455.425"
	 xml:space="preserve">
<path d="M214.589,349.358c-4.804,0-8.696,2.122-11.477,5.218c-3.594,3.992-4.414,8.67-3.411,13.894l4.644,24.21
	c0.798,4.162,3.286,7.531,6.865,9.086l-13.27,39.43l-51.293-115.923L44.551,361.803C22.312,371.603,0,393.296,0,419.376v10.143
	v8.154c0,10.312,8.443,18.752,18.754,18.752h434.958c10.314,0,18.756-8.439,18.756-18.752v-8.154v-10.143
	c0-26.08-22.309-47.773-44.555-57.573L325.82,325.272l-51.296,115.923l-13.269-39.43c3.584-1.555,6.064-4.924,6.863-9.086
	l4.649-24.211c1-5.223,0.183-9.899-3.415-13.893c-2.779-3.096-6.668-5.218-11.477-5.218H214.589L214.589,349.358z M347.833,408.5
	h51.064c4.338,0,7.887,3.555,7.887,7.891v3.947c0,4.336-3.549,7.885-7.887,7.885h-51.064c-4.34,0-7.889-3.549-7.889-7.885v-3.947
	C339.945,412.054,343.494,408.5,347.833,408.5L347.833,408.5z M100.485,111.412c6.835-42.979,29.332-86.215,76.449-96.801
	c16.5-7.8,34.415-12.242,52.621-13.344c43.065-2.594,86.78,13.709,114.771,46.545c9.195,10.782,16.311,22.986,21.199,36.356
	c7.408,20.263,9.668,42.704,6.992,64.319c-0.326,2.635-0.494,5.369-0.986,7.941c10.412,20.206,9.348,47.724-0.031,68.553
	c-6.406,14.209-16.35,24.582-26.584,29.731c-31.154,100.99-186.581,99.558-217.331,0.011c-22.208-11.108-33.058-38.244-33.9-61.83
	c-0.396-10.891,1.076-22.661,5.549-32.877C97.908,143.715,97.888,127.737,100.485,111.412L100.485,111.412z M354.765,167.791
	c-5.053-0.775-9.988-3.05-14.246-5.808c-8.068-5.239-13.361-13.338-18.148-21.492c-4.025-6.868-7.641-13.033-16.793-15
	c-41.945-8.985-59.789-17.309-72.708-23.339c-10.53-4.914-17.342-8.093-33.971-8.446c-33.824-0.73-42.282,24.042-48.884,43.382
	c-2.779,8.145-6.006,20.836-13.669,26.108c-4.475,3.089-11.574,3.897-18.86,4.011c-3.364,7.654-4.027,17.908-3.771,24.979
	c0.761,21.396,9.833,40.198,30.396,47.399c2.574,9.182,5.511,17.947,10.401,26.235c38.179,64.707,150.057,58.659,172.45-21.192
	v-0.034l0.008-0.028l1.467-5.127c12.086-3.953,19.363-10.727,24.77-22.699C359.875,201.901,361.404,182.869,354.765,167.791
	L354.765,167.791z M116.417,148.747c3.867-0.022,7.854-0.102,9.205-0.314c2.58-3.499,4.787-9.957,7.244-17.156
	c8.478-24.834,19.344-56.653,66.388-55.644c20.457,0.45,28.63,4.258,41.27,10.154c12.063,5.627,28.733,13.405,68.812,21.992
	c16.939,3.633,22.469,13.068,28.627,23.569c4.139,7.065,8.51,14.242,16.277,17.533c2.85-19.616,1.02-40.132-5.721-58.546
	c-5.527-15.135-14.445-28.416-26.189-39.407c-24.119-22.604-58.093-33.622-91.711-31.595c-14.372,0.865-28.687,4.156-41.942,9.828
	c-1.966,0.842-3.892,1.77-5.816,2.685c-3.527,0.747-6.994,1.65-10.392,2.881c-32.55,11.771-48.746,45.686-54.126,79.521
	C116.53,125.644,115.87,137.229,116.417,148.747L116.417,148.747z M192.106,252.619c13.481,0.438,26.864-4.531,36.871-13.619
	c2.516-2.285,4.85-4.791,7.236-7.199c5.107,5.104,9.938,10.109,16.229,13.76c8.341,4.841,18.058,7.406,28.19,7.029
	c3.677-0.141,7.378-0.662,10.947-1.565c-2.482-9.866-7.262-17.688-15.485-23.71c-10.71-7.84-25.229-11.754-39.871-11.754
	c-17.816,0-38.072,5.919-49.102,20.841c-2.8,4.521-4.914,9.468-6.239,14.629C184.541,251.939,188.343,252.501,192.106,252.619
	L192.106,252.619z M164.296,260.902c1.2-8.891,2.726-17.303,6.616-25.535c3.915-8.301,9.064-14.36,16.719-19.959
	c13.349-9.766,31.03-14.651,48.594-14.651c17.571,0,35.252,4.886,48.601,14.651c10.661,7.801,16.764,17.163,20.459,29.827
	c1.536,5.251,2.146,10.254,2.887,15.656c-9.646,3.68-18.791,6.475-29.236,6.516c-12.152,0.055-23.807-3.213-33.893-9.07
	c-3.098-1.797-6.037-3.853-8.812-6.115c-9.965,8.148-22.228,13.417-35.377,14.811C187.739,268.416,176.32,265.417,164.296,260.902
	L164.296,260.902z"/>
</svg>
