<?xml version="1.0" encoding="utf-8"?>
<!-- Generator: Adobe Illustrator 13.0.0, SVG Export Plug-In . SVG Version: 6.00 Build 14948)  -->
<!DOCTYPE svg PUBLIC "-//W3C//DTD SVG 1.1//EN" "http://www.w3.org/Graphics/SVG/1.1/DTD/svg11.dtd">
<svg version="1.1" id="Layer_1" xmlns="http://www.w3.org/2000/svg" xmlns:xlink="http://www.w3.org/1999/xlink" x="0px" y="0px"
	 width="433.335px" height="458.256px" viewBox="0 0 433.335 458.256" enable-background="new 0 0 433.335 458.256"
	 xml:space="preserve">
<path d="M216.667,369.812c-38.935,0-72.395-17.955-87.062-43.637L59.126,354.39C32.994,364.847,0,389.765,0,421.208v18.291
	c0,10.316,8.441,18.758,18.752,18.758c131.945,0,263.886,0,395.826,0c10.314,0,18.758-8.439,18.758-18.758v-18.291
	c0-31.443-33-56.361-59.125-66.818l-70.479-28.214C289.062,351.856,255.603,369.812,216.667,369.812L216.667,369.812z
	 M207.301,174.057h21.98c0.073-5.352,2.279-10.204,5.79-13.714c3.886-3.886,9.103-5.852,14.511-5.852h45.135
	c5.473,0,10.732,1.853,14.703,5.818c3.943,3.937,5.852,9.182,5.852,14.635v10.429c0,8.694-3.062,16.983-9.311,23.233
	c-6.153,6.155-14.395,9.352-22.998,9.352h-23.854c-7.924,0-15.539-2.949-21.205-8.615c-5.025-5.026-8.256-11.866-8.594-19.426
	h-22.036c-0.337,7.56-3.556,14.399-8.581,19.426c-5.684,5.683-13.305,8.615-21.239,8.615h-23.716
	c-8.648,0-16.904-3.151-23.104-9.352c-6.211-6.211-9.311-14.478-9.311-23.143v-10.429c0-5.499,1.881-10.754,5.852-14.725
	c3.981-3.981,9.249-5.818,14.735-5.818h45.034c5.437,0,10.659,1.938,14.58,5.852C205.025,163.853,207.232,168.705,207.301,174.057
	L207.301,174.057z M124.858,242.071c0.966,3.455,1.894,6.925,3.067,10.316c27.175,78.576,147.817,80.57,177.233,2.531
	c1.604-4.257,2.777-8.626,4.025-12.996c3.133-1.025,6.385-1.885,9.268-3.523c9.275-5.285,15.318-16.814,18.25-26.563
	c4.42-14.68,4.779-33.404-3.689-46.202c-3.166-4.784-6.188-5.531-11.17-7.666c-0.129-2.19-0.246-4.38-0.381-6.57
	c-110.641-22.66-98.576-67.918-142.667-68.907c-58.456-1.309-49.252,58.236-64.33,75.332c-0.741,0.837-3.162,1.41-6.34,1.792
	c-12.726,5.633-14.103,22.919-13.663,35.06c0.532,15.006,5.846,31.253,17.521,41.068
	C115.851,238.994,120.147,240.42,124.858,242.071L124.858,242.071z M108.337,257.211c-3.324-1.655-6.396-3.769-9.232-6.153
	c-16.078-13.514-23.936-35.05-24.671-55.683c-0.488-13.495,1.915-29.073,9.643-40.642c-5.672-52.306,7.654-129.71,74.905-137.73
	c78.6-44.467,186.109,0.994,191.262,104.748c0.564,11.54,0.668,23.131,0.678,34.684c10.543,17.521,10.906,41.58,5.027,61.128
	c-4.812,16.018-14.988,31.938-30.281,39.633C294.509,358.187,139.084,356.753,108.337,257.211L108.337,257.211z M187.055,170.339
	h-45.303c-2.988,0-4.589,1.825-4.589,4.51v10.614c0,9.631,7.166,16.645,16.579,16.645h23.474c8.278,0,14.27-6.015,14.27-14.113
	V174.9C191.485,172.316,190.043,170.333,187.055,170.339L187.055,170.339z M294.943,170.339h-45.304
	c-2.987,0-4.589,1.825-4.589,4.51v10.614c0,9.631,7.166,16.645,16.579,16.645h23.474c8.277,0,14.27-6.015,14.27-14.113V174.9
	C299.373,172.316,297.929,170.333,294.943,170.339L294.943,170.339z"/>
</svg>
