<?xml version="1.0" encoding="utf-8"?>
<!-- Generator: Adobe Illustrator 13.0.0, SVG Export Plug-In . SVG Version: 6.00 Build 14948)  -->
<!DOCTYPE svg PUBLIC "-//W3C//DTD SVG 1.1//EN" "http://www.w3.org/Graphics/SVG/1.1/DTD/svg11.dtd">
<svg version="1.1" id="Layer_1" xmlns="http://www.w3.org/2000/svg" xmlns:xlink="http://www.w3.org/1999/xlink" x="0px" y="0px"
	 width="403.683px" height="441.321px" viewBox="0 0 403.683 441.321" enable-background="new 0 0 403.683 441.321"
	 xml:space="preserve">
<path d="M336.257,302.938h-56.69c-42.619,36.893-112.864,36.521-155.465-0.146H67.335c-14.658-46.74-21.39-129.407-1.089-193.174
	c11.934-37.48,38.014-79.712,81.649-83.121c65.296-38.279,151.478-2.421,185.778,72.254
	C357.923,151.527,354.138,252.569,336.257,302.938L336.257,302.938z M315.355,163.135c-110.752-23.52-108.842-73.253-152.746-74.231
	c-58.45-1.309-54.924,65.099-65.685,67.06c-3.121,1.382-6.66,2.51-9.215,4.857c-7.487,6.863-8.817,22.318-8.475,31.91
	c0.533,15.011,5.853,31.258,17.528,41.074c3.863,3.246,8.158,4.673,12.876,6.322c0.96,3.455,1.888,6.926,3.061,10.316
	c27.176,78.577,147.822,80.583,177.237,2.533c1.603-4.251,2.774-8.626,4.022-12.989c3.133-1.028,6.385-1.888,9.267-3.526
	c9.274-5.291,15.317-16.813,18.249-26.568c4.213-13.99,4.74-31.657-2.555-44.366C317.636,163.282,317.921,163.68,315.355,163.135
	L315.355,163.135z M113.486,325.299l-58.417,25.744C30.838,361.713,0,385.233,0,414.946v11.424v7.867
	c0,9.945,8.138,18.084,18.09,18.084h367.503c9.947,0,18.09-8.139,18.09-18.084v-7.867v-11.424c0-29.713-30.836-53.232-55.074-63.902
	l-58.414-25.744l-50.061,113.139h-2.717l-11.821-35.127c3.401-1.482,5.762-4.684,6.521-8.632l4.408-22.986
	c0.955-4.959,0.174-9.396-3.24-13.187c-2.641-2.938-6.33-4.952-10.889-4.952h-41.104c-4.566,0-8.261,2.016-10.895,4.952
	c-3.415,3.791-4.195,8.228-3.247,13.187l4.421,22.986c0.751,3.948,3.111,7.149,6.508,8.632l-11.815,35.127h-2.712L113.486,325.299
	L113.486,325.299z"/>
</svg>
