<?xml version="1.0" encoding="utf-8"?>
<!-- Generator: Adobe Illustrator 13.0.0, SVG Export Plug-In . SVG Version: 6.00 Build 14948)  -->
<!DOCTYPE svg PUBLIC "-//W3C//DTD SVG 1.1//EN" "http://www.w3.org/Graphics/SVG/1.1/DTD/svg11.dtd">
<svg version="1.1" id="Layer_1" xmlns="http://www.w3.org/2000/svg" xmlns:xlink="http://www.w3.org/1999/xlink" x="0px" y="0px"
	 width="403.683px" height="444.387px" viewBox="0 0 403.683 444.387" enable-background="new 0 0 403.683 444.387"
	 xml:space="preserve">
<path d="M127.761,312.072l-72.686,32.032C30.837,354.786,0,378.293,0,408.008v11.428v7.861c0,9.951,8.143,18.09,18.089,18.09
	h367.504c9.945,0,18.09-8.139,18.09-18.09v-7.861v-11.428c0-29.715-30.838-53.223-55.068-63.904l-72.936-32.141
	c-12.221,53.42-42.523,90.541-73.832,110.156C169.601,401.786,137.662,359.918,127.761,312.072L127.761,312.072z M202.239,32.096
	c60.771,0,111.071,44.838,119.646,103.232c-20.996-45.045-66.682-76.27-119.645-76.27c-52.969,0-98.643,31.225-119.651,76.27
	C91.163,76.934,141.47,32.096,202.239,32.096L202.239,32.096z M110.032,233.043c0.966,3.453,1.893,6.924,3.066,10.316
	c27.181,78.578,147.815,80.577,177.231,2.533c1.602-4.258,2.779-8.626,4.026-12.996c3.134-1.021,6.386-1.881,9.267-3.525
	c9.277-5.285,15.326-16.813,18.252-26.563c4.414-14.685,4.779-33.403-3.689-46.201c-3.16-4.779-6.188-5.532-11.17-7.666
	c-40.586-5.396-51.913-47.291-70.126-51.256c-17.151-3.729-65.2,65.992-147.917,67.261c-2.348,0.039-4.739,0.061-7.093-0.062
	c-2.038,6.924-2.454,14.928-2.246,20.762c0.533,15.012,5.846,31.259,17.521,41.075C101.03,229.967,105.32,231.399,110.032,233.043
	L110.032,233.043z M83.587,70.486c17.994-31.201,47.331-54.693,82.172-64.493c30.298-8.519,63.1-6.071,91.731,6.829
	c49.278,22.205,71.895,65.33,83.625,115.047c13.428,56.889,22.875,142.364,20.342,200.706l-80.24-33.824
	c-42.85,38.324-114.924,37.977-157.823-0.004l-80.896,33.828c-2.617-60.117,7.839-149.163,21.997-205.961
	C68.963,104.649,74.248,86.683,83.587,70.486L83.587,70.486z"/>
</svg>
