<?xml version="1.0" encoding="utf-8"?>
<!-- Generator: Adobe Illustrator 13.0.0, SVG Export Plug-In . SVG Version: 6.00 Build 14948)  -->
<!DOCTYPE svg PUBLIC "-//W3C//DTD SVG 1.1//EN" "http://www.w3.org/Graphics/SVG/1.1/DTD/svg11.dtd">
<svg version="1.1" id="Layer_1" xmlns="http://www.w3.org/2000/svg" xmlns:xlink="http://www.w3.org/1999/xlink" x="0px" y="0px"
	 width="403.684px" height="446.027px" viewBox="0 0 403.684 446.027" enable-background="new 0 0 403.684 446.027"
	 xml:space="preserve">
<path d="M201.837,360.525c-37.901,0-70.616-17.019-85.854-41.618l-60.914,26.844C30.837,356.427,0,379.945,0,409.654v19.29
	c0,9.943,8.138,18.083,18.086,18.083h367.506c9.945,0,18.092-8.14,18.092-18.083v-19.29c0-29.709-30.84-53.229-55.075-63.903
	l-60.906-26.844C272.461,343.509,239.747,360.525,201.837,360.525L201.837,360.525z M190.845,163.992h21.987
	c0.068-5.352,2.271-10.204,5.779-13.714c4.246-4.245,9.684-5.852,15.426-5.852h19.947c-36.156-15.046-65.939-40.699-77.648-56.935
	c-51.009,4.408-48.207,40.366-73.545,56.552c-4.38,2.802-11.055,4.48-14.688,7.816c-7.483,6.869-8.811,22.318-8.469,31.911
	c0.531,15.011,5.85,31.264,17.525,41.073c3.867,3.252,8.159,4.679,12.875,6.324c0.966,3.453,1.889,6.925,3.063,10.317
	c27.178,78.582,147.812,80.576,177.236,2.533c1.597-4.261,2.774-8.627,4.021-12.992c3.138-1.026,6.386-1.881,9.271-3.53
	c9.273-5.285,15.318-16.809,18.248-26.562c4.258-14.137,4.746-32.018-2.791-44.754c-7.41,0.612-14.832,0.449-22.187-0.343
	c1.478,3.128,1.92,6.392,1.92,9.742v9.442c0,8.828-2.946,17.15-9.312,23.52c-6.346,6.352-14.678,9.349-23.483,9.349H243.5
	c-8.256,0-16.061-2.616-22.055-8.618c-5.025-5.021-8.252-11.867-8.592-19.428H190.82c-0.337,7.561-3.561,14.406-8.587,19.428
	c-6.048,6.052-13.885,8.618-22.188,8.618h-22.332c-8.826,0-17.171-2.981-23.537-9.349c-6.562-6.572-9.317-15.057-9.317-24.054v-9.29
	c0-5.569,1.792-10.894,5.855-14.953c4.276-4.279,9.657-5.818,15.458-5.818l42.956,0.033
	C180.262,144.46,190.686,151.535,190.845,163.992L190.845,163.992z M65.389,150.852c-0.168-8.51-0.682-22.228,1.124-32.741
	c2.875-16.759,8.472-32.887,16.903-47.623c17.851-31.202,46.955-54.699,81.518-64.498c30.056-8.514,62.623-6.065,90.992,6.834
	c43.113,19.582,74.609,61.556,80.762,111.706c0.193,1.59,0.974,17.218,1.38,24.597c8.584,17.123,8.543,39.295,3.053,57.542
	c-1.354,4.493-3.129,8.985-5.318,13.281c3.291,33.049,7.183,61.021,9.64,82.345c-15.851,3.791-66.062,6.576-84.426,4.77
	c-34.552,18.75-79.007,19.186-114.177,1.602c-0.261-0.129-3.375-1.757-3.369-1.752c-18.28,1.825-68.644-0.969-84.517-4.76
	c2.445-21.271,6.321-49.144,9.609-82.073c-5.608-10.962-8.52-23.435-8.955-35.593C59.208,173.557,60.71,161.274,65.389,150.852
	L65.389,150.852z M168.75,160.269h-42.577c-1.632,0-2.988-0.157-4.313,1.174c-1.171,1.174-1.148,2.342-1.148,3.756v9.29
	c0,4.835,0.978,9.222,4.667,12.905c3.454,3.459,7.713,4.649,12.335,4.649h22.68c4.027,0,7.671-0.948,10.695-3.976
	c3.128-3.123,3.945-6.841,3.945-10.924v-11.371C175.034,161.234,172.846,160.269,168.75,160.269L168.75,160.269z M276.806,160.269
	h-42.577c-1.632,0-2.988-0.157-4.312,1.174c-1.172,1.174-1.148,2.342-1.148,3.756v9.29c0,4.835,0.979,9.222,4.667,12.905
	c3.454,3.459,7.713,4.649,12.335,4.649h22.681c4.026,0,7.67-0.948,10.694-3.976c3.128-3.123,3.945-6.841,3.945-10.924v-11.371
	C283.09,161.234,280.901,160.269,276.806,160.269L276.806,160.269z"/>
</svg>
