<?xml version="1.0" encoding="utf-8"?>
<!-- Generator: Adobe Illustrator 13.0.0, SVG Export Plug-In . SVG Version: 6.00 Build 14948)  -->
<!DOCTYPE svg PUBLIC "-//W3C//DTD SVG 1.1//EN" "http://www.w3.org/Graphics/SVG/1.1/DTD/svg11.dtd">
<svg version="1.1" id="Layer_1" xmlns="http://www.w3.org/2000/svg" xmlns:xlink="http://www.w3.org/1999/xlink" x="0px" y="0px"
	 width="472.472px" height="458.01px" viewBox="0 0 472.472 458.01" enable-background="new 0 0 472.472 458.01"
	 xml:space="preserve">
<path d="M102.895,154.044c0.162-2.612,0.113-28.417,0.354-30.467C111.808,50.969,139.477-0.888,236.329-1
	c92.313,0.101,121.768,47.224,131.741,114.507c1.938,13.125,1.879,33.493,1.643,40.622c10.916,17.65,11.467,41.994,5.48,61.887
	c-4.809,16.017-14.988,31.943-30.277,39.637c-31.156,100.984-186.581,99.553-217.334,0.012c-3.317-1.657-6.39-3.77-9.227-6.155
	c-16.084-13.518-23.935-35.05-24.67-55.676C93.195,180.383,95.549,165.584,102.895,154.044L102.895,154.044z M214.594,349.942
	c-4.812,0-8.697,2.123-11.483,5.218c-3.595,3.991-4.414,8.672-3.409,13.894l4.645,24.211c0.797,4.161,3.285,7.53,6.862,9.093
	l-13.265,39.424l-51.296-115.925L44.551,362.388C22.312,372.188,0,393.882,0,419.962v10.144v8.153
	c0,10.312,8.44,18.751,18.752,18.751h434.962c10.314,0,18.758-8.439,18.758-18.751v-8.153v-10.144
	c0-26.08-22.318-47.773-44.559-57.574l-102.09-36.531L274.528,441.78l-13.272-39.424c3.584-1.562,6.066-4.932,6.865-9.094
	l4.644-24.209c1.006-5.223,0.187-9.902-3.407-13.895c-2.781-3.096-6.667-5.219-11.48-5.219h-43.283V349.942z M348.578,159.901
	c-2.809,4.061-4.016,10.911-6.975,12.709c-4.857,2.936-8.199-1.95-9.535-5.864c-2.297-6.677-5.273-22.048-6.762-26.119
	c-2.09-5.705-6.785-13.023-9.375-20.279c-2.867-8.063-0.693-15.354-6.457-23.732c-3.234-4.706-9.924-8.261-21.592-4.28
	c-19.18,6.549-83.817,6.577-102.997,0.035c-7.654-2.612-13.607-1.798-17.206,0.213c-7.993,4.47-8.739,15.219-9.931,23.251
	c-1.392,9.479-7.614,17.185-10.4,24.793c-1.494,4.071-4.465,19.442-6.762,26.119c-1.336,3.914-4.678,8.8-9.535,5.864
	c-2.814-1.702-4.633-8.194-7.492-12.434c-8.57,9.58-10.315,20.015-9.85,32.947c0.539,15.012,5.852,31.253,17.521,41.068
	c3.868,3.252,8.166,4.679,12.877,6.33c2.572,9.182,5.509,17.949,10.395,26.231c14.939,25.312,41.143,39.788,68.857,43.265v-18.432
	c0-16.896,25.608-16.896,25.608,0v18.521c40.988-4.847,68.523-31.397,79.465-69.732c14.959-4.907,22.975-14.977,27.52-30.089
	c4.424-14.675,4.766-33.426-3.691-46.208C351.212,162.489,349.966,161.181,348.578,159.901L348.578,159.901z M236.053,243.481
	c-17.629,0-27.029,2.629-32.646,11.023c-1.206,1.798-1.55,3.68-2.381,5.596c-3.757,8.657-15.382,8.191-18.421-0.811
	c-0.763-2.246-0.622-4.941-0.402-7.268c2.128-22.229,25.479-39.75,53.962-39.75c28.49,0,51.84,17.521,53.969,39.75
	c0.219,2.324,0.359,5.021-0.404,7.268c-3.044,9.002-14.668,9.468-18.421,0.811c-0.83-1.916-1.181-3.798-2.381-5.596
	C263.312,246.11,253.682,243.481,236.053,243.481L236.053,243.481z"/>
</svg>
