<?xml version="1.0" encoding="utf-8"?>
<!-- Generator: Adobe Illustrator 13.0.0, SVG Export Plug-In . SVG Version: 6.00 Build 14948)  -->
<!DOCTYPE svg PUBLIC "-//W3C//DTD SVG 1.1//EN" "http://www.w3.org/Graphics/SVG/1.1/DTD/svg11.dtd">
<svg version="1.1" id="Layer_1" xmlns="http://www.w3.org/2000/svg" xmlns:xlink="http://www.w3.org/1999/xlink" x="0px" y="0px"
	 width="512px" height="512px" viewBox="0 0 512 512" enable-background="new 0 0 512 512" xml:space="preserve">
<g>
	<g>
		<path fill="#414142" d="M502.7,177.6c0-36.3-22.2-65.8-49.5-65.8c-27.3,0-49.4,29.5-49.4,65.8c0,29.5,14.6,54.5,34.7,62.8v156.1
			c0,6.6,5.4,12,12,12h5.4c6.6,0,12-5.4,12-12V240.5C488.1,232.1,502.7,207.1,502.7,177.6z"/>
	</g>
	<g>
		<path fill="#414142" d="M69.7,106.9h-6.4v66.2c0,3.2-2.6,5.7-5.7,5.7c-3.2,0-5.7-2.6-5.7-5.7v-44.4c0-0.1,0.1-0.2,0.1-0.3v-14.2
			c0-4.1-3.3-7.4-7.4-7.4c-4.1,0-7.4,3.3-7.4,7.4v14.2c0,0.1,0.1,0.2,0.1,0.3v44.4c0,3.2-2.6,5.7-5.7,5.7c-3.2,0-5.7-2.6-5.7-5.7
			v-66.2h-6.4c-6.6,0-12,5.4-12,12v99.7c0,6.6,0.4,24,16.8,24h5.8v153.9c0,6.6,5.4,12,12,12h5.4c6.6,0,12-5.4,12-12V242.6h5.8
			c16,0,16.6-17.3,16.6-24v-99.7C81.7,112.3,76.3,106.9,69.7,106.9z"/>
	</g>
	<g>
		<path fill="#414142" d="M251,100.2c-86,0-155.8,69.8-155.8,155.8c0,86,69.8,155.8,155.8,155.8c86.1,0,155.8-69.8,155.8-155.8
			C406.8,169.9,337.1,100.2,251,100.2z M251,337.2c-44.8,0-81.2-36.4-81.2-81.2s36.4-81.2,81.2-81.2c44.8,0,81.2,36.4,81.2,81.2
			C332.2,300.8,295.8,337.2,251,337.2z"/>
		<path fill="#414142" d="M251,185.9c-38.7,0-70.1,31.5-70.1,70.1c0,38.7,31.5,70.1,70.1,70.1c38.7,0,70.1-31.5,70.1-70.1
			C321.1,217.3,289.7,185.9,251,185.9z"/>
	</g>
</g>
</svg>
