<?xml version="1.0" encoding="utf-8"?>
<!-- Generator: Adobe Illustrator 13.0.0, SVG Export Plug-In . SVG Version: 6.00 Build 14948)  -->
<!DOCTYPE svg PUBLIC "-//W3C//DTD SVG 1.1//EN" "http://www.w3.org/Graphics/SVG/1.1/DTD/svg11.dtd">
<svg version="1.1" id="Layer_1" xmlns="http://www.w3.org/2000/svg" xmlns:xlink="http://www.w3.org/1999/xlink" x="0px" y="0px"
	 width="512px" height="512px" viewBox="0 0 512 512" enable-background="new 0 0 512 512" xml:space="preserve">
<g>
	<path fill="#414142" d="M329.7,162.7l51.7-61.9l-60.1-76.4H201.1L141,100.8l49.1,57.3c-61.7,25.6-105.3,86.4-105.3,157.3
		c0,93.9,76.4,170.2,170.2,170.2c93.9,0,170.2-76.3,170.2-170.2C425.2,248.4,386.1,190.4,329.7,162.7z M255,439.6
		c-68.5,0-124.2-55.7-124.2-124.2c0-68.5,55.7-124.2,124.2-124.2c68.5,0,124.2,55.7,124.2,124.2C379.2,383.9,323.5,439.6,255,439.6z
		"/>
	<polygon fill="#FFFFFF" points="297.4,45.3 333.6,99.3 297.4,99.3 	"/>
	<polygon fill="#FFFFFF" points="218,153.3 175.7,96.2 211.9,96.2 	"/>
</g>
</svg>
