<?xml version="1.0" encoding="utf-8"?>
<!-- Generator: Adobe Illustrator 13.0.0, SVG Export Plug-In . SVG Version: 6.00 Build 14948)  -->
<!DOCTYPE svg PUBLIC "-//W3C//DTD SVG 1.1//EN" "http://www.w3.org/Graphics/SVG/1.1/DTD/svg11.dtd">
<svg version="1.1" id="Layer_1" xmlns="http://www.w3.org/2000/svg" xmlns:xlink="http://www.w3.org/1999/xlink" x="0px" y="0px"
	 width="512px" height="512px" viewBox="0 0 512 512" enable-background="new 0 0 512 512" xml:space="preserve">
<path d="M477.1,239.3c-9.2-9.2-21.5-15.4-35.3-16.8c-1.9-0.2-3.9-0.3-5.9-0.3c-22,0-46.5,25.5-46.5,25.5c-0.7,0.7-1.5,1.2-2.3,1.5
	c-0.7,0.3-1.4,0.4-2.2,0.4c-1.6,0-3.2-0.6-4.5-1.9c0,0-6.4-6.6-15.5-13.1c4.5-8.8,8.7-18.9,10.5-28.9c0.6-3.4,1-6.8,1-10.2
	c0-26.5-10.7-50.5-28.1-67.9c-15.2-15.3-35.6-25.4-58.2-27.7c-3.2-0.3-6.5-0.5-9.8-0.5c-36.3,0-76.8,42.1-76.8,42.1
	c-1.1,1.2-2.5,2-3.9,2.5c-3.7,1.4-8,0.5-11-2.5c0,0-35-36.3-69.1-41.5c-2.6-0.4-5.1-0.6-7.7-0.6c-26.6,0-50.6,10.8-68,28.2
	C26.7,145,15.9,169,15.9,195.5c0,3.3,0.3,6.7,1,10.2c5,27.2,27.3,55.5,27.3,55.5c3.7,4.6,10,11.8,14.2,16
	c15.1,15.1,116.1,116.1,130.2,130.2c2.4,2.4,5.7,3.4,8.9,3c2.3-0.3,4.5-1.3,6.3-3c10.6-10.6,54.1-54.1,88.3-88.3
	c0.5,0.7,0.8,1.1,0.8,1.1c2.2,2.8,6.1,7.1,8.6,9.7c9.2,9.2,70.3,70.3,78.8,78.8c1.3,1.3,2.9,1.9,4.6,1.9l0.8,0
	c1.4-0.2,2.7-0.8,3.8-1.8c10.1-10.1,69.7-69.7,78.8-78.8c2.5-2.5,6.4-6.9,8.6-9.7c0,0,13.5-17.1,16.5-33.6c0.4-2.1,0.6-4.1,0.6-6.1
	C494.1,264.3,487.6,249.8,477.1,239.3z M483,284.6c-2.1,11.3-11.1,24.7-14.4,28.9c-1.9,2.4-5.6,6.5-7.8,8.7
	c-8.5,8.5-60.4,60.4-75.9,75.9l-75.9-75.9c-2.2-2.3-5.8-6.3-7.8-8.7c-0.4-0.5-1-1.3-1.6-2.1c16.3-16.3,29.5-29.5,34.3-34.3
	c4.2-4.2,10.6-11.4,14.2-16c0,0,5.5-6.9,11.6-17.2c5.8,4.2,10.6,8.6,13,11.1c3.2,3.3,7.6,5.2,12.1,5.2c2,0,4-0.4,5.8-1
	c2.4-0.9,4.6-2.3,6.3-4.1c6-6.2,24.6-22.2,38.8-22.2c1.6,0,3.3,0.1,4.8,0.2c10.8,1.1,21.1,6,28.8,13.7c9,9,13.9,20.9,13.9,33.6
	C483.4,281.7,483.3,283.1,483,284.6z"/>
</svg>
