<?xml version="1.0" encoding="utf-8"?>
<!-- Generator: Adobe Illustrator 13.0.0, SVG Export Plug-In . SVG Version: 6.00 Build 14948)  -->
<!DOCTYPE svg PUBLIC "-//W3C//DTD SVG 1.1//EN" "http://www.w3.org/Graphics/SVG/1.1/DTD/svg11.dtd">
<svg version="1.1" id="Layer_1" xmlns="http://www.w3.org/2000/svg" xmlns:xlink="http://www.w3.org/1999/xlink" x="0px" y="0px"
	 width="690.652px" height="602.433px" viewBox="0 0 690.652 602.433" enable-background="new 0 0 690.652 602.433"
	 xml:space="preserve">
<path fill="#010101" d="M256.218,425.145c-6.809,4.767-12.772,8.915-17.994,12.559c-13.084,9.11-22.508,15.673-27.547,19.633
	c0.917,9.32,2.295,19.775,3.336,28.127c3.057,0.995,5.846,2.14,7.882,4.174c3.115,3.123,4.449,8.56,4.357,13.866h20.271
	c10.542,0,9.534-16.531,6.523-19.549c-2.999-2.999-17.045-4-17.045-9.015v-27.346c0-4.513,9.118-10.015,52.442-40.347
	c8.669-6.063,15.296-12.25,20.524-18.395c-5.71-1.362-11.752-2.393-18.235-2.775C284.248,400.514,272.659,413.628,256.218,425.145z
	 M443.207,417.379c-4.722,0.663-9.605,1.081-14.567,1.347c4.39,29.187,9.371,62.458,9.995,67.511
	c1.145,9.268,9.02,20.576,19.444,20.576h0.5c-1.957-3.7-3.335-7.653-3.823-11.562C454.016,489.222,446.797,441.221,443.207,417.379z
	 M516.129,127.272c0.337,0.858,0.694,1.753,1.046,2.673c2.726,0.182,5.299,0.618,7.72,1.268c-0.345-1.025-0.599-1.896-0.715-2.546
	c-1.802-9.908,9.891-39.605-9.007-16.204c-0.67,0.833-1.269,1.691-1.899,2.54c-0.182,1.73-0.272,3.294-0.129,4.116
	C513.363,120.262,514.899,124.144,516.129,127.272z M580.282,186.325l-31.904-20.892c0,0-4.93-16.928-19.659-24.247
	c-4.052-2.013-8.8-3.343-14.444-3.343c-0.853,0-1.725,0.036-2.601,0.091c-1.788-4.812-3.577-9.167-4.839-12.544
	c-0.754-2.007-1.366-3.756-1.567-4.829c-1.314-7.22,4.565-24.974,0.501-24.974c-1.502,0-4.384,2.439-9.488,8.773
	c-12.799,15.839-17.13,34.549-14.555,46.948c-12.824,12.427-19.483,31.225-25.259,47.74c-8.936,25.493-16.707,59.609-37.102,69.806
	c-20.395,10.197-44.605,12.74-81.564,12.74c-15.783,0-36.177-1.906-55.752-1.906c-16.2,0-31.854,1.307-43.884,6.064
	c-19.074,1.363-24.25,3.154-42.447,3.154c-47.728,0-54.731-37.605-70.925-52.169c-1.983-1.789-3.875-2.598-5.638-2.598
	c-12.564-0.006-17.962,41.277,2.523,61.765c17.494,17.497,33.03,26.312,55.108,26.312c10.763,0,23.074-2.094,37.94-6.296
	c-6.834,24.827-6.366,71.676-6.366,79.86c0,17.052-32.224,44.385-34.728,50.908c-2.51,6.516,2.088,37.406,4.078,54.328
	c1.392,11.842,7.447,13.824,10.451,13.824h21.558c7.882,0,9.299-9.293,8.24-15.217c-0.352-1.978-0.982-3.577-1.73-4.332
	c-0.124-0.123-0.384-0.24-0.553-0.362c-3.752-2.726-16.493-3.871-16.493-8.663v-27.34c0-2.328,2.472-4.936,10.731-11.043
	c7.778-5.755,20.693-14.593,41.718-29.303c19.373-13.565,29.206-27.756,33.758-40.688c10.626,0.074,20.18,1.67,28.888,4.021
	c22.631,6.12,39.345,17.518,52.818,21.861c12.63,4.073,31.249,7.299,51.227,7.299c3.012,0,6.062-0.103,9.123-0.259
	c7.473-0.371,15.036-1.224,22.457-2.693c4.761,31.488,12.024,79.958,12.792,86.138c0.521,4.064,2.373,8.491,5.118,12.205
	c3.505,4.768,8.493,8.377,14.334,8.377c5.208,0,1.392,0,7.647,0c12.506,0,12.506-15.018,1.378-23.555
	c-4.948-3.818-5.541-14.997-5.541-27.529c0-12.525,1.509-27.392,7.785-45.14c4.487-12.693,19.237-48.515,24.413-66.911
	c7.102-22.252,10.203-51.701,8.193-67.329c-3.498-27.239-6.354-42.245-6.354-46.433c0-14.798,5.262-23.546,10.789-23.546
	c0.358,0,0.702,0.036,1.061,0.111c3.42,0.692,16.049,2.51,26.09,3.944c0.833,0.114,1.704,0.172,2.596,0.172
	c7.03,0,15.73-3.485,20.55-8.441l5.424-7.32C591.93,195.677,586.682,190.465,580.282,186.325z"/>
</svg>
