<?xml version="1.0" encoding="utf-8"?>
<!-- Generator: Adobe Illustrator 13.0.0, SVG Export Plug-In . SVG Version: 6.00 Build 14948)  -->
<!DOCTYPE svg PUBLIC "-//W3C//DTD SVG 1.1//EN" "http://www.w3.org/Graphics/SVG/1.1/DTD/svg11.dtd">
<svg version="1.1" id="Layer_1" xmlns="http://www.w3.org/2000/svg" xmlns:xlink="http://www.w3.org/1999/xlink" x="0px" y="0px"
	 width="738.083px" height="545.463px" viewBox="0 0 738.083 545.463" enable-background="new 0 0 738.083 545.463"
	 xml:space="preserve">
<path fill="#010101" d="M598.043,400.339c0.204,0.133-7.841-1.101-18.396,5.748c-5.162,3.335-10.675,8.485-15.162,15.527
	c-2.062,3.26-3.884,6.993-5.283,11.04c1.193-6.195,3.075-11.963,5.777-16.987c4.74-8.953,11.531-15.639,18.116-20.059
	c13.414-8.824,24.329-9.988,24.125-10.25c0,0.039-2.557-0.254-7.285,0.017c-4.704,0.287-11.688,1.24-19.842,4.712
	c-8.07,3.41-17.322,9.805-24.281,19.96c-0.206,0.31-0.398,0.65-0.615,0.968c0.132-0.257,0.228-0.546,0.361-0.797
	c5.513-10.852,12.521-19.567,19.373-25.797c13.836-12.751,26.597-14.243,26.355-14.367c0.013,0.068-2.967-0.295-8.396,0.555
	c-5.392,0.896-13.292,3.284-21.76,8.817c-8.479,5.461-17.54,13.901-24.897,25.448c-4.317,6.786-8.045,14.771-10.421,23.579
	c0.917-6.764,2.316-13.185,4.234-19.071c3.643-11.266,9.095-20.565,15.054-27.275c5.934-6.758,12.146-10.998,16.621-13.549
	c4.499-2.545,7.227-3.595,7.202-3.64c0.012,0.055-2.872,0.326-7.975,1.852c-5.066,1.535-12.461,4.545-20.181,10.79
	c-7.73,6.166-15.415,15.746-20.759,27.966c-0.121,0.271-0.204,0.578-0.325,0.85c0.036-0.633,0-1.303,0.036-1.926
	c0.735-10.94,3.812-20.506,7.659-27.964c7.938-14.967,17.623-21.271,17.31-21.401c0.013,0.04-2.521,1.011-6.756,3.619
	c-4.209,2.611-10.155,7.067-15.838,14.388c-2.689,3.461-5.246,7.655-7.465,12.387v62.277h45.474
	c-0.013-11.203,5.898-21.063,11.351-26.354c5.538-5.53,10.905-6.477,10.808-6.521c0.169,0.096-5.464-1.081-13.1,3.525
	c-3.617,2.159-7.73,5.783-11,10.695c3.474-8.545,8.793-15.545,13.774-20.021C590.382,401.311,598.176,400.415,598.043,400.339z
	 M152.439,422.311c-7.515-2.587-12.074-0.953-12.026-1.179c-0.108,0.153,4.716,0.663,10.277,4.523
	c5.669,3.739,10.145,11.887,9.807,22.101h7.853c-0.061-6.202-1.786-12.225-4.91-16.754
	C160.316,426.47,156.119,423.604,152.439,422.311z M190.134,358.703c-4.234-2.607-6.767-3.579-6.743-3.618
	c-0.313,0.129,9.36,6.435,17.31,21.401c3.836,7.458,6.912,17.022,7.647,27.963c0.037,0.624,0.012,1.294,0.037,1.927
	c-0.109-0.271-0.193-0.579-0.314-0.85c-5.343-12.22-13.039-21.8-20.771-27.967c-7.72-6.245-15.102-9.254-20.168-10.79
	c-5.102-1.525-7.997-1.797-7.973-1.851c-0.024,0.044,2.702,1.094,7.201,3.64c4.475,2.551,10.688,6.791,16.609,13.549
	c5.958,6.709,11.423,16.009,15.066,27.275c1.917,5.887,3.317,12.307,4.234,19.074c-2.388-8.812-6.104-16.796-10.435-23.582
	c-7.357-11.547-16.417-19.987-24.884-25.448c-8.48-5.534-16.381-7.922-21.761-8.817c-5.44-0.85-8.407-0.486-8.407-0.555
	c-0.241,0.123,12.533,1.616,26.356,14.366c6.851,6.229,13.871,14.945,19.372,25.798c0.132,0.251,0.229,0.54,0.362,0.797
	c-0.217-0.317-0.397-0.659-0.615-0.969c-6.959-10.153-16.2-16.549-24.281-19.96c-8.142-3.471-15.127-4.424-19.831-4.71
	c-4.729-0.272-7.285,0.021-7.285-0.018c-0.217,0.262,10.699,1.426,24.112,10.249c6.598,4.421,13.388,11.106,18.117,20.06
	c2.835,5.271,4.765,11.368,5.935,17.91c-1.749-4.922-4.258-9.34-7.116-12.994c-5.428-6.987-11.966-11.575-17.743-14.364
	c-11.785-5.526-19.842-4.356-19.71-4.568c-0.132,0.16,7.853,1.064,17.828,7.835c4.91,3.384,10.193,8.287,14.367,14.831
	c4.161,6.492,7.14,14.686,7.092,23.439h38.321v-64.898c-1.894-3.622-3.919-6.981-6.079-9.768
	C200.29,365.772,194.355,361.314,190.134,358.703z M225.464,307.349v140.407h64.509V303.021
	c19.746-13.989,47.549-22.72,78.368-22.72c30.843,0,58.635,8.73,78.393,22.72v144.734h64.509V307.349L368.354,162.475
	L225.464,307.349z M530.397,307.692l11.918-11.762l2.848-2.798l9.082-8.957l-29.612-30.01l-7.249-7.355L368.354,95.707
	L219.312,246.812l-7.249,7.355l-29.601,30.01l9.083,8.957l2.835,2.798l11.929,11.762l5.753-5.835l6.707-6.795l6.694-6.791
	l142.889-144.874l142.89,144.874l6.694,6.79l6.694,6.795L530.397,307.692z"/>
</svg>
