<?xml version="1.0" encoding="utf-8"?>
<!-- Generator: Adobe Illustrator 13.0.0, SVG Export Plug-In . SVG Version: 6.00 Build 14948)  -->
<!DOCTYPE svg PUBLIC "-//W3C//DTD SVG 1.1//EN" "http://www.w3.org/Graphics/SVG/1.1/DTD/svg11.dtd">
<svg version="1.1" id="Layer_1" xmlns="http://www.w3.org/2000/svg" xmlns:xlink="http://www.w3.org/1999/xlink" x="0px" y="0px"
	 width="714.375px" height="531.218px" viewBox="0 0 714.375 531.218" enable-background="new 0 0 714.375 531.218"
	 xml:space="preserve">
<g>
	<path fill="#010101" d="M605.3,161.357h-38.083v27.712h-33.897v-27.712h-16.464v-27.582l31.688-10.644v6.771l50.85-17.081
		L556.807,98.52v-4.996l-39.951-13.414h-7.881v81.248h-13.737v27.712h-33.9v-27.712h-38.082v46.884h10.503l-2.883,66.057h-18.653
		v-23.441h-38.084v23.441h-33.899v-23.441h-38.083v23.441h-18.661l-2.88-66.057h10.506v-46.884h-38.084v27.712H219.14v-27.712
		h-16.464v-27.582l31.688-10.644v6.771l50.85-17.081L242.627,98.52v-4.996l-39.951-13.414h-7.881v81.248h-13.74v27.712h-33.896
		v-27.712h-38.083v46.884h10.501l-10.501,240.868h55.033h127.013h10.214v-74.695c0-29.379,25.013-53.191,55.852-53.191
		c30.842,0,55.852,23.812,55.852,53.191v74.695h10.216h127.007H605.3l-10.505-240.868H605.3V161.357z M230.306,367.76h-60.421
		v-57.539c0-15.891,13.53-28.772,30.21-28.772c16.685,0,30.211,12.882,30.211,28.772V367.76z M544.485,367.76h-60.42v-57.539
		c0-15.891,13.53-28.772,30.211-28.772c16.685,0,30.209,12.882,30.209,28.772V367.76z"/>
</g>
</svg>
