<?xml version="1.0" encoding="utf-8"?>
<!-- Generator: Adobe Illustrator 13.0.0, SVG Export Plug-In . SVG Version: 6.00 Build 14948)  -->
<!DOCTYPE svg PUBLIC "-//W3C//DTD SVG 1.1//EN" "http://www.w3.org/Graphics/SVG/1.1/DTD/svg11.dtd">
<svg version="1.1" id="Layer_1" xmlns="http://www.w3.org/2000/svg" xmlns:xlink="http://www.w3.org/1999/xlink" x="0px" y="0px"
	 width="716.418px" height="728.848px" viewBox="0 0 716.418 728.848" enable-background="new 0 0 716.418 728.848"
	 xml:space="preserve">
<g>
	<path fill="#010101" d="M543.55,441.886c-6.919,6.52-16.241,10.523-26.479,10.523c-10.237,0-19.555-4.004-26.472-10.523
		c-6.919,6.52-16.238,10.523-26.475,10.523c-10.237,0-19.557-4.004-26.477-10.523c-6.918,6.52-16.234,10.523-26.472,10.523
		c-10.236,0-19.557-4.004-26.475-10.523c-6.918,6.52-16.236,10.523-26.472,10.523c-10.238,0-19.557-4.004-26.477-10.523
		c-6.917,6.52-16.234,10.523-26.471,10.523s-19.556-4.004-26.475-10.525c-6.92,6.521-16.24,10.525-26.477,10.525
		c-10.236,0-19.555-4.004-26.473-10.523c-6.92,6.52-16.237,10.523-26.474,10.523s-19.556-4.004-26.474-10.523
		c-6.919,6.52-16.241,10.523-26.478,10.523c-2.751,0-5.426-0.318-8.015-0.868l-11.404,154.307h167.164
		c28.17-42.761,49.956-85.927,64.033-137.592c14.078,51.665,35.858,94.831,64.033,137.592h167.164l-12.475-154.079
		c-2.245,0.407-4.549,0.641-6.909,0.641C559.787,452.409,550.467,448.405,543.55,441.886z"/>
	<path fill="#010101" d="M355.554,179.952c-51.791,87.754-131.778,160.875-235.634,233.885h0.041
		c0.008,14.596,11.854,26.433,26.471,26.433c14.621,0,26.473-11.837,26.478-26.433c0.007,14.596,11.853,26.433,26.474,26.433
		c14.614,0,26.467-11.837,26.474-26.433c0.005,14.596,11.856,26.433,26.473,26.433c14.62,0,26.469-11.837,26.477-26.433
		c0.008,14.596,11.85,26.433,26.475,26.433c14.613,0,26.463-11.837,26.472-26.433c0.008,14.596,11.854,26.433,26.477,26.433
		c14.614,0,26.463-11.837,26.471-26.433c0.008,14.596,11.854,26.433,26.475,26.433c14.62,0,26.464-11.837,26.472-26.433
		c0.008,14.596,11.854,26.433,26.477,26.433c14.615,0,26.468-11.837,26.476-26.433c0.008,14.596,11.854,26.433,26.472,26.433
		c14.619,0,26.475-11.837,26.481-26.433c0.007,14.596,11.846,26.433,26.47,26.433c14.614,0,26.464-11.837,26.472-26.433h0.005
		c-0.001-0.002-0.004-0.004-0.004-0.004c-0.001-0.004-0.001-0.006-0.001-0.006l-0.012-0.002
		c-103.272-72.598-182.927-145.313-234.739-232.407v-18.269l2.789-0.937l22.101-7.423v5.319l39.94-13.416l-33.452-11.232v-3.926
		L361.744,121h-6.191v34.837L355.554,179.952L355.554,179.952z"/>
</g>
</svg>
