<?xml version="1.0" encoding="utf-8"?>
<!-- Generator: Adobe Illustrator 17.0.0, SVG Export Plug-In . SVG Version: 6.00 Build 0)  -->
<!DOCTYPE svg PUBLIC "-//W3C//DTD SVG 1.1//EN" "http://www.w3.org/Graphics/SVG/1.1/DTD/svg11.dtd">
<svg version="1.1" id="Layer_1" xmlns="http://www.w3.org/2000/svg" xmlns:xlink="http://www.w3.org/1999/xlink" x="0px" y="0px"
	 width="792px" height="612px" viewBox="0 0 792 612" enable-background="new 0 0 792 612" xml:space="preserve">
<g>
	<path d="M424.67,277.247c0,0,7.747-0.58,13.139-3.806c3.777-2.285,6.377-4.601,8.672-8.78c2.285-4.179,3.433-9.448,3.433-16.208
		s-1.147-12.144-3.433-16.323c-2.295-4.179-5.319-6.94-9.113-9.213c-4.867-2.917-13.139-2.984-13.139-2.984
		s-10.155,0.004-15.529,0.004h-31.824v57.375h31.824C414.073,277.312,424.67,277.247,424.67,277.247z"/>
	<path d="M490.621,468.562l103.524-181.688L490.621,105.188H283.564L180.04,286.875l103.524,181.688H490.621z M329.062,181.688
		h92.479c13.33,0,24.681,1.243,34.043,5.116c9.352,3.882,16.964,8.664,22.845,15.023c5.871,6.378,10.146,13.464,12.842,21.621
		c2.687,8.166,4.026,16.534,4.026,25.293c0,8.558-1.348,16.926-4.026,25.188c-2.687,8.262-6.971,15.558-12.842,21.927
		s-13.483,10.748-22.845,14.631c-9.362,3.882-20.712,5.078-34.042,5.078h-44.666v76.5h-47.812V181.688z"/>
	<path d="M253.48,506.535l5.46,9.84h11.255h233.803h11.255l5.47-9.84L637.625,296.16l5.145-9.285l-5.164-9.285L520.705,67.215
		l-5.46-9.84h-11.255H270.186h-11.255l-5.47,9.84L136.56,277.59l-5.145,9.285l5.164,9.285L253.48,506.535z M270.196,76.5h230.992
		h1.406l117.6,210.375L503.989,497.25H270.186L153.294,286.875L270.196,76.5z"/>
</g>
</svg>
