<?xml version="1.0" encoding="utf-8"?>
<!-- Generator: Adobe Illustrator 16.0.0, SVG Export Plug-In . SVG Version: 6.00 Build 0)  -->
<!DOCTYPE svg PUBLIC "-//W3C//DTD SVG 1.1//EN" "http://www.w3.org/Graphics/SVG/1.1/DTD/svg11.dtd">
<svg version="1.1" id="Layer_1" xmlns="http://www.w3.org/2000/svg" xmlns:xlink="http://www.w3.org/1999/xlink" x="0px" y="0px"
	 width="48px" height="48px" viewBox="0 0 48 48" enable-background="new 0 0 48 48" xml:space="preserve">
<g>
	<path d="M23.703,15.757c-1.166,0-1.935,0.112-2.378,0.225v7.48c0.506,0.113,1.1,0.15,1.927,0.15c3.045,0,4.925-1.542,4.925-4.134
		C28.176,17.147,26.559,15.757,23.703,15.757z"/>
	<path d="M41.136,0.777H7.084c-3.007,0-5.443,2.437-5.443,5.443v35.064c0,3.007,2.437,5.443,5.443,5.443h34.052
		c3.007,0,5.443-2.437,5.443-5.443V6.22C46.579,3.213,44.143,0.777,41.136,0.777z M43.225,40.412c0,1.636-1.326,2.961-2.961,2.961
		H7.894c-1.636,0-2.962-1.326-2.962-2.961V7.156c0-1.635,1.326-2.961,2.962-2.961h32.369c1.636,0,2.961,1.326,2.961,2.961V40.412z"
		/>
	<path d="M40.263,6.284H7.894c-0.482,0-0.874,0.39-0.874,0.873v33.256c0,0.481,0.391,0.873,0.874,0.873h32.369
		c0.481,0,0.873-0.391,0.873-0.873V7.156C41.136,6.674,40.745,6.284,40.263,6.284z M31.53,25.343
		c-1.954,1.841-4.857,2.668-8.241,2.668c-0.751,0-1.394-0.038-1.964-0.113v9.082h-5.633V11.96c1.772-0.301,4.236-0.527,7.732-0.527
		c3.534,0,6.046,0.677,7.738,2.031c1.616,1.277,2.704,3.383,2.704,5.863C33.865,21.81,33.035,23.915,31.53,25.343z"/>
</g>
</svg>
