<?xml version="1.0" encoding="utf-8"?>
<!-- Generator: Adobe Illustrator 13.0.0, SVG Export Plug-In . SVG Version: 6.00 Build 14948)  -->
<!DOCTYPE svg PUBLIC "-//W3C//DTD SVG 1.1//EN" "http://www.w3.org/Graphics/SVG/1.1/DTD/svg11.dtd">
<svg version="1.1" id="Layer_1" xmlns="http://www.w3.org/2000/svg" xmlns:xlink="http://www.w3.org/1999/xlink" x="0px" y="0px"
	 width="800px" height="800px" viewBox="0 0 800 800" enable-background="new 0 0 800 800" xml:space="preserve">
<g>
	<path fill="#242423" d="M737.709,496.236c0,8.104-6.57,14.678-14.68,14.678H76.957c-8.105,0-14.68-6.574-14.68-14.678v-79.291
		c0-8.109,6.574-14.684,14.68-14.684h646.072c8.109,0,14.68,6.574,14.68,14.684V496.236z"/>
	<rect x="98.99" y="519.73" fill="#242423" width="38.174" height="44.047"/>
	<rect x="662.826" y="519.73" fill="#242423" width="38.18" height="44.047"/>
	<path fill="#242423" d="M53.843,393.568v-24.493c0-36.068,29.239-65.311,65.311-65.311h561.684
		c36.072,0,65.318,29.242,65.318,65.311v24.493"/>
	<path fill="#242423" d="M160.326,296.658v-5.268c0-7.765,9.208-55.168,20.558-55.168l94.164,5.873l82.693-5.873
		c11.354,0,20.562,47.403,20.562,55.168v5.268"/>
	<path fill="#242423" d="M421.689,296.658v-5.268c0-7.765,9.208-55.168,20.557-55.168l94.164,5.873l82.693-5.873
		c11.354,0,20.562,47.403,20.562,55.168v5.268"/>
</g>
</svg>
