<?xml version="1.0" encoding="utf-8"?>
<!-- Generator: Adobe Illustrator 17.0.0, SVG Export Plug-In . SVG Version: 6.00 Build 0)  -->
<!DOCTYPE svg PUBLIC "-//W3C//DTD SVG 1.1//EN" "http://www.w3.org/Graphics/SVG/1.1/DTD/svg11.dtd">
<svg version="1.1" id="Capa_1" xmlns="http://www.w3.org/2000/svg" xmlns:xlink="http://www.w3.org/1999/xlink" x="0px" y="0px"
	 width="52px" height="52px" viewBox="0 0 52 52" enable-background="new 0 0 52 52" xml:space="preserve">
<g>
	<path fill="#000100" d="M6.249,46.191c0.897,0.212,2.147-0.796,2.898-1.606c2.15-2.318,7.24-6.38,16.412-6.247h0.882
		c9.172-0.134,14.261,3.929,16.412,6.247c0.751,0.81,2.001,1.818,2.898,1.606c0.897-0.212,1.244-1.904,1.244-3.008v-10.18
		c0-1.105-0.895-2-2-2H7.005c-1.105,0-2,0.895-2,2v10.18C5.005,44.288,5.352,45.979,6.249,46.191z"/>
	<path fill="#000100" d="M24.95,18.629c-12.258,0.126-16.94,5.83-18.563,8.854c-0.522,0.973,0.121,1.839,1.225,1.839h38.663
		c0,0-2.641-10.522-19.332-10.693C26.589,18.615,25.3,18.615,24.95,18.629z"/>
	<path fill="#000100" d="M14.5,18.061c1.724-1.138,5.173-2.604,11.5-2.604c6.023,0,9.567,1.525,11.38,2.672
		c0.933,0.59,1.878,1.661,2.441,1.758c0.601,0.104,0.795-0.513,0.795-0.513s2.935-8.601-2.113-12.397
		c-0.883-0.664-2.529-1.404-3.564-1.789c-1.78-0.661-4.825-1.482-8.968-1.482c-5.38,0-10.79,2.299-10.79,2.299
		c-7.399,2.983-3.855,13.369-3.855,13.369s0.194,0.616,0.795,0.513C12.685,19.791,13.578,18.669,14.5,18.061z"/>
</g>
</svg>
