<?xml version="1.0" encoding="utf-8"?>
<!-- Generator: Adobe Illustrator 13.0.0, SVG Export Plug-In . SVG Version: 6.00 Build 14948)  -->
<!DOCTYPE svg PUBLIC "-//W3C//DTD SVG 1.0//EN" "http://www.w3.org/TR/2001/REC-SVG-20010904/DTD/svg10.dtd">
<svg version="1.0" id="Layer_1" xmlns="http://www.w3.org/2000/svg" xmlns:xlink="http://www.w3.org/1999/xlink" x="0px" y="0px"
	 width="461.125px" height="437.656px" viewBox="0 0 461.125 437.656" enable-background="new 0 0 461.125 437.656"
	 xml:space="preserve">
<g>
	<g id="Livello_46_1_" opacity="0.19">
		<path d="M89.313,66.416c0-15.254-12.308-27.632-27.49-27.632c-15.181,0-27.483,12.378-27.483,27.632
			c0,15.253,12.303,27.623,27.483,27.623C77.005,94.039,89.313,81.672,89.313,66.416 M26.371,238.739c0,0-0.266,0.369-0.647,0.963
			h328.375c-0.029-0.033-0.052-0.057-0.072-0.1L241.951,87.033c0,0-13.289-18.085-26.567,0l-69.354,94.42l-25.512-34.751
			c0,0-13.283-18.08-26.562,0L26.371,238.739z M365.208,249.561H14.605V14.679h350.603V249.561L365.208,249.561z M379.817,256.899
			V7.34c0-4.054-3.271-7.34-7.3-7.34H7.306C3.273,0,0,3.287,0,7.34v249.559c0,4.057,3.27,7.342,7.304,7.342h365.213
			C376.546,264.241,379.817,260.956,379.817,256.899"/>
	</g>
	<path fill="none" d="M92.46,303.86c0.381-0.596,0.646-0.959,0.646-0.959l67.585-92.042c13.278-18.08,26.563,0,26.563,0
		l25.512,34.751l69.354-94.42c13.278-18.085,26.565,0,26.565,0l112.077,152.569c0.022,0.043,0.042,0.068,0.076,0.102h-1.477
		l12.577,9.859l0,0h0.008V78.835H81.342v234.884h234.886v-9.859H92.46z M128.561,102.943c15.18,0,27.488,12.378,27.488,27.633
		c0,15.254-12.308,27.623-27.488,27.623c-15.182,0-27.485-12.374-27.485-27.623C101.076,115.321,113.379,102.943,128.561,102.943z"
		/>
	<path d="M128.561,158.199c15.18,0,27.488-12.369,27.488-27.623c0-15.255-12.308-27.633-27.488-27.633
		c-15.182,0-27.485,12.378-27.485,27.633C101.076,145.825,113.379,158.199,128.561,158.199z"/>
	<path d="M316.228,223.014l103.135,80.846h1.477c-0.034-0.033-0.054-0.059-0.076-0.102L308.686,151.189c0,0-13.287-18.085-26.565,0
		l-69.354,94.42l-25.512-34.751c0,0-13.285-18.08-26.563,0l-67.585,92.042c0,0-0.265,0.363-0.646,0.959h223.768v-72.482V223.014z"/>
	<path d="M81.342,313.719V78.835h350.605v234.884h-0.008l0,0l13.736,10.766c0.544-1.023,0.879-2.182,0.879-3.426V71.5
		c0-4.056-3.27-7.342-7.305-7.342H74.043c-4.034,0-7.308,3.287-7.308,7.342v249.559c0,4.057,3.271,7.342,7.305,7.342h242.188
		v-14.682H81.342z"/>
	<polygon points="441.615,331.659 437.466,328.401 418.739,313.719 406.161,303.86 324.365,239.735 324.365,388.053 
		363.787,352.258 400.197,426.766 425.527,414.381 389.317,340.551 	"/>
	<polygon fill="#FFFFFF" points="412.763,303.86 425.341,313.719 431.94,313.719 419.363,303.86 	"/>
	<path fill="#FFFFFF" d="M461.125,336.594l-15.448-12.109c-0.655,1.238-1.642,2.252-2.851,2.941l8.545,6.699l-55.999,9.527
		l35.614,72.596l-32.651,15.961l-35.818-73.293l-42.22,38.336v-68.852h-4.068v78.047l45.007-40.871l35.222,72.078l39.975-19.543
		l-35.007-71.367L461.125,336.594z"/>
	<rect x="316.228" y="303.86" fill="#FFFFFF" width="4.068" height="9.859"/>
	<polygon fill="#FFFFFF" points="412.763,303.86 419.363,303.86 316.228,223.014 316.228,231.377 316.228,303.86 320.296,303.86 
		320.296,231.377 	"/>
	<path fill="#FFFFFF" d="M425.341,313.719l17.484,13.707c1.209-0.689,2.195-1.703,2.851-2.941l-13.736-10.766H425.341z"/>
	<rect x="316.228" y="313.719" fill="#FFFFFF" width="4.068" height="14.682"/>
	<rect x="320.296" y="303.86" fill="#FFFFFF" width="4.068" height="9.859"/>
	<polygon fill="#FFFFFF" points="406.161,303.86 418.739,313.719 425.341,313.719 412.763,303.86 	"/>
	<path fill="#FFFFFF" d="M437.466,328.401l4.148,3.258l-52.298,8.893l36.21,73.83l-25.33,12.385l-36.41-74.508l-39.422,35.795
		v-59.652h-4.068v68.852l42.22-38.336l35.818,73.293l32.651-15.961l-35.614-72.596l55.999-9.527l-8.545-6.699
		c-1.062,0.602-2.27,0.975-3.575,0.975H437.466z"/>
	<rect x="320.296" y="313.719" fill="#FFFFFF" width="4.068" height="14.682"/>
	<polygon fill="#FFFFFF" points="406.161,303.86 412.763,303.86 320.296,231.377 320.296,303.86 324.365,303.86 324.365,239.735 	
		"/>
	<path fill="#FFFFFF" d="M418.739,313.719l18.728,14.682h1.784c1.306,0,2.513-0.373,3.575-0.975l-17.484-13.707H418.739z"/>
</g>
</svg>
